G04*
G04 #@! TF.GenerationSoftware,Altium Limited,Altium Designer,21.8.1 (53)*
G04*
G04 Layer_Color=128*
%FSLAX25Y25*%
%MOIN*%
G70*
G04*
G04 #@! TF.SameCoordinates,BF354A56-4256-46FB-B051-6EC6D42A8B0B*
G04*
G04*
G04 #@! TF.FilePolarity,Positive*
G04*
G01*
G75*
%ADD149C,0.00200*%
D149*
X66058Y331392D02*
X68814D01*
X67436Y330014D02*
Y332770D01*
X66058Y339392D02*
X68814D01*
X67436Y338014D02*
Y340770D01*
X66058Y347392D02*
X68814D01*
X67436Y346014D02*
Y348770D01*
X66058Y355392D02*
X68814D01*
X67436Y354014D02*
Y356770D01*
X395279Y376518D02*
X409058D01*
X402169Y369628D02*
Y383408D01*
X27562Y376518D02*
X41342D01*
X34452Y369628D02*
Y383408D01*
X27562Y159195D02*
X41342D01*
X34452Y152305D02*
Y166085D01*
X395279Y158802D02*
X409058D01*
X402169Y151912D02*
Y165691D01*
X309058Y443447D02*
X313074D01*
X311066Y441439D02*
Y445455D01*
X319058Y443447D02*
X323074D01*
X321066Y441439D02*
Y445455D01*
X329058Y443447D02*
X333074D01*
X331066Y441439D02*
Y445455D01*
X34550Y432817D02*
X36519D01*
X35535Y431833D02*
Y433802D01*
X59157Y432817D02*
X61125D01*
X60141Y431833D02*
Y433802D01*
X54235Y432817D02*
X56204D01*
X55220Y431833D02*
Y433802D01*
X39472Y432817D02*
X41440D01*
X40456Y431833D02*
Y433802D01*
X49314Y432817D02*
X51283D01*
X50298Y431833D02*
Y433802D01*
X44393Y432817D02*
X46361D01*
X45377Y431833D02*
Y433802D01*
X73133Y432424D02*
X75102D01*
X74117Y431439D02*
Y433408D01*
X97739Y432424D02*
X99708D01*
X98724Y431439D02*
Y433408D01*
X92818Y432424D02*
X94787D01*
X93802Y431439D02*
Y433408D01*
X78054Y432424D02*
X80023D01*
X79039Y431439D02*
Y433408D01*
X87897Y432424D02*
X89865D01*
X88881Y431439D02*
Y433408D01*
X82976Y432424D02*
X84944D01*
X83960Y431439D02*
Y433408D01*
X23232Y394924D02*
X25200D01*
X24216Y393939D02*
Y395908D01*
X23232Y419530D02*
X25200D01*
X24216Y418546D02*
Y420514D01*
X23232Y414609D02*
X25200D01*
X24216Y413624D02*
Y415593D01*
X23232Y399845D02*
X25200D01*
X24216Y398861D02*
Y400829D01*
X23232Y409687D02*
X25200D01*
X24216Y408703D02*
Y410672D01*
X23232Y404766D02*
X25200D01*
X24216Y403782D02*
Y405750D01*
X171409Y118405D02*
X175307D01*
X173358Y116456D02*
Y120354D01*
X153693Y118405D02*
X157591D01*
X155642Y116456D02*
Y120354D01*
X153693Y143995D02*
X157591D01*
X155642Y142046D02*
Y145944D01*
X171409Y143995D02*
X175307D01*
X173358Y142046D02*
Y145944D01*
X15510Y237185D02*
X19526D01*
X17518Y235177D02*
Y239193D01*
X15510Y227185D02*
X19526D01*
X17518Y225177D02*
Y229193D01*
X421035Y319700D02*
X425365D01*
X423200Y317535D02*
Y321865D01*
X421035Y309700D02*
X425365D01*
X423200Y307535D02*
Y311865D01*
X421035Y289700D02*
X425365D01*
X423200Y287535D02*
Y291865D01*
X421035Y279700D02*
X425365D01*
X423200Y277535D02*
Y281865D01*
X421035Y299700D02*
X425365D01*
X423200Y297535D02*
Y301865D01*
X184192Y308800D02*
X188208D01*
X186200Y306792D02*
Y310808D01*
X106092Y407600D02*
X110108D01*
X108100Y405592D02*
Y409608D01*
X106092Y417600D02*
X110108D01*
X108100Y415592D02*
Y419608D01*
X127894Y132677D02*
X131437D01*
X129665Y130905D02*
Y134449D01*
X117894Y132677D02*
X121437D01*
X119665Y130905D02*
Y134449D01*
X135728Y112677D02*
X143602D01*
X139665Y108740D02*
Y116614D01*
X95728Y112677D02*
X103602D01*
X99665Y108740D02*
Y116614D01*
X64724Y132677D02*
X68268D01*
X66496Y130905D02*
Y134449D01*
X54724Y132677D02*
X58268D01*
X56496Y130905D02*
Y134449D01*
X72559Y112677D02*
X80433D01*
X76496Y108740D02*
Y116614D01*
X32559Y112677D02*
X40433D01*
X36496Y108740D02*
Y116614D01*
X356499Y119825D02*
X363586D01*
X360043Y116282D02*
Y123369D01*
X370672Y147384D02*
X374609D01*
X372641Y145416D02*
Y149353D01*
X390357Y147384D02*
X394295D01*
X392326Y145416D02*
Y149353D01*
X370672Y90298D02*
X374609D01*
X372641Y88329D02*
Y92266D01*
X380515Y90298D02*
X384452D01*
X382484Y88329D02*
Y92266D01*
X390357Y90298D02*
X394295D01*
X392326Y88329D02*
Y92266D01*
X401381Y119825D02*
X408468D01*
X404924Y116282D02*
Y123369D01*
X229827Y98200D02*
X233173D01*
X231500Y96527D02*
Y99873D01*
X210142Y98200D02*
X213488D01*
X211815Y96527D02*
Y99873D01*
X234256Y87570D02*
X236618D01*
X235437Y86389D02*
Y88751D01*
X206697Y87570D02*
X209059D01*
X207878Y86389D02*
Y88751D01*
X348232Y442572D02*
X350200D01*
X349216Y441588D02*
Y443557D01*
X353153Y442572D02*
X355121D01*
X354137Y441588D02*
Y443557D01*
X293787Y441935D02*
X295755D01*
X294771Y440951D02*
Y442919D01*
X288865Y441935D02*
X290834D01*
X289850Y440951D02*
Y442919D01*
X236110Y439471D02*
X238078D01*
X237094Y438486D02*
Y440455D01*
X231189Y439471D02*
X233157D01*
X232173Y438486D02*
Y440455D01*
X249216Y442660D02*
X253232D01*
X251224Y440652D02*
Y444668D01*
X259216Y442660D02*
X263231D01*
X261224Y440652D02*
Y444668D01*
X269216Y442660D02*
X273232D01*
X271224Y440652D02*
Y444668D01*
X15510Y192680D02*
X19526D01*
X17518Y190672D02*
Y194688D01*
X15510Y202680D02*
X19526D01*
X17518Y200672D02*
Y204688D01*
X15510Y212680D02*
X19526D01*
X17518Y210672D02*
Y214688D01*
X5510Y192680D02*
X9526D01*
X7518Y190672D02*
Y194688D01*
X5510Y202680D02*
X9526D01*
X7518Y200672D02*
Y204688D01*
X5510Y212680D02*
X9526D01*
X7518Y210672D02*
Y214688D01*
X13335Y292000D02*
X17665D01*
X15500Y289835D02*
Y294165D01*
X13335Y272000D02*
X17665D01*
X15500Y269835D02*
Y274165D01*
X13335Y262000D02*
X17665D01*
X15500Y259835D02*
Y264165D01*
X13335Y282000D02*
X17665D01*
X15500Y279835D02*
Y284165D01*
X13335Y302000D02*
X17665D01*
X15500Y299835D02*
Y304165D01*
X13335Y312000D02*
X17665D01*
X15500Y309835D02*
Y314165D01*
X10042Y437148D02*
X21854D01*
X15948Y431243D02*
Y443053D01*
X415554Y437148D02*
X427365D01*
X421460Y431243D02*
Y443053D01*
X383389Y443841D02*
X387405D01*
X385397Y441833D02*
Y445849D01*
X393389Y443841D02*
X397405D01*
X395397Y441833D02*
Y445849D01*
X373389Y443841D02*
X377405D01*
X375397Y441833D02*
Y445849D01*
X10042Y98565D02*
X21854D01*
X15948Y92660D02*
Y104471D01*
X415554Y98565D02*
X427365D01*
X421460Y92660D02*
Y104471D01*
X303743Y139117D02*
X307680D01*
X305712Y137148D02*
Y141085D01*
X303743Y115495D02*
X307680D01*
X305712Y113526D02*
Y117463D01*
X322247Y127305D02*
X326184D01*
X324216Y125337D02*
Y129274D01*
X258563Y404035D02*
X260531D01*
X259547Y403051D02*
Y405020D01*
X251083Y404528D02*
X253051D01*
X252067Y403543D02*
Y405512D01*
X317618Y403740D02*
X319587D01*
X318602Y402756D02*
Y404724D01*
X310433Y404035D02*
X312402D01*
X311417Y403051D02*
Y405020D01*
X278250Y148900D02*
X279750D01*
X279000Y148150D02*
Y149650D01*
X51711Y348327D02*
X53211D01*
X52461Y347577D02*
Y349077D01*
X49939Y353150D02*
X51439D01*
X50689Y352400D02*
Y353900D01*
X246888Y253642D02*
X248388D01*
X247638Y252892D02*
Y254392D01*
X283416Y263300D02*
X285384D01*
X284400Y262316D02*
Y264284D01*
X252744Y250306D02*
X254244D01*
X253494Y249556D02*
Y251056D01*
X263750Y248500D02*
X265250D01*
X264500Y247750D02*
Y249250D01*
X257950Y251500D02*
X259450D01*
X258700Y250750D02*
Y252250D01*
X216750Y239300D02*
X218250D01*
X217500Y238550D02*
Y240050D01*
X231416Y267000D02*
X233384D01*
X232400Y266016D02*
Y267984D01*
X237050Y272900D02*
X238550D01*
X237800Y272150D02*
Y273650D01*
X237050Y279200D02*
X238550D01*
X237800Y278450D02*
Y279950D01*
X130216Y294800D02*
X132184D01*
X131200Y293816D02*
Y295784D01*
X236250Y262800D02*
X237750D01*
X237000Y262050D02*
Y263550D01*
X211850Y239200D02*
X213350D01*
X212600Y238450D02*
Y239950D01*
X189131Y250144D02*
X191100D01*
X190116Y249160D02*
Y251128D01*
X201550Y239600D02*
X203050D01*
X202300Y238850D02*
Y240350D01*
X185416Y291800D02*
X187384D01*
X186400Y290816D02*
Y292784D01*
X179288Y286700D02*
X180788D01*
X180038Y285950D02*
Y287450D01*
X103975Y151005D02*
X105944D01*
X104959Y150021D02*
Y151990D01*
X78816Y143519D02*
X80784D01*
X79800Y142535D02*
Y144503D01*
X103999Y145100D02*
X105967D01*
X104983Y144116D02*
Y146084D01*
X175850Y98400D02*
X177350D01*
X176600Y97650D02*
Y99150D01*
X162150Y98500D02*
X163650D01*
X162900Y97750D02*
Y99250D01*
X192450Y294600D02*
X193950D01*
X193200Y293850D02*
Y295350D01*
X202950Y304200D02*
X204450D01*
X203700Y303450D02*
Y304950D01*
X197250Y304100D02*
X198750D01*
X198000Y303350D02*
Y304850D01*
X153774Y111019D02*
X155274D01*
X154524Y110269D02*
Y111769D01*
X182906Y228600D02*
X184406D01*
X183656Y227850D02*
Y229350D01*
X227650Y229200D02*
X229150D01*
X228400Y228450D02*
Y229950D01*
X242150Y308100D02*
X243650D01*
X242900Y307350D02*
Y308850D01*
X235850Y308300D02*
X237350D01*
X236600Y307550D02*
Y309050D01*
X249950Y317000D02*
X251450D01*
X250700Y316250D02*
Y317750D01*
X208443Y313331D02*
X209943D01*
X209193Y312581D02*
Y314081D01*
X343885Y431767D02*
X345854D01*
X344870Y430783D02*
Y432752D01*
X283216Y430300D02*
X285184D01*
X284200Y429316D02*
Y431284D01*
X226416Y429400D02*
X228384D01*
X227400Y428416D02*
Y430384D01*
X197950Y415900D02*
X199450D01*
X198700Y415150D02*
Y416650D01*
X330816Y414800D02*
X332784D01*
X331800Y413816D02*
Y415784D01*
X254216Y398700D02*
X256184D01*
X255200Y397716D02*
Y399684D01*
X171750Y250144D02*
X173250D01*
X172500Y249394D02*
Y250894D01*
X177350Y250100D02*
X178850D01*
X178100Y249350D02*
Y250850D01*
X168050Y230800D02*
X169550D01*
X168800Y230050D02*
Y231550D01*
X179650Y237900D02*
X181150D01*
X180400Y237150D02*
Y238650D01*
X174550Y257200D02*
X176050D01*
X175300Y256450D02*
Y257950D01*
X182950Y249800D02*
X184450D01*
X183700Y249050D02*
Y250550D01*
X185350Y240800D02*
X186850D01*
X186100Y240050D02*
Y241550D01*
X171112Y269400D02*
X172612D01*
X171862Y268650D02*
Y270150D01*
X158850Y268800D02*
X160350D01*
X159600Y268050D02*
Y269550D01*
X233450Y257800D02*
X234950D01*
X234200Y257050D02*
Y258550D01*
X227850Y257900D02*
X229350D01*
X228600Y257150D02*
Y258650D01*
X221750Y257900D02*
X223250D01*
X222500Y257150D02*
Y258650D01*
X257550Y319692D02*
X259050D01*
X258300Y318942D02*
Y320443D01*
X173206Y264200D02*
X174706D01*
X173956Y263450D02*
Y264950D01*
X247516Y331600D02*
X249484D01*
X248500Y330616D02*
Y332584D01*
X287405Y396597D02*
X289373D01*
X288389Y395613D02*
Y397581D01*
X240595Y352699D02*
X242563D01*
X241579Y351715D02*
Y353683D01*
X347216Y402800D02*
X349184D01*
X348200Y401816D02*
Y403784D01*
X261480Y166730D02*
X262980D01*
X262230Y165980D02*
Y167480D01*
X231045Y245000D02*
X232545D01*
X231795Y244250D02*
Y245750D01*
X240850Y218600D02*
X242350D01*
X241600Y217850D02*
Y219350D01*
X232550Y123700D02*
X234050D01*
X233300Y122950D02*
Y124450D01*
X226750Y107600D02*
X228250D01*
X227500Y106850D02*
Y108350D01*
X252250Y126200D02*
X253750D01*
X253000Y125450D02*
Y126950D01*
X265950Y134100D02*
X267450D01*
X266700Y133350D02*
Y134850D01*
X195287Y132063D02*
X196787D01*
X196037Y131313D02*
Y132813D01*
X129670Y263244D02*
X131170D01*
X130420Y262494D02*
Y263994D01*
X130457Y267969D02*
X131957D01*
X131207Y267218D02*
Y268719D01*
X130063Y257732D02*
X131563D01*
X130813Y256982D02*
Y258482D01*
X129670Y252614D02*
X131170D01*
X130420Y251864D02*
Y253364D01*
X72350Y331500D02*
X73850D01*
X73100Y330750D02*
Y332250D01*
X72363Y339487D02*
X73863D01*
X73113Y338737D02*
Y340237D01*
X256241Y238034D02*
X257741D01*
X256991Y237284D02*
Y238784D01*
X246694Y244235D02*
X248194D01*
X247444Y243485D02*
Y244985D01*
X236261Y244235D02*
X237761D01*
X237011Y243485D02*
Y244985D01*
X206930Y123762D02*
X208430D01*
X207680Y123012D02*
Y124512D01*
X230318Y402896D02*
X232287D01*
X231302Y401912D02*
Y403880D01*
X247247Y409195D02*
X249216D01*
X248232Y408211D02*
Y410180D01*
X230712Y397778D02*
X232680D01*
X231696Y396794D02*
Y398762D01*
X223232Y409195D02*
X225200D01*
X224216Y408211D02*
Y410180D01*
X222444Y415494D02*
X224413D01*
X223428Y414510D02*
Y416479D01*
X222050Y422581D02*
X224019D01*
X223035Y421597D02*
Y423565D01*
X242523Y401715D02*
X244491D01*
X243507Y400731D02*
Y402699D01*
X311027Y396990D02*
X312995D01*
X312011Y396006D02*
Y397975D01*
X231499Y417463D02*
X233468D01*
X232484Y416479D02*
Y418447D01*
X269688Y426912D02*
X271657D01*
X270672Y425928D02*
Y427896D01*
X270082Y416282D02*
X272050D01*
X271066Y415298D02*
Y417266D01*
X286224Y401715D02*
X288192D01*
X287208Y400731D02*
Y402699D01*
X195513Y239904D02*
X197013D01*
X196263Y239154D02*
Y240654D01*
X255515Y341346D02*
X257484D01*
X256499Y340362D02*
Y342330D01*
X263389Y337089D02*
X265357D01*
X264373Y336105D02*
Y338074D01*
X272799Y336361D02*
X274768D01*
X273783Y335376D02*
Y337345D01*
X307484Y329668D02*
X309452D01*
X308468Y328683D02*
Y330652D01*
X288586Y417857D02*
X290554D01*
X289570Y416872D02*
Y418841D01*
X282287Y409195D02*
X284255D01*
X283271Y408211D02*
Y410180D01*
X300003Y401321D02*
X301972D01*
X300987Y400337D02*
Y402306D01*
X303547Y409610D02*
X305515D01*
X304531Y408626D02*
Y410595D01*
X300003Y351321D02*
X301972D01*
X300987Y350337D02*
Y352306D01*
X278251Y423762D02*
X280220D01*
X279235Y422778D02*
Y424747D01*
X281559Y414767D02*
X283527D01*
X282543Y413783D02*
Y415751D01*
X315751Y335967D02*
X317720D01*
X316735Y334983D02*
Y336951D01*
X322838Y332424D02*
X324806D01*
X323822Y331439D02*
Y333408D01*
X332287Y332424D02*
X334255D01*
X333271Y331439D02*
Y333408D01*
X255806Y353836D02*
X257775D01*
X256791Y352852D02*
Y354820D01*
X263477Y353944D02*
X265445D01*
X264461Y352960D02*
Y354929D01*
X272838Y354077D02*
X274806D01*
X273822Y353093D02*
Y355061D01*
X374806Y354077D02*
X376775D01*
X375791Y353093D02*
Y355061D01*
X315751Y353683D02*
X317720D01*
X316735Y352699D02*
Y354668D01*
X323625Y353683D02*
X325594D01*
X324609Y352699D02*
Y354668D01*
X332287Y353683D02*
X334255D01*
X333271Y352699D02*
Y354668D01*
X291878Y410770D02*
X292665D01*
X292271Y410376D02*
Y411164D01*
X295204Y410770D02*
X295992D01*
X295598Y410376D02*
Y411164D01*
X139214Y415494D02*
X140714D01*
X139964Y414745D02*
Y416245D01*
X210080Y415888D02*
X211580D01*
X210830Y415138D02*
Y416638D01*
X257750Y225900D02*
X259250D01*
X258500Y225150D02*
Y226650D01*
X249750Y226100D02*
X251250D01*
X250500Y225350D02*
Y226850D01*
X250237Y199747D02*
X251737D01*
X250987Y198996D02*
Y200497D01*
X285050Y225700D02*
X286550D01*
X285800Y224950D02*
Y226450D01*
X212350Y280500D02*
X213850D01*
X213100Y279750D02*
Y281250D01*
X238118Y411164D02*
X238905D01*
X238511Y410770D02*
Y411557D01*
X234791Y411164D02*
X235578D01*
X235185Y410770D02*
Y411557D01*
X162836Y414707D02*
X164336D01*
X163586Y413957D02*
Y415457D01*
X174647Y414707D02*
X176147D01*
X175397Y413957D02*
Y415457D01*
X127403Y415494D02*
X128903D01*
X128153Y414745D02*
Y416245D01*
X258505Y140298D02*
X260005D01*
X259255Y139548D02*
Y141048D01*
X262048Y215888D02*
X263548D01*
X262798Y215138D02*
Y216638D01*
X266350Y225800D02*
X267850D01*
X267100Y225050D02*
Y226550D01*
X267560Y215888D02*
X269060D01*
X268310Y215138D02*
Y216638D01*
X275750Y225600D02*
X277250D01*
X276500Y224850D02*
Y226350D01*
X347641Y396597D02*
X349609D01*
X348625Y395613D02*
Y397581D01*
X339373Y409195D02*
X341342D01*
X340357Y408211D02*
Y410180D01*
X357477Y410967D02*
X358265D01*
X357871Y410573D02*
Y411361D01*
X354151Y410967D02*
X354938D01*
X354544Y410573D02*
Y411361D01*
X338763Y414920D02*
X340732D01*
X339747Y413936D02*
Y415904D01*
X350003Y416676D02*
X351972D01*
X350987Y415691D02*
Y417660D01*
X340554Y423369D02*
X342523D01*
X341539Y422384D02*
Y424353D01*
X330712Y427699D02*
X332680D01*
X331696Y426715D02*
Y428684D01*
X365751Y328487D02*
X367720D01*
X366735Y327502D02*
Y329471D01*
X391342Y332030D02*
X393310D01*
X392326Y331046D02*
Y333014D01*
X380712Y332030D02*
X382680D01*
X381696Y331046D02*
Y333014D01*
X372838Y336361D02*
X374806D01*
X373822Y335376D02*
Y337345D01*
X357090Y350534D02*
X359058D01*
X358074Y349550D02*
Y351518D01*
X383468Y354077D02*
X385436D01*
X384452Y353093D02*
Y355061D01*
X391735Y354077D02*
X393704D01*
X392720Y353093D02*
Y355061D01*
X375200Y396991D02*
X377168D01*
X376184Y396006D02*
Y397975D01*
X363783Y402896D02*
X365751D01*
X364767Y401912D02*
Y403880D01*
X376381Y404077D02*
X378350D01*
X377365Y403093D02*
Y405061D01*
X370082Y404077D02*
X372050D01*
X371066Y403093D02*
Y405061D01*
X381893Y404077D02*
X383861D01*
X382877Y403093D02*
Y405061D01*
X370082Y409589D02*
X372050D01*
X371066Y408605D02*
Y410573D01*
X397641Y415494D02*
X399609D01*
X398625Y414510D02*
Y416479D01*
X397247Y427306D02*
X399216D01*
X398232Y426321D02*
Y428290D01*
X274647Y215888D02*
X276147D01*
X275397Y215138D02*
Y216638D01*
X319135Y165101D02*
X320635D01*
X319885Y164351D02*
Y165851D01*
X313229Y165101D02*
X314729D01*
X313980Y164351D02*
Y165851D01*
X300631Y165495D02*
X302131D01*
X301381Y164744D02*
Y166244D01*
X306930Y165495D02*
X308430D01*
X307680Y164744D02*
Y166244D01*
X300237Y171794D02*
X301737D01*
X300987Y171044D02*
Y172544D01*
X319135Y171794D02*
X320635D01*
X319885Y171044D02*
Y172544D01*
X306537Y171794D02*
X308037D01*
X307287Y171044D02*
Y172544D01*
X312836Y171794D02*
X314336D01*
X313586Y171044D02*
Y172544D01*
X325434Y171794D02*
X326934D01*
X326184Y171044D02*
Y172544D01*
X285550Y200400D02*
X287050D01*
X286300Y199650D02*
Y201150D01*
X285450Y208500D02*
X286950D01*
X286200Y207750D02*
Y209250D01*
X285350Y216600D02*
X286850D01*
X286100Y215850D02*
Y217350D01*
X263229Y271794D02*
X264729D01*
X263980Y271044D02*
Y272544D01*
X273466Y276912D02*
X274966D01*
X274216Y276162D02*
Y277662D01*
X263623Y282030D02*
X265123D01*
X264373Y281280D02*
Y282780D01*
X284096Y149747D02*
X285596D01*
X284846Y148996D02*
Y150496D01*
X291970Y151715D02*
X293470D01*
X292720Y150965D02*
Y152465D01*
X325434Y165101D02*
X326934D01*
X326184Y164351D02*
Y165851D01*
X271791Y140172D02*
X273291D01*
X272541Y139422D02*
Y140922D01*
X252206Y290691D02*
X253706D01*
X252956Y289941D02*
Y291441D01*
X209150Y265400D02*
X210650D01*
X209900Y264650D02*
Y266150D01*
X220450Y280100D02*
X221950D01*
X221200Y279350D02*
Y280850D01*
X220750Y272200D02*
X222250D01*
X221500Y271450D02*
Y272950D01*
M02*
