G04*
G04 #@! TF.GenerationSoftware,Altium Limited,Altium Designer,21.8.1 (53)*
G04*
G04 Layer_Color=128*
%FSLAX25Y25*%
%MOIN*%
G70*
G04*
G04 #@! TF.SameCoordinates,92EEE739-4F3B-4374-ACD8-CC48A347F5D9*
G04*
G04*
G04 #@! TF.FilePolarity,Positive*
G04*
G01*
G75*
%ADD144C,0.00200*%
D144*
X44393Y351420D02*
X46361D01*
X45377Y350435D02*
Y352404D01*
X49314Y351420D02*
X51283D01*
X50298Y350435D02*
Y352404D01*
X39472Y351420D02*
X41440D01*
X40456Y350435D02*
Y352404D01*
X54235Y351420D02*
X56204D01*
X55220Y350435D02*
Y352404D01*
X59157Y351420D02*
X61125D01*
X60141Y350435D02*
Y352404D01*
X34550Y351420D02*
X36519D01*
X35535Y350435D02*
Y352404D01*
X23232Y323369D02*
X25200D01*
X24216Y322384D02*
Y324353D01*
X23232Y328290D02*
X25200D01*
X24216Y327306D02*
Y329274D01*
X23232Y318447D02*
X25200D01*
X24216Y317463D02*
Y319431D01*
X23232Y333211D02*
X25200D01*
X24216Y332227D02*
Y334195D01*
X23232Y338132D02*
X25200D01*
X24216Y337148D02*
Y339117D01*
X23232Y313526D02*
X25200D01*
X24216Y312542D02*
Y314510D01*
X353153Y361175D02*
X355121D01*
X354137Y360191D02*
Y362159D01*
X348232Y361175D02*
X350200D01*
X349216Y360191D02*
Y362159D01*
X66058Y249994D02*
X68814D01*
X67436Y248617D02*
Y251372D01*
X66058Y257995D02*
X68814D01*
X67436Y256617D02*
Y259372D01*
X66058Y265995D02*
X68814D01*
X67436Y264617D02*
Y267372D01*
X66058Y273994D02*
X68814D01*
X67436Y272617D02*
Y275372D01*
X395279Y295121D02*
X409058D01*
X402169Y288231D02*
Y302010D01*
X27562Y295121D02*
X41342D01*
X34452Y288231D02*
Y302010D01*
X27562Y77798D02*
X41342D01*
X34452Y70908D02*
Y84687D01*
X395279Y77404D02*
X409058D01*
X402169Y70514D02*
Y84294D01*
X309058Y362050D02*
X313074D01*
X311066Y360042D02*
Y364057D01*
X319058Y362050D02*
X323074D01*
X321066Y360042D02*
Y364057D01*
X329058Y362050D02*
X333074D01*
X331066Y360042D02*
Y364057D01*
X73133Y351026D02*
X75102D01*
X74117Y350042D02*
Y352010D01*
X97739Y351026D02*
X99708D01*
X98724Y350042D02*
Y352010D01*
X92818Y351026D02*
X94787D01*
X93802Y350042D02*
Y352010D01*
X78054Y351026D02*
X80023D01*
X79039Y350042D02*
Y352010D01*
X87897Y351026D02*
X89865D01*
X88881Y350042D02*
Y352010D01*
X82976Y351026D02*
X84944D01*
X83960Y350042D02*
Y352010D01*
X171409Y37007D02*
X175307D01*
X173358Y35058D02*
Y38956D01*
X153693Y37007D02*
X157591D01*
X155642Y35058D02*
Y38956D01*
X153693Y62598D02*
X157591D01*
X155642Y60649D02*
Y64547D01*
X171409Y62598D02*
X175307D01*
X173358Y60649D02*
Y64547D01*
X15510Y155787D02*
X19526D01*
X17518Y153779D02*
Y157795D01*
X15510Y145787D02*
X19526D01*
X17518Y143780D02*
Y147795D01*
X421035Y238302D02*
X425365D01*
X423200Y236137D02*
Y240468D01*
X421035Y228302D02*
X425365D01*
X423200Y226137D02*
Y230468D01*
X421035Y208302D02*
X425365D01*
X423200Y206137D02*
Y210468D01*
X421035Y198302D02*
X425365D01*
X423200Y196137D02*
Y200468D01*
X421035Y218302D02*
X425365D01*
X423200Y216137D02*
Y220468D01*
X184192Y227402D02*
X188208D01*
X186200Y225395D02*
Y229410D01*
X106092Y326202D02*
X110108D01*
X108100Y324195D02*
Y328210D01*
X106092Y336202D02*
X110108D01*
X108100Y334194D02*
Y338210D01*
X127894Y51279D02*
X131437D01*
X129665Y49508D02*
Y53051D01*
X117894Y51279D02*
X121437D01*
X119665Y49508D02*
Y53051D01*
X135728Y31280D02*
X143602D01*
X139665Y27343D02*
Y35217D01*
X95728Y31280D02*
X103602D01*
X99665Y27343D02*
Y35217D01*
X64724Y51279D02*
X68268D01*
X66496Y49508D02*
Y53051D01*
X54724Y51279D02*
X58268D01*
X56496Y49508D02*
Y53051D01*
X72559Y31280D02*
X80433D01*
X76496Y27343D02*
Y35217D01*
X32559Y31280D02*
X40433D01*
X36496Y27343D02*
Y35217D01*
X356499Y38428D02*
X363586D01*
X360043Y34884D02*
Y41971D01*
X370672Y65987D02*
X374609D01*
X372641Y64018D02*
Y67955D01*
X390357Y65987D02*
X394295D01*
X392326Y64018D02*
Y67955D01*
X370672Y8900D02*
X374609D01*
X372641Y6932D02*
Y10869D01*
X380515Y8900D02*
X384452D01*
X382484Y6932D02*
Y10869D01*
X390357Y8900D02*
X394295D01*
X392326Y6932D02*
Y10869D01*
X401381Y38428D02*
X408468D01*
X404924Y34884D02*
Y41971D01*
X229827Y16802D02*
X233173D01*
X231500Y15129D02*
Y18476D01*
X210142Y16802D02*
X213488D01*
X211815Y15129D02*
Y18476D01*
X234256Y6172D02*
X236618D01*
X235437Y4991D02*
Y7354D01*
X206697Y6172D02*
X209059D01*
X207878Y4991D02*
Y7354D01*
X293787Y360537D02*
X295755D01*
X294771Y359553D02*
Y361522D01*
X288865Y360537D02*
X290834D01*
X289850Y359553D02*
Y361522D01*
X236110Y358073D02*
X238078D01*
X237094Y357089D02*
Y359057D01*
X231189Y358073D02*
X233157D01*
X232173Y357089D02*
Y359057D01*
X249216Y361262D02*
X253232D01*
X251224Y359254D02*
Y363270D01*
X259216Y361262D02*
X263231D01*
X261224Y359254D02*
Y363270D01*
X269216Y361262D02*
X273232D01*
X271224Y359254D02*
Y363270D01*
X15510Y111283D02*
X19526D01*
X17518Y109275D02*
Y113290D01*
X15510Y121282D02*
X19526D01*
X17518Y119275D02*
Y123290D01*
X15510Y131282D02*
X19526D01*
X17518Y129275D02*
Y133290D01*
X5510Y111283D02*
X9526D01*
X7518Y109275D02*
Y113290D01*
X5510Y121282D02*
X9526D01*
X7518Y119275D02*
Y123290D01*
X5510Y131282D02*
X9526D01*
X7518Y129275D02*
Y133290D01*
X13335Y210602D02*
X17665D01*
X15500Y208437D02*
Y212768D01*
X13335Y190602D02*
X17665D01*
X15500Y188437D02*
Y192768D01*
X13335Y180602D02*
X17665D01*
X15500Y178437D02*
Y182768D01*
X13335Y200602D02*
X17665D01*
X15500Y198437D02*
Y202768D01*
X13335Y220602D02*
X17665D01*
X15500Y218437D02*
Y222768D01*
X13335Y230602D02*
X17665D01*
X15500Y228437D02*
Y232768D01*
X10042Y355750D02*
X21854D01*
X15948Y349845D02*
Y361656D01*
X415554Y355750D02*
X427365D01*
X421460Y349845D02*
Y361656D01*
X383389Y362443D02*
X387405D01*
X385397Y360435D02*
Y364451D01*
X393389Y362443D02*
X397405D01*
X395397Y360435D02*
Y364451D01*
X373389Y362443D02*
X377405D01*
X375397Y360435D02*
Y364451D01*
X10042Y17168D02*
X21854D01*
X15948Y11262D02*
Y23073D01*
X415554Y17168D02*
X427365D01*
X421460Y11262D02*
Y23073D01*
X303743Y57719D02*
X307680D01*
X305712Y55750D02*
Y59687D01*
X303743Y34097D02*
X307680D01*
X305712Y32128D02*
Y36065D01*
X322247Y45908D02*
X326184D01*
X324216Y43939D02*
Y47876D01*
X173561Y167421D02*
X175061D01*
X174311Y166671D02*
Y168171D01*
X182518Y168209D02*
X184018D01*
X183268Y167459D02*
Y168959D01*
X177400Y163091D02*
X178900D01*
X178150Y162341D02*
Y163841D01*
X257911Y240551D02*
X259411D01*
X258661Y239801D02*
Y241301D01*
X362894Y321752D02*
X364862D01*
X363878Y320768D02*
Y322736D01*
X232026Y162795D02*
X233526D01*
X232776Y162045D02*
Y163545D01*
X237734Y162795D02*
X239234D01*
X238484Y162045D02*
Y163545D01*
X263817Y165847D02*
X265317D01*
X264567Y165096D02*
Y166596D01*
X258563Y322638D02*
X260531D01*
X259547Y321654D02*
Y323622D01*
X253248Y323327D02*
X255217D01*
X254232Y322342D02*
Y324311D01*
X317618Y322342D02*
X319587D01*
X318602Y321358D02*
Y323327D01*
X310433Y322638D02*
X312402D01*
X311417Y321654D02*
Y323622D01*
X278250Y67502D02*
X279750D01*
X279000Y66752D02*
Y68252D01*
X51711Y266929D02*
X53211D01*
X52461Y266179D02*
Y267679D01*
X49939Y271752D02*
X51439D01*
X50689Y271002D02*
Y272502D01*
X246888Y172244D02*
X248388D01*
X247638Y171494D02*
Y172994D01*
X283416Y181902D02*
X285384D01*
X284400Y180918D02*
Y182887D01*
X252744Y168909D02*
X254244D01*
X253494Y168159D02*
Y169659D01*
X257950Y170102D02*
X259450D01*
X258700Y169352D02*
Y170852D01*
X216750Y157902D02*
X218250D01*
X217500Y157152D02*
Y158652D01*
X231416Y185602D02*
X233384D01*
X232400Y184618D02*
Y186587D01*
X237050Y191502D02*
X238550D01*
X237800Y190752D02*
Y192252D01*
X237050Y197802D02*
X238550D01*
X237800Y197052D02*
Y198552D01*
X130216Y213402D02*
X132184D01*
X131200Y212418D02*
Y214387D01*
X236250Y181402D02*
X237750D01*
X237000Y180652D02*
Y182152D01*
X211850Y157802D02*
X213350D01*
X212600Y157052D02*
Y158552D01*
X189131Y168746D02*
X191100D01*
X190116Y167762D02*
Y169731D01*
X201550Y158202D02*
X203050D01*
X202300Y157452D02*
Y158952D01*
X185416Y210402D02*
X187384D01*
X186400Y209418D02*
Y211387D01*
X179288Y205302D02*
X180788D01*
X180038Y204552D02*
Y206052D01*
X103975Y69608D02*
X105944D01*
X104959Y68624D02*
Y70592D01*
X78816Y62121D02*
X80784D01*
X79800Y61137D02*
Y63105D01*
X103999Y63702D02*
X105967D01*
X104983Y62718D02*
Y64687D01*
X175850Y17002D02*
X177350D01*
X176600Y16252D02*
Y17752D01*
X162150Y17102D02*
X163650D01*
X162900Y16352D02*
Y17852D01*
X192450Y213202D02*
X193950D01*
X193200Y212452D02*
Y213952D01*
X202950Y222802D02*
X204450D01*
X203700Y222052D02*
Y223552D01*
X197250Y222702D02*
X198750D01*
X198000Y221952D02*
Y223452D01*
X153774Y29621D02*
X155274D01*
X154524Y28871D02*
Y30371D01*
X182906Y147202D02*
X184406D01*
X183656Y146452D02*
Y147952D01*
X227650Y147802D02*
X229150D01*
X228400Y147052D02*
Y148552D01*
X242150Y226702D02*
X243650D01*
X242900Y225952D02*
Y227452D01*
X235850Y226902D02*
X237350D01*
X236600Y226152D02*
Y227652D01*
X249950Y235602D02*
X251450D01*
X250700Y234852D02*
Y236352D01*
X208443Y231933D02*
X209943D01*
X209193Y231183D02*
Y232683D01*
X343885Y350370D02*
X345854D01*
X344870Y349385D02*
Y351354D01*
X283216Y348902D02*
X285184D01*
X284200Y347918D02*
Y349887D01*
X226416Y348002D02*
X228384D01*
X227400Y347018D02*
Y348987D01*
X197950Y334502D02*
X199450D01*
X198700Y333752D02*
Y335252D01*
X330816Y333402D02*
X332784D01*
X331800Y332418D02*
Y334387D01*
X254216Y317302D02*
X256184D01*
X255200Y316318D02*
Y318287D01*
X168050Y149402D02*
X169550D01*
X168800Y148652D02*
Y150152D01*
X179650Y156502D02*
X181150D01*
X180400Y155752D02*
Y157252D01*
X174550Y175802D02*
X176050D01*
X175300Y175052D02*
Y176552D01*
X185350Y159402D02*
X186850D01*
X186100Y158652D02*
Y160152D01*
X171112Y188002D02*
X172612D01*
X171862Y187252D02*
Y188752D01*
X158850Y187402D02*
X160350D01*
X159600Y186652D02*
Y188152D01*
X233450Y176402D02*
X234950D01*
X234200Y175652D02*
Y177152D01*
X227850Y176502D02*
X229350D01*
X228600Y175752D02*
Y177252D01*
X221750Y176502D02*
X223250D01*
X222500Y175752D02*
Y177252D01*
X173206Y182802D02*
X174706D01*
X173956Y182052D02*
Y183552D01*
X247516Y250202D02*
X249484D01*
X248500Y249218D02*
Y251187D01*
X287405Y315199D02*
X289373D01*
X288389Y314215D02*
Y316183D01*
X240595Y271302D02*
X242563D01*
X241579Y270317D02*
Y272286D01*
X347216Y321402D02*
X349184D01*
X348200Y320418D02*
Y322387D01*
X261480Y85333D02*
X262980D01*
X262230Y84583D02*
Y86083D01*
X240850Y137202D02*
X242350D01*
X241600Y136452D02*
Y137952D01*
X232550Y42302D02*
X234050D01*
X233300Y41552D02*
Y43052D01*
X226750Y26202D02*
X228250D01*
X227500Y25452D02*
Y26952D01*
X252250Y44802D02*
X253750D01*
X253000Y44052D02*
Y45552D01*
X265950Y52702D02*
X267450D01*
X266700Y51952D02*
Y53452D01*
X195287Y50665D02*
X196787D01*
X196037Y49915D02*
Y51415D01*
X129670Y181846D02*
X131170D01*
X130420Y181096D02*
Y182597D01*
X130457Y186571D02*
X131957D01*
X131207Y185821D02*
Y187321D01*
X130063Y176335D02*
X131563D01*
X130813Y175585D02*
Y177085D01*
X129670Y171217D02*
X131170D01*
X130420Y170467D02*
Y171967D01*
X256241Y156636D02*
X257741D01*
X256991Y155886D02*
Y157386D01*
X246694Y162837D02*
X248194D01*
X247444Y162087D02*
Y163587D01*
X206930Y42365D02*
X208430D01*
X207680Y41615D02*
Y43115D01*
X230318Y321498D02*
X232287D01*
X231302Y320514D02*
Y322483D01*
X247247Y327798D02*
X249216D01*
X248232Y326813D02*
Y328782D01*
X230712Y316380D02*
X232680D01*
X231696Y315396D02*
Y317365D01*
X223232Y327798D02*
X225200D01*
X224216Y326813D02*
Y328782D01*
X222444Y334097D02*
X224413D01*
X223428Y333113D02*
Y335081D01*
X222050Y341183D02*
X224019D01*
X223035Y340199D02*
Y342168D01*
X242523Y320317D02*
X244491D01*
X243507Y319333D02*
Y321302D01*
X311027Y315593D02*
X312995D01*
X312011Y314609D02*
Y316577D01*
X231499Y336065D02*
X233468D01*
X232484Y335081D02*
Y337050D01*
X269688Y345514D02*
X271657D01*
X270672Y344530D02*
Y346498D01*
X270082Y334884D02*
X272050D01*
X271066Y333900D02*
Y335869D01*
X286224Y320317D02*
X288192D01*
X287208Y319333D02*
Y321302D01*
X195513Y158506D02*
X197013D01*
X196263Y157756D02*
Y159256D01*
X255515Y259948D02*
X257484D01*
X256499Y258964D02*
Y260933D01*
X263389Y255692D02*
X265357D01*
X264373Y254707D02*
Y256676D01*
X272799Y254963D02*
X274768D01*
X273783Y253979D02*
Y255947D01*
X307484Y248270D02*
X309452D01*
X308468Y247286D02*
Y249254D01*
X288586Y336459D02*
X290554D01*
X289570Y335475D02*
Y337443D01*
X282287Y327798D02*
X284255D01*
X283271Y326813D02*
Y328782D01*
X300003Y319924D02*
X301972D01*
X300987Y318939D02*
Y320908D01*
X303547Y328213D02*
X305515D01*
X304531Y327228D02*
Y329197D01*
X300003Y269924D02*
X301972D01*
X300987Y268939D02*
Y270908D01*
X278251Y342365D02*
X280220D01*
X279235Y341380D02*
Y343349D01*
X281559Y333369D02*
X283527D01*
X282543Y332385D02*
Y334353D01*
X315751Y254569D02*
X317720D01*
X316735Y253585D02*
Y255554D01*
X322838Y251026D02*
X324806D01*
X323822Y250042D02*
Y252010D01*
X332287Y251026D02*
X334255D01*
X333271Y250042D02*
Y252010D01*
X255806Y272438D02*
X257775D01*
X256791Y271454D02*
Y273422D01*
X263477Y272547D02*
X265445D01*
X264461Y271563D02*
Y273531D01*
X272838Y272679D02*
X274806D01*
X273822Y271695D02*
Y273664D01*
X374806Y272679D02*
X376775D01*
X375791Y271695D02*
Y273664D01*
X315751Y272286D02*
X317720D01*
X316735Y271302D02*
Y273270D01*
X323625Y272286D02*
X325594D01*
X324609Y271302D02*
Y273270D01*
X332287Y272286D02*
X334255D01*
X333271Y271302D02*
Y273270D01*
X291878Y329372D02*
X292665D01*
X292271Y328979D02*
Y329766D01*
X295204Y329372D02*
X295992D01*
X295598Y328979D02*
Y329766D01*
X139214Y334097D02*
X140714D01*
X139964Y333347D02*
Y334847D01*
X210080Y334491D02*
X211580D01*
X210830Y333741D02*
Y335241D01*
X257750Y144502D02*
X259250D01*
X258500Y143752D02*
Y145252D01*
X249750Y144702D02*
X251250D01*
X250500Y143952D02*
Y145452D01*
X250237Y118349D02*
X251737D01*
X250987Y117599D02*
Y119099D01*
X285050Y144302D02*
X286550D01*
X285800Y143552D02*
Y145052D01*
X212350Y199102D02*
X213850D01*
X213100Y198352D02*
Y199852D01*
X238118Y329766D02*
X238905D01*
X238511Y329372D02*
Y330160D01*
X234791Y329766D02*
X235578D01*
X235185Y329372D02*
Y330160D01*
X162836Y333310D02*
X164336D01*
X163586Y332559D02*
Y334060D01*
X174647Y333310D02*
X176147D01*
X175397Y332559D02*
Y334060D01*
X127403Y334097D02*
X128903D01*
X128153Y333347D02*
Y334847D01*
X258505Y58900D02*
X260005D01*
X259255Y58150D02*
Y59650D01*
X262048Y134491D02*
X263548D01*
X262798Y133741D02*
Y135241D01*
X266350Y144402D02*
X267850D01*
X267100Y143652D02*
Y145152D01*
X267560Y134491D02*
X269060D01*
X268310Y133741D02*
Y135241D01*
X275750Y144202D02*
X277250D01*
X276500Y143452D02*
Y144952D01*
X347641Y315199D02*
X349609D01*
X348625Y314215D02*
Y316183D01*
X339373Y327798D02*
X341342D01*
X340357Y326813D02*
Y328782D01*
X357477Y329569D02*
X358265D01*
X357871Y329176D02*
Y329963D01*
X354151Y329569D02*
X354938D01*
X354544Y329176D02*
Y329963D01*
X338763Y333522D02*
X340732D01*
X339747Y332538D02*
Y334507D01*
X350003Y335278D02*
X351972D01*
X350987Y334294D02*
Y336262D01*
X340554Y341971D02*
X342523D01*
X341539Y340987D02*
Y342955D01*
X330712Y346302D02*
X332680D01*
X331696Y345317D02*
Y347286D01*
X365751Y247089D02*
X367720D01*
X366735Y246105D02*
Y248073D01*
X391342Y250632D02*
X393310D01*
X392326Y249648D02*
Y251617D01*
X380712Y250632D02*
X382680D01*
X381696Y249648D02*
Y251617D01*
X372838Y254963D02*
X374806D01*
X373822Y253979D02*
Y255947D01*
X357090Y269136D02*
X359058D01*
X358074Y268152D02*
Y270121D01*
X383468Y272679D02*
X385436D01*
X384452Y271695D02*
Y273664D01*
X391735Y272679D02*
X393704D01*
X392720Y271695D02*
Y273664D01*
X375200Y315593D02*
X377168D01*
X376184Y314609D02*
Y316577D01*
X376381Y322679D02*
X378350D01*
X377365Y321695D02*
Y323664D01*
X371260Y323524D02*
X373228D01*
X372244Y322539D02*
Y324508D01*
X381893Y322679D02*
X383861D01*
X382877Y321695D02*
Y323664D01*
X370082Y328191D02*
X372050D01*
X371066Y327207D02*
Y329176D01*
X397641Y334097D02*
X399609D01*
X398625Y333113D02*
Y335081D01*
X397247Y345908D02*
X399216D01*
X398232Y344924D02*
Y346892D01*
X274647Y134491D02*
X276147D01*
X275397Y133741D02*
Y135241D01*
X319135Y83703D02*
X320635D01*
X319885Y82953D02*
Y84453D01*
X313229Y83703D02*
X314729D01*
X313980Y82953D02*
Y84453D01*
X300631Y84097D02*
X302131D01*
X301381Y83347D02*
Y84847D01*
X306930Y84097D02*
X308430D01*
X307680Y83347D02*
Y84847D01*
X300237Y90396D02*
X301737D01*
X300987Y89646D02*
Y91146D01*
X319135Y90396D02*
X320635D01*
X319885Y89646D02*
Y91146D01*
X306537Y90396D02*
X308037D01*
X307287Y89646D02*
Y91146D01*
X312836Y90396D02*
X314336D01*
X313586Y89646D02*
Y91146D01*
X325434Y90396D02*
X326934D01*
X326184Y89646D02*
Y91146D01*
X285550Y119002D02*
X287050D01*
X286300Y118252D02*
Y119752D01*
X285450Y127102D02*
X286950D01*
X286200Y126352D02*
Y127852D01*
X285350Y135202D02*
X286850D01*
X286100Y134452D02*
Y135952D01*
X263229Y190396D02*
X264729D01*
X263980Y189646D02*
Y191146D01*
X273466Y195514D02*
X274966D01*
X274216Y194764D02*
Y196264D01*
X263623Y200632D02*
X265123D01*
X264373Y199882D02*
Y201382D01*
X284096Y68349D02*
X285596D01*
X284846Y67599D02*
Y69099D01*
X291970Y70317D02*
X293470D01*
X292720Y69567D02*
Y71067D01*
X325434Y83703D02*
X326934D01*
X326184Y82953D02*
Y84453D01*
X271791Y58775D02*
X273291D01*
X272541Y58025D02*
Y59525D01*
X252206Y209294D02*
X253706D01*
X252956Y208544D02*
Y210044D01*
X209150Y184002D02*
X210650D01*
X209900Y183252D02*
Y184752D01*
X220450Y198702D02*
X221950D01*
X221200Y197952D02*
Y199452D01*
X220750Y190802D02*
X222250D01*
X221500Y190052D02*
Y191552D01*
M02*
