G04*
G04 #@! TF.GenerationSoftware,Altium Limited,Altium Designer,21.8.1 (53)*
G04*
G04 Layer_Color=16711935*
%FSLAX25Y25*%
%MOIN*%
G70*
G04*
G04 #@! TF.SameCoordinates,BF354A56-4256-46FB-B051-6EC6D42A8B0B*
G04*
G04*
G04 #@! TF.FilePolarity,Positive*
G04*
G01*
G75*
%ADD12C,0.00394*%
%ADD144C,0.00300*%
%ADD145R,0.27165X0.03654*%
%ADD146R,0.01800X0.06693*%
D12*
X208861Y289510D02*
G03*
X208861Y289510I-1969J0D01*
G01*
X307090Y345908D02*
G03*
X307090Y345908I-591J0D01*
G01*
X246853Y347876D02*
G03*
X246853Y347876I-591J0D01*
G01*
X364964Y345908D02*
G03*
X364964Y345908I-591J0D01*
G01*
X272838Y160869D02*
G03*
X272838Y160869I-591J0D01*
G01*
X203350Y253683D02*
X242720D01*
X203350Y293054D02*
X242720D01*
Y253683D02*
Y293054D01*
X203350Y253683D02*
Y293054D01*
X306066Y438546D02*
Y448349D01*
X336066Y438546D02*
Y448349D01*
X306066D02*
X336066D01*
X306066Y438546D02*
X336066D01*
X306598Y332719D02*
X310338D01*
X306598Y339215D02*
X310338D01*
X306598Y332719D02*
Y339215D01*
X310338Y332719D02*
Y339215D01*
X246630Y334652D02*
X250370D01*
X246630Y341148D02*
X250370D01*
X246630Y334652D02*
Y341148D01*
X250370Y334652D02*
Y341148D01*
X119295Y422975D02*
Y446597D01*
Y422975D02*
X121263D01*
Y426912D01*
X146853D01*
Y422975D02*
Y426912D01*
Y422975D02*
X148822D01*
Y446597D01*
X119295D02*
X148822D01*
X29629Y428684D02*
Y450337D01*
X66046Y428684D02*
Y450337D01*
X29629Y428684D02*
X66046D01*
X29629Y450337D02*
X66046D01*
X68212Y428290D02*
Y449943D01*
X104629Y428290D02*
Y449943D01*
X68212Y428290D02*
X104629D01*
X68212Y449943D02*
X104629D01*
X6696Y389018D02*
X28350D01*
X6696Y425435D02*
X28350D01*
Y389018D02*
Y425435D01*
X6696Y389018D02*
Y425435D01*
X364865Y332325D02*
X368605D01*
X364865Y338821D02*
X368605D01*
X364865Y332325D02*
Y338821D01*
X368605Y332325D02*
Y338821D01*
X244436Y98489D02*
X273964D01*
X244436D02*
Y122111D01*
X246405D01*
Y118174D02*
Y122111D01*
Y118174D02*
X271995D01*
Y122111D01*
X273964D01*
Y98489D02*
Y122111D01*
X152709Y142991D02*
X176291D01*
Y119409D02*
Y142991D01*
X152709Y119409D02*
X176291D01*
X152709D02*
Y142991D01*
X166393Y106470D02*
X172889D01*
X166393Y102730D02*
X172889D01*
X166393D02*
Y106470D01*
X172889Y102730D02*
Y106470D01*
X231105Y358605D02*
X258271D01*
X231105Y385770D02*
X258271D01*
X231105Y358605D02*
Y385770D01*
X258271Y358605D02*
Y385770D01*
X418200Y324700D02*
X428200D01*
X418200Y274700D02*
X428200D01*
Y324700D01*
X418200Y274700D02*
Y324700D01*
X161417Y114173D02*
X174803D01*
X161417Y107480D02*
X174803D01*
X161417D02*
Y114173D01*
X174803Y107480D02*
Y114173D01*
X357877Y93447D02*
Y146203D01*
Y93447D02*
X407090D01*
Y146203D01*
X357877D02*
X407090D01*
X206912Y79106D02*
X236403D01*
X206912D02*
Y97591D01*
X206894Y97610D02*
X236403D01*
Y79106D02*
Y97610D01*
X183069Y206058D02*
X229132D01*
Y225743D01*
X183069D02*
X229132D01*
X183069Y206058D02*
Y225743D01*
X230350Y122025D02*
Y125175D01*
X224050D02*
X230350D01*
X224050Y122025D02*
X230350D01*
X224050D02*
Y125175D01*
X210550Y122125D02*
Y125275D01*
Y122125D02*
X216850D01*
X210550Y125275D02*
X216850D01*
Y122125D02*
Y125275D01*
X377283Y359344D02*
Y386509D01*
X350117Y359344D02*
Y386509D01*
X377283D01*
X350117Y359344D02*
X377283D01*
X345196Y421746D02*
Y428439D01*
X358582Y421746D02*
Y428439D01*
X345196D02*
X358582D01*
X345196Y421746D02*
X358582D01*
X282484Y420416D02*
X295869D01*
X282484Y427109D02*
X295869D01*
Y420416D02*
Y427109D01*
X282484Y420416D02*
Y427109D01*
X290751Y358706D02*
X317916D01*
X290751Y385872D02*
X317916D01*
X290751Y358706D02*
Y385872D01*
X317916Y358706D02*
Y385872D01*
X302070Y347097D02*
X303054D01*
X302070Y342160D02*
X303054D01*
X301184Y347187D02*
X302070D01*
X303054D02*
X304039D01*
X302070Y347975D02*
X303054D01*
X306007D02*
X306991D01*
X301184Y342069D02*
Y347187D01*
X306007Y347097D02*
X306991D01*
X303054Y341282D02*
Y342160D01*
Y347097D02*
Y347975D01*
X302070Y347097D02*
Y347975D01*
Y341282D02*
Y342160D01*
X303054Y342069D02*
X306007D01*
X304039Y347097D02*
X305023D01*
X306007Y342160D02*
X306991D01*
X306007Y341282D02*
Y342160D01*
X306991Y347187D02*
X307877D01*
X306991Y341282D02*
Y342160D01*
X306007Y341282D02*
X306991D01*
X304039Y347097D02*
Y347975D01*
X305023D01*
X306991Y342069D02*
X307877D01*
X305023Y347097D02*
Y347975D01*
X301184Y342069D02*
X302070D01*
Y341282D02*
X303054D01*
X307877Y342069D02*
Y347187D01*
X306991Y347097D02*
Y347975D01*
X305023Y347187D02*
X306007D01*
Y347097D02*
Y347975D01*
X305023Y341282D02*
Y342160D01*
X304039Y341282D02*
X305023D01*
X304039D02*
Y342160D01*
X305023D01*
X189964Y446597D02*
X219491D01*
Y422975D02*
Y446597D01*
X217523Y422975D02*
X219491D01*
X217523D02*
Y426912D01*
X191932D02*
X217523D01*
X191932Y422975D02*
Y426912D01*
X189964Y422975D02*
X191932D01*
X189964D02*
Y446597D01*
X246224Y437758D02*
Y447561D01*
X276224Y437758D02*
Y447561D01*
X246224D02*
X276224D01*
X246224Y437758D02*
X276224D01*
X22518Y186932D02*
Y218428D01*
X2518D02*
X22518D01*
X2518Y186932D02*
Y218428D01*
Y186932D02*
X22518D01*
X10500Y317000D02*
X20500D01*
X10500Y257000D02*
X20500D01*
Y317000D01*
X10500Y257000D02*
Y317000D01*
X285436Y171400D02*
Y198565D01*
X258271Y171400D02*
Y198565D01*
X285436D01*
X258271Y171400D02*
X285436D01*
X370397Y438939D02*
Y448742D01*
X400397Y438939D02*
Y448742D01*
X370397D02*
X400397D01*
X370397Y438939D02*
X400397D01*
X287996Y141871D02*
X323428D01*
X287996Y85179D02*
Y141871D01*
Y85179D02*
X323428D01*
Y141871D01*
X59350Y354429D02*
X63090D01*
X59350Y347539D02*
X63090D01*
Y354429D01*
X59350Y347539D02*
Y354429D01*
X175955Y262330D02*
Y266070D01*
X182845Y262330D02*
Y266070D01*
X175955D02*
X182845D01*
X175955Y262330D02*
X182845D01*
X191243Y244530D02*
X194983D01*
X191243Y251026D02*
X194983D01*
X191243Y244530D02*
Y251026D01*
X194983Y244530D02*
Y251026D01*
X243802Y344128D02*
X244787D01*
X243802Y343250D02*
Y344128D01*
Y343250D02*
X244787D01*
Y344128D01*
X245771Y349066D02*
Y349943D01*
X244787Y349156D02*
X245771D01*
X246755Y349066D02*
Y349943D01*
X247641Y344038D02*
Y349156D01*
X241834Y343250D02*
X242818D01*
X240948Y344038D02*
X241834D01*
X244787Y349066D02*
Y349943D01*
X246755Y344038D02*
X247641D01*
X243802Y349943D02*
X244787D01*
X243802Y349066D02*
Y349943D01*
X245771Y343250D02*
X246755D01*
Y344128D01*
Y349156D02*
X247641D01*
X245771Y343250D02*
Y344128D01*
X246755D01*
X243802Y349066D02*
X244787D01*
X242818Y344038D02*
X245771D01*
X241834Y343250D02*
Y344128D01*
Y349066D02*
Y349943D01*
X242818Y349066D02*
Y349943D01*
Y343250D02*
Y344128D01*
X245771Y349066D02*
X246755D01*
X240948Y344038D02*
Y349156D01*
X245771Y349943D02*
X246755D01*
X241834D02*
X242818D01*
Y349156D02*
X243802D01*
X240948D02*
X241834D01*
Y344128D02*
X242818D01*
X241834Y349066D02*
X242818D01*
X249117Y344136D02*
X252857D01*
X249117Y350632D02*
X252857D01*
X249117Y344136D02*
Y350632D01*
X252857Y344136D02*
Y350632D01*
X253054Y269924D02*
Y273664D01*
X259550Y269924D02*
Y273664D01*
X253054D02*
X259550D01*
X253054Y269924D02*
X259550D01*
X263487Y275042D02*
Y278782D01*
X269984Y275042D02*
Y278782D01*
X263487D02*
X269984D01*
X263487Y275042D02*
X269984D01*
X259550Y275534D02*
Y279274D01*
X253054Y275534D02*
Y279274D01*
Y275534D02*
X259550D01*
X253054Y279274D02*
X259550D01*
X309353Y341971D02*
X313094D01*
X309353Y348467D02*
X313094D01*
X309353Y341971D02*
Y348467D01*
X313094Y341971D02*
Y348467D01*
X225791Y419628D02*
X239176D01*
X225791Y426321D02*
X239176D01*
Y419628D02*
Y426321D01*
X225791Y419628D02*
Y426321D01*
X361913Y342160D02*
X362897D01*
X361913Y341282D02*
Y342160D01*
Y341282D02*
X362897D01*
Y342160D01*
X363881Y347097D02*
Y347975D01*
X362897Y347187D02*
X363881D01*
X364865Y347097D02*
Y347975D01*
X365751Y342069D02*
Y347187D01*
X359944Y341282D02*
X360928D01*
X359058Y342069D02*
X359944D01*
X362897Y347097D02*
Y347975D01*
X364865Y342069D02*
X365751D01*
X361913Y347975D02*
X362897D01*
X361913Y347097D02*
Y347975D01*
X363881Y341282D02*
X364865D01*
Y342160D01*
Y347187D02*
X365751D01*
X363881Y341282D02*
Y342160D01*
X364865D01*
X361913Y347097D02*
X362897D01*
X360928Y342069D02*
X363881D01*
X359944Y341282D02*
Y342160D01*
Y347097D02*
Y347975D01*
X360928Y347097D02*
Y347975D01*
Y341282D02*
Y342160D01*
X363881Y347097D02*
X364865D01*
X359058Y342069D02*
Y347187D01*
X363881Y347975D02*
X364865D01*
X359944D02*
X360928D01*
Y347187D02*
X361913D01*
X359058D02*
X359944D01*
Y342160D02*
X360928D01*
X359944Y347097D02*
X360928D01*
X370574Y341774D02*
Y348270D01*
X366834Y341774D02*
Y348270D01*
X370574D01*
X366834Y341774D02*
X370574D01*
X154727Y446597D02*
X184255D01*
Y422975D02*
Y446597D01*
X182287Y422975D02*
X184255D01*
X182287D02*
Y426912D01*
X156696D02*
X182287D01*
X156696Y422975D02*
Y426912D01*
X154728Y422975D02*
X156696D01*
X154728D02*
Y446597D01*
X200102Y244530D02*
Y251026D01*
X196361Y244530D02*
Y251026D01*
X200102D01*
X196361Y244530D02*
X200102D01*
X186590Y226928D02*
Y230472D01*
X193283Y226928D02*
Y230472D01*
X186590D02*
X193283D01*
X186590Y226928D02*
X193283D01*
X224783Y227428D02*
Y230972D01*
X218090Y227428D02*
Y230972D01*
Y227428D02*
X224783D01*
X218090Y230972D02*
X224783D01*
X261125Y143349D02*
Y149845D01*
X257385Y143349D02*
Y149845D01*
X261125D01*
X257385Y143349D02*
X261125D01*
X269787Y157120D02*
X270771D01*
X269787Y156243D02*
Y157120D01*
Y156243D02*
X270771D01*
Y157120D01*
X271755Y162058D02*
Y162935D01*
X270771Y162148D02*
X271755D01*
X272739Y162058D02*
Y162935D01*
X273625Y157030D02*
Y162148D01*
X267818Y156243D02*
X268802D01*
X266932Y157030D02*
X267818D01*
X270771Y162058D02*
Y162935D01*
X272739Y157030D02*
X273625D01*
X269787Y162935D02*
X270771D01*
X269787Y162058D02*
Y162935D01*
X271755Y156243D02*
X272739D01*
Y157120D01*
Y162148D02*
X273625D01*
X271755Y156243D02*
Y157120D01*
X272739D01*
X269787Y162058D02*
X270771D01*
X268802Y157030D02*
X271755D01*
X267818Y156243D02*
Y157120D01*
Y162058D02*
Y162935D01*
X268802Y162058D02*
Y162935D01*
Y156243D02*
Y157120D01*
X271755Y162058D02*
X272739D01*
X266932Y157030D02*
Y162148D01*
X271755Y162935D02*
X272739D01*
X267818D02*
X268802D01*
Y162148D02*
X269787D01*
X266932D02*
X267818D01*
Y157120D02*
X268802D01*
X267818Y162058D02*
X268802D01*
X274570Y144952D02*
Y151448D01*
X270830Y144952D02*
Y151448D01*
X274570D01*
X270830Y144952D02*
X274570D01*
X32779Y403782D02*
Y410672D01*
X29039Y403782D02*
Y410672D01*
X32779D01*
X29039Y403782D02*
X32779D01*
X44393Y423861D02*
Y427601D01*
X51283Y423861D02*
Y427601D01*
X44393D02*
X51283D01*
X44393Y423861D02*
X51283D01*
X83369Y424254D02*
X90259D01*
X83369Y427994D02*
X90259D01*
Y424254D02*
Y427994D01*
X83369Y424254D02*
Y427994D01*
D144*
X273035Y157189D02*
Y161354D01*
X272202Y162187D01*
X270535D01*
X269702Y161354D01*
Y157189D01*
X268036Y158022D02*
X267203Y157189D01*
X265537D01*
X264704Y158022D01*
Y158855D01*
X265537Y159688D01*
X264704Y160521D01*
Y161354D01*
X265537Y162187D01*
X267203D01*
X268036Y161354D01*
Y160521D01*
X267203Y159688D01*
X268036Y158855D01*
Y158022D01*
X267203Y159688D02*
X265537D01*
D145*
X244687Y360433D02*
D03*
X363698Y361173D02*
D03*
X304333Y360535D02*
D03*
X271853Y173227D02*
D03*
D146*
X162318Y110827D02*
D03*
X357681Y425093D02*
D03*
X294968Y423763D02*
D03*
X238276Y422975D02*
D03*
M02*
