G04*
G04 #@! TF.GenerationSoftware,Altium Limited,Altium Designer,21.8.1 (53)*
G04*
G04 Layer_Color=8388736*
%FSLAX25Y25*%
%MOIN*%
G70*
G04*
G04 #@! TF.SameCoordinates,81EC3893-84E7-45D1-AE65-2CF239B2E5AD*
G04*
G04*
G04 #@! TF.FilePolarity,Positive*
G04*
G01*
G75*
%ADD13C,0.00787*%
D13*
X305610Y306004D02*
X310531D01*
Y313878D01*
X305610D02*
X310531D01*
X305610Y306004D02*
Y313878D01*
X362913Y333458D02*
X366062D01*
X362913Y327159D02*
Y333458D01*
Y327159D02*
X366062D01*
Y333458D01*
X360239Y353695D02*
Y367080D01*
X342720D02*
X360239D01*
X342720Y353695D02*
Y367080D01*
Y353695D02*
X360239D01*
X344212Y327159D02*
Y333458D01*
X347361D01*
Y327159D02*
Y333458D01*
X344212Y327159D02*
X347361D01*
X378956Y336892D02*
X392735D01*
Y326262D02*
Y336892D01*
X378956Y326262D02*
X392735D01*
X378956D02*
Y336892D01*
X378940Y338428D02*
Y349058D01*
Y338428D02*
X392720D01*
Y349058D01*
X378940D02*
X392720D01*
X312602Y335970D02*
X326381D01*
Y325340D02*
Y335970D01*
X312602Y325340D02*
X326381D01*
X312602D02*
Y335970D01*
X312995Y348766D02*
X326775D01*
Y338136D02*
Y348766D01*
X312995Y338136D02*
X326775D01*
X312995D02*
Y348766D01*
X252562Y337246D02*
X266342D01*
Y326617D02*
Y337246D01*
X252562Y326617D02*
X266342D01*
X252562D02*
Y337246D01*
X300889Y254077D02*
X304629D01*
X300889Y247581D02*
Y254077D01*
Y247581D02*
X304629D01*
Y254077D01*
X240833Y255991D02*
X244573D01*
X240833Y249495D02*
Y255991D01*
Y249495D02*
X244573D01*
Y255991D01*
X352524Y317266D02*
Y320613D01*
Y317266D02*
X358627D01*
Y320613D01*
X352524D02*
X358627D01*
X302759Y325239D02*
Y331538D01*
X299609Y325239D02*
X302759D01*
X299609D02*
Y331538D01*
X302759D01*
X284649Y324845D02*
Y331144D01*
X287798D01*
Y324845D02*
Y331144D01*
X284649Y324845D02*
X287798D01*
X252562Y338034D02*
Y348664D01*
Y338034D02*
X266342D01*
Y348664D01*
X252562D02*
X266342D01*
X233506Y321006D02*
X239608D01*
Y317660D02*
Y321006D01*
X233506Y317660D02*
X239608D01*
X233506D02*
Y321006D01*
X227168Y325340D02*
Y331640D01*
X230318D01*
Y325340D02*
Y331640D01*
X227168Y325340D02*
X230318D01*
X359550Y254077D02*
X363291D01*
X359550Y247581D02*
Y254077D01*
Y247581D02*
X363291D01*
Y254077D01*
X275594Y71461D02*
X278743D01*
Y77760D01*
X275594D02*
X278743D01*
X275594Y71461D02*
Y77760D01*
X22518Y137244D02*
Y159213D01*
X12124Y137244D02*
X22518D01*
X12124D02*
Y159213D01*
X22518D01*
X218248Y158073D02*
Y161813D01*
X211358D02*
X218248D01*
X211358Y158073D02*
Y161813D01*
Y158073D02*
X218248D01*
X84431Y57397D02*
Y64090D01*
Y57397D02*
X89549D01*
Y64090D01*
X84431D02*
X89549D01*
X92733Y66950D02*
X96473D01*
X92733Y60061D02*
Y66950D01*
Y60061D02*
X96473D01*
Y66950D01*
X98731Y60750D02*
X102275D01*
Y67443D01*
X98731D02*
X102275D01*
X98731Y60750D02*
Y67443D01*
X179999Y219587D02*
Y230099D01*
Y219587D02*
X192007D01*
Y230099D01*
X179999D02*
X192007D01*
X102706Y339628D02*
X113100D01*
X102706Y317659D02*
Y339628D01*
Y317659D02*
X113100D01*
Y339628D01*
X90335Y-83169D02*
Y54626D01*
Y-83169D02*
X148602D01*
Y54626D01*
X90335D02*
X148602D01*
X27165Y-83169D02*
Y54626D01*
Y-83169D02*
X85433D01*
Y54626D01*
X27165D02*
X85433D01*
X355250Y346172D02*
Y349715D01*
X348557D02*
X355250D01*
X348557Y346172D02*
Y349715D01*
Y346172D02*
X355250D01*
X294950Y344772D02*
Y348315D01*
X288257D02*
X294950D01*
X288257Y344772D02*
Y348315D01*
Y344772D02*
X294950D01*
X237702Y343672D02*
Y347215D01*
X231010D02*
X237702D01*
X231010Y343672D02*
Y347215D01*
Y343672D02*
X237702D01*
X183757Y189372D02*
Y192915D01*
Y189372D02*
X190450D01*
Y192915D01*
X183757D02*
X190450D01*
X176858Y187313D02*
X183748D01*
Y183573D02*
Y187313D01*
X176858Y183573D02*
X183748D01*
X176858D02*
Y187313D01*
X54331Y270374D02*
X58071D01*
X54331Y263484D02*
Y270374D01*
Y263484D02*
X58071D01*
Y270374D01*
X242476Y141092D02*
Y147195D01*
X239130Y141092D02*
X242476D01*
X239130D02*
Y147195D01*
X242476D01*
X119101Y177417D02*
X125597D01*
X119101D02*
Y181158D01*
X125597D01*
Y177417D02*
Y181158D01*
X119002Y182240D02*
X125695D01*
X119002D02*
Y185784D01*
X125695D01*
Y182240D02*
Y185784D01*
X119002Y172004D02*
X125695D01*
X119002D02*
Y175547D01*
X125695D01*
Y172004D02*
Y175547D01*
X119101Y166787D02*
X125597D01*
X119101D02*
Y170528D01*
X125597D01*
Y166787D02*
Y170528D01*
X354728Y257916D02*
Y264215D01*
X351578Y257916D02*
X354728D01*
X351578D02*
Y264215D01*
X354728D01*
X215259Y44689D02*
Y50791D01*
X218605D01*
Y44689D02*
Y50791D01*
X215259Y44689D02*
X218605D01*
X221165D02*
Y50791D01*
X224511D01*
Y44689D02*
Y50791D01*
X221165Y44689D02*
X224511D01*
X196233Y216988D02*
X199973D01*
X196233Y210098D02*
Y216988D01*
Y210098D02*
X199973D01*
Y216988D01*
X201333Y217088D02*
X205073D01*
X201333Y210198D02*
Y217088D01*
Y210198D02*
X205073D01*
Y217088D01*
X295228Y263793D02*
X298378D01*
X295228Y257494D02*
Y263793D01*
Y257494D02*
X298378D01*
Y263793D01*
X314964Y257288D02*
X318113D01*
Y263587D01*
X314964D02*
X318113D01*
X314964Y257288D02*
Y263587D01*
X330613Y262350D02*
X335535D01*
X330613Y254476D02*
Y262350D01*
Y254476D02*
X335535D01*
Y262350D01*
X321165Y261956D02*
X326086D01*
X321165Y254082D02*
Y261956D01*
Y254082D02*
X326086D01*
Y261956D01*
X300873Y353057D02*
Y366443D01*
X283353D02*
X300873D01*
X283353Y353057D02*
Y366443D01*
Y353057D02*
X300873D01*
X290259Y321006D02*
X296361D01*
Y317660D02*
Y321006D01*
X290259Y317660D02*
X296361D01*
X290259D02*
Y321006D01*
X243197Y350593D02*
Y363978D01*
X225677D02*
X243197D01*
X225677Y350593D02*
Y363978D01*
Y350593D02*
X243197D01*
X167634Y188987D02*
Y194499D01*
X158972D02*
X167634D01*
X158972Y188987D02*
Y194499D01*
Y188987D02*
X167634D01*
X234458Y220613D02*
X241348D01*
Y216873D02*
Y220613D01*
X234458Y216873D02*
X241348D01*
X234458D02*
Y220613D01*
X204924Y160081D02*
Y166774D01*
X201381Y160081D02*
X204924D01*
X201381D02*
Y166774D01*
X204924D01*
X251532Y176690D02*
X255075D01*
X251532Y169997D02*
Y176690D01*
Y169997D02*
X255075D01*
Y176690D01*
X185796Y204613D02*
X192686D01*
Y200873D02*
Y204613D01*
X185796Y200873D02*
X192686D01*
X185796D02*
Y204613D01*
X211626Y225519D02*
X215366D01*
X211626Y218629D02*
Y225519D01*
Y218629D02*
X215366D01*
Y225519D01*
X238192Y260278D02*
Y266577D01*
X235043Y260278D02*
X238192D01*
X235043D02*
Y266577D01*
X238192D01*
X249019Y119924D02*
Y126617D01*
X252562D01*
Y119924D02*
Y126617D01*
X249019Y119924D02*
X252562D01*
X252759Y196302D02*
Y199845D01*
Y196302D02*
X259452D01*
Y199845D01*
X252759D02*
X259452D01*
X254728Y259884D02*
Y266183D01*
X257877D01*
Y259884D02*
Y266183D01*
X254728Y259884D02*
X257877D01*
X266637Y256341D02*
Y264215D01*
X261716Y256341D02*
X266637D01*
X261716D02*
Y264215D01*
X266637D01*
X276086Y256341D02*
Y264215D01*
X271165Y256341D02*
X276086D01*
X271165D02*
Y264215D01*
X276086D01*
X291145Y313529D02*
X294295D01*
X291145Y307230D02*
Y313529D01*
Y307230D02*
X294295D01*
Y313529D01*
X272452Y177870D02*
Y181217D01*
Y177870D02*
X278554D01*
Y181217D01*
X272452D02*
X278554D01*
X246755Y307027D02*
Y314901D01*
X251676D01*
Y307027D02*
Y314901D01*
X246755Y307027D02*
X251676D01*
X237798Y307916D02*
Y314215D01*
X234649Y307916D02*
X237798D01*
X234649D02*
Y314215D01*
X237798D01*
X242523Y331246D02*
X245672D01*
X242523Y324947D02*
Y331246D01*
Y324947D02*
X245672D01*
Y331246D01*
X389668Y262443D02*
X394590D01*
X389668Y254569D02*
Y262443D01*
Y254569D02*
X394590D01*
Y262443D01*
X379039Y262537D02*
X383960D01*
X379039Y254663D02*
Y262537D01*
Y254663D02*
X383960D01*
Y262537D01*
X372050Y258150D02*
X375200D01*
Y264449D01*
X372050D02*
X375200D01*
X372050Y258150D02*
Y264449D01*
X256733Y170298D02*
X260473D01*
Y177188D01*
X256733D02*
X260473D01*
X256733Y170298D02*
Y177188D01*
X353562Y313270D02*
X356712D01*
X353562Y306971D02*
Y313270D01*
Y306971D02*
X356712D01*
Y313270D01*
X359566Y306184D02*
X364487D01*
Y314057D01*
X359566D02*
X364487D01*
X359566Y306184D02*
Y314057D01*
X366456Y306184D02*
X371377D01*
Y314057D01*
X366456D02*
X371377D01*
X366456Y306184D02*
Y314057D01*
X189091Y20332D02*
Y38954D01*
X202516D01*
Y20332D02*
Y38954D01*
X189091Y20332D02*
X202516D01*
X173135Y12852D02*
Y16592D01*
X166246D02*
X173135D01*
X166246Y12852D02*
Y16592D01*
Y12852D02*
X173135D01*
X209051Y142973D02*
Y146713D01*
X202555D02*
X209051D01*
X202555Y142973D02*
Y146713D01*
Y142973D02*
X209051D01*
X245218Y152404D02*
Y155750D01*
Y152404D02*
X251321D01*
Y155750D01*
X245218D02*
X251321D01*
X315651Y63227D02*
X322151D01*
Y76227D01*
X315651D02*
X322151D01*
X315651Y63227D02*
Y76227D01*
X263783Y120121D02*
Y126420D01*
X260633Y120121D02*
X263783D01*
X260633D02*
Y126420D01*
X263783D01*
X264570Y70674D02*
Y76973D01*
X261420Y70674D02*
X264570D01*
X261420D02*
Y76973D01*
X264570D01*
X268212Y57560D02*
Y63662D01*
X264865Y57560D02*
X268212D01*
X264865D02*
Y63662D01*
X268212D01*
X272739Y119727D02*
Y127601D01*
X277661D01*
Y119727D02*
Y127601D01*
X272739Y119727D02*
X277661D01*
X287109Y70908D02*
Y78782D01*
X282188Y70908D02*
X287109D01*
X282188D02*
Y78782D01*
X287109D01*
X258369Y120219D02*
Y126321D01*
X255023Y120219D02*
X258369D01*
X255023D02*
Y126321D01*
X258369D01*
X261547Y176574D02*
X267059D01*
X261547Y167913D02*
Y176574D01*
Y167913D02*
X267059D01*
Y176574D01*
X265653Y119727D02*
Y127601D01*
X270574D01*
Y119727D02*
Y127601D01*
X265653Y119727D02*
X270574D01*
X290062Y81247D02*
X294984D01*
X290062Y73373D02*
Y81247D01*
Y73373D02*
X294984D01*
Y81247D01*
X34354Y319431D02*
Y326321D01*
X38094D01*
Y319431D02*
Y326321D01*
X34354Y319431D02*
X38094D01*
X44196Y338920D02*
X51086D01*
Y335179D02*
Y338920D01*
X44196Y335179D02*
X51086D01*
X44196D02*
Y338920D01*
X83172D02*
X90062D01*
Y335179D02*
Y338920D01*
X83172Y335179D02*
X90062D01*
X83172D02*
Y338920D01*
X240062Y307027D02*
Y314901D01*
X244984D01*
Y307027D02*
Y314901D01*
X240062Y307027D02*
X244984D01*
X297149Y306443D02*
X302070D01*
Y314317D01*
X297149D02*
X302070D01*
X297149Y306443D02*
Y314317D01*
M02*
