G04*
G04 #@! TF.GenerationSoftware,Altium Limited,Altium Designer,21.8.1 (53)*
G04*
G04 Layer_Color=8388736*
%FSLAX25Y25*%
%MOIN*%
G70*
G04*
G04 #@! TF.SameCoordinates,BF354A56-4256-46FB-B051-6EC6D42A8B0B*
G04*
G04*
G04 #@! TF.FilePolarity,Positive*
G04*
G01*
G75*
%ADD13C,0.00787*%
D13*
X379153Y420849D02*
X392932D01*
Y410219D02*
Y420849D01*
X379153Y410219D02*
X392932D01*
X379153D02*
Y420849D01*
X379137Y422384D02*
Y433014D01*
Y422384D02*
X392916D01*
Y433014D01*
X379137D02*
X392916D01*
X312798Y419927D02*
X326578D01*
Y409297D02*
Y419927D01*
X312798Y409297D02*
X326578D01*
X312798D02*
Y419927D01*
X313192Y432722D02*
X326972D01*
Y422092D02*
Y432722D01*
X313192Y422092D02*
X326972D01*
X313192D02*
Y432722D01*
X252759Y421203D02*
X266539D01*
Y410573D02*
Y421203D01*
X252759Y410573D02*
X266539D01*
X252759D02*
Y421203D01*
X301086Y338034D02*
X304826D01*
X301086Y331538D02*
Y338034D01*
Y331538D02*
X304826D01*
Y338034D01*
X241030Y339948D02*
X244770D01*
X241030Y333452D02*
Y339948D01*
Y333452D02*
X244770D01*
Y339948D01*
X352721Y401223D02*
Y404569D01*
Y401223D02*
X358824D01*
Y404569D01*
X352721D02*
X358824D01*
X344409Y411116D02*
X347558D01*
Y417415D01*
X344409D02*
X347558D01*
X344409Y411116D02*
Y417415D01*
X302956Y409195D02*
Y415494D01*
X299806Y409195D02*
X302956D01*
X299806D02*
Y415494D01*
X302956D01*
X284846Y408802D02*
Y415101D01*
X287995D01*
Y408802D02*
Y415101D01*
X284846Y408802D02*
X287995D01*
X252759Y421990D02*
Y432620D01*
Y421990D02*
X266539D01*
Y432620D01*
X252759D02*
X266539D01*
X233702Y404963D02*
X239805D01*
Y401616D02*
Y404963D01*
X233702Y401616D02*
X239805D01*
X233702D02*
Y404963D01*
X227365Y409297D02*
Y415596D01*
X230515D01*
Y409297D02*
Y415596D01*
X227365Y409297D02*
X230515D01*
X359747Y338034D02*
X363487D01*
X359747Y331538D02*
Y338034D01*
Y331538D02*
X363487D01*
Y338034D01*
X275791Y155418D02*
X278940D01*
Y161717D01*
X275791D02*
X278940D01*
X275791Y155418D02*
Y161717D01*
X22715Y221201D02*
Y243169D01*
X12321Y221201D02*
X22715D01*
X12321D02*
Y243169D01*
X22715D01*
X218445Y242030D02*
Y245770D01*
X211555D02*
X218445D01*
X211555Y242030D02*
Y245770D01*
Y242030D02*
X218445D01*
X84627Y141353D02*
Y148047D01*
Y141353D02*
X89746D01*
Y148047D01*
X84627D02*
X89746D01*
X92930Y150907D02*
X96670D01*
X92930Y144017D02*
Y150907D01*
Y144017D02*
X96670D01*
Y150907D01*
X98928Y144706D02*
X102472D01*
Y151399D01*
X98928D02*
X102472D01*
X98928Y144706D02*
Y151399D01*
X180196Y303544D02*
Y314056D01*
Y303544D02*
X192204D01*
Y314056D01*
X180196D02*
X192204D01*
X102903Y423584D02*
X113297D01*
X102903Y401616D02*
Y423584D01*
Y401616D02*
X113297D01*
Y423584D01*
X90531Y787D02*
Y138583D01*
Y787D02*
X148799D01*
Y138583D01*
X90531D02*
X148799D01*
X27362Y787D02*
Y138583D01*
Y787D02*
X85630D01*
Y138583D01*
X27362D02*
X85630D01*
X355447Y430128D02*
Y433672D01*
X348753D02*
X355447D01*
X348753Y430128D02*
Y433672D01*
Y430128D02*
X355447D01*
X295146Y428728D02*
Y432272D01*
X288454D02*
X295146D01*
X288454Y428728D02*
Y432272D01*
Y428728D02*
X295146D01*
X237899Y427628D02*
Y431172D01*
X231206D02*
X237899D01*
X231206Y427628D02*
Y431172D01*
Y427628D02*
X237899D01*
X183953Y273328D02*
Y276872D01*
Y273328D02*
X190647D01*
Y276872D01*
X183953D02*
X190647D01*
X177055Y271270D02*
X183945D01*
Y267530D02*
Y271270D01*
X177055Y267530D02*
X183945D01*
X177055D02*
Y271270D01*
X54528Y354331D02*
X58268D01*
X54528Y347441D02*
Y354331D01*
Y347441D02*
X58268D01*
Y354331D01*
X242673Y225049D02*
Y231151D01*
X239327Y225049D02*
X242673D01*
X239327D02*
Y231151D01*
X242673D01*
X119298Y261374D02*
X125794D01*
X119298D02*
Y265114D01*
X125794D01*
Y261374D02*
Y265114D01*
X119199Y266197D02*
X125892D01*
X119199D02*
Y269740D01*
X125892D01*
Y266197D02*
Y269740D01*
X119199Y255961D02*
X125892D01*
X119199D02*
Y259504D01*
X125892D01*
Y255961D02*
Y259504D01*
X119298Y250744D02*
X125794D01*
X119298D02*
Y254484D01*
X125794D01*
Y250744D02*
Y254484D01*
X354924Y341872D02*
Y348172D01*
X351775Y341872D02*
X354924D01*
X351775D02*
Y348172D01*
X354924D01*
X215456Y128646D02*
Y134748D01*
X218802D01*
Y128646D02*
Y134748D01*
X215456Y128646D02*
X218802D01*
X221361D02*
Y134748D01*
X224708D01*
Y128646D02*
Y134748D01*
X221361Y128646D02*
X224708D01*
X196430Y300945D02*
X200170D01*
X196430Y294055D02*
Y300945D01*
Y294055D02*
X200170D01*
Y300945D01*
X201530Y301045D02*
X205270D01*
X201530Y294155D02*
Y301045D01*
Y294155D02*
X205270D01*
Y301045D01*
X366259Y411116D02*
Y417415D01*
X363109Y411116D02*
X366259D01*
X363109D02*
Y417415D01*
X366259D01*
X342916Y437651D02*
X360436D01*
X342916D02*
Y451037D01*
X360436D01*
Y437651D02*
Y451037D01*
X295425Y347750D02*
X298575D01*
X295425Y341450D02*
Y347750D01*
Y341450D02*
X298575D01*
Y347750D01*
X315161Y341245D02*
X318310D01*
Y347544D01*
X315161D02*
X318310D01*
X315161Y341245D02*
Y347544D01*
X330810Y346306D02*
X335732D01*
X330810Y338433D02*
Y346306D01*
Y338433D02*
X335732D01*
Y346306D01*
X321361Y345913D02*
X326283D01*
X321361Y338039D02*
Y345913D01*
Y338039D02*
X326283D01*
Y345913D01*
X301070Y437014D02*
Y450399D01*
X283550D02*
X301070D01*
X283550Y437014D02*
Y450399D01*
Y437014D02*
X301070D01*
X290456Y404963D02*
X296558D01*
Y401616D02*
Y404963D01*
X290456Y401616D02*
X296558D01*
X290456D02*
Y404963D01*
X243393Y434549D02*
Y447935D01*
X225874D02*
X243393D01*
X225874Y434549D02*
Y447935D01*
Y434549D02*
X243393D01*
X167831Y272944D02*
Y278456D01*
X159169D02*
X167831D01*
X159169Y272944D02*
Y278456D01*
Y272944D02*
X167831D01*
X234655Y304570D02*
X241545D01*
Y300830D02*
Y304570D01*
X234655Y300830D02*
X241545D01*
X234655D02*
Y304570D01*
X205121Y244038D02*
Y250731D01*
X201578Y244038D02*
X205121D01*
X201578D02*
Y250731D01*
X205121D01*
X251728Y260647D02*
X255272D01*
X251728Y253954D02*
Y260647D01*
Y253954D02*
X255272D01*
Y260647D01*
X185993Y288570D02*
X192883D01*
Y284830D02*
Y288570D01*
X185993Y284830D02*
X192883D01*
X185993D02*
Y288570D01*
X211823Y309476D02*
X215563D01*
X211823Y302586D02*
Y309476D01*
Y302586D02*
X215563D01*
Y309476D01*
X238389Y344235D02*
Y350534D01*
X235239Y344235D02*
X238389D01*
X235239D02*
Y350534D01*
X238389D01*
X249216Y203880D02*
Y210573D01*
X252759D01*
Y203880D02*
Y210573D01*
X249216Y203880D02*
X252759D01*
X252956Y280258D02*
Y283802D01*
Y280258D02*
X259649D01*
Y283802D01*
X252956D02*
X259649D01*
X254924Y343841D02*
Y350140D01*
X258074D01*
Y343841D02*
Y350140D01*
X254924Y343841D02*
X258074D01*
X266834Y340298D02*
Y348172D01*
X261913Y340298D02*
X266834D01*
X261913D02*
Y348172D01*
X266834D01*
X276283Y340298D02*
Y348172D01*
X271361Y340298D02*
X276283D01*
X271361D02*
Y348172D01*
X276283D01*
X304235Y390399D02*
X309157D01*
Y398273D01*
X304235D02*
X309157D01*
X304235Y390399D02*
Y398273D01*
X291342Y397486D02*
X294491D01*
X291342Y391187D02*
Y397486D01*
Y391187D02*
X294491D01*
Y397486D01*
X272649Y261827D02*
Y265173D01*
Y261827D02*
X278751D01*
Y265173D01*
X272649D02*
X278751D01*
X246952Y390984D02*
Y398857D01*
X251873D01*
Y390984D02*
Y398857D01*
X246952Y390984D02*
X251873D01*
X237995Y391872D02*
Y398172D01*
X234846Y391872D02*
X237995D01*
X234846D02*
Y398172D01*
X237995D01*
X242720Y415203D02*
X245869D01*
X242720Y408903D02*
Y415203D01*
Y408903D02*
X245869D01*
Y415203D01*
X389865Y346400D02*
X394787D01*
X389865Y338526D02*
Y346400D01*
Y338526D02*
X394787D01*
Y346400D01*
X379235Y346494D02*
X384157D01*
X379235Y338619D02*
Y346494D01*
Y338619D02*
X384157D01*
Y346494D01*
X372247Y342107D02*
X375397D01*
Y348406D01*
X372247D02*
X375397D01*
X372247Y342107D02*
Y348406D01*
X256930Y254255D02*
X260670D01*
Y261145D01*
X256930D02*
X260670D01*
X256930Y254255D02*
Y261145D01*
X353759Y397227D02*
X356909D01*
X353759Y390928D02*
Y397227D01*
Y390928D02*
X356909D01*
Y397227D01*
X359763Y390140D02*
X364684D01*
Y398014D01*
X359763D02*
X364684D01*
X359763Y390140D02*
Y398014D01*
X366653Y390140D02*
X371574D01*
Y398014D01*
X366653D02*
X371574D01*
X366653Y390140D02*
Y398014D01*
X189287Y104289D02*
Y122911D01*
X202713D01*
Y104289D02*
Y122911D01*
X189287Y104289D02*
X202713D01*
X173332Y96809D02*
Y100549D01*
X166443D02*
X173332D01*
X166443Y96809D02*
Y100549D01*
Y96809D02*
X173332D01*
X209248Y226930D02*
Y230670D01*
X202752D02*
X209248D01*
X202752Y226930D02*
Y230670D01*
Y226930D02*
X209248D01*
X245415Y236361D02*
Y239707D01*
Y236361D02*
X251517D01*
Y239707D01*
X245415D02*
X251517D01*
X315848Y147184D02*
X322348D01*
Y160184D01*
X315848D02*
X322348D01*
X315848Y147184D02*
Y160184D01*
X263980Y204077D02*
Y210376D01*
X260830Y204077D02*
X263980D01*
X260830D02*
Y210376D01*
X263980D01*
X264767Y154630D02*
Y160930D01*
X261617Y154630D02*
X264767D01*
X261617D02*
Y160930D01*
X264767D01*
X268409Y141517D02*
Y147619D01*
X265062Y141517D02*
X268409D01*
X265062D02*
Y147619D01*
X268409D01*
X272936Y203683D02*
Y211558D01*
X277857D01*
Y203683D02*
Y211558D01*
X272936Y203683D02*
X277857D01*
X287306Y154865D02*
Y162739D01*
X282385Y154865D02*
X287306D01*
X282385D02*
Y162739D01*
X287306D01*
X258566Y204176D02*
Y210278D01*
X255220Y204176D02*
X258566D01*
X255220D02*
Y210278D01*
X258566D01*
X261744Y260531D02*
X267256D01*
X261744Y251869D02*
Y260531D01*
Y251869D02*
X267256D01*
Y260531D01*
X265850Y203683D02*
Y211558D01*
X270771D01*
Y203683D02*
Y211558D01*
X265850Y203683D02*
X270771D01*
X290259Y165204D02*
X295180D01*
X290259Y157330D02*
Y165204D01*
Y157330D02*
X295180D01*
Y165204D01*
X34550Y403388D02*
Y410278D01*
X38291D01*
Y403388D02*
Y410278D01*
X34550Y403388D02*
X38291D01*
X44393Y422876D02*
X51283D01*
Y419136D02*
Y422876D01*
X44393Y419136D02*
X51283D01*
X44393D02*
Y422876D01*
X83369D02*
X90259D01*
Y419136D02*
Y422876D01*
X83369Y419136D02*
X90259D01*
X83369D02*
Y422876D01*
X240259Y390984D02*
Y398857D01*
X245180D01*
Y390984D02*
Y398857D01*
X240259Y390984D02*
X245180D01*
X297346Y390399D02*
X302267D01*
Y398273D01*
X297346D02*
X302267D01*
X297346Y390399D02*
Y398273D01*
M02*
