G04*
G04 #@! TF.GenerationSoftware,Altium Limited,Altium Designer,21.8.1 (53)*
G04*
G04 Layer_Color=16711935*
%FSLAX25Y25*%
%MOIN*%
G70*
G04*
G04 #@! TF.SameCoordinates,92EEE739-4F3B-4374-ACD8-CC48A347F5D9*
G04*
G04*
G04 #@! TF.FilePolarity,Negative*
G04*
G01*
G75*
%ADD50R,0.03937X0.03937*%
%ADD76C,0.04331*%
%ADD77R,0.04331X0.04331*%
%ADD78R,0.04331X0.04331*%
%ADD79C,0.03937*%
%ADD80C,0.06394*%
%ADD81R,0.06394X0.06394*%
%ADD82C,0.18110*%
%ADD83C,0.06496*%
%ADD84R,0.06496X0.06496*%
%ADD85C,0.06299*%
%ADD86R,0.06299X0.06299*%
%ADD87R,0.06181X0.06181*%
%ADD88C,0.06181*%
%ADD89C,0.06693*%
%ADD90R,0.06693X0.06693*%
%ADD91C,0.05512*%
%ADD92R,0.05512X0.05512*%
%ADD93C,0.12008*%
%ADD94R,0.09449X0.12598*%
%ADD95R,0.06299X0.06299*%
%ADD96C,0.06102*%
%ADD97R,0.06496X0.06496*%
%ADD98C,0.18701*%
%ADD99R,0.16142X0.06299*%
%ADD100R,0.14173X0.06299*%
%ADD101R,0.06299X0.14173*%
%ADD102C,0.03394*%
%ADD103C,0.01968*%
D50*
X349216Y361175D02*
D03*
X289850Y360537D02*
D03*
X232173Y358073D02*
D03*
D76*
X45377Y351420D02*
D03*
X50298D02*
D03*
X40456D02*
D03*
X55220D02*
D03*
X35535D02*
D03*
X24216Y323369D02*
D03*
Y328290D02*
D03*
Y318447D02*
D03*
Y333211D02*
D03*
Y313526D02*
D03*
X74117Y351026D02*
D03*
X93802D02*
D03*
X79039D02*
D03*
X88881D02*
D03*
X83960D02*
D03*
X363878Y321752D02*
D03*
X259547Y322638D02*
D03*
X254232Y323327D02*
D03*
X318602Y322342D02*
D03*
X311417Y322638D02*
D03*
X284400Y181902D02*
D03*
X232400Y185602D02*
D03*
X131200Y213402D02*
D03*
X190116Y168746D02*
D03*
X186400Y210402D02*
D03*
X104959Y69608D02*
D03*
X79800Y62121D02*
D03*
X104983Y63702D02*
D03*
X344870Y350370D02*
D03*
X284200Y348902D02*
D03*
X227400Y348002D02*
D03*
X331800Y333402D02*
D03*
X255200Y317302D02*
D03*
X248500Y250202D02*
D03*
X288389Y315199D02*
D03*
X241579Y271302D02*
D03*
X348200Y321402D02*
D03*
X231302Y321498D02*
D03*
X248232Y327798D02*
D03*
X231696Y316380D02*
D03*
X224216Y327798D02*
D03*
X223428Y334097D02*
D03*
X223035Y341183D02*
D03*
X243507Y320317D02*
D03*
X312011Y315593D02*
D03*
X232484Y336065D02*
D03*
X270672Y345514D02*
D03*
X271066Y334884D02*
D03*
X287208Y320317D02*
D03*
X256499Y259948D02*
D03*
X264373Y255692D02*
D03*
X273783Y254963D02*
D03*
X308468Y248270D02*
D03*
X289570Y336459D02*
D03*
X283271Y327798D02*
D03*
X300987Y319924D02*
D03*
X304531Y328213D02*
D03*
X300987Y269924D02*
D03*
X279235Y342365D02*
D03*
X282543Y333369D02*
D03*
X316735Y254569D02*
D03*
X323822Y251026D02*
D03*
X333271D02*
D03*
X256791Y272438D02*
D03*
X264461Y272547D02*
D03*
X273822Y272679D02*
D03*
X375791D02*
D03*
X316735Y272286D02*
D03*
X324609D02*
D03*
X333271D02*
D03*
X348625Y315199D02*
D03*
X340357Y327798D02*
D03*
X339747Y333522D02*
D03*
X350987Y335278D02*
D03*
X341539Y341971D02*
D03*
X331696Y346302D02*
D03*
X366735Y247089D02*
D03*
X392326Y250632D02*
D03*
X381696D02*
D03*
X373822Y254963D02*
D03*
X358074Y269136D02*
D03*
X384452Y272679D02*
D03*
X392720D02*
D03*
X376184Y315593D02*
D03*
X377365Y322679D02*
D03*
X372244Y323524D02*
D03*
X382877Y322679D02*
D03*
X371066Y328191D02*
D03*
X398625Y334097D02*
D03*
X398232Y345908D02*
D03*
D77*
X60141Y351420D02*
D03*
X98724Y351026D02*
D03*
D78*
X24216Y338132D02*
D03*
D79*
X354137Y361175D02*
D03*
X294771Y360537D02*
D03*
X237094Y358073D02*
D03*
D80*
X67436Y249994D02*
D03*
Y257995D02*
D03*
Y265995D02*
D03*
D81*
Y273994D02*
D03*
D82*
X402169Y295121D02*
D03*
X34452D02*
D03*
Y77798D02*
D03*
X402169Y77404D02*
D03*
D83*
X311066Y362050D02*
D03*
X321066D02*
D03*
X251224Y361262D02*
D03*
X261224D02*
D03*
X17518Y111283D02*
D03*
Y121282D02*
D03*
Y131282D02*
D03*
X7518Y111283D02*
D03*
Y121282D02*
D03*
X385397Y362443D02*
D03*
X375397D02*
D03*
D84*
X331066Y362050D02*
D03*
X271224Y361262D02*
D03*
X395397Y362443D02*
D03*
D85*
X173358Y37007D02*
D03*
X155642D02*
D03*
Y62598D02*
D03*
X392326Y65987D02*
D03*
X372641Y8900D02*
D03*
X382484D02*
D03*
X392326D02*
D03*
D86*
X173358Y62598D02*
D03*
D87*
X17518Y155787D02*
D03*
X108100Y336202D02*
D03*
D88*
X17518Y145787D02*
D03*
X186200Y227402D02*
D03*
X108100Y326202D02*
D03*
D89*
X423200Y238302D02*
D03*
Y228302D02*
D03*
Y208302D02*
D03*
Y218302D02*
D03*
X15500Y210602D02*
D03*
Y190602D02*
D03*
Y200602D02*
D03*
Y220602D02*
D03*
Y230602D02*
D03*
D90*
X423200Y198302D02*
D03*
X15500Y180602D02*
D03*
D91*
X129665Y51279D02*
D03*
X66496D02*
D03*
D92*
X119665D02*
D03*
X56496D02*
D03*
D93*
X139665Y31280D02*
D03*
X99665D02*
D03*
X76496D02*
D03*
X36496D02*
D03*
D94*
X360043Y38428D02*
D03*
X404924D02*
D03*
D95*
X372641Y65987D02*
D03*
D96*
X231500Y16802D02*
D03*
X211815D02*
D03*
D97*
X7518Y131282D02*
D03*
D98*
X15948Y355750D02*
D03*
X421460D02*
D03*
X15948Y17168D02*
D03*
X421460D02*
D03*
D99*
X305712Y57719D02*
D03*
D100*
Y34097D02*
D03*
D101*
X324216Y45908D02*
D03*
D102*
X174311Y167421D02*
D03*
X183268Y168209D02*
D03*
X178150Y163091D02*
D03*
X258661Y240551D02*
D03*
X232776Y162795D02*
D03*
X238484D02*
D03*
X264567Y165847D02*
D03*
X279000Y67502D02*
D03*
X52461Y266929D02*
D03*
X50689Y271752D02*
D03*
X247638Y172244D02*
D03*
X253494Y168909D02*
D03*
X258700Y170102D02*
D03*
X217500Y157902D02*
D03*
X237800Y191502D02*
D03*
Y197802D02*
D03*
X237000Y181402D02*
D03*
X212600Y157802D02*
D03*
X202300Y158202D02*
D03*
X180038Y205302D02*
D03*
X176600Y17002D02*
D03*
X162900Y17102D02*
D03*
X193200Y213202D02*
D03*
X203700Y222802D02*
D03*
X198000Y222702D02*
D03*
X154524Y29621D02*
D03*
X183656Y147202D02*
D03*
X228400Y147802D02*
D03*
X242900Y226702D02*
D03*
X236600Y226902D02*
D03*
X250700Y235602D02*
D03*
X209193Y231933D02*
D03*
X198700Y334502D02*
D03*
X168800Y149402D02*
D03*
X180400Y156502D02*
D03*
X175300Y175802D02*
D03*
X186100Y159402D02*
D03*
X171862Y188002D02*
D03*
X159600Y187402D02*
D03*
X234200Y176402D02*
D03*
X228600Y176502D02*
D03*
X222500D02*
D03*
X173956Y182802D02*
D03*
X262230Y85333D02*
D03*
X241600Y137202D02*
D03*
X233300Y42302D02*
D03*
X227500Y26202D02*
D03*
X253000Y44802D02*
D03*
X266700Y52702D02*
D03*
X196037Y50665D02*
D03*
X130420Y181846D02*
D03*
X131207Y186571D02*
D03*
X130813Y176335D02*
D03*
X130420Y171217D02*
D03*
X256991Y156636D02*
D03*
X247444Y162837D02*
D03*
X207680Y42365D02*
D03*
X196263Y158506D02*
D03*
X139964Y334097D02*
D03*
X210830Y334491D02*
D03*
X258500Y144502D02*
D03*
X250500Y144702D02*
D03*
X250987Y118349D02*
D03*
X285800Y144302D02*
D03*
X213100Y199102D02*
D03*
X163586Y333310D02*
D03*
X175397D02*
D03*
X128153Y334097D02*
D03*
X259255Y58900D02*
D03*
X262798Y134491D02*
D03*
X267100Y144402D02*
D03*
X268310Y134491D02*
D03*
X276500Y144202D02*
D03*
X275397Y134491D02*
D03*
X319885Y83703D02*
D03*
X313980D02*
D03*
X301381Y84097D02*
D03*
X307680D02*
D03*
X300987Y90396D02*
D03*
X319885D02*
D03*
X307287D02*
D03*
X313586D02*
D03*
X326184D02*
D03*
X286300Y119002D02*
D03*
X286200Y127102D02*
D03*
X286100Y135202D02*
D03*
X263980Y190396D02*
D03*
X274216Y195514D02*
D03*
X264373Y200632D02*
D03*
X284846Y68349D02*
D03*
X292720Y70317D02*
D03*
X326184Y83703D02*
D03*
X272541Y58775D02*
D03*
X252956Y209294D02*
D03*
X209900Y184002D02*
D03*
X221200Y198702D02*
D03*
X221500Y190802D02*
D03*
D103*
X292271Y329372D02*
D03*
X295598D02*
D03*
X238511Y329766D02*
D03*
X235185D02*
D03*
X357871Y329569D02*
D03*
X354544D02*
D03*
M02*
