G04*
G04 #@! TF.GenerationSoftware,Altium Limited,Altium Designer,21.8.1 (53)*
G04*
G04 Layer_Color=16711935*
%FSLAX25Y25*%
%MOIN*%
G70*
G04*
G04 #@! TF.SameCoordinates,81EC3893-84E7-45D1-AE65-2CF239B2E5AD*
G04*
G04*
G04 #@! TF.FilePolarity,Positive*
G04*
G01*
G75*
%ADD11C,0.00394*%
%ADD143C,0.00300*%
%ADD144R,0.27165X0.03654*%
%ADD145R,0.01800X0.06693*%
D11*
X208665Y205554D02*
G03*
X208665Y205554I-1969J0D01*
G01*
X306893Y261951D02*
G03*
X306893Y261951I-591J0D01*
G01*
X246657Y263920D02*
G03*
X246657Y263920I-591J0D01*
G01*
X364767Y261951D02*
G03*
X364767Y261951I-591J0D01*
G01*
X272641Y76912D02*
G03*
X272641Y76912I-591J0D01*
G01*
X230909Y274648D02*
X258074D01*
X230909Y301813D02*
X258074D01*
X230909Y274648D02*
Y301813D01*
X258074Y274648D02*
Y301813D01*
X349921Y275387D02*
Y302553D01*
Y275387D02*
X377086D01*
Y302553D01*
X349921D02*
X377086D01*
X317618Y273622D02*
Y300787D01*
X290453Y273622D02*
Y300787D01*
X317618D01*
X290453Y273622D02*
X317618D01*
X258074Y87443D02*
X285239D01*
X258074Y114609D02*
X285239D01*
X258074Y87443D02*
Y114609D01*
X285239Y87443D02*
Y114609D01*
X344999Y337789D02*
X358385D01*
X344999Y344482D02*
X358385D01*
Y337789D02*
Y344482D01*
X344999Y337789D02*
Y344482D01*
X364668Y248369D02*
X368409D01*
X364668Y254865D02*
X368409D01*
X364668Y248369D02*
Y254865D01*
X368409Y248369D02*
Y254865D01*
X306401Y248762D02*
X310141D01*
X306401Y255258D02*
X310141D01*
X306401Y248762D02*
Y255258D01*
X310141Y248762D02*
Y255258D01*
X246457Y250098D02*
X250197D01*
X246457Y256594D02*
X250197D01*
X246457Y250098D02*
Y256594D01*
X250197Y250098D02*
Y256594D01*
X196165Y160573D02*
X199905D01*
X196165Y167069D02*
X199905D01*
X196165Y160573D02*
Y167069D01*
X199905Y160573D02*
Y167069D01*
X203153Y169727D02*
Y209097D01*
X242523Y169727D02*
Y209097D01*
X203153D02*
X242523D01*
X203153Y169727D02*
X242523D01*
X305869Y354589D02*
Y364392D01*
X335869Y354589D02*
Y364392D01*
X305869D02*
X335869D01*
X305869Y354589D02*
X335869D01*
X119098Y339018D02*
Y362640D01*
Y339018D02*
X121066D01*
Y342955D01*
X146657D01*
Y339018D02*
Y342955D01*
Y339018D02*
X148625D01*
Y362640D01*
X119098D02*
X148625D01*
X29432Y344727D02*
Y366380D01*
X65850Y344727D02*
Y366380D01*
X29432Y344727D02*
X65850D01*
X29432Y366380D02*
X65850D01*
X68015Y344333D02*
Y365987D01*
X104432Y344333D02*
Y365987D01*
X68015Y344333D02*
X104432D01*
X68015Y365987D02*
X104432D01*
X6499Y305061D02*
X28153D01*
X6499Y341479D02*
X28153D01*
Y305061D02*
Y341479D01*
X6499Y305061D02*
Y341479D01*
X244239Y14532D02*
X273767D01*
X244239D02*
Y38154D01*
X246208D01*
Y34217D02*
Y38154D01*
Y34217D02*
X271798D01*
Y38154D01*
X273767D01*
Y14532D02*
Y38154D01*
X152512Y59035D02*
X176094D01*
Y35452D02*
Y59035D01*
X152512Y35452D02*
X176094D01*
X152512D02*
Y59035D01*
X166196Y22513D02*
X172692D01*
X166196Y18773D02*
X172692D01*
X166196D02*
Y22513D01*
X172692Y18773D02*
Y22513D01*
X418003Y240743D02*
X428003D01*
X418003Y190743D02*
X428003D01*
Y240743D01*
X418003Y190743D02*
Y240743D01*
X161221Y30217D02*
X174606D01*
X161221Y23524D02*
X174606D01*
X161221D02*
Y30217D01*
X174606Y23524D02*
Y30217D01*
X357680Y9491D02*
Y62247D01*
Y9491D02*
X406893D01*
Y62247D01*
X357680D02*
X406893D01*
X206715Y-4851D02*
X236206D01*
X206715D02*
Y13634D01*
X206697Y13653D02*
X236206D01*
Y-4851D02*
Y13653D01*
X182872Y122101D02*
X228935D01*
Y141786D01*
X182872D02*
X228935D01*
X182872Y122101D02*
Y141786D01*
X230153Y38069D02*
Y41218D01*
X223853D02*
X230153D01*
X223853Y38069D02*
X230153D01*
X223853D02*
Y41218D01*
X210353Y38168D02*
Y41318D01*
Y38168D02*
X216653D01*
X210353Y41318D02*
X216653D01*
Y38168D02*
Y41318D01*
X282287Y336459D02*
X295672D01*
X282287Y343152D02*
X295672D01*
Y336459D02*
Y343152D01*
X282287Y336459D02*
Y343152D01*
X301873Y263141D02*
X302857D01*
X301873Y258203D02*
X302857D01*
X300987Y263231D02*
X301873D01*
X302857D02*
X303842D01*
X301873Y264018D02*
X302857D01*
X305810D02*
X306795D01*
X300987Y258113D02*
Y263231D01*
X305810Y263141D02*
X306795D01*
X302857Y257325D02*
Y258203D01*
Y263141D02*
Y264018D01*
X301873Y263141D02*
Y264018D01*
Y257325D02*
Y258203D01*
X302857Y258113D02*
X305810D01*
X303842Y263141D02*
X304826D01*
X305810Y258203D02*
X306795D01*
X305810Y257325D02*
Y258203D01*
X306795Y263231D02*
X307680D01*
X306795Y257325D02*
Y258203D01*
X305810Y257325D02*
X306795D01*
X303842Y263141D02*
Y264018D01*
X304826D01*
X306795Y258113D02*
X307680D01*
X304826Y263141D02*
Y264018D01*
X300987Y258113D02*
X301873D01*
Y257325D02*
X302857D01*
X307680Y258113D02*
Y263231D01*
X306795Y263141D02*
Y264018D01*
X304826Y263231D02*
X305810D01*
Y263141D02*
Y264018D01*
X304826Y257325D02*
Y258203D01*
X303842Y257325D02*
X304826D01*
X303842D02*
Y258203D01*
X304826D01*
X189767Y362640D02*
X219295D01*
Y339018D02*
Y362640D01*
X217326Y339018D02*
X219295D01*
X217326D02*
Y342955D01*
X191735D02*
X217326D01*
X191735Y339018D02*
Y342955D01*
X189767Y339018D02*
X191735D01*
X189767D02*
Y362640D01*
X246027Y353802D02*
Y363605D01*
X276027Y353802D02*
Y363605D01*
X246027D02*
X276027D01*
X246027Y353802D02*
X276027D01*
X22321Y102975D02*
Y134471D01*
X2321D02*
X22321D01*
X2321Y102975D02*
Y134471D01*
Y102975D02*
X22321D01*
X10303Y233043D02*
X20303D01*
X10303Y173043D02*
X20303D01*
Y233043D01*
X10303Y173043D02*
Y233043D01*
X370200Y354983D02*
Y364786D01*
X400200Y354983D02*
Y364786D01*
X370200D02*
X400200D01*
X370200Y354983D02*
X400200D01*
X287799Y57915D02*
X323232D01*
X287799Y1222D02*
Y57915D01*
Y1222D02*
X323232D01*
Y57915D01*
X59153Y270472D02*
X62894D01*
X59153Y263583D02*
X62894D01*
Y270472D01*
X59153Y263583D02*
Y270472D01*
X175758Y178373D02*
Y182113D01*
X182648Y178373D02*
Y182113D01*
X175758D02*
X182648D01*
X175758Y178373D02*
X182648D01*
X191047Y160573D02*
X194787D01*
X191047Y167069D02*
X194787D01*
X191047Y160573D02*
Y167069D01*
X194787Y160573D02*
Y167069D01*
X243605Y260171D02*
X244590D01*
X243605Y259294D02*
Y260171D01*
Y259294D02*
X244590D01*
Y260171D01*
X245574Y265109D02*
Y265987D01*
X244590Y265199D02*
X245574D01*
X246558Y265109D02*
Y265987D01*
X247444Y260081D02*
Y265199D01*
X241637Y259294D02*
X242621D01*
X240751Y260081D02*
X241637D01*
X244590Y265109D02*
Y265987D01*
X246558Y260081D02*
X247444D01*
X243605Y265987D02*
X244590D01*
X243605Y265109D02*
Y265987D01*
X245574Y259294D02*
X246558D01*
Y260171D01*
Y265199D02*
X247444D01*
X245574Y259294D02*
Y260171D01*
X246558D01*
X243605Y265109D02*
X244590D01*
X242621Y260081D02*
X245574D01*
X241637Y259294D02*
Y260171D01*
Y265109D02*
Y265987D01*
X242621Y265109D02*
Y265987D01*
Y259294D02*
Y260171D01*
X245574Y265109D02*
X246558D01*
X240751Y260081D02*
Y265199D01*
X245574Y265987D02*
X246558D01*
X241637D02*
X242621D01*
Y265199D02*
X243605D01*
X240751D02*
X241637D01*
Y260171D02*
X242621D01*
X241637Y265109D02*
X242621D01*
X248920Y260179D02*
X252661D01*
X248920Y266676D02*
X252661D01*
X248920Y260179D02*
Y266676D01*
X252661Y260179D02*
Y266676D01*
X252857Y185967D02*
Y189707D01*
X259353Y185967D02*
Y189707D01*
X252857D02*
X259353D01*
X252857Y185967D02*
X259353D01*
X263291Y191085D02*
Y194825D01*
X269787Y191085D02*
Y194825D01*
X263291D02*
X269787D01*
X263291Y191085D02*
X269787D01*
X259353Y191577D02*
Y195317D01*
X252857Y191577D02*
Y195317D01*
Y191577D02*
X259353D01*
X252857Y195317D02*
X259353D01*
X309157Y258014D02*
X312897D01*
X309157Y264510D02*
X312897D01*
X309157Y258014D02*
Y264510D01*
X312897Y258014D02*
Y264510D01*
X225594Y335672D02*
X238980D01*
X225594Y342365D02*
X238980D01*
Y335672D02*
Y342365D01*
X225594Y335672D02*
Y342365D01*
X361716Y258203D02*
X362700D01*
X361716Y257325D02*
Y258203D01*
Y257325D02*
X362700D01*
Y258203D01*
X363684Y263141D02*
Y264018D01*
X362700Y263231D02*
X363684D01*
X364668Y263141D02*
Y264018D01*
X365554Y258113D02*
Y263231D01*
X359747Y257325D02*
X360732D01*
X358861Y258113D02*
X359747D01*
X362700Y263141D02*
Y264018D01*
X364668Y258113D02*
X365554D01*
X361716Y264018D02*
X362700D01*
X361716Y263141D02*
Y264018D01*
X363684Y257325D02*
X364668D01*
Y258203D01*
Y263231D02*
X365554D01*
X363684Y257325D02*
Y258203D01*
X364668D01*
X361716Y263141D02*
X362700D01*
X360732Y258113D02*
X363684D01*
X359747Y257325D02*
Y258203D01*
Y263141D02*
Y264018D01*
X360732Y263141D02*
Y264018D01*
Y257325D02*
Y258203D01*
X363684Y263141D02*
X364668D01*
X358861Y258113D02*
Y263231D01*
X363684Y264018D02*
X364668D01*
X359747D02*
X360732D01*
Y263231D02*
X361716D01*
X358861D02*
X359747D01*
Y258203D02*
X360732D01*
X359747Y263141D02*
X360732D01*
X370377Y257817D02*
Y264313D01*
X366637Y257817D02*
Y264313D01*
X370377D01*
X366637Y257817D02*
X370377D01*
X154531Y362640D02*
X184058D01*
Y339018D02*
Y362640D01*
X182090Y339018D02*
X184058D01*
X182090D02*
Y342955D01*
X156499D02*
X182090D01*
X156499Y339018D02*
Y342955D01*
X154531Y339018D02*
X156499D01*
X154531D02*
Y362640D01*
X186393Y142972D02*
Y146515D01*
X193086Y142972D02*
Y146515D01*
X186393D02*
X193086D01*
X186393Y142972D02*
X193086D01*
X224586Y143472D02*
Y147015D01*
X217893Y143472D02*
Y147015D01*
Y143472D02*
X224586D01*
X217893Y147015D02*
X224586D01*
X260928Y59392D02*
Y65888D01*
X257188Y59392D02*
Y65888D01*
X260928D01*
X257188Y59392D02*
X260928D01*
X269590Y73163D02*
X270574D01*
X269590Y72286D02*
Y73163D01*
Y72286D02*
X270574D01*
Y73163D01*
X271558Y78101D02*
Y78979D01*
X270574Y78191D02*
X271558D01*
X272543Y78101D02*
Y78979D01*
X273428Y73073D02*
Y78191D01*
X267621Y72286D02*
X268605D01*
X266735Y73073D02*
X267621D01*
X270574Y78101D02*
Y78979D01*
X272543Y73073D02*
X273428D01*
X269590Y78979D02*
X270574D01*
X269590Y78101D02*
Y78979D01*
X271558Y72286D02*
X272543D01*
Y73163D01*
Y78191D02*
X273428D01*
X271558Y72286D02*
Y73163D01*
X272543D01*
X269590Y78101D02*
X270574D01*
X268605Y73073D02*
X271558D01*
X267621Y72286D02*
Y73163D01*
Y78101D02*
Y78979D01*
X268605Y78101D02*
Y78979D01*
Y72286D02*
Y73163D01*
X271558Y78101D02*
X272543D01*
X266735Y73073D02*
Y78191D01*
X271558Y78979D02*
X272543D01*
X267621D02*
X268605D01*
Y78191D02*
X269590D01*
X266735D02*
X267621D01*
Y73163D02*
X268605D01*
X267621Y78101D02*
X268605D01*
X274373Y60995D02*
Y67491D01*
X270633Y60995D02*
Y67491D01*
X274373D01*
X270633Y60995D02*
X274373D01*
X32582Y319825D02*
Y326715D01*
X28842Y319825D02*
Y326715D01*
X32582D01*
X28842Y319825D02*
X32582D01*
X44196Y339904D02*
Y343644D01*
X51086Y339904D02*
Y343644D01*
X44196D02*
X51086D01*
X44196Y339904D02*
X51086D01*
X83172Y340298D02*
X90062D01*
X83172Y344038D02*
X90062D01*
Y340298D02*
Y344038D01*
X83172Y340298D02*
Y344038D01*
D143*
X272838Y73232D02*
Y77398D01*
X272005Y78231D01*
X270339D01*
X269506Y77398D01*
Y73232D01*
X267839Y74065D02*
X267006Y73232D01*
X265340D01*
X264507Y74065D01*
Y74898D01*
X265340Y75731D01*
X264507Y76565D01*
Y77398D01*
X265340Y78231D01*
X267006D01*
X267839Y77398D01*
Y76565D01*
X267006Y75731D01*
X267839Y74898D01*
Y74065D01*
X267006Y75731D02*
X265340D01*
D144*
X244491Y276476D02*
D03*
X363502Y277216D02*
D03*
X304034Y275450D02*
D03*
X271656Y89271D02*
D03*
D145*
X357484Y341136D02*
D03*
X162121Y26870D02*
D03*
X294771Y339806D02*
D03*
X238079Y339019D02*
D03*
M02*
