G04*
G04 #@! TF.GenerationSoftware,Altium Limited,Altium Designer,21.8.1 (53)*
G04*
G04 Layer_Color=255*
%FSLAX25Y25*%
%MOIN*%
G70*
G04*
G04 #@! TF.SameCoordinates,194331D0-D63E-4C46-886B-6A61BDF2C4D5*
G04*
G04*
G04 #@! TF.FilePolarity,Positive*
G04*
G01*
G75*
%ADD18R,0.03740X0.03150*%
%ADD19O,0.08071X0.02362*%
%ADD20O,0.02362X0.08071*%
%ADD21R,0.04331X0.08071*%
%ADD22R,0.03347X0.02756*%
%ADD23R,0.03937X0.02953*%
%ADD24R,0.02894X0.03394*%
%ADD25R,0.03773X0.03963*%
%ADD26R,0.04331X0.07480*%
%ADD27R,0.02756X0.10236*%
%ADD28R,0.03591X0.04453*%
%ADD29R,0.03150X0.03740*%
%ADD30R,0.13780X0.11811*%
%ADD31R,0.02953X0.03543*%
G04:AMPARAMS|DCode=32|XSize=26.38mil|YSize=11.81mil|CornerRadius=1.95mil|HoleSize=0mil|Usage=FLASHONLY|Rotation=0.000|XOffset=0mil|YOffset=0mil|HoleType=Round|Shape=RoundedRectangle|*
%AMROUNDEDRECTD32*
21,1,0.02638,0.00791,0,0,0.0*
21,1,0.02248,0.01181,0,0,0.0*
1,1,0.00390,0.01124,-0.00396*
1,1,0.00390,-0.01124,-0.00396*
1,1,0.00390,-0.01124,0.00396*
1,1,0.00390,0.01124,0.00396*
%
%ADD32ROUNDEDRECTD32*%
%ADD33R,0.03543X0.02953*%
%ADD34R,0.03543X0.03150*%
%ADD35R,0.04724X0.05906*%
%ADD36R,0.03150X0.03543*%
%ADD37R,0.01575X0.05315*%
%ADD38R,0.05906X0.07480*%
%ADD39R,0.21654X0.07874*%
%ADD40R,0.04182X0.04469*%
%ADD41R,0.02953X0.03937*%
%ADD42R,0.03150X0.03150*%
%ADD43R,0.03788X0.03681*%
%ADD44R,0.04016X0.02992*%
%ADD45R,0.05938X0.05534*%
G04:AMPARAMS|DCode=46|XSize=19.68mil|YSize=9.84mil|CornerRadius=1.97mil|HoleSize=0mil|Usage=FLASHONLY|Rotation=270.000|XOffset=0mil|YOffset=0mil|HoleType=Round|Shape=RoundedRectangle|*
%AMROUNDEDRECTD46*
21,1,0.01968,0.00591,0,0,270.0*
21,1,0.01575,0.00984,0,0,270.0*
1,1,0.00394,-0.00295,-0.00787*
1,1,0.00394,-0.00295,0.00787*
1,1,0.00394,0.00295,0.00787*
1,1,0.00394,0.00295,-0.00787*
%
%ADD46ROUNDEDRECTD46*%
%ADD47R,0.01181X0.02638*%
%ADD48R,0.03937X0.03543*%
%ADD49R,0.03937X0.03937*%
%ADD50R,0.03543X0.03937*%
%ADD51R,0.03150X0.03150*%
%ADD52R,0.05339X0.04152*%
%ADD53R,0.04469X0.04182*%
%ADD54R,0.12598X0.05906*%
%ADD55R,0.03347X0.03347*%
%ADD56R,0.08000X0.04500*%
%ADD57R,0.03937X0.03937*%
%ADD83C,0.06299*%
%ADD84R,0.06299X0.06299*%
%ADD85R,0.06181X0.06181*%
%ADD86C,0.06181*%
%ADD89C,0.05512*%
%ADD90R,0.05512X0.05512*%
%ADD91C,0.12008*%
%ADD94C,0.06102*%
%ADD95C,0.03937*%
G04:AMPARAMS|DCode=103|XSize=35.43mil|YSize=62.99mil|CornerRadius=1.95mil|HoleSize=0mil|Usage=FLASHONLY|Rotation=270.000|XOffset=0mil|YOffset=0mil|HoleType=Round|Shape=RoundedRectangle|*
%AMROUNDEDRECTD103*
21,1,0.03543,0.05909,0,0,270.0*
21,1,0.03154,0.06299,0,0,270.0*
1,1,0.00390,-0.02955,-0.01577*
1,1,0.00390,-0.02955,0.01577*
1,1,0.00390,0.02955,0.01577*
1,1,0.00390,0.02955,-0.01577*
%
%ADD103ROUNDEDRECTD103*%
%ADD108C,0.06000*%
%ADD109R,0.06000X0.06000*%
%ADD110C,0.17717*%
%ADD111R,0.06102X0.06102*%
%ADD112C,0.05906*%
%ADD113R,0.05906X0.05906*%
%ADD114R,0.09055X0.12205*%
%ADD115R,0.05906X0.05906*%
%ADD116C,0.05709*%
%ADD117R,0.06102X0.06102*%
%ADD118C,0.18307*%
%ADD119R,0.15748X0.05906*%
%ADD120R,0.13780X0.05906*%
%ADD121R,0.05906X0.13780*%
D18*
X198035Y161262D02*
D03*
Y166380D02*
D03*
X192917Y161262D02*
D03*
Y166380D02*
D03*
X250791Y260869D02*
D03*
Y265987D02*
D03*
X311027Y258703D02*
D03*
Y263821D02*
D03*
X368507Y263624D02*
D03*
Y258506D02*
D03*
X259058Y65199D02*
D03*
Y60081D02*
D03*
X272503Y66802D02*
D03*
Y61684D02*
D03*
D19*
X200397Y205160D02*
D03*
Y202010D02*
D03*
Y198861D02*
D03*
Y195711D02*
D03*
Y192561D02*
D03*
Y189412D02*
D03*
Y186262D02*
D03*
Y183113D02*
D03*
Y179963D02*
D03*
Y176813D02*
D03*
Y173664D02*
D03*
X245279D02*
D03*
Y176813D02*
D03*
Y179963D02*
D03*
Y183113D02*
D03*
Y186262D02*
D03*
Y189412D02*
D03*
Y192561D02*
D03*
Y195711D02*
D03*
Y198861D02*
D03*
Y202010D02*
D03*
Y205160D02*
D03*
D20*
X207090Y166971D02*
D03*
X210239D02*
D03*
X213389D02*
D03*
X216539D02*
D03*
X219688D02*
D03*
X222838D02*
D03*
X225987D02*
D03*
X229137D02*
D03*
X232287D02*
D03*
X235436D02*
D03*
X238586D02*
D03*
Y211853D02*
D03*
X235436D02*
D03*
X232287D02*
D03*
X229137D02*
D03*
X225987D02*
D03*
X222838D02*
D03*
X219688D02*
D03*
X216539D02*
D03*
X213389D02*
D03*
X210239D02*
D03*
X207090D02*
D03*
D21*
X379350Y331577D02*
D03*
X392342D02*
D03*
X392326Y343742D02*
D03*
X379334D02*
D03*
X312995Y330655D02*
D03*
X325987D02*
D03*
X313389Y343451D02*
D03*
X326381D02*
D03*
X252956Y331931D02*
D03*
X265948D02*
D03*
Y343349D02*
D03*
X252956D02*
D03*
D22*
X308271Y249648D02*
D03*
Y254372D02*
D03*
X248303Y251581D02*
D03*
Y256306D02*
D03*
X366539Y249254D02*
D03*
Y253979D02*
D03*
D23*
X302759Y247876D02*
D03*
Y253782D02*
D03*
X242703Y249791D02*
D03*
Y255696D02*
D03*
X361420Y247876D02*
D03*
Y253782D02*
D03*
D24*
X357998Y318939D02*
D03*
X353153D02*
D03*
X234134Y319333D02*
D03*
X238980D02*
D03*
X290887D02*
D03*
X295733D02*
D03*
D25*
X345787Y333166D02*
D03*
Y327451D02*
D03*
X301184Y331246D02*
D03*
Y325531D02*
D03*
X286224Y325137D02*
D03*
Y330852D02*
D03*
X228743Y325632D02*
D03*
Y331348D02*
D03*
X364487Y333166D02*
D03*
Y327451D02*
D03*
X244098Y325239D02*
D03*
Y330954D02*
D03*
D26*
X147444Y354766D02*
D03*
X120279D02*
D03*
X272586Y22406D02*
D03*
X245421D02*
D03*
X190948Y354766D02*
D03*
X218113D02*
D03*
X155712Y354766D02*
D03*
X182877D02*
D03*
D27*
X139767Y340396D02*
D03*
X133861D02*
D03*
X127956D02*
D03*
X264909Y36776D02*
D03*
X259003D02*
D03*
X253098D02*
D03*
X198625Y340396D02*
D03*
X204531D02*
D03*
X210436D02*
D03*
X163389Y340396D02*
D03*
X169295D02*
D03*
X175200D02*
D03*
D28*
X277168Y77132D02*
D03*
Y72089D02*
D03*
X353153Y263587D02*
D03*
Y258544D02*
D03*
X296803Y258122D02*
D03*
Y263165D02*
D03*
X316539Y262959D02*
D03*
Y257916D02*
D03*
X236617Y265949D02*
D03*
Y260906D02*
D03*
X256302Y260512D02*
D03*
Y265556D02*
D03*
X292720Y307858D02*
D03*
Y312901D02*
D03*
X236224Y313587D02*
D03*
Y308544D02*
D03*
X373625Y263821D02*
D03*
Y258778D02*
D03*
X355137Y307599D02*
D03*
Y312642D02*
D03*
X262208Y125792D02*
D03*
Y120748D02*
D03*
X262995Y76345D02*
D03*
Y71302D02*
D03*
D29*
X166885Y20643D02*
D03*
X172003D02*
D03*
X253547Y187837D02*
D03*
X258665D02*
D03*
X263980Y192955D02*
D03*
X269098D02*
D03*
X258665Y193447D02*
D03*
X253547D02*
D03*
D30*
X244491Y277404D02*
D03*
Y299058D02*
D03*
X363503Y299797D02*
D03*
Y278143D02*
D03*
X304137Y277506D02*
D03*
Y299159D02*
D03*
X271657Y111853D02*
D03*
Y90199D02*
D03*
D31*
X212441Y159943D02*
D03*
X217165D02*
D03*
X177941Y185443D02*
D03*
X182665D02*
D03*
X235541Y218743D02*
D03*
X240265D02*
D03*
X186879Y202743D02*
D03*
X191603D02*
D03*
X167328Y14722D02*
D03*
X172053D02*
D03*
X45279Y337050D02*
D03*
X50003D02*
D03*
X84255D02*
D03*
X88980D02*
D03*
D32*
X89903Y62712D02*
D03*
Y60743D02*
D03*
Y58775D02*
D03*
X84076D02*
D03*
Y60743D02*
D03*
Y62712D02*
D03*
D33*
X94603Y61143D02*
D03*
Y65868D02*
D03*
X56201Y264567D02*
D03*
Y269291D02*
D03*
X198103Y211181D02*
D03*
Y215905D02*
D03*
X203203Y211281D02*
D03*
Y216005D02*
D03*
X213496Y219712D02*
D03*
Y224436D02*
D03*
X258603Y176105D02*
D03*
Y171381D02*
D03*
X36224Y320514D02*
D03*
Y325239D02*
D03*
D34*
X100503Y67049D02*
D03*
Y61143D02*
D03*
X203153Y166380D02*
D03*
Y160475D02*
D03*
X253303Y170391D02*
D03*
Y176296D02*
D03*
D35*
X162894Y26870D02*
D03*
X172933D02*
D03*
X346672Y341135D02*
D03*
X356712D02*
D03*
X293999Y339806D02*
D03*
X283960D02*
D03*
X237306Y339018D02*
D03*
X227267D02*
D03*
D36*
X348950Y347943D02*
D03*
X354856D02*
D03*
X288650Y346543D02*
D03*
X294556D02*
D03*
X231403Y345443D02*
D03*
X237309D02*
D03*
X190056Y191143D02*
D03*
X184150D02*
D03*
X259058Y198073D02*
D03*
X253153D02*
D03*
D37*
X216342Y14243D02*
D03*
X218902D02*
D03*
X221461D02*
D03*
X224020D02*
D03*
X226579D02*
D03*
D38*
X217524Y3613D02*
D03*
X225398D02*
D03*
D39*
X224605Y131943D02*
D03*
X187203D02*
D03*
D40*
X240803Y147353D02*
D03*
Y140933D02*
D03*
D41*
X125302Y179287D02*
D03*
X119396D02*
D03*
X125302Y168658D02*
D03*
X119396D02*
D03*
X202850Y144843D02*
D03*
X208756D02*
D03*
D42*
X125302Y184012D02*
D03*
X119396D02*
D03*
X125302Y173776D02*
D03*
X119396D02*
D03*
D43*
X216932Y44924D02*
D03*
Y50557D02*
D03*
X222838Y44924D02*
D03*
Y50557D02*
D03*
X266539Y63428D02*
D03*
Y57795D02*
D03*
X256696Y126087D02*
D03*
Y120454D02*
D03*
D44*
X229995Y39643D02*
D03*
X224011D02*
D03*
X210511Y39743D02*
D03*
X216495D02*
D03*
D45*
X333074Y254766D02*
D03*
Y262059D02*
D03*
X323625Y254372D02*
D03*
Y261666D02*
D03*
X264176Y263925D02*
D03*
Y256631D02*
D03*
X273625Y263925D02*
D03*
Y256631D02*
D03*
X392129Y254860D02*
D03*
Y262153D02*
D03*
X381499Y254953D02*
D03*
Y262246D02*
D03*
X284649Y78491D02*
D03*
Y71198D02*
D03*
X292523Y73664D02*
D03*
Y80957D02*
D03*
D46*
X296657Y330554D02*
D03*
X294688D02*
D03*
X292720D02*
D03*
X290751D02*
D03*
Y323073D02*
D03*
X292720D02*
D03*
X294688D02*
D03*
X296657D02*
D03*
X239570Y323467D02*
D03*
X237602D02*
D03*
X235633D02*
D03*
X233665D02*
D03*
Y330947D02*
D03*
X235633D02*
D03*
X237602D02*
D03*
X239570D02*
D03*
X358930Y323270D02*
D03*
X356961D02*
D03*
X354993D02*
D03*
X353024D02*
D03*
Y330750D02*
D03*
X354993D02*
D03*
X356961D02*
D03*
X358930D02*
D03*
D47*
X306302Y263585D02*
D03*
X304334D02*
D03*
X302365D02*
D03*
Y257758D02*
D03*
X304334D02*
D03*
X306302D02*
D03*
X246066Y259727D02*
D03*
X244098D02*
D03*
X242129D02*
D03*
Y265553D02*
D03*
X244098D02*
D03*
X246066D02*
D03*
X364176Y257758D02*
D03*
X362208D02*
D03*
X360239D02*
D03*
Y263585D02*
D03*
X362208D02*
D03*
X364176D02*
D03*
X272050Y72719D02*
D03*
X270082D02*
D03*
X268113D02*
D03*
Y78546D02*
D03*
X270082D02*
D03*
X272050D02*
D03*
D48*
X61024Y270177D02*
D03*
Y263878D02*
D03*
X30712Y326420D02*
D03*
Y320121D02*
D03*
D49*
X159366Y191743D02*
D03*
X167240D02*
D03*
X59944Y348861D02*
D03*
X98527Y348467D02*
D03*
X349019Y358616D02*
D03*
X289653Y357978D02*
D03*
X231976Y355514D02*
D03*
D50*
X176054Y180243D02*
D03*
X182353D02*
D03*
X44491Y341774D02*
D03*
X50791D02*
D03*
X89767Y342168D02*
D03*
X83468D02*
D03*
D51*
X250791Y120317D02*
D03*
Y126223D02*
D03*
D52*
X306499Y313237D02*
D03*
Y307522D02*
D03*
X249216Y308106D02*
D03*
Y313821D02*
D03*
X362027Y312978D02*
D03*
Y307263D02*
D03*
X368917Y312978D02*
D03*
Y307263D02*
D03*
X275200Y120806D02*
D03*
Y126521D02*
D03*
X268113Y120806D02*
D03*
Y126521D02*
D03*
X242523Y308106D02*
D03*
Y313821D02*
D03*
X299609Y313237D02*
D03*
Y307522D02*
D03*
D53*
X278713Y179543D02*
D03*
X272293D02*
D03*
X251480Y154077D02*
D03*
X245059D02*
D03*
D54*
X195803Y21376D02*
D03*
Y37911D02*
D03*
D55*
X187476Y144743D02*
D03*
X192003D02*
D03*
X223503Y145243D02*
D03*
X218976D02*
D03*
D56*
X318901Y74977D02*
D03*
Y64477D02*
D03*
D57*
X264303Y168306D02*
D03*
Y176180D02*
D03*
X24019Y335573D02*
D03*
D83*
X423003Y235743D02*
D03*
Y225743D02*
D03*
Y205743D02*
D03*
Y215743D02*
D03*
X15303Y208043D02*
D03*
Y188043D02*
D03*
Y198043D02*
D03*
Y218043D02*
D03*
Y228043D02*
D03*
D84*
X423003Y195743D02*
D03*
X15303Y178043D02*
D03*
D85*
X17321Y153228D02*
D03*
X107903Y333643D02*
D03*
D86*
X17321Y143228D02*
D03*
X186003Y224843D02*
D03*
X107903Y323643D02*
D03*
D89*
X129469Y48720D02*
D03*
X66299D02*
D03*
D90*
X119468D02*
D03*
X56299D02*
D03*
D91*
X139469Y28721D02*
D03*
X99468D02*
D03*
X76299D02*
D03*
X36299D02*
D03*
D94*
X310869Y359491D02*
D03*
X320869D02*
D03*
X251027Y358703D02*
D03*
X261027D02*
D03*
X17321Y108723D02*
D03*
Y118723D02*
D03*
Y128723D02*
D03*
X7321Y108723D02*
D03*
Y118723D02*
D03*
X385200Y359884D02*
D03*
X375200D02*
D03*
D95*
X35338Y348861D02*
D03*
X55023D02*
D03*
X40259D02*
D03*
X50102D02*
D03*
X45180D02*
D03*
X73921Y348467D02*
D03*
X93606D02*
D03*
X78842D02*
D03*
X88684D02*
D03*
X83763D02*
D03*
X24019Y310967D02*
D03*
Y330652D02*
D03*
Y315888D02*
D03*
Y325731D02*
D03*
Y320810D02*
D03*
X353940Y358616D02*
D03*
X294574Y357978D02*
D03*
X236897Y355514D02*
D03*
D103*
X293704Y326813D02*
D03*
X236617Y327207D02*
D03*
X355977Y327010D02*
D03*
D108*
X67239Y247435D02*
D03*
Y255435D02*
D03*
Y263435D02*
D03*
D109*
Y271435D02*
D03*
D110*
X401972Y292561D02*
D03*
X34255D02*
D03*
Y75239D02*
D03*
X401972Y74845D02*
D03*
D111*
X330869Y359491D02*
D03*
X271027Y358703D02*
D03*
X395200Y359884D02*
D03*
D112*
X173161Y34448D02*
D03*
X155445D02*
D03*
Y60039D02*
D03*
X392129Y63428D02*
D03*
X372444Y6341D02*
D03*
X382287D02*
D03*
X392129D02*
D03*
D113*
X173161Y60039D02*
D03*
D114*
X359846Y35868D02*
D03*
X404728D02*
D03*
D115*
X372444Y63428D02*
D03*
D116*
X231303Y14243D02*
D03*
X211618D02*
D03*
D117*
X7321Y128723D02*
D03*
D118*
X15751Y353191D02*
D03*
X421263D02*
D03*
X15751Y14609D02*
D03*
X421263D02*
D03*
D119*
X305515Y55160D02*
D03*
D120*
Y31538D02*
D03*
D121*
X324019Y43349D02*
D03*
M02*
