G04*
G04 #@! TF.GenerationSoftware,Altium Limited,Altium Designer,21.8.1 (53)*
G04*
G04 Layer_Color=8421504*
%FSLAX25Y25*%
%MOIN*%
G70*
G04*
G04 #@! TF.SameCoordinates,92EEE739-4F3B-4374-ACD8-CC48A347F5D9*
G04*
G04*
G04 #@! TF.FilePolarity,Positive*
G04*
G01*
G75*
%ADD17C,0.01968*%
%ADD18R,0.13780X0.11811*%
%ADD19C,0.06000*%
%ADD20R,0.05339X0.04152*%
%ADD21R,0.03773X0.03963*%
%ADD22R,0.04724X0.05906*%
%ADD23R,0.03740X0.03150*%
%ADD24O,0.08071X0.02362*%
%ADD25O,0.02362X0.08071*%
%ADD26R,0.04331X0.08071*%
%ADD27R,0.03937X0.02953*%
%ADD28R,0.02894X0.03394*%
%ADD29R,0.04331X0.07480*%
%ADD30R,0.02756X0.10236*%
%ADD31R,0.03591X0.04453*%
%ADD32R,0.03150X0.03740*%
%ADD33R,0.02953X0.03543*%
G04:AMPARAMS|DCode=34|XSize=26.38mil|YSize=11.81mil|CornerRadius=1.95mil|HoleSize=0mil|Usage=FLASHONLY|Rotation=0.000|XOffset=0mil|YOffset=0mil|HoleType=Round|Shape=RoundedRectangle|*
%AMROUNDEDRECTD34*
21,1,0.02638,0.00791,0,0,0.0*
21,1,0.02248,0.01181,0,0,0.0*
1,1,0.00390,0.01124,-0.00396*
1,1,0.00390,-0.01124,-0.00396*
1,1,0.00390,-0.01124,0.00396*
1,1,0.00390,0.01124,0.00396*
%
%ADD34ROUNDEDRECTD34*%
%ADD35R,0.03543X0.02953*%
%ADD36R,0.03543X0.03150*%
%ADD37R,0.03150X0.03543*%
%ADD38R,0.01575X0.05315*%
%ADD39R,0.05906X0.07480*%
%ADD40R,0.21654X0.07874*%
%ADD41R,0.04182X0.04469*%
%ADD42R,0.02953X0.03937*%
%ADD43R,0.03150X0.03150*%
%ADD44R,0.03788X0.03681*%
%ADD45R,0.04016X0.02992*%
%ADD46R,0.05938X0.05534*%
G04:AMPARAMS|DCode=47|XSize=19.68mil|YSize=9.84mil|CornerRadius=1.97mil|HoleSize=0mil|Usage=FLASHONLY|Rotation=270.000|XOffset=0mil|YOffset=0mil|HoleType=Round|Shape=RoundedRectangle|*
%AMROUNDEDRECTD47*
21,1,0.01968,0.00591,0,0,270.0*
21,1,0.01575,0.00984,0,0,270.0*
1,1,0.00394,-0.00295,-0.00787*
1,1,0.00394,-0.00295,0.00787*
1,1,0.00394,0.00295,0.00787*
1,1,0.00394,0.00295,-0.00787*
%
%ADD47ROUNDEDRECTD47*%
%ADD48R,0.01181X0.02638*%
%ADD49R,0.03937X0.03543*%
%ADD50R,0.03937X0.03937*%
%ADD51R,0.03543X0.03937*%
%ADD52R,0.03150X0.03150*%
%ADD53R,0.04469X0.04182*%
%ADD54R,0.12598X0.05906*%
%ADD55R,0.03347X0.03347*%
%ADD56R,0.08000X0.04500*%
%ADD57R,0.03937X0.03937*%
G36*
X239878Y331508D02*
X239934Y331452D01*
X239964Y331380D01*
Y331341D01*
Y328191D01*
Y328152D01*
X239934Y328080D01*
X239878Y328025D01*
X239806Y327994D01*
X237366D01*
X237293Y328025D01*
X237238Y328080D01*
X237208Y328152D01*
Y328191D01*
Y331341D01*
Y331380D01*
X237238Y331452D01*
X237293Y331508D01*
X237366Y331538D01*
X239806D01*
X239878Y331508D01*
D02*
G37*
G36*
X236335D02*
X236390Y331452D01*
X236420Y331380D01*
Y331341D01*
Y328191D01*
Y328152D01*
X236390Y328080D01*
X236335Y328025D01*
X236263Y327994D01*
X233822D01*
X233750Y328025D01*
X233695Y328080D01*
X233665Y328152D01*
Y328191D01*
Y331341D01*
Y331380D01*
X233695Y331452D01*
X233750Y331508D01*
X233822Y331538D01*
X236263D01*
X236335Y331508D01*
D02*
G37*
G36*
X359238Y331311D02*
X359294Y331256D01*
X359324Y331183D01*
Y331144D01*
Y327994D01*
Y327955D01*
X359294Y327883D01*
X359238Y327828D01*
X359166Y327798D01*
X356725D01*
X356653Y327828D01*
X356598Y327883D01*
X356568Y327955D01*
Y327994D01*
Y331144D01*
Y331183D01*
X356598Y331256D01*
X356653Y331311D01*
X356725Y331341D01*
X359166D01*
X359238Y331311D01*
D02*
G37*
G36*
X355695D02*
X355750Y331256D01*
X355780Y331183D01*
Y331144D01*
Y327994D01*
Y327955D01*
X355750Y327883D01*
X355695Y327828D01*
X355623Y327798D01*
X353182D01*
X353110Y327828D01*
X353054Y327883D01*
X353024Y327955D01*
Y327994D01*
Y331144D01*
Y331183D01*
X353054Y331256D01*
X353110Y331311D01*
X353182Y331341D01*
X355623D01*
X355695Y331311D01*
D02*
G37*
G36*
X296965Y331114D02*
X297020Y331059D01*
X297050Y330986D01*
Y330947D01*
Y327798D01*
Y327759D01*
X297020Y327686D01*
X296965Y327631D01*
X296893Y327601D01*
X294452D01*
X294380Y327631D01*
X294324Y327686D01*
X294295Y327759D01*
Y327798D01*
Y330947D01*
Y330986D01*
X294324Y331059D01*
X294380Y331114D01*
X294452Y331144D01*
X296893D01*
X296965Y331114D01*
D02*
G37*
G36*
X293422D02*
X293477Y331059D01*
X293507Y330986D01*
Y330947D01*
Y327798D01*
Y327759D01*
X293477Y327686D01*
X293422Y327631D01*
X293349Y327601D01*
X290909D01*
X290837Y327631D01*
X290781Y327686D01*
X290751Y327759D01*
Y327798D01*
Y330947D01*
Y330986D01*
X290781Y331059D01*
X290837Y331114D01*
X290909Y331144D01*
X293349D01*
X293422Y331114D01*
D02*
G37*
G36*
X237799Y4401D02*
X235831D01*
Y7944D01*
X237799D01*
X237799Y4401D01*
D02*
G37*
G36*
X207484Y4401D02*
X205516D01*
X205516Y7944D01*
X207484D01*
Y4401D01*
D02*
G37*
G36*
X235831Y2432D02*
X230713D01*
Y9913D01*
X235831D01*
Y2432D01*
D02*
G37*
G36*
X212602D02*
X207484D01*
Y9913D01*
X212602D01*
Y2432D01*
D02*
G37*
D17*
X208469Y4401D02*
X207976Y5253D01*
X206992D01*
X206500Y4401D01*
X206992Y3548D01*
X207976D01*
X208469Y4401D01*
Y7944D02*
X207976Y8796D01*
X206992D01*
X206500Y7944D01*
X206992Y7092D01*
X207976D01*
X208469Y7944D01*
X236815Y4401D02*
X236323Y5253D01*
X235339D01*
X234846Y4401D01*
X235339Y3548D01*
X236323D01*
X236815Y4401D01*
Y7944D02*
X236323Y8796D01*
X235339D01*
X234846Y7944D01*
X235339Y7092D01*
X236323D01*
X236815Y7944D01*
D18*
X363878Y279429D02*
D03*
Y301083D02*
D03*
X304921Y278642D02*
D03*
Y300295D02*
D03*
X271752Y92913D02*
D03*
Y114567D02*
D03*
X244688Y279963D02*
D03*
Y301617D02*
D03*
X271755Y93054D02*
D03*
Y114707D02*
D03*
D19*
X421161Y334252D02*
D03*
X420866Y37008D02*
D03*
X8071Y297146D02*
D03*
D20*
X308268Y315357D02*
D03*
Y309643D02*
D03*
X249413Y310665D02*
D03*
Y316380D02*
D03*
X362224Y315537D02*
D03*
Y309822D02*
D03*
X369113Y315537D02*
D03*
Y309822D02*
D03*
X275397Y123365D02*
D03*
Y129080D02*
D03*
X268310Y123365D02*
D03*
Y129080D02*
D03*
X242720Y310665D02*
D03*
Y316380D02*
D03*
X299806Y315796D02*
D03*
Y310081D02*
D03*
D21*
X364684Y330010D02*
D03*
Y335725D02*
D03*
X345984Y330010D02*
D03*
Y335725D02*
D03*
X301381Y333805D02*
D03*
Y328090D02*
D03*
X286420Y327696D02*
D03*
Y333411D02*
D03*
X228940Y328191D02*
D03*
Y333907D02*
D03*
X244295Y327798D02*
D03*
Y333513D02*
D03*
D22*
X356909Y343694D02*
D03*
X346869D02*
D03*
X163091Y29429D02*
D03*
X173130D02*
D03*
X294196Y342365D02*
D03*
X284157D02*
D03*
X237503Y341577D02*
D03*
X227464D02*
D03*
D23*
X366735Y251617D02*
D03*
Y256735D02*
D03*
X308468Y252010D02*
D03*
Y257128D02*
D03*
X248524Y253346D02*
D03*
Y258465D02*
D03*
X198231Y163821D02*
D03*
Y168939D02*
D03*
X193113Y163821D02*
D03*
Y168939D02*
D03*
X250987Y263428D02*
D03*
Y268546D02*
D03*
X311224Y261262D02*
D03*
Y266380D02*
D03*
X368704Y266183D02*
D03*
Y261065D02*
D03*
X259255Y67758D02*
D03*
Y62640D02*
D03*
X272700Y69361D02*
D03*
Y64243D02*
D03*
D24*
X200594Y207719D02*
D03*
Y204569D02*
D03*
Y201420D02*
D03*
Y198270D02*
D03*
Y195121D02*
D03*
Y191971D02*
D03*
Y188821D02*
D03*
Y185672D02*
D03*
Y182522D02*
D03*
Y179373D02*
D03*
Y176223D02*
D03*
X245476D02*
D03*
Y179373D02*
D03*
Y182522D02*
D03*
Y185672D02*
D03*
Y188821D02*
D03*
Y191971D02*
D03*
Y195121D02*
D03*
Y198270D02*
D03*
Y201420D02*
D03*
Y204569D02*
D03*
Y207719D02*
D03*
D25*
X207287Y169530D02*
D03*
X210436D02*
D03*
X213586D02*
D03*
X216735D02*
D03*
X219885D02*
D03*
X223035D02*
D03*
X226184D02*
D03*
X229334D02*
D03*
X232483D02*
D03*
X235633D02*
D03*
X238783D02*
D03*
Y214412D02*
D03*
X235633D02*
D03*
X232483D02*
D03*
X229334D02*
D03*
X226184D02*
D03*
X223035D02*
D03*
X219885D02*
D03*
X216735D02*
D03*
X213586D02*
D03*
X210436D02*
D03*
X207287D02*
D03*
D26*
X379546Y334136D02*
D03*
X392539D02*
D03*
X392523Y346302D02*
D03*
X379531D02*
D03*
X313192Y333214D02*
D03*
X326184D02*
D03*
X313586Y346010D02*
D03*
X326578D02*
D03*
X253153Y334491D02*
D03*
X266145D02*
D03*
Y345908D02*
D03*
X253153D02*
D03*
D27*
X302956Y250435D02*
D03*
Y256341D02*
D03*
X242900Y252350D02*
D03*
Y258255D02*
D03*
X361617Y250435D02*
D03*
Y256341D02*
D03*
D28*
X358195Y321498D02*
D03*
X353350D02*
D03*
X234331Y321892D02*
D03*
X239176D02*
D03*
X291084D02*
D03*
X295930D02*
D03*
D29*
X147641Y357325D02*
D03*
X120476D02*
D03*
X272783Y24965D02*
D03*
X245617D02*
D03*
X191145Y357325D02*
D03*
X218310D02*
D03*
X155909Y357325D02*
D03*
X183074D02*
D03*
D30*
X139964Y342955D02*
D03*
X134058D02*
D03*
X128153D02*
D03*
X265106Y39335D02*
D03*
X259200D02*
D03*
X253294D02*
D03*
X198822Y342955D02*
D03*
X204728D02*
D03*
X210633D02*
D03*
X163586Y342955D02*
D03*
X169491D02*
D03*
X175397D02*
D03*
D31*
X277365Y79691D02*
D03*
Y74648D02*
D03*
X353350Y266146D02*
D03*
Y261103D02*
D03*
X297000Y260681D02*
D03*
Y265724D02*
D03*
X316735Y265518D02*
D03*
Y260475D02*
D03*
X236814Y268508D02*
D03*
Y263465D02*
D03*
X256499Y263071D02*
D03*
Y268115D02*
D03*
X292916Y310417D02*
D03*
Y315461D02*
D03*
X236420Y316146D02*
D03*
Y311103D02*
D03*
X373822Y266380D02*
D03*
Y261337D02*
D03*
X355334Y310158D02*
D03*
Y315201D02*
D03*
X262405Y128351D02*
D03*
Y123307D02*
D03*
X263192Y78904D02*
D03*
Y73861D02*
D03*
D32*
X167082Y23202D02*
D03*
X172200D02*
D03*
X253743Y190396D02*
D03*
X258861D02*
D03*
X264176Y195514D02*
D03*
X269295D02*
D03*
X258861Y196006D02*
D03*
X253743D02*
D03*
D33*
X212638Y162502D02*
D03*
X217362D02*
D03*
X178138Y188002D02*
D03*
X182862D02*
D03*
X235738Y221302D02*
D03*
X240462D02*
D03*
X187076Y205302D02*
D03*
X191800D02*
D03*
X167525Y17281D02*
D03*
X172250D02*
D03*
X45476Y339609D02*
D03*
X50200D02*
D03*
X84452D02*
D03*
X89176D02*
D03*
D34*
X90100Y65271D02*
D03*
Y63302D02*
D03*
Y61334D02*
D03*
X84273D02*
D03*
Y63302D02*
D03*
Y65271D02*
D03*
D35*
X94800Y63702D02*
D03*
Y68427D02*
D03*
X56398Y267126D02*
D03*
Y271850D02*
D03*
X198300Y213740D02*
D03*
Y218465D02*
D03*
X203400Y213840D02*
D03*
Y218565D02*
D03*
X213693Y222271D02*
D03*
Y226995D02*
D03*
X258800Y178665D02*
D03*
Y173940D02*
D03*
X36421Y323073D02*
D03*
Y327798D02*
D03*
D36*
X100700Y69608D02*
D03*
Y63702D02*
D03*
X203350Y168939D02*
D03*
Y163034D02*
D03*
X253500Y172950D02*
D03*
Y178855D02*
D03*
D37*
X349147Y350502D02*
D03*
X355053D02*
D03*
X288847Y349102D02*
D03*
X294753D02*
D03*
X231600Y348002D02*
D03*
X237506D02*
D03*
X190253Y193702D02*
D03*
X184347D02*
D03*
X259255Y200632D02*
D03*
X253350D02*
D03*
D38*
X216539Y16802D02*
D03*
X219098D02*
D03*
X221657D02*
D03*
X224217D02*
D03*
X226776D02*
D03*
D39*
X217721Y6172D02*
D03*
X225594D02*
D03*
D40*
X224802Y134502D02*
D03*
X187400D02*
D03*
D41*
X241000Y149913D02*
D03*
Y143492D02*
D03*
D42*
X125498Y181846D02*
D03*
X119593D02*
D03*
X125498Y171217D02*
D03*
X119593D02*
D03*
X203047Y147402D02*
D03*
X208953D02*
D03*
D43*
X125498Y186571D02*
D03*
X119593D02*
D03*
X125498Y176335D02*
D03*
X119593D02*
D03*
D44*
X217129Y47483D02*
D03*
Y53116D02*
D03*
X223035Y47483D02*
D03*
Y53116D02*
D03*
X266735Y65987D02*
D03*
Y60354D02*
D03*
X256893Y128646D02*
D03*
Y123013D02*
D03*
D45*
X230192Y42202D02*
D03*
X224208D02*
D03*
X210708Y42302D02*
D03*
X216692D02*
D03*
D46*
X333271Y257325D02*
D03*
Y264618D02*
D03*
X323822Y256931D02*
D03*
Y264225D02*
D03*
X264373Y266484D02*
D03*
Y259190D02*
D03*
X273822Y266484D02*
D03*
Y259190D02*
D03*
X392326Y257419D02*
D03*
Y264712D02*
D03*
X381696Y257512D02*
D03*
Y264806D02*
D03*
X284846Y81051D02*
D03*
Y73757D02*
D03*
X292720Y76223D02*
D03*
Y83516D02*
D03*
D47*
X296853Y333113D02*
D03*
X294885D02*
D03*
X292916D02*
D03*
X290948D02*
D03*
Y325632D02*
D03*
X292916D02*
D03*
X294885D02*
D03*
X296853D02*
D03*
X239767Y326026D02*
D03*
X237798D02*
D03*
X235830D02*
D03*
X233861D02*
D03*
Y333506D02*
D03*
X235830D02*
D03*
X237798D02*
D03*
X239767D02*
D03*
X359127Y325829D02*
D03*
X357158D02*
D03*
X355190D02*
D03*
X353221D02*
D03*
Y333310D02*
D03*
X355190D02*
D03*
X357158D02*
D03*
X359127D02*
D03*
D48*
X306499Y266144D02*
D03*
X304531D02*
D03*
X302562D02*
D03*
Y260317D02*
D03*
X304531D02*
D03*
X306499D02*
D03*
X246263Y262286D02*
D03*
X244295D02*
D03*
X242326D02*
D03*
Y268113D02*
D03*
X244295D02*
D03*
X246263D02*
D03*
X364373Y260317D02*
D03*
X362405D02*
D03*
X360436D02*
D03*
Y266144D02*
D03*
X362405D02*
D03*
X364373D02*
D03*
X272247Y75278D02*
D03*
X270279D02*
D03*
X268310D02*
D03*
Y81105D02*
D03*
X270279D02*
D03*
X272247D02*
D03*
D49*
X61221Y272736D02*
D03*
Y266437D02*
D03*
X30909Y328979D02*
D03*
Y322680D02*
D03*
D50*
X159563Y194302D02*
D03*
X167437D02*
D03*
D51*
X176250Y182802D02*
D03*
X182550D02*
D03*
X44688Y344333D02*
D03*
X50987D02*
D03*
X89964Y344727D02*
D03*
X83665D02*
D03*
D52*
X250987Y122876D02*
D03*
Y128782D02*
D03*
D53*
X278910Y182102D02*
D03*
X272490D02*
D03*
X251676Y156636D02*
D03*
X245256D02*
D03*
D54*
X196000Y23935D02*
D03*
Y40470D02*
D03*
D55*
X187672Y147302D02*
D03*
X192200D02*
D03*
X223700Y147802D02*
D03*
X219172D02*
D03*
D56*
X319098Y77536D02*
D03*
Y67036D02*
D03*
D57*
X264500Y170865D02*
D03*
Y178739D02*
D03*
M02*
