G04*
G04 #@! TF.GenerationSoftware,Altium Limited,Altium Designer,21.8.1 (53)*
G04*
G04 Layer_Color=16711935*
%FSLAX25Y25*%
%MOIN*%
G70*
G04*
G04 #@! TF.SameCoordinates,81EC3893-84E7-45D1-AE65-2CF239B2E5AD*
G04*
G04*
G04 #@! TF.FilePolarity,Positive*
G04*
G01*
G75*
%ADD15C,0.00591*%
%ADD142C,0.00197*%
D15*
X297838Y322679D02*
Y330947D01*
X289570Y322679D02*
X297838D01*
X289570D02*
Y330947D01*
X297838D01*
X232484Y331341D02*
X240751D01*
X232484Y323073D02*
Y331341D01*
Y323073D02*
X240751D01*
Y331341D01*
X351843Y331144D02*
X360111D01*
X351843Y322876D02*
Y331144D01*
Y322876D02*
X360111D01*
Y331144D01*
D142*
X295672Y326813D02*
X294032D01*
X293704Y326485D01*
Y325830D01*
X294032Y325501D01*
X295672D01*
Y323534D02*
Y324846D01*
X294688D01*
X295016Y324190D01*
Y323862D01*
X294688Y323534D01*
X294032D01*
X293704Y323862D01*
Y324517D01*
X294032Y324846D01*
X238585Y327207D02*
X236945D01*
X236617Y326879D01*
Y326223D01*
X236945Y325895D01*
X238585D01*
X238257Y325239D02*
X238585Y324911D01*
Y324255D01*
X238257Y323927D01*
X237929D01*
X237601Y324255D01*
Y324583D01*
Y324255D01*
X237273Y323927D01*
X236945D01*
X236617Y324255D01*
Y324911D01*
X236945Y325239D01*
X357945Y327010D02*
X356305D01*
X355977Y326682D01*
Y326026D01*
X356305Y325698D01*
X357945D01*
Y325042D02*
Y323730D01*
X357617D01*
X356305Y325042D01*
X355977D01*
M02*
