G04*
G04 #@! TF.GenerationSoftware,Altium Limited,Altium Designer,21.8.1 (53)*
G04*
G04 Layer_Color=8421504*
%FSLAX25Y25*%
%MOIN*%
G70*
G04*
G04 #@! TF.SameCoordinates,BF354A56-4256-46FB-B051-6EC6D42A8B0B*
G04*
G04*
G04 #@! TF.FilePolarity,Positive*
G04*
G01*
G75*
%ADD17C,0.01968*%
%ADD18O,0.02362X0.08071*%
%ADD19O,0.08071X0.02362*%
%ADD20R,0.04331X0.08071*%
%ADD21R,0.03347X0.02756*%
%ADD22R,0.03937X0.02953*%
%ADD23R,0.02894X0.03394*%
%ADD24R,0.03773X0.03963*%
%ADD25R,0.04331X0.07480*%
%ADD26R,0.02756X0.10236*%
%ADD27R,0.03591X0.04453*%
%ADD28R,0.03150X0.03740*%
%ADD29R,0.13780X0.11811*%
%ADD30R,0.02953X0.03543*%
G04:AMPARAMS|DCode=31|XSize=26.38mil|YSize=11.81mil|CornerRadius=1.95mil|HoleSize=0mil|Usage=FLASHONLY|Rotation=0.000|XOffset=0mil|YOffset=0mil|HoleType=Round|Shape=RoundedRectangle|*
%AMROUNDEDRECTD31*
21,1,0.02638,0.00791,0,0,0.0*
21,1,0.02248,0.01181,0,0,0.0*
1,1,0.00390,0.01124,-0.00396*
1,1,0.00390,-0.01124,-0.00396*
1,1,0.00390,-0.01124,0.00396*
1,1,0.00390,0.01124,0.00396*
%
%ADD31ROUNDEDRECTD31*%
%ADD32R,0.03543X0.02953*%
%ADD33R,0.03543X0.03150*%
%ADD34R,0.04724X0.05906*%
%ADD35R,0.03150X0.03543*%
%ADD36R,0.01575X0.05315*%
%ADD37R,0.05906X0.07480*%
%ADD38R,0.21654X0.07874*%
%ADD39R,0.04182X0.04469*%
%ADD40R,0.02953X0.03937*%
%ADD41R,0.03150X0.03150*%
%ADD42R,0.03788X0.03681*%
%ADD43R,0.04016X0.02992*%
%ADD44R,0.05938X0.05534*%
G04:AMPARAMS|DCode=45|XSize=19.68mil|YSize=9.84mil|CornerRadius=1.97mil|HoleSize=0mil|Usage=FLASHONLY|Rotation=270.000|XOffset=0mil|YOffset=0mil|HoleType=Round|Shape=RoundedRectangle|*
%AMROUNDEDRECTD45*
21,1,0.01968,0.00591,0,0,270.0*
21,1,0.01575,0.00984,0,0,270.0*
1,1,0.00394,-0.00295,-0.00787*
1,1,0.00394,-0.00295,0.00787*
1,1,0.00394,0.00295,0.00787*
1,1,0.00394,0.00295,-0.00787*
%
%ADD45ROUNDEDRECTD45*%
%ADD46R,0.01181X0.02638*%
%ADD47R,0.03937X0.03543*%
%ADD48R,0.03937X0.03937*%
%ADD49R,0.03543X0.03937*%
%ADD50R,0.03740X0.03150*%
%ADD51R,0.03150X0.03150*%
%ADD52R,0.05339X0.04152*%
%ADD53R,0.04469X0.04182*%
%ADD54R,0.12598X0.05906*%
%ADD55R,0.03347X0.03347*%
%ADD56R,0.08000X0.04500*%
%ADD57R,0.03937X0.03937*%
G36*
X239878Y412906D02*
X239934Y412850D01*
X239964Y412778D01*
Y412739D01*
Y409589D01*
Y409550D01*
X239934Y409478D01*
X239878Y409422D01*
X239806Y409392D01*
X237366D01*
X237293Y409422D01*
X237238Y409478D01*
X237208Y409550D01*
Y409589D01*
Y412739D01*
Y412778D01*
X237238Y412850D01*
X237293Y412906D01*
X237366Y412935D01*
X239806D01*
X239878Y412906D01*
D02*
G37*
G36*
X236335D02*
X236390Y412850D01*
X236420Y412778D01*
Y412739D01*
Y409589D01*
Y409550D01*
X236390Y409478D01*
X236335Y409422D01*
X236263Y409392D01*
X233822D01*
X233750Y409422D01*
X233695Y409478D01*
X233665Y409550D01*
Y409589D01*
Y412739D01*
Y412778D01*
X233695Y412850D01*
X233750Y412906D01*
X233822Y412935D01*
X236263D01*
X236335Y412906D01*
D02*
G37*
G36*
X359238Y412709D02*
X359294Y412653D01*
X359324Y412581D01*
Y412542D01*
Y409392D01*
Y409353D01*
X359294Y409281D01*
X359238Y409225D01*
X359166Y409195D01*
X356725D01*
X356653Y409225D01*
X356598Y409281D01*
X356568Y409353D01*
Y409392D01*
Y412542D01*
Y412581D01*
X356598Y412653D01*
X356653Y412709D01*
X356725Y412739D01*
X359166D01*
X359238Y412709D01*
D02*
G37*
G36*
X355695D02*
X355750Y412653D01*
X355780Y412581D01*
Y412542D01*
Y409392D01*
Y409353D01*
X355750Y409281D01*
X355695Y409225D01*
X355623Y409195D01*
X353182D01*
X353110Y409225D01*
X353054Y409281D01*
X353024Y409353D01*
Y409392D01*
Y412542D01*
Y412581D01*
X353054Y412653D01*
X353110Y412709D01*
X353182Y412739D01*
X355623D01*
X355695Y412709D01*
D02*
G37*
G36*
X296965Y412512D02*
X297020Y412456D01*
X297050Y412384D01*
Y412345D01*
Y409195D01*
Y409156D01*
X297020Y409084D01*
X296965Y409028D01*
X296893Y408998D01*
X294452D01*
X294380Y409028D01*
X294324Y409084D01*
X294295Y409156D01*
Y409195D01*
Y412345D01*
Y412384D01*
X294324Y412456D01*
X294380Y412512D01*
X294452Y412542D01*
X296893D01*
X296965Y412512D01*
D02*
G37*
G36*
X293422D02*
X293477Y412456D01*
X293507Y412384D01*
Y412345D01*
Y409195D01*
Y409156D01*
X293477Y409084D01*
X293422Y409028D01*
X293349Y408998D01*
X290909D01*
X290837Y409028D01*
X290781Y409084D01*
X290751Y409156D01*
Y409195D01*
Y412345D01*
Y412384D01*
X290781Y412456D01*
X290837Y412512D01*
X290909Y412542D01*
X293349D01*
X293422Y412512D01*
D02*
G37*
G36*
X237799Y85798D02*
X235831D01*
Y89342D01*
X237799D01*
X237799Y85798D01*
D02*
G37*
G36*
X207484Y85798D02*
X205516D01*
X205516Y89342D01*
X207484D01*
Y85798D01*
D02*
G37*
G36*
X235831Y83830D02*
X230713D01*
Y91310D01*
X235831D01*
Y83830D01*
D02*
G37*
G36*
X212602D02*
X207484D01*
Y91310D01*
X212602D01*
Y83830D01*
D02*
G37*
D17*
X208469Y85798D02*
G03*
X208469Y85798I-984J0D01*
G01*
Y89342D02*
G03*
X208469Y89342I-984J0D01*
G01*
X236815Y85798D02*
G03*
X236815Y85798I-984J0D01*
G01*
Y89342D02*
G03*
X236815Y89342I-984J0D01*
G01*
D18*
X207287Y295810D02*
D03*
X210436D02*
D03*
X213586D02*
D03*
X216735D02*
D03*
X219885D02*
D03*
X223035D02*
D03*
X226184D02*
D03*
X229334D02*
D03*
X232483D02*
D03*
X235633D02*
D03*
X238783D02*
D03*
Y250928D02*
D03*
X235633D02*
D03*
X232483D02*
D03*
X229334D02*
D03*
X226184D02*
D03*
X223035D02*
D03*
X219885D02*
D03*
X216735D02*
D03*
X213586D02*
D03*
X210436D02*
D03*
X207287D02*
D03*
D19*
X245476Y289117D02*
D03*
Y285967D02*
D03*
Y282817D02*
D03*
Y279668D02*
D03*
Y276518D02*
D03*
Y273369D02*
D03*
Y270219D02*
D03*
Y267069D02*
D03*
Y263920D02*
D03*
Y260770D02*
D03*
Y257621D02*
D03*
X200594D02*
D03*
Y260770D02*
D03*
Y263920D02*
D03*
Y267069D02*
D03*
Y270219D02*
D03*
Y273369D02*
D03*
Y276518D02*
D03*
Y279668D02*
D03*
Y282817D02*
D03*
Y285967D02*
D03*
Y289117D02*
D03*
D20*
X379546Y415534D02*
D03*
X392539D02*
D03*
X392523Y427699D02*
D03*
X379531D02*
D03*
X313192Y414612D02*
D03*
X326184D02*
D03*
X313586Y427407D02*
D03*
X326578D02*
D03*
X253153Y415888D02*
D03*
X266145D02*
D03*
Y427306D02*
D03*
X253153D02*
D03*
D21*
X308468Y333605D02*
D03*
Y338329D02*
D03*
X248500Y335538D02*
D03*
Y340262D02*
D03*
X366735Y333211D02*
D03*
Y337935D02*
D03*
D22*
X302956Y331833D02*
D03*
Y337739D02*
D03*
X242900Y333747D02*
D03*
Y339653D02*
D03*
X361617Y331833D02*
D03*
Y337739D02*
D03*
D23*
X358195Y402896D02*
D03*
X353350D02*
D03*
X234331Y403290D02*
D03*
X239176D02*
D03*
X291084D02*
D03*
X295930D02*
D03*
D24*
X345984Y417123D02*
D03*
Y411408D02*
D03*
X301381Y415203D02*
D03*
Y409487D02*
D03*
X286420Y409094D02*
D03*
Y414809D02*
D03*
X228940Y409589D02*
D03*
Y415304D02*
D03*
X364684Y417123D02*
D03*
Y411408D02*
D03*
X244295Y409195D02*
D03*
Y414911D02*
D03*
D25*
X147641Y438723D02*
D03*
X120476D02*
D03*
X272783Y106363D02*
D03*
X245617D02*
D03*
X191145Y438723D02*
D03*
X218310D02*
D03*
X155909Y438723D02*
D03*
X183074D02*
D03*
D26*
X139964Y424353D02*
D03*
X134058D02*
D03*
X128153D02*
D03*
X265106Y120733D02*
D03*
X259200D02*
D03*
X253294D02*
D03*
X198822Y424353D02*
D03*
X204728D02*
D03*
X210633D02*
D03*
X163586Y424353D02*
D03*
X169491D02*
D03*
X175397D02*
D03*
D27*
X277365Y161089D02*
D03*
Y156046D02*
D03*
X353350Y347544D02*
D03*
Y342500D02*
D03*
X297000Y342078D02*
D03*
Y347122D02*
D03*
X316735Y346916D02*
D03*
Y341872D02*
D03*
X236814Y349906D02*
D03*
Y344863D02*
D03*
X256499Y344469D02*
D03*
Y349512D02*
D03*
X292916Y391815D02*
D03*
Y396858D02*
D03*
X236420Y397544D02*
D03*
Y392500D02*
D03*
X373822Y347778D02*
D03*
Y342735D02*
D03*
X355334Y391555D02*
D03*
Y396599D02*
D03*
X262405Y209749D02*
D03*
Y204705D02*
D03*
X263192Y160302D02*
D03*
Y155258D02*
D03*
D28*
X167082Y104600D02*
D03*
X172200D02*
D03*
X253743Y271794D02*
D03*
X258861D02*
D03*
X264176Y276912D02*
D03*
X269295D02*
D03*
X258861Y277404D02*
D03*
X253743D02*
D03*
D29*
X244688Y361361D02*
D03*
Y383014D02*
D03*
X363700Y383753D02*
D03*
Y362100D02*
D03*
X304334Y361462D02*
D03*
Y383116D02*
D03*
X271853Y195809D02*
D03*
Y174156D02*
D03*
D30*
X212638Y243900D02*
D03*
X217362D02*
D03*
X178138Y269400D02*
D03*
X182862D02*
D03*
X235738Y302700D02*
D03*
X240462D02*
D03*
X187076Y286700D02*
D03*
X191800D02*
D03*
X167525Y98679D02*
D03*
X172250D02*
D03*
X45476Y421006D02*
D03*
X50200D02*
D03*
X84452D02*
D03*
X89176D02*
D03*
D31*
X90100Y146669D02*
D03*
Y144700D02*
D03*
Y142731D02*
D03*
X84273D02*
D03*
Y144700D02*
D03*
Y146669D02*
D03*
D32*
X94800Y145100D02*
D03*
Y149824D02*
D03*
X56398Y348524D02*
D03*
Y353248D02*
D03*
X198300Y295138D02*
D03*
Y299862D02*
D03*
X203400Y295238D02*
D03*
Y299962D02*
D03*
X213693Y303668D02*
D03*
Y308393D02*
D03*
X258800Y260062D02*
D03*
Y255338D02*
D03*
X36421Y404471D02*
D03*
Y409195D02*
D03*
D33*
X100700Y151005D02*
D03*
Y145100D02*
D03*
X203350Y250337D02*
D03*
Y244431D02*
D03*
X253500Y254347D02*
D03*
Y260253D02*
D03*
D34*
X163091Y110827D02*
D03*
X173130D02*
D03*
X346869Y425092D02*
D03*
X356909D02*
D03*
X294196Y423762D02*
D03*
X284157D02*
D03*
X237503Y422975D02*
D03*
X227464D02*
D03*
D35*
X349147Y431900D02*
D03*
X355053D02*
D03*
X288847Y430500D02*
D03*
X294753D02*
D03*
X231600Y429400D02*
D03*
X237506D02*
D03*
X190253Y275100D02*
D03*
X184347D02*
D03*
X259255Y282030D02*
D03*
X253350D02*
D03*
D36*
X216539Y98200D02*
D03*
X219098D02*
D03*
X221657D02*
D03*
X224217D02*
D03*
X226776D02*
D03*
D37*
X217721Y87570D02*
D03*
X225594D02*
D03*
D38*
X224802Y215900D02*
D03*
X187400D02*
D03*
D39*
X241000Y231310D02*
D03*
Y224890D02*
D03*
D40*
X125498Y263244D02*
D03*
X119593D02*
D03*
X125498Y252614D02*
D03*
X119593D02*
D03*
X203047Y228800D02*
D03*
X208953D02*
D03*
D41*
X125498Y267969D02*
D03*
X119593D02*
D03*
X125498Y257732D02*
D03*
X119593D02*
D03*
D42*
X217129Y128880D02*
D03*
Y134513D02*
D03*
X223035Y128880D02*
D03*
Y134513D02*
D03*
X266735Y147384D02*
D03*
Y141751D02*
D03*
X256893Y210043D02*
D03*
Y204410D02*
D03*
D43*
X230192Y123600D02*
D03*
X224208D02*
D03*
X210708Y123700D02*
D03*
X216692D02*
D03*
D44*
X333271Y338723D02*
D03*
Y346016D02*
D03*
X323822Y338329D02*
D03*
Y345622D02*
D03*
X264373Y347881D02*
D03*
Y340588D02*
D03*
X273822Y347881D02*
D03*
Y340588D02*
D03*
X392326Y338816D02*
D03*
Y346110D02*
D03*
X381696Y338910D02*
D03*
Y346203D02*
D03*
X284846Y162448D02*
D03*
Y155155D02*
D03*
X292720Y157621D02*
D03*
Y164914D02*
D03*
D45*
X296853Y414510D02*
D03*
X294885D02*
D03*
X292916D02*
D03*
X290948D02*
D03*
Y407030D02*
D03*
X292916D02*
D03*
X294885D02*
D03*
X296853D02*
D03*
X239767Y407424D02*
D03*
X237798D02*
D03*
X235830D02*
D03*
X233861D02*
D03*
Y414904D02*
D03*
X235830D02*
D03*
X237798D02*
D03*
X239767D02*
D03*
X359127Y407227D02*
D03*
X357158D02*
D03*
X355190D02*
D03*
X353221D02*
D03*
Y414707D02*
D03*
X355190D02*
D03*
X357158D02*
D03*
X359127D02*
D03*
D46*
X306499Y347542D02*
D03*
X304531D02*
D03*
X302562D02*
D03*
Y341715D02*
D03*
X304531D02*
D03*
X306499D02*
D03*
X246263Y343684D02*
D03*
X244295D02*
D03*
X242326D02*
D03*
Y349510D02*
D03*
X244295D02*
D03*
X246263D02*
D03*
X364373Y341715D02*
D03*
X362405D02*
D03*
X360436D02*
D03*
Y347542D02*
D03*
X362405D02*
D03*
X364373D02*
D03*
X272247Y156676D02*
D03*
X270279D02*
D03*
X268310D02*
D03*
Y162502D02*
D03*
X270279D02*
D03*
X272247D02*
D03*
D47*
X61221Y354134D02*
D03*
Y347835D02*
D03*
X30909Y410376D02*
D03*
Y404077D02*
D03*
D48*
X159563Y275700D02*
D03*
X167437D02*
D03*
D49*
X176250Y264200D02*
D03*
X182550D02*
D03*
X44688Y425731D02*
D03*
X50987D02*
D03*
X89964Y426124D02*
D03*
X83665D02*
D03*
D50*
X193113Y245219D02*
D03*
Y250337D02*
D03*
X250987Y344825D02*
D03*
Y349943D02*
D03*
X311224Y342660D02*
D03*
Y347778D02*
D03*
X368704Y347581D02*
D03*
Y342463D02*
D03*
X198231Y250337D02*
D03*
Y245219D02*
D03*
X259255Y149156D02*
D03*
Y144038D02*
D03*
X272700Y150759D02*
D03*
Y145641D02*
D03*
D51*
X250987Y204274D02*
D03*
Y210179D02*
D03*
D52*
X306696Y397194D02*
D03*
Y391479D02*
D03*
X249413Y392063D02*
D03*
Y397778D02*
D03*
X362224Y396935D02*
D03*
Y391220D02*
D03*
X369113Y396935D02*
D03*
Y391220D02*
D03*
X275397Y204763D02*
D03*
Y210478D02*
D03*
X268310Y204763D02*
D03*
Y210478D02*
D03*
X242720Y392063D02*
D03*
Y397778D02*
D03*
X299806Y397194D02*
D03*
Y391479D02*
D03*
D53*
X278910Y263500D02*
D03*
X272490D02*
D03*
X251676Y238034D02*
D03*
X245256D02*
D03*
D54*
X196000Y105332D02*
D03*
Y121868D02*
D03*
D55*
X187672Y228700D02*
D03*
X192200D02*
D03*
X223700Y229200D02*
D03*
X219172D02*
D03*
D56*
X319098Y158933D02*
D03*
Y148433D02*
D03*
D57*
X264500Y252263D02*
D03*
Y260137D02*
D03*
M02*
