G04*
G04 #@! TF.GenerationSoftware,Altium Limited,Altium Designer,21.8.1 (53)*
G04*
G04 Layer_Physical_Order=2*
G04 Layer_Color=32768*
%FSLAX25Y25*%
%MOIN*%
G70*
G04*
G04 #@! TF.SameCoordinates,92EEE739-4F3B-4374-ACD8-CC48A347F5D9*
G04*
G04*
G04 #@! TF.FilePolarity,Negative*
G04*
G01*
G75*
%ADD123C,0.04000*%
%ADD124C,0.05969*%
%ADD125R,0.07000X0.06756*%
%ADD126R,0.06756X0.06756*%
%ADD127C,0.17779*%
%ADD128C,0.08016*%
%ADD129C,0.07898*%
%ADD130C,0.08331*%
%ADD131C,0.07543*%
%ADD132C,0.07937*%
%ADD133C,0.15811*%
%ADD134O,0.17779X0.07937*%
%ADD135C,0.05500*%
D123*
Y0D02*
X432874D01*
Y374606D01*
X433071Y374803D01*
X0D02*
X433071D01*
X0Y0D02*
Y374803D01*
D124*
X50298Y351420D02*
D03*
X40456D02*
D03*
X55220D02*
D03*
X24216Y328290D02*
D03*
Y318447D02*
D03*
Y333211D02*
D03*
X354137Y361175D02*
D03*
X93802Y351026D02*
D03*
X79039D02*
D03*
X88881D02*
D03*
X294771Y360537D02*
D03*
X237094Y358073D02*
D03*
X284400Y181902D02*
D03*
X232400Y185602D02*
D03*
X131200Y213402D02*
D03*
X190116Y168746D02*
D03*
X186400Y210402D02*
D03*
X104983Y63702D02*
D03*
X348200Y321402D02*
D03*
X231302Y321498D02*
D03*
X224216Y327798D02*
D03*
X287208Y320317D02*
D03*
X283271Y327798D02*
D03*
X256791Y272438D02*
D03*
X264461Y272547D02*
D03*
X273822Y272679D02*
D03*
X375791D02*
D03*
X316735Y272286D02*
D03*
X324609D02*
D03*
X333271D02*
D03*
X340357Y327798D02*
D03*
X384452Y272679D02*
D03*
X392720D02*
D03*
D125*
X67436Y249994D02*
D03*
D126*
Y257995D02*
D03*
Y265995D02*
D03*
D127*
X402169Y295121D02*
D03*
X34452D02*
D03*
Y77798D02*
D03*
X402169Y77404D02*
D03*
D128*
X311066Y362050D02*
D03*
X321066D02*
D03*
X331066D02*
D03*
X17518Y155787D02*
D03*
Y145787D02*
D03*
X186200Y227402D02*
D03*
X108100Y336202D02*
D03*
X251224Y361262D02*
D03*
X261224D02*
D03*
X271224D02*
D03*
X17518Y121282D02*
D03*
Y131282D02*
D03*
X7518Y111283D02*
D03*
Y121282D02*
D03*
Y131282D02*
D03*
X385397Y362443D02*
D03*
X395397D02*
D03*
X375397D02*
D03*
D129*
X173358Y37007D02*
D03*
Y62598D02*
D03*
D130*
X423200Y238302D02*
D03*
Y228302D02*
D03*
Y208302D02*
D03*
Y218302D02*
D03*
X15500Y210602D02*
D03*
Y190602D02*
D03*
Y180602D02*
D03*
Y200602D02*
D03*
Y220602D02*
D03*
Y230602D02*
D03*
D131*
X119665Y51279D02*
D03*
X56496D02*
D03*
D132*
X372641Y65987D02*
D03*
Y8900D02*
D03*
X392326D02*
D03*
D133*
X15948Y355750D02*
D03*
X421460D02*
D03*
X15948Y17168D02*
D03*
X421460D02*
D03*
D134*
X305712Y57719D02*
D03*
D135*
X174311Y167421D02*
D03*
X183268Y168209D02*
D03*
X178150Y163091D02*
D03*
X258661Y240551D02*
D03*
X232776Y162795D02*
D03*
X238484D02*
D03*
X264567Y165847D02*
D03*
X52461Y266929D02*
D03*
X237800Y191502D02*
D03*
Y197802D02*
D03*
X237000Y181402D02*
D03*
X212600Y157802D02*
D03*
X162900Y17102D02*
D03*
X193200Y213202D02*
D03*
X154524Y29621D02*
D03*
X242900Y226702D02*
D03*
X250700Y235602D02*
D03*
X168800Y149402D02*
D03*
X180400Y156502D02*
D03*
X175300Y175802D02*
D03*
X186100Y159402D02*
D03*
X234200Y176402D02*
D03*
X228600Y176502D02*
D03*
X222500D02*
D03*
X241600Y137202D02*
D03*
X227500Y26202D02*
D03*
X266700Y52702D02*
D03*
X196037Y50665D02*
D03*
X130420Y181846D02*
D03*
X131207Y186571D02*
D03*
X130813Y176335D02*
D03*
X130420Y171217D02*
D03*
X256991Y156636D02*
D03*
X247444Y162837D02*
D03*
X196263Y158506D02*
D03*
X139964Y334097D02*
D03*
X210830Y334491D02*
D03*
X258500Y144502D02*
D03*
X250500Y144702D02*
D03*
X285800Y144302D02*
D03*
X175397Y333310D02*
D03*
X259255Y58900D02*
D03*
X267100Y144402D02*
D03*
X276500Y144202D02*
D03*
X319885Y83703D02*
D03*
X313980D02*
D03*
X301381Y84097D02*
D03*
X307680D02*
D03*
X300987Y90396D02*
D03*
X319885D02*
D03*
X307287D02*
D03*
X313586D02*
D03*
X326184D02*
D03*
X286300Y119002D02*
D03*
X286200Y127102D02*
D03*
X286100Y135202D02*
D03*
X263980Y190396D02*
D03*
X274216Y195514D02*
D03*
X326184Y83703D02*
D03*
X252956Y209294D02*
D03*
M02*
