M48
;Layer_Color=9474304
;FILE_FORMAT=2:3
INCH,LZ
;TYPE=PLATED
T1F00S00C0.008
T2F00S00C0.015
T3F00S00C0.020
T7F00S00C0.033
T8F00S00C0.035
T9F00S00C0.039
T11F00S00C0.040
T12F00S00C0.043
T14F00S00C0.079
T15F00S00C0.118
T16F00S00C0.138
%
T01
X0235Y03272
X02383
X02921Y03268
X02954
X03543Y0327
X03577
T02
X01543Y00271
X01627Y00145
X01764Y00144
X01958Y00481
X02075Y00398
X02331Y00397
X02273Y00236
X02528Y00422
X02591Y00563
X02723Y00562
X02665Y00501
X02788Y00649
X02846Y00658
X02925Y00678
X03138Y00811
X03197
X0326
Y00878
X03197
X03134
X03071
X03008
X03012Y00815
X03075
X0262Y00828
X02508Y01158
X02503Y01421
X02583Y01419
X02669Y01418
X02763Y01416
X02856Y01417
X02859Y01326
X0286Y01245
X02861Y01164
X02752Y01319
X02681
X02626
X02414Y01346
X02282Y01452
X02326Y01602
X02383
X02472Y01603
X02474Y01697
X02533Y01663
X02585Y01675
X02644Y01633
X02568Y01541
X02638Y01878
X02642Y01981
X0274Y0193
X02528Y02067
X02376Y01952
Y01889
X02368Y01788
X0234Y01738
X02284Y01739
X02223
X02213Y01882
X0221Y01961
X02129Y01965
X02097Y01814
X02124Y01552
X02173Y01553
X02021Y01556
X01961Y01559
X01859Y01568
X01802Y01539
X01835Y01446
X01686Y01468
X01723Y01662
X01779Y01661
X01835Y01658
X01751Y01732
X01738Y01802
X01717Y01854
X01594Y01848
X01798Y02027
X0193Y02106
X01978Y02201
X02035Y02202
X02364Y02243
X02427Y02241
X0131Y0184
X01302Y01793
X01306Y01738
X01302Y01687
X00729Y02475
X00729Y02555
X00523Y02644
X00505Y02692
X0128Y03315
X01398
X01634Y03308
X01752
X01985Y03319
X02106Y03319
X0209Y02294
X02505Y0233
X02581Y02357
T03
X00796Y00596
X01048Y00611
X01048Y0067
X01899Y01662
X01862Y02078
X02322Y0183
X02842Y01793
X0131Y02108
X00985Y03485
X00936
X00887
X00838
X00788
X00739
X00599Y03489
X0055
X00501
X00452
X00403
X00353
X0024Y03356
Y03307
Y03257
Y03208
Y03159
Y0311
X02315Y03138
X02311Y03189
X0224Y03252
X02232Y03315
X02228Y03386
X02272Y03454
X0232Y03555
X02369
X02323Y03335
X0248Y03252
X0254Y03208
X02594Y03201
X0255Y03147
X02433Y03178
X02709Y03323
X02705Y0343
X0279Y03398
X0284Y03463
X02823Y03308
X02831Y03252
X0287Y03178
X02882Y03126
X03008Y03174
X03043Y03257
X03112Y03201
X03118Y0313
X02894Y03339
X02897Y0358
X02946
X03008Y02674
X03083Y02457
X02736Y02524
X02642Y02531
X02563Y02574
X02566Y02699
X02643Y027
X02736Y02701
X02414Y02687
X02483Y02476
X03165Y0252
X03236Y02485
X03331
Y02697
X03244
X03165
X03579Y02666
X03756Y02701
X03843
X03925
X03921Y02481
X03815
X03736Y02524
X03665Y02445
X03637Y03192
X0372Y0321
X03709Y03256
X03772Y03201
X03827
X0376Y0313
X03484Y03126
X0348Y03188
X03402Y03252
X03396Y0331
X03316Y03308
X03315Y03437
X03413Y03394
X03447Y03478
X0349Y03586
X03539
X03508Y03327
X03184Y03198
X03984Y03315
X0398Y03433
T07
X02116Y00142
X02313
T08
X00563Y00487
X00663
X01195
X01295
T09
X01554Y00344
Y006
X01732
Y00344
X03724Y00063
X03823
X03921
Y00634
X03724
T11
X0186Y02248
X00173Y01532
Y01432
X00173Y01287
Y01187
Y01087
X00073
Y01187
Y01287
X01079Y03236
Y03336
X0251Y03587
X0261
X0271
X03109Y03595
X03209
X03309
X03752Y03599
X03852
X03952
T12
X0423Y01957
Y02057
Y02157
Y02257
X00153Y0228
Y0218
Y0208
Y0198
Y0188
Y0178
X0423Y02357
T14
X00363Y00287
X00763
X00995
X01395
T15
X00158Y00146
X04213
X00158Y03532
X04213
T16
X0402Y00748
X00343Y00752
Y02926
X0402
M30
