G04*
G04 #@! TF.GenerationSoftware,Altium Limited,Altium Designer,21.8.1 (53)*
G04*
G04 Layer_Color=16711935*
%FSLAX25Y25*%
%MOIN*%
G70*
G04*
G04 #@! TF.SameCoordinates,BF354A56-4256-46FB-B051-6EC6D42A8B0B*
G04*
G04*
G04 #@! TF.FilePolarity,Negative*
G04*
G01*
G75*
%ADD48R,0.03937X0.03937*%
%ADD75C,0.06394*%
%ADD76R,0.06394X0.06394*%
%ADD77C,0.18110*%
%ADD78C,0.06496*%
%ADD79R,0.06496X0.06496*%
%ADD80C,0.04331*%
%ADD81R,0.04331X0.04331*%
%ADD82R,0.04331X0.04331*%
%ADD83C,0.06299*%
%ADD84R,0.06299X0.06299*%
%ADD85R,0.06181X0.06181*%
%ADD86C,0.06181*%
%ADD87C,0.06693*%
%ADD88R,0.06693X0.06693*%
%ADD89C,0.05512*%
%ADD90R,0.05512X0.05512*%
%ADD91C,0.12008*%
%ADD92R,0.09449X0.12598*%
%ADD93R,0.06299X0.06299*%
%ADD94C,0.06102*%
%ADD95C,0.03937*%
%ADD96R,0.06496X0.06496*%
%ADD97C,0.18701*%
%ADD98R,0.16142X0.06299*%
%ADD99R,0.14173X0.06299*%
%ADD100R,0.06299X0.14173*%
%ADD101C,0.03394*%
%ADD102C,0.01968*%
D48*
X349216Y442572D02*
D03*
X289850Y441935D02*
D03*
X232173Y439471D02*
D03*
D75*
X67436Y331392D02*
D03*
Y339392D02*
D03*
Y347392D02*
D03*
D76*
Y355392D02*
D03*
D77*
X402169Y376518D02*
D03*
X34452D02*
D03*
Y159195D02*
D03*
X402169Y158802D02*
D03*
D78*
X311066Y443447D02*
D03*
X321066D02*
D03*
X251224Y442660D02*
D03*
X261224D02*
D03*
X17518Y192680D02*
D03*
Y202680D02*
D03*
Y212680D02*
D03*
X7518Y192680D02*
D03*
Y202680D02*
D03*
X385397Y443841D02*
D03*
X375397D02*
D03*
D79*
X331066Y443447D02*
D03*
X271224Y442660D02*
D03*
X395397Y443841D02*
D03*
D80*
X35535Y432817D02*
D03*
X55220D02*
D03*
X40456D02*
D03*
X50298D02*
D03*
X45377D02*
D03*
X74117Y432424D02*
D03*
X93802D02*
D03*
X79039D02*
D03*
X88881D02*
D03*
X83960D02*
D03*
X24216Y394924D02*
D03*
Y414609D02*
D03*
Y399845D02*
D03*
Y409687D02*
D03*
Y404766D02*
D03*
X259547Y404035D02*
D03*
X252067Y404528D02*
D03*
X318602Y403740D02*
D03*
X311417Y404035D02*
D03*
X284400Y263300D02*
D03*
X232400Y267000D02*
D03*
X131200Y294800D02*
D03*
X190116Y250144D02*
D03*
X186400Y291800D02*
D03*
X104959Y151005D02*
D03*
X79800Y143519D02*
D03*
X104983Y145100D02*
D03*
X344870Y431767D02*
D03*
X284200Y430300D02*
D03*
X227400Y429400D02*
D03*
X331800Y414800D02*
D03*
X255200Y398700D02*
D03*
X248500Y331600D02*
D03*
X288389Y396597D02*
D03*
X241579Y352699D02*
D03*
X348200Y402800D02*
D03*
X231302Y402896D02*
D03*
X248232Y409195D02*
D03*
X231696Y397778D02*
D03*
X224216Y409195D02*
D03*
X223428Y415494D02*
D03*
X223035Y422581D02*
D03*
X243507Y401715D02*
D03*
X312011Y396990D02*
D03*
X232484Y417463D02*
D03*
X270672Y426912D02*
D03*
X271066Y416282D02*
D03*
X287208Y401715D02*
D03*
X256499Y341346D02*
D03*
X264373Y337089D02*
D03*
X273783Y336361D02*
D03*
X308468Y329668D02*
D03*
X289570Y417857D02*
D03*
X283271Y409195D02*
D03*
X300987Y401321D02*
D03*
X304531Y409610D02*
D03*
X300987Y351321D02*
D03*
X279235Y423762D02*
D03*
X282543Y414767D02*
D03*
X316735Y335967D02*
D03*
X323822Y332424D02*
D03*
X333271D02*
D03*
X256791Y353836D02*
D03*
X264461Y353944D02*
D03*
X273822Y354077D02*
D03*
X375791D02*
D03*
X316735Y353683D02*
D03*
X324609D02*
D03*
X333271D02*
D03*
X348625Y396597D02*
D03*
X340357Y409195D02*
D03*
X339747Y414920D02*
D03*
X350987Y416676D02*
D03*
X341539Y423369D02*
D03*
X331696Y427699D02*
D03*
X366735Y328487D02*
D03*
X392326Y332030D02*
D03*
X381696D02*
D03*
X373822Y336361D02*
D03*
X358074Y350534D02*
D03*
X384452Y354077D02*
D03*
X392720D02*
D03*
X376184Y396991D02*
D03*
X364767Y402896D02*
D03*
X377365Y404077D02*
D03*
X371066D02*
D03*
X382877D02*
D03*
X371066Y409589D02*
D03*
X398625Y415494D02*
D03*
X398232Y427306D02*
D03*
D81*
X60141Y432817D02*
D03*
X98724Y432424D02*
D03*
D82*
X24216Y419530D02*
D03*
D83*
X173358Y118405D02*
D03*
X155642D02*
D03*
Y143995D02*
D03*
X392326Y147384D02*
D03*
X372641Y90298D02*
D03*
X382484D02*
D03*
X392326D02*
D03*
D84*
X173358Y143995D02*
D03*
D85*
X17518Y237185D02*
D03*
X108100Y417600D02*
D03*
D86*
X17518Y227185D02*
D03*
X186200Y308800D02*
D03*
X108100Y407600D02*
D03*
D87*
X423200Y319700D02*
D03*
Y309700D02*
D03*
Y289700D02*
D03*
Y299700D02*
D03*
X15500Y292000D02*
D03*
Y272000D02*
D03*
Y282000D02*
D03*
Y302000D02*
D03*
Y312000D02*
D03*
D88*
X423200Y279700D02*
D03*
X15500Y262000D02*
D03*
D89*
X129665Y132677D02*
D03*
X66496D02*
D03*
D90*
X119665D02*
D03*
X56496D02*
D03*
D91*
X139665Y112677D02*
D03*
X99665D02*
D03*
X76496D02*
D03*
X36496D02*
D03*
D92*
X360043Y119825D02*
D03*
X404924D02*
D03*
D93*
X372641Y147384D02*
D03*
D94*
X231500Y98200D02*
D03*
X211815D02*
D03*
D95*
X354137Y442572D02*
D03*
X294771Y441935D02*
D03*
X237094Y439471D02*
D03*
D96*
X7518Y212680D02*
D03*
D97*
X15948Y437148D02*
D03*
X421460D02*
D03*
X15948Y98565D02*
D03*
X421460D02*
D03*
D98*
X305712Y139117D02*
D03*
D99*
Y115495D02*
D03*
D100*
X324216Y127305D02*
D03*
D101*
X279000Y148900D02*
D03*
X52461Y348327D02*
D03*
X50689Y353150D02*
D03*
X247638Y253642D02*
D03*
X253494Y250306D02*
D03*
X264500Y248500D02*
D03*
X258700Y251500D02*
D03*
X217500Y239300D02*
D03*
X237800Y272900D02*
D03*
Y279200D02*
D03*
X237000Y262800D02*
D03*
X212600Y239200D02*
D03*
X202300Y239600D02*
D03*
X180038Y286700D02*
D03*
X176600Y98400D02*
D03*
X162900Y98500D02*
D03*
X193200Y294600D02*
D03*
X203700Y304200D02*
D03*
X198000Y304100D02*
D03*
X154524Y111019D02*
D03*
X183656Y228600D02*
D03*
X228400Y229200D02*
D03*
X242900Y308100D02*
D03*
X236600Y308300D02*
D03*
X250700Y317000D02*
D03*
X209193Y313331D02*
D03*
X198700Y415900D02*
D03*
X172500Y250144D02*
D03*
X178100Y250100D02*
D03*
X168800Y230800D02*
D03*
X180400Y237900D02*
D03*
X175300Y257200D02*
D03*
X183700Y249800D02*
D03*
X186100Y240800D02*
D03*
X171862Y269400D02*
D03*
X159600Y268800D02*
D03*
X234200Y257800D02*
D03*
X228600Y257900D02*
D03*
X222500D02*
D03*
X258300Y319692D02*
D03*
X173956Y264200D02*
D03*
X262230Y166730D02*
D03*
X231795Y245000D02*
D03*
X241600Y218600D02*
D03*
X233300Y123700D02*
D03*
X227500Y107600D02*
D03*
X253000Y126200D02*
D03*
X266700Y134100D02*
D03*
X196037Y132063D02*
D03*
X130420Y263244D02*
D03*
X131207Y267969D02*
D03*
X130813Y257732D02*
D03*
X130420Y252614D02*
D03*
X73100Y331500D02*
D03*
X73113Y339487D02*
D03*
X256991Y238034D02*
D03*
X247444Y244235D02*
D03*
X237011D02*
D03*
X207680Y123762D02*
D03*
X196263Y239904D02*
D03*
X139964Y415494D02*
D03*
X210830Y415888D02*
D03*
X258500Y225900D02*
D03*
X250500Y226100D02*
D03*
X250987Y199747D02*
D03*
X285800Y225700D02*
D03*
X213100Y280500D02*
D03*
X163586Y414707D02*
D03*
X175397D02*
D03*
X128153Y415494D02*
D03*
X259255Y140298D02*
D03*
X262798Y215888D02*
D03*
X267100Y225800D02*
D03*
X268310Y215888D02*
D03*
X276500Y225600D02*
D03*
X275397Y215888D02*
D03*
X319885Y165101D02*
D03*
X313980D02*
D03*
X301381Y165495D02*
D03*
X307680D02*
D03*
X300987Y171794D02*
D03*
X319885D02*
D03*
X307287D02*
D03*
X313586D02*
D03*
X326184D02*
D03*
X286300Y200400D02*
D03*
X286200Y208500D02*
D03*
X286100Y216600D02*
D03*
X263980Y271794D02*
D03*
X274216Y276912D02*
D03*
X264373Y282030D02*
D03*
X284846Y149747D02*
D03*
X292720Y151715D02*
D03*
X326184Y165101D02*
D03*
X272541Y140172D02*
D03*
X252956Y290691D02*
D03*
X209900Y265400D02*
D03*
X221200Y280100D02*
D03*
X221500Y272200D02*
D03*
D102*
X292271Y410770D02*
D03*
X295598D02*
D03*
X238511Y411164D02*
D03*
X235185D02*
D03*
X357871Y410967D02*
D03*
X354544D02*
D03*
M02*
