G04*
G04 #@! TF.GenerationSoftware,Altium Limited,Altium Designer,21.8.1 (53)*
G04*
G04 Layer_Physical_Order=1*
G04 Layer_Color=255*
%FSLAX25Y25*%
%MOIN*%
G70*
G04*
G04 #@! TF.SameCoordinates,194331D0-D63E-4C46-886B-6A61BDF2C4D5*
G04*
G04*
G04 #@! TF.FilePolarity,Positive*
G04*
G01*
G75*
%ADD13C,0.00787*%
%ADD14C,0.01000*%
%ADD17C,0.01968*%
%ADD18R,0.03740X0.03150*%
%ADD19O,0.08071X0.02362*%
%ADD20O,0.02362X0.08071*%
%ADD21R,0.04331X0.08071*%
%ADD22R,0.03347X0.02756*%
%ADD23R,0.03937X0.02953*%
%ADD24R,0.02894X0.03394*%
%ADD25R,0.03773X0.03963*%
%ADD26R,0.04331X0.07480*%
%ADD27R,0.02756X0.10236*%
%ADD28R,0.03591X0.04453*%
%ADD29R,0.03150X0.03740*%
%ADD30R,0.13780X0.11811*%
%ADD31R,0.02953X0.03543*%
G04:AMPARAMS|DCode=32|XSize=26.38mil|YSize=11.81mil|CornerRadius=1.95mil|HoleSize=0mil|Usage=FLASHONLY|Rotation=0.000|XOffset=0mil|YOffset=0mil|HoleType=Round|Shape=RoundedRectangle|*
%AMROUNDEDRECTD32*
21,1,0.02638,0.00791,0,0,0.0*
21,1,0.02248,0.01181,0,0,0.0*
1,1,0.00390,0.01124,-0.00396*
1,1,0.00390,-0.01124,-0.00396*
1,1,0.00390,-0.01124,0.00396*
1,1,0.00390,0.01124,0.00396*
%
%ADD32ROUNDEDRECTD32*%
%ADD33R,0.03543X0.02953*%
%ADD34R,0.03543X0.03150*%
%ADD35R,0.04724X0.05906*%
%ADD36R,0.03150X0.03543*%
%ADD37R,0.01575X0.05315*%
%ADD38R,0.05906X0.07480*%
%ADD39R,0.21654X0.07874*%
%ADD40R,0.04182X0.04469*%
%ADD41R,0.02953X0.03937*%
%ADD42R,0.03150X0.03150*%
%ADD43R,0.03788X0.03681*%
%ADD44R,0.04016X0.02992*%
%ADD45R,0.05938X0.05534*%
G04:AMPARAMS|DCode=46|XSize=19.68mil|YSize=9.84mil|CornerRadius=1.97mil|HoleSize=0mil|Usage=FLASHONLY|Rotation=270.000|XOffset=0mil|YOffset=0mil|HoleType=Round|Shape=RoundedRectangle|*
%AMROUNDEDRECTD46*
21,1,0.01968,0.00591,0,0,270.0*
21,1,0.01575,0.00984,0,0,270.0*
1,1,0.00394,-0.00295,-0.00787*
1,1,0.00394,-0.00295,0.00787*
1,1,0.00394,0.00295,0.00787*
1,1,0.00394,0.00295,-0.00787*
%
%ADD46ROUNDEDRECTD46*%
%ADD47R,0.01181X0.02638*%
%ADD48R,0.03937X0.03543*%
%ADD49R,0.03937X0.03937*%
%ADD50R,0.03543X0.03937*%
%ADD51R,0.03150X0.03150*%
%ADD52R,0.05339X0.04152*%
%ADD53R,0.04469X0.04182*%
%ADD54R,0.12598X0.05906*%
%ADD55R,0.03347X0.03347*%
%ADD56R,0.08000X0.04500*%
%ADD57R,0.03937X0.03937*%
%ADD83C,0.06299*%
%ADD84R,0.06299X0.06299*%
%ADD85R,0.06181X0.06181*%
%ADD86C,0.06181*%
%ADD89C,0.05512*%
%ADD90R,0.05512X0.05512*%
%ADD91C,0.12008*%
%ADD94C,0.06102*%
%ADD95C,0.03937*%
%ADD102C,0.01968*%
G04:AMPARAMS|DCode=103|XSize=35.43mil|YSize=62.99mil|CornerRadius=1.95mil|HoleSize=0mil|Usage=FLASHONLY|Rotation=270.000|XOffset=0mil|YOffset=0mil|HoleType=Round|Shape=RoundedRectangle|*
%AMROUNDEDRECTD103*
21,1,0.03543,0.05909,0,0,270.0*
21,1,0.03154,0.06299,0,0,270.0*
1,1,0.00390,-0.02955,-0.01577*
1,1,0.00390,-0.02955,0.01577*
1,1,0.00390,0.02955,0.01577*
1,1,0.00390,0.02955,-0.01577*
%
%ADD103ROUNDEDRECTD103*%
%ADD104C,0.03937*%
%ADD105C,0.01500*%
%ADD106C,0.01575*%
%ADD107C,0.01181*%
%ADD108C,0.06000*%
%ADD109R,0.06000X0.06000*%
%ADD110C,0.17717*%
%ADD111R,0.06102X0.06102*%
%ADD112C,0.05906*%
%ADD113R,0.05906X0.05906*%
%ADD114R,0.09055X0.12205*%
%ADD115R,0.05906X0.05906*%
%ADD116C,0.05709*%
%ADD117R,0.06102X0.06102*%
%ADD118C,0.18307*%
%ADD119R,0.15748X0.05906*%
%ADD120R,0.13780X0.05906*%
%ADD121R,0.05906X0.13780*%
%ADD122C,0.03000*%
G36*
X367720Y368152D02*
Y335869D01*
X367161D01*
Y335935D01*
X361814D01*
Y335869D01*
X361027D01*
X357484Y332325D01*
Y330766D01*
X357499Y330750D01*
X354503D01*
Y335869D01*
X350397D01*
Y344136D01*
X352003D01*
X352003Y368546D01*
X367326D01*
X367720Y368152D01*
D02*
G37*
G36*
X341735Y342192D02*
X341342D01*
X340622Y342097D01*
X339952Y341819D01*
X339376Y341377D01*
X338934Y340802D01*
X338657Y340131D01*
X338562Y339412D01*
X338657Y338692D01*
X338934Y338022D01*
X339376Y337446D01*
X339952Y337005D01*
X340622Y336727D01*
X341342Y336632D01*
X341735D01*
Y334357D01*
X341341Y334279D01*
X340950Y334018D01*
X340490Y333557D01*
X340270Y333648D01*
X339550Y333743D01*
X338831Y333648D01*
X338161Y333371D01*
X337585Y332929D01*
X337143Y332353D01*
X336865Y331683D01*
X336771Y330963D01*
X336865Y330244D01*
X337143Y329573D01*
X337585Y328998D01*
X338161Y328556D01*
X338831Y328278D01*
X339377Y328206D01*
X339299Y328174D01*
X338723Y327732D01*
X338494Y327433D01*
X338195Y327204D01*
X337753Y326628D01*
X337476Y325958D01*
X337381Y325239D01*
X337476Y324519D01*
X337753Y323849D01*
X338195Y323273D01*
X338771Y322831D01*
X339441Y322554D01*
X340161Y322459D01*
X340880Y322554D01*
X341550Y322831D01*
X341735Y322973D01*
Y320879D01*
X339476Y318619D01*
X339265Y318577D01*
X338839Y318293D01*
X338554Y317867D01*
X338454Y317365D01*
Y314477D01*
X327168Y303191D01*
Y295317D01*
X288783D01*
Y257719D01*
X295869Y250632D01*
X304826D01*
Y246302D01*
X289570D01*
X282503Y253368D01*
Y309687D01*
X286027D01*
X286171Y309543D01*
X315410D01*
X327759Y321892D01*
Y325833D01*
X328940D01*
Y328064D01*
X331603D01*
X332323Y328158D01*
X332993Y328436D01*
X333569Y328878D01*
X334010Y329453D01*
X334288Y330124D01*
X334383Y330843D01*
X334288Y331563D01*
X334010Y332233D01*
X333569Y332809D01*
X332993Y333251D01*
X332323Y333528D01*
X331603Y333623D01*
X328940D01*
Y335478D01*
X327759D01*
Y338628D01*
X329334D01*
Y340963D01*
X331499D01*
X332219Y341058D01*
X332889Y341335D01*
X333465Y341777D01*
X333907Y342353D01*
X334184Y343023D01*
X334279Y343742D01*
X334184Y344462D01*
X333907Y345132D01*
X333465Y345708D01*
X332889Y346150D01*
X332219Y346427D01*
X331499Y346522D01*
X329334D01*
Y348273D01*
X327759D01*
Y368939D01*
X341735D01*
Y342192D01*
D02*
G37*
G36*
X245082Y334687D02*
X240322D01*
X238183Y332548D01*
Y330989D01*
X238198Y330974D01*
X234977D01*
Y331424D01*
X234963Y331493D01*
Y331735D01*
X234887Y332119D01*
X234768Y332296D01*
X234972Y332787D01*
X235066Y333506D01*
X234972Y334226D01*
X234694Y334896D01*
X234640Y334967D01*
Y336092D01*
X233246D01*
X233006Y336191D01*
X232287Y336286D01*
X231567Y336191D01*
X231327Y336092D01*
X231096D01*
Y342664D01*
X231403D01*
X232123Y342758D01*
X232427Y342884D01*
X233765D01*
Y343995D01*
X233810Y344054D01*
X233937Y344360D01*
X234640D01*
Y352758D01*
X234732D01*
Y358270D01*
X234640D01*
Y368769D01*
X245082D01*
Y334687D01*
D02*
G37*
G36*
X305515Y368054D02*
Y335770D01*
X298822D01*
X295279Y332227D01*
Y330667D01*
X295294Y330652D01*
X292303D01*
Y337243D01*
X288192Y337243D01*
Y343764D01*
X288650D01*
X289370Y343858D01*
X289674Y343984D01*
X291013D01*
Y344038D01*
X292303D01*
Y355222D01*
X292409D01*
Y360734D01*
X292303D01*
Y368447D01*
X305121D01*
X305515Y368054D01*
D02*
G37*
G36*
X406302Y317365D02*
X391735Y302798D01*
Y294924D01*
X378331D01*
X378260Y295280D01*
X378031Y295623D01*
X377687Y295853D01*
X377283Y295933D01*
X349724D01*
X349319Y295853D01*
X348976Y295623D01*
X348746Y295280D01*
X348675Y294924D01*
X348428D01*
Y257522D01*
X355515Y250435D01*
X363389D01*
Y246105D01*
X361676D01*
X361626Y246605D01*
X361923Y246664D01*
X362349Y246948D01*
X362633Y247374D01*
X362733Y247876D01*
X362633Y248379D01*
X362349Y248805D01*
X361923Y249089D01*
X361420Y249189D01*
X360928D01*
X360426Y249089D01*
X360000Y248805D01*
X359716Y248379D01*
X359616Y247876D01*
X359716Y247374D01*
X360000Y246948D01*
X360426Y246664D01*
X360722Y246605D01*
X360673Y246105D01*
X349216D01*
X341603Y253717D01*
Y309491D01*
X380318D01*
X392326Y321498D01*
Y326754D01*
X395294D01*
Y328798D01*
X398129D01*
X398428Y328758D01*
X399148Y328853D01*
X399818Y329131D01*
X400394Y329572D01*
X400836Y330148D01*
X401113Y330818D01*
X401208Y331538D01*
X401113Y332257D01*
X400836Y332928D01*
X400394Y333503D01*
X400354Y333543D01*
X399779Y333984D01*
X399108Y334262D01*
X398389Y334357D01*
X395294D01*
Y336400D01*
X392326D01*
Y338920D01*
X395279D01*
Y340569D01*
X398035D01*
X398754Y340664D01*
X399425Y340942D01*
X400000Y341383D01*
X400442Y341959D01*
X400720Y342629D01*
X400814Y343349D01*
X400720Y344068D01*
X400442Y344739D01*
X400000Y345314D01*
X399425Y345756D01*
X398754Y346034D01*
X398035Y346129D01*
X395279D01*
Y348565D01*
X392326D01*
Y368546D01*
X406302D01*
Y317365D01*
D02*
G37*
G36*
X341735Y328546D02*
X340917D01*
X340940Y328556D01*
X341516Y328998D01*
X341735Y329284D01*
Y328546D01*
D02*
G37*
G36*
X390161Y351223D02*
X389373Y350435D01*
Y324845D01*
X377168Y324845D01*
X371263Y330750D01*
X358301D01*
X358286Y330827D01*
Y331551D01*
X361420Y334294D01*
X368901Y334687D01*
Y353979D01*
X380712D01*
X380712Y355160D01*
X380712Y368546D01*
X390161D01*
Y351223D01*
D02*
G37*
G36*
X326134Y351183D02*
X325347Y350396D01*
Y348273D01*
X323428D01*
Y344585D01*
X323377Y344462D01*
X323283Y343742D01*
X323377Y343023D01*
X323428Y342900D01*
Y338628D01*
X325347D01*
Y335478D01*
X323035D01*
Y330931D01*
X323011Y330750D01*
X323035Y330570D01*
Y325833D01*
X325347D01*
Y324805D01*
X313142Y324805D01*
X309003Y329343D01*
X296902D01*
X296659Y329392D01*
X296103D01*
Y331916D01*
X298499Y334312D01*
X304874Y334648D01*
Y334967D01*
X305515D01*
X305822Y335028D01*
X306083Y335202D01*
X306257Y335463D01*
X306318Y335770D01*
Y353939D01*
X316686D01*
X316686Y355120D01*
X316686Y368506D01*
X326134D01*
Y351183D01*
D02*
G37*
G36*
X266507Y349679D02*
X265263Y348435D01*
Y348172D01*
X262995D01*
Y338526D01*
X265263D01*
Y336754D01*
X262995D01*
Y327109D01*
X265263D01*
Y324649D01*
X253058Y324649D01*
X248983Y328724D01*
X240574D01*
Y328784D01*
X240497Y329167D01*
X240280Y329492D01*
X239955Y329709D01*
X239572Y329785D01*
X238826D01*
X238900Y330160D01*
Y330608D01*
X238940Y330666D01*
X239001Y330974D01*
X238986Y331050D01*
Y332216D01*
X240654Y333885D01*
X245082D01*
X245389Y333946D01*
X245650Y334120D01*
X245824Y334380D01*
X245885Y334687D01*
Y353783D01*
X256601D01*
X256601Y354964D01*
X256601Y368350D01*
X266507D01*
Y349679D01*
D02*
G37*
G36*
X391523Y348565D02*
X391584Y348258D01*
X391758Y347998D01*
X392019Y347824D01*
X392326Y347762D01*
X394476D01*
Y346129D01*
X394537Y345821D01*
X394711Y345561D01*
X394971Y345387D01*
X395279Y345326D01*
X397982D01*
X398545Y345252D01*
X399020Y345055D01*
X399428Y344742D01*
X399741Y344334D01*
X399937Y343859D01*
X400005Y343349D01*
X399937Y342839D01*
X399741Y342364D01*
X399428Y341956D01*
X399020Y341643D01*
X398545Y341446D01*
X397982Y341372D01*
X395279D01*
X394971Y341311D01*
X394711Y341137D01*
X394537Y340876D01*
X394476Y340569D01*
Y339722D01*
X392326D01*
X392019Y339661D01*
X391758Y339487D01*
X391584Y339227D01*
X391523Y338920D01*
Y336400D01*
X391584Y336093D01*
X391758Y335832D01*
X392019Y335658D01*
X392326Y335597D01*
X394492D01*
Y334357D01*
X394553Y334050D01*
X394727Y333789D01*
X394987Y333615D01*
X395294Y333554D01*
X398336D01*
X398899Y333480D01*
X399374Y333283D01*
X399804Y332953D01*
X400134Y332523D01*
X400331Y332048D01*
X400398Y331538D01*
X400331Y331028D01*
X400134Y330553D01*
X399821Y330145D01*
X399413Y329832D01*
X398938Y329635D01*
X398428Y329568D01*
X398234Y329593D01*
X398181Y329590D01*
X398129Y329600D01*
X395294D01*
X394987Y329539D01*
X394727Y329365D01*
X394553Y329105D01*
X394492Y328798D01*
Y327557D01*
X392326D01*
X392019Y327496D01*
X391758Y327322D01*
X391584Y327062D01*
X391523Y326754D01*
Y321831D01*
X379986Y310293D01*
X379897D01*
X341079Y310900D01*
Y316817D01*
X345663Y321400D01*
X346838D01*
X346709Y321347D01*
X346134Y320905D01*
X346038Y320809D01*
X345596Y320233D01*
X345318Y319563D01*
X345223Y318843D01*
X345318Y318124D01*
X345596Y317454D01*
X346038Y316878D01*
X346613Y316436D01*
X347284Y316158D01*
X348003Y316064D01*
X348723Y316158D01*
X348726Y316160D01*
X353153D01*
X353872Y316254D01*
X354356Y316455D01*
X355387D01*
Y317324D01*
X355560Y317549D01*
X355764Y318042D01*
Y316455D01*
X360233D01*
Y319822D01*
X360242Y319871D01*
Y323270D01*
X360229Y323340D01*
Y324058D01*
X360152Y324442D01*
X359935Y324767D01*
X359609Y324985D01*
X359225Y325061D01*
X358634D01*
X358250Y324985D01*
X357946Y324781D01*
X357641Y324985D01*
X357257Y325061D01*
X356666D01*
X356282Y324985D01*
X355977Y324781D01*
X355672Y324985D01*
X355288Y325061D01*
X354697D01*
X354313Y324985D01*
X354009Y324781D01*
X353704Y324985D01*
X353320Y325061D01*
X352729D01*
X352345Y324985D01*
X352019Y324767D01*
X351824Y324474D01*
X349330D01*
X348869Y324383D01*
X348478Y324122D01*
X348165Y323809D01*
X348053D01*
X348489Y324377D01*
X348767Y325047D01*
X348862Y325767D01*
X348767Y326486D01*
X348489Y327157D01*
X348460Y327194D01*
Y330220D01*
X343113D01*
Y328546D01*
X342538D01*
Y329284D01*
X342528Y329336D01*
X342531Y329389D01*
X342498Y329488D01*
X342477Y329591D01*
X342448Y329635D01*
X342431Y329685D01*
X342361Y329764D01*
X342303Y329852D01*
X342259Y329881D01*
X342224Y329921D01*
X342130Y329967D01*
X342043Y330026D01*
X341991Y330036D01*
X341943Y330059D01*
X341838Y330066D01*
X341735Y330087D01*
X341684Y330076D01*
X341631Y330080D01*
X341531Y330046D01*
X341428Y330026D01*
X341384Y329996D01*
X341334Y329979D01*
X341255Y329910D01*
X341168Y329852D01*
X341138Y329807D01*
X341098Y329772D01*
X340943Y329570D01*
X340452Y329193D01*
X340429Y329168D01*
X340349Y329114D01*
Y329114D01*
X340349Y329114D01*
X340219Y328919D01*
X340175Y328854D01*
Y328854D01*
X340175Y328854D01*
X340142Y328685D01*
X340114Y328547D01*
Y328546D01*
Y328546D01*
X340129Y328473D01*
X340127Y328472D01*
X340119Y328514D01*
X340061Y328601D01*
X340014Y328695D01*
X339974Y328730D01*
X339945Y328774D01*
X339858Y328833D01*
X339779Y328902D01*
X339729Y328919D01*
X339685Y328948D01*
X339582Y328969D01*
X339482Y329002D01*
X339041Y329061D01*
X338565Y329257D01*
X338158Y329570D01*
X337844Y329978D01*
X337648Y330453D01*
X337581Y330963D01*
X337648Y331473D01*
X337844Y331948D01*
X338158Y332356D01*
X338565Y332669D01*
X339041Y332866D01*
X339550Y332933D01*
X340060Y332866D01*
X340182Y332816D01*
X340182Y332816D01*
X340490Y332754D01*
X340675Y332791D01*
X340797Y332816D01*
X341057Y332990D01*
X341057Y332990D01*
X341462Y333394D01*
X341654Y333523D01*
X341892Y333570D01*
X341965Y333600D01*
X342043Y333616D01*
X342108Y333660D01*
X342181Y333690D01*
X342237Y333746D01*
X342303Y333790D01*
X342347Y333856D01*
X342403Y333911D01*
X342433Y333984D01*
X342477Y334050D01*
X342493Y334128D01*
X342523Y334201D01*
Y334280D01*
X342538Y334357D01*
Y336632D01*
X342477Y336939D01*
X342303Y337200D01*
X342043Y337374D01*
X341735Y337435D01*
X341394D01*
X340832Y337509D01*
X340357Y337706D01*
X339949Y338019D01*
X339636Y338427D01*
X339439Y338902D01*
X339372Y339412D01*
X339439Y339922D01*
X339636Y340397D01*
X339949Y340805D01*
X340357Y341118D01*
X340832Y341315D01*
X341394Y341389D01*
X341735D01*
X342043Y341450D01*
X342303Y341624D01*
X342477Y341884D01*
X342538Y342192D01*
Y349265D01*
X351200D01*
Y344939D01*
X350397D01*
X350090Y344878D01*
X349829Y344704D01*
X349655Y344443D01*
X349594Y344136D01*
Y335869D01*
X349655Y335561D01*
X349829Y335301D01*
X350090Y335127D01*
X350397Y335066D01*
X353700D01*
Y331570D01*
X353694Y331538D01*
Y329963D01*
X353770Y329579D01*
X353988Y329253D01*
X354313Y329036D01*
X354697Y328959D01*
X355288D01*
X355672Y329036D01*
X355977Y329240D01*
X356282Y329036D01*
X356666Y328959D01*
X357257D01*
X357641Y329036D01*
X357946Y329240D01*
X358250Y329036D01*
X358634Y328959D01*
X359225D01*
X359609Y329036D01*
X359935Y329253D01*
X360152Y329579D01*
X360226Y329948D01*
X370930D01*
X376601Y324277D01*
X376861Y324103D01*
X377168Y324042D01*
X389373Y324042D01*
X389681Y324103D01*
X389941Y324277D01*
X390115Y324538D01*
X390176Y324845D01*
Y349265D01*
X391523D01*
Y348565D01*
D02*
G37*
G36*
X326956Y348273D02*
X327017Y347966D01*
X327191Y347706D01*
X327452Y347532D01*
X327759Y347471D01*
X328531D01*
Y346522D01*
X328592Y346215D01*
X328766Y345954D01*
X329027Y345780D01*
X329334Y345719D01*
X331447D01*
X332009Y345645D01*
X332484Y345448D01*
X332892Y345135D01*
X333205Y344727D01*
X333402Y344252D01*
X333469Y343742D01*
X333402Y343233D01*
X333205Y342758D01*
X332892Y342350D01*
X332484Y342037D01*
X332009Y341840D01*
X331447Y341766D01*
X329334D01*
X329027Y341705D01*
X328766Y341530D01*
X328592Y341270D01*
X328531Y340963D01*
Y339431D01*
X327759D01*
X327452Y339370D01*
X327191Y339195D01*
X327017Y338935D01*
X326956Y338628D01*
Y335478D01*
X327017Y335171D01*
X327191Y334910D01*
X327452Y334736D01*
X327759Y334675D01*
X328137D01*
Y333623D01*
X328198Y333316D01*
X328373Y333055D01*
X328633Y332881D01*
X328940Y332820D01*
X331551D01*
X332113Y332746D01*
X332588Y332549D01*
X332996Y332236D01*
X333309Y331828D01*
X333506Y331353D01*
X333573Y330843D01*
X333506Y330333D01*
X333309Y329858D01*
X332996Y329450D01*
X332588Y329137D01*
X332113Y328941D01*
X331551Y328867D01*
X328940D01*
X328633Y328805D01*
X328373Y328631D01*
X328198Y328371D01*
X328137Y328064D01*
Y326635D01*
X327759D01*
X327452Y326574D01*
X327191Y326400D01*
X327017Y326140D01*
X326956Y325833D01*
Y322225D01*
X315785Y311054D01*
X281631D01*
Y315129D01*
X284235Y317733D01*
X284326Y317039D01*
X284604Y316368D01*
X285046Y315793D01*
X285621Y315351D01*
X286292Y315073D01*
X287011Y314979D01*
X287731Y315073D01*
X288401Y315351D01*
X288408Y315356D01*
X289941D01*
X290660Y315451D01*
X291330Y315729D01*
X291906Y316170D01*
X292348Y316746D01*
X292390Y316849D01*
X293122D01*
Y321304D01*
X293399Y321359D01*
X293499Y321425D01*
Y316849D01*
X297967D01*
Y321818D01*
X297961D01*
Y323034D01*
X297969Y323073D01*
X297955Y323143D01*
Y323861D01*
X297879Y324245D01*
X297662Y324570D01*
X297336Y324788D01*
X296952Y324864D01*
X296361D01*
X295977Y324788D01*
X295672Y324584D01*
X295368Y324788D01*
X294984Y324864D01*
X294393D01*
X294009Y324788D01*
X293704Y324584D01*
X293399Y324788D01*
X293015Y324864D01*
X292424D01*
X292040Y324788D01*
X291735Y324584D01*
X291430Y324788D01*
X291047Y324864D01*
X290456D01*
X290072Y324788D01*
X289746Y324570D01*
X289529Y324245D01*
X289452Y323861D01*
Y323687D01*
X289107D01*
X288897Y323645D01*
Y327906D01*
X286301D01*
X286257Y327923D01*
X285538Y328018D01*
X283074D01*
X282499Y327942D01*
Y328116D01*
X282478Y328219D01*
X282471Y328324D01*
X282448Y328371D01*
X282438Y328423D01*
X282379Y328511D01*
X282333Y328605D01*
X282293Y328640D01*
X282264Y328684D01*
X282176Y328742D01*
X282098Y328811D01*
X282047Y328828D01*
X282003Y328858D01*
X281912Y328876D01*
X281361Y329104D01*
X280953Y329417D01*
X280640Y329825D01*
X280444Y330300D01*
X280376Y330810D01*
X280444Y331320D01*
X280640Y331795D01*
X280972Y332227D01*
X281403Y332558D01*
X281968Y332792D01*
X282003Y332799D01*
X282047Y332828D01*
X282098Y332845D01*
X282176Y332915D01*
X282264Y332973D01*
X282293Y333017D01*
X282333Y333052D01*
X282379Y333146D01*
X282438Y333233D01*
X282448Y333285D01*
X282472Y333333D01*
X282478Y333438D01*
X282499Y333541D01*
Y336065D01*
X282438Y336373D01*
X282264Y336633D01*
X282003Y336807D01*
X281696Y336868D01*
X281613D01*
Y337026D01*
X281552Y337333D01*
X281378Y337594D01*
X281118Y337768D01*
X280810Y337829D01*
X279091D01*
X278529Y337903D01*
X278054Y338100D01*
X277646Y338413D01*
X277333Y338821D01*
X277136Y339296D01*
X277069Y339806D01*
X277136Y340315D01*
X277333Y340791D01*
X277646Y341198D01*
X278054Y341512D01*
X278529Y341708D01*
X279091Y341782D01*
X280810D01*
X281118Y341844D01*
X281378Y342018D01*
X281552Y342278D01*
X281613Y342585D01*
Y342743D01*
X281696D01*
X282003Y342804D01*
X282264Y342978D01*
X282438Y343238D01*
X282499Y343546D01*
Y344823D01*
X282478Y344926D01*
X282471Y345031D01*
X282448Y345078D01*
X282438Y345130D01*
X282379Y345217D01*
X282333Y345312D01*
X282297Y345358D01*
X282100Y345833D01*
X282033Y346343D01*
X282100Y346853D01*
X282297Y347328D01*
X282333Y347375D01*
X282379Y347469D01*
X282438Y347556D01*
X282448Y347608D01*
X282471Y347656D01*
X282478Y347761D01*
X282499Y347864D01*
Y349265D01*
X291500D01*
Y344841D01*
X291013D01*
X290743Y344787D01*
X289674D01*
X289367Y344726D01*
X289160Y344640D01*
X288598Y344566D01*
X288192D01*
X287885Y344505D01*
X287624Y344331D01*
X287450Y344071D01*
X287389Y343764D01*
Y337243D01*
X287450Y336936D01*
X287624Y336676D01*
X287885Y336502D01*
X288192Y336440D01*
X290850Y336440D01*
Y336065D01*
X291500D01*
Y331730D01*
X291497Y331725D01*
X291421Y331341D01*
Y329766D01*
X291497Y329382D01*
X291715Y329057D01*
X292040Y328839D01*
X292424Y328763D01*
X293015D01*
X293399Y328839D01*
X293704Y329043D01*
X294009Y328839D01*
X294393Y328763D01*
X294984D01*
X295368Y328839D01*
X295477Y328912D01*
X295535Y328824D01*
X295796Y328650D01*
X296103Y328589D01*
X296580D01*
X296745Y328556D01*
X296824D01*
X296902Y328540D01*
X298511D01*
Y328477D01*
X303858D01*
Y328540D01*
X308649D01*
X310043Y327012D01*
Y325833D01*
X311119D01*
X312549Y324264D01*
X312564Y324253D01*
X312574Y324237D01*
X312690Y324161D01*
X312801Y324078D01*
X312819Y324074D01*
X312835Y324063D01*
X312971Y324036D01*
X313105Y324003D01*
X313124Y324006D01*
X313142Y324002D01*
X325347Y324002D01*
X325654Y324063D01*
X325915Y324237D01*
X326089Y324498D01*
X326150Y324805D01*
Y325833D01*
X326089Y326140D01*
X325915Y326400D01*
X325654Y326574D01*
X325347Y326635D01*
X323837D01*
Y330570D01*
X323827Y330622D01*
X323831Y330675D01*
X323821Y330750D01*
X323831Y330826D01*
X323827Y330879D01*
X323837Y330931D01*
Y334675D01*
X325347D01*
X325654Y334736D01*
X325915Y334910D01*
X326089Y335171D01*
X326150Y335478D01*
Y338628D01*
X326089Y338935D01*
X325915Y339195D01*
X325654Y339370D01*
X325347Y339431D01*
X324231D01*
Y342900D01*
X324170Y343207D01*
X324159Y343233D01*
X324092Y343742D01*
X324159Y344252D01*
X324170Y344278D01*
X324231Y344585D01*
Y347471D01*
X325347D01*
X325654Y347532D01*
X325915Y347706D01*
X326089Y347966D01*
X326150Y348273D01*
Y349265D01*
X326956D01*
Y348273D01*
D02*
G37*
G36*
X233837Y345142D02*
X233630Y345101D01*
X233369Y344927D01*
X233265Y344771D01*
X233195Y344667D01*
X233078Y344384D01*
X233024Y344302D01*
X233013Y344250D01*
X232990Y344202D01*
X232983Y344098D01*
X232962Y343995D01*
Y343687D01*
X232427D01*
X232119Y343626D01*
X231913Y343541D01*
X231350Y343466D01*
X231096D01*
X230789Y343405D01*
X230529Y343231D01*
X230355Y342971D01*
X230293Y342664D01*
Y336092D01*
X230355Y335785D01*
X230529Y335524D01*
X230789Y335350D01*
X231096Y335289D01*
X231327D01*
X231634Y335350D01*
X231777Y335409D01*
X232287Y335476D01*
X232797Y335409D01*
X232939Y335350D01*
X233246Y335289D01*
X233837D01*
Y334967D01*
X233857Y334864D01*
X233864Y334759D01*
X233888Y334712D01*
X233898Y334660D01*
X233956Y334572D01*
X233974Y334537D01*
X234189Y334016D01*
X234257Y333506D01*
X234189Y332996D01*
X234027Y332603D01*
X234011Y332526D01*
X233981Y332453D01*
Y332374D01*
X233965Y332296D01*
X233981Y332219D01*
Y332140D01*
X234011Y332066D01*
X234027Y331989D01*
X234071Y331923D01*
X234101Y331850D01*
X234131Y331805D01*
X234160Y331656D01*
Y331493D01*
X234174Y331424D01*
D01*
Y330974D01*
X234236Y330666D01*
X234334Y330519D01*
Y330160D01*
X234411Y329776D01*
X234628Y329450D01*
X234954Y329233D01*
X235338Y329156D01*
X235928D01*
X236312Y329233D01*
X236617Y329436D01*
X236922Y329233D01*
X237306Y329156D01*
X237897D01*
X238252Y329227D01*
X238258Y329218D01*
X238324Y329174D01*
X238380Y329118D01*
X238453Y329088D01*
X238519Y329044D01*
X238596Y329028D01*
X238669Y328998D01*
X238748D01*
X238826Y328982D01*
X239493D01*
X239642Y328953D01*
X239701Y328913D01*
X239741Y328854D01*
X239786Y328627D01*
X239793Y328609D01*
X239832Y328417D01*
X240006Y328156D01*
X240266Y327982D01*
X240574Y327921D01*
X248650D01*
X252490Y324081D01*
X252751Y323907D01*
X253058Y323846D01*
X265263Y323846D01*
X265570Y323907D01*
X265830Y324081D01*
X266004Y324342D01*
X266066Y324649D01*
Y327109D01*
X266004Y327416D01*
X265830Y327676D01*
X265570Y327850D01*
X265263Y327911D01*
X263798D01*
Y335951D01*
X265263D01*
X265570Y336013D01*
X265830Y336187D01*
X266004Y336447D01*
X266066Y336754D01*
Y338526D01*
X266004Y338833D01*
X265830Y339094D01*
X265570Y339268D01*
X265263Y339329D01*
X263798D01*
Y347369D01*
X265263D01*
X265570Y347430D01*
X265830Y347604D01*
X266004Y347864D01*
X266049Y348086D01*
X266917Y348954D01*
Y348172D01*
X266978Y347864D01*
X267152Y347604D01*
X267412Y347430D01*
X267720Y347369D01*
X268098D01*
Y345735D01*
X268159Y345428D01*
X268333Y345167D01*
X268594Y344993D01*
X268901Y344932D01*
X270423D01*
X270985Y344858D01*
X271461Y344661D01*
X271868Y344348D01*
X272182Y343940D01*
X272378Y343465D01*
X272446Y342955D01*
X272378Y342445D01*
X272182Y341970D01*
X271868Y341562D01*
X271461Y341249D01*
X270985Y341052D01*
X270423Y340978D01*
X268901D01*
X268594Y340917D01*
X268333Y340743D01*
X268159Y340483D01*
X268098Y340175D01*
Y339329D01*
X267720D01*
X267412Y339268D01*
X267152Y339094D01*
X266978Y338833D01*
X266917Y338526D01*
Y336754D01*
X266978Y336447D01*
X267152Y336187D01*
X267412Y336013D01*
X267720Y335951D01*
X268098D01*
Y335105D01*
X268159Y334798D01*
X268333Y334537D01*
X268594Y334363D01*
X268901Y334302D01*
X270817D01*
X271379Y334228D01*
X271854Y334031D01*
X272262Y333718D01*
X272575Y333310D01*
X272772Y332835D01*
X272839Y332325D01*
X272772Y331815D01*
X272575Y331340D01*
X272262Y330932D01*
X271854Y330619D01*
X271379Y330422D01*
X270817Y330348D01*
X268901D01*
X268594Y330287D01*
X268333Y330113D01*
X268159Y329853D01*
X268098Y329545D01*
Y327911D01*
X267720D01*
X267412Y327850D01*
X267152Y327676D01*
X266978Y327416D01*
X266917Y327109D01*
Y321929D01*
X256041Y311054D01*
X238807D01*
Y311558D01*
X233641D01*
Y311054D01*
X221394D01*
Y311157D01*
X228432Y318194D01*
X228698Y317549D01*
X229140Y316974D01*
X229716Y316532D01*
X230386Y316254D01*
X231105Y316160D01*
X231825Y316254D01*
X232495Y316532D01*
X232523Y316553D01*
X234134D01*
X234853Y316648D01*
X235337Y316849D01*
X236368D01*
Y317718D01*
X236541Y317943D01*
X236745Y318436D01*
Y316849D01*
X241214D01*
Y321818D01*
X240875D01*
Y323427D01*
X240883Y323467D01*
X240869Y323536D01*
Y324254D01*
X240792Y324638D01*
X240575Y324964D01*
X240249Y325182D01*
X239865Y325258D01*
X239275D01*
X238891Y325182D01*
X238586Y324978D01*
X238281Y325182D01*
X237897Y325258D01*
X237306D01*
X236922Y325182D01*
X236617Y324978D01*
X236312Y325182D01*
X235928Y325258D01*
X235338D01*
X234954Y325182D01*
X234649Y324978D01*
X234344Y325182D01*
X233960Y325258D01*
X233369D01*
X232985Y325182D01*
X232660Y324964D01*
X232464Y324671D01*
X232427D01*
X231966Y324580D01*
X231575Y324319D01*
X231575Y324318D01*
X231417Y324160D01*
Y324886D01*
X231428Y324913D01*
X231523Y325632D01*
X231428Y326352D01*
X231417Y326379D01*
Y328401D01*
X228827D01*
X228743Y328412D01*
X228660Y328401D01*
X226070D01*
Y328399D01*
X224400D01*
X223680Y328304D01*
X223010Y328027D01*
X222434Y327585D01*
X222053Y327204D01*
X221612Y326628D01*
X221334Y325958D01*
X221239Y325239D01*
X221334Y324519D01*
X221612Y323849D01*
X222053Y323273D01*
X222629Y322831D01*
X223300Y322554D01*
X224019Y322459D01*
X224738Y322554D01*
X225409Y322831D01*
X225420Y322840D01*
X228545D01*
X226921Y321216D01*
X226637Y320790D01*
X226537Y320288D01*
Y320012D01*
X220669Y314143D01*
Y349265D01*
X233837D01*
Y345142D01*
D02*
G37*
G36*
X281696Y347864D02*
X281596Y347733D01*
X281318Y347063D01*
X281224Y346343D01*
X281318Y345624D01*
X281596Y344953D01*
X281696Y344823D01*
Y343546D01*
X280810D01*
Y342585D01*
X279039D01*
X278319Y342491D01*
X277649Y342213D01*
X277073Y341771D01*
X276631Y341195D01*
X276354Y340525D01*
X276259Y339806D01*
X276354Y339086D01*
X276631Y338416D01*
X277073Y337840D01*
X277649Y337398D01*
X278319Y337121D01*
X279039Y337026D01*
X280810D01*
Y336065D01*
X281696D01*
Y333541D01*
X281669Y333537D01*
X280999Y333260D01*
X280423Y332818D01*
X280405Y332794D01*
X280381Y332776D01*
X279939Y332200D01*
X279661Y331529D01*
X279567Y330810D01*
X279661Y330091D01*
X279939Y329420D01*
X280381Y328844D01*
X280956Y328403D01*
X281627Y328125D01*
X281696Y328116D01*
Y327651D01*
X281684Y327646D01*
X281108Y327204D01*
X280667Y326628D01*
X280389Y325958D01*
X280294Y325239D01*
X280389Y324519D01*
X280667Y323849D01*
X281108Y323273D01*
X281684Y322831D01*
X281696Y322826D01*
Y319236D01*
X267129Y304669D01*
X267129Y295022D01*
X258812D01*
X258676Y295113D01*
X258271Y295194D01*
X230712D01*
X230307Y295113D01*
X230170Y295022D01*
X229235D01*
Y258605D01*
X236322Y251518D01*
X245279D01*
Y247187D01*
X230023D01*
X222403Y254807D01*
Y309589D01*
X255712D01*
X267720Y321597D01*
Y327109D01*
X268901D01*
Y329545D01*
X270869D01*
X271589Y329640D01*
X272259Y329918D01*
X272835Y330360D01*
X273277Y330935D01*
X273554Y331606D01*
X273649Y332325D01*
X273554Y333045D01*
X273277Y333715D01*
X272835Y334291D01*
X272259Y334733D01*
X271589Y335010D01*
X270869Y335105D01*
X268901D01*
Y336754D01*
X267720D01*
Y338526D01*
X268901D01*
Y340175D01*
X270476D01*
X271195Y340270D01*
X271865Y340548D01*
X272441Y340990D01*
X272883Y341565D01*
X273161Y342236D01*
X273255Y342955D01*
X273161Y343674D01*
X272883Y344345D01*
X272441Y344921D01*
X271865Y345362D01*
X271195Y345640D01*
X270476Y345735D01*
X268901D01*
Y348172D01*
X267720D01*
Y368644D01*
X281696D01*
Y347864D01*
D02*
G37*
G36*
X251316Y275017D02*
Y271563D01*
X245660D01*
X245058Y271314D01*
X244808Y270711D01*
Y267660D01*
X244688D01*
Y264043D01*
X243507D01*
Y265516D01*
X243523Y265553D01*
Y266282D01*
X243507Y266319D01*
Y266970D01*
X243719Y267181D01*
X244138Y268194D01*
Y269291D01*
X243719Y270304D01*
X242943Y271079D01*
X241930Y271498D01*
X240834D01*
X239821Y271079D01*
X239046Y270304D01*
X238626Y269291D01*
Y268194D01*
X239046Y267181D01*
X239821Y266406D01*
X240736Y266027D01*
Y265553D01*
X240751Y265516D01*
Y264043D01*
X233154D01*
Y272842D01*
X235452Y275140D01*
X251367D01*
X251316Y275017D01*
D02*
G37*
G36*
X314725Y271810D02*
X314202Y271288D01*
X313783Y270275D01*
Y269179D01*
X313906Y268882D01*
X311181Y268276D01*
X306851Y265870D01*
Y265691D01*
X304924D01*
Y262443D01*
X303743D01*
Y263548D01*
X303759Y263585D01*
Y264313D01*
X303743Y264351D01*
Y265691D01*
X303015D01*
X303127Y265804D01*
X303547Y266816D01*
Y267913D01*
X303127Y268926D01*
X302352Y269701D01*
X301339Y270121D01*
X300242D01*
X299230Y269701D01*
X298454Y268926D01*
X298035Y267913D01*
Y266816D01*
X298454Y265804D01*
X299230Y265028D01*
X300242Y264609D01*
X300256D01*
X300367Y264341D01*
X300972Y263736D01*
Y263585D01*
X300987Y263548D01*
Y262443D01*
X294646D01*
Y270638D01*
X297769Y273762D01*
X314725D01*
Y271810D01*
D02*
G37*
G36*
X370869Y270908D02*
X362995D01*
Y265691D01*
X362798D01*
Y262343D01*
X361617D01*
Y263548D01*
X361633Y263585D01*
X361617Y263622D01*
Y265691D01*
X361161D01*
X361134Y265757D01*
X360633Y266259D01*
Y267125D01*
X360213Y268138D01*
X359438Y268914D01*
X358425Y269333D01*
X357329D01*
X356316Y268914D01*
X355541Y268138D01*
X355121Y267125D01*
Y266029D01*
X355541Y265016D01*
X356316Y264241D01*
X357329Y263821D01*
X358425D01*
X358755Y263958D01*
Y263676D01*
X358861Y263420D01*
Y262343D01*
X350791D01*
Y270121D01*
X353251Y272581D01*
X370869D01*
Y270908D01*
D02*
G37*
G36*
X277503Y259998D02*
X277381D01*
Y260186D01*
X269869D01*
Y259998D01*
X267933D01*
Y260186D01*
X260621D01*
Y261573D01*
X259046Y263148D01*
X258885D01*
Y263526D01*
X253719D01*
Y263148D01*
X253448D01*
Y263231D01*
X248133D01*
Y263148D01*
X245660D01*
Y270711D01*
X252168D01*
Y275017D01*
X254346Y276140D01*
X277503D01*
Y259998D01*
D02*
G37*
G36*
X397641Y258703D02*
X378350D01*
Y260278D01*
X376775Y261853D01*
X363803Y262201D01*
Y270105D01*
X370869D01*
X371177Y270166D01*
X371437Y270340D01*
X371611Y270601D01*
X371672Y270908D01*
Y272581D01*
X371611Y272888D01*
X371437Y273149D01*
X371180Y273320D01*
Y274845D01*
X397641D01*
Y258703D01*
D02*
G37*
G36*
X337303D02*
X320476D01*
Y260278D01*
X318901Y261853D01*
X305712D01*
Y262366D01*
X305727Y262443D01*
Y264889D01*
X306851D01*
X307158Y264950D01*
X307418Y265124D01*
X307571Y265352D01*
X311469Y267518D01*
X314080Y268098D01*
X314144Y268126D01*
X314213Y268140D01*
X314286Y268189D01*
X314367Y268224D01*
X314415Y268275D01*
X314473Y268314D01*
X314522Y268387D01*
X314583Y268451D01*
X314608Y268516D01*
X314647Y268575D01*
X314665Y268661D01*
X314696Y268743D01*
X314695Y268813D01*
X314708Y268882D01*
X314691Y268968D01*
X314689Y269056D01*
X314661Y269120D01*
X314647Y269189D01*
X314585Y269338D01*
Y270115D01*
X314883Y270833D01*
X315292Y271242D01*
X315466Y271503D01*
X315527Y271810D01*
Y273762D01*
X315466Y274069D01*
X315292Y274330D01*
X315032Y274504D01*
X314725Y274565D01*
X313658D01*
X314200Y274845D01*
X337303D01*
Y258703D01*
D02*
G37*
G36*
X245092Y262580D02*
X245353Y262406D01*
X245660Y262345D01*
X248133D01*
X248440Y262406D01*
X248473Y262428D01*
X252759D01*
Y258506D01*
X248035D01*
Y261643D01*
X247444D01*
Y261833D01*
X244688D01*
Y259294D01*
X243507D01*
Y262643D01*
X245050D01*
X245092Y262580D01*
D02*
G37*
G36*
X305712Y261050D02*
X312995D01*
Y257128D01*
X308271D01*
Y259884D01*
X304903D01*
Y257916D01*
X303743D01*
Y261065D01*
X305634D01*
X305712Y261050D01*
D02*
G37*
G36*
X370869Y261208D02*
Y258958D01*
X370846Y258778D01*
Y256735D01*
X366145D01*
Y259743D01*
X365554D01*
Y259865D01*
X362798D01*
Y257522D01*
X361617D01*
Y259865D01*
X361503D01*
Y261243D01*
X369569D01*
X370869Y261208D01*
D02*
G37*
G36*
X307468Y257128D02*
X307484Y257051D01*
Y256341D01*
X308193D01*
X308271Y256326D01*
X311420D01*
Y252010D01*
X309719D01*
X309661Y252055D01*
X308990Y252333D01*
X308271Y252428D01*
X307551Y252333D01*
X306881Y252055D01*
X306822Y252010D01*
X300003D01*
X300003Y255728D01*
X300987Y255733D01*
Y255652D01*
X305712D01*
Y255760D01*
X306302Y255763D01*
Y259081D01*
X307468D01*
Y257128D01*
D02*
G37*
G36*
X365342Y256735D02*
X365357Y256657D01*
Y255947D01*
X366067D01*
X366145Y255932D01*
X369295D01*
Y251617D01*
X367987D01*
X367928Y251662D01*
X367258Y251939D01*
X366539Y252034D01*
X365819Y251939D01*
X365149Y251662D01*
X365090Y251617D01*
X357877D01*
Y255643D01*
X363783Y255643D01*
Y258703D01*
X365342D01*
Y256735D01*
D02*
G37*
G36*
X247050Y257817D02*
X247649D01*
X247727Y257765D01*
X248035Y257703D01*
X250495D01*
Y253747D01*
X245843D01*
Y253743D01*
X240554D01*
Y257416D01*
X245180Y257442D01*
Y257621D01*
X245476D01*
Y259216D01*
X245491Y259294D01*
Y260573D01*
X247050D01*
Y257817D01*
D02*
G37*
G36*
X229203Y177643D02*
X205515D01*
Y200829D01*
Y206735D01*
X229203D01*
Y177643D01*
D02*
G37*
G36*
X290161Y138231D02*
Y110278D01*
X247641D01*
X246853Y111065D01*
Y145643D01*
X290161D01*
Y138231D01*
D02*
G37*
G36*
X279531Y85946D02*
X279515Y85869D01*
Y81160D01*
X272050D01*
X271973Y81144D01*
X270869D01*
Y80652D01*
X270672D01*
Y79176D01*
X269518D01*
Y79274D01*
X269503Y79350D01*
Y80542D01*
X269491Y80554D01*
Y80652D01*
X269393D01*
X264570Y85475D01*
Y87050D01*
X279531D01*
Y85946D01*
D02*
G37*
G36*
X330712Y91774D02*
Y91380D01*
Y71695D01*
X309452D01*
X308665Y72483D01*
Y78388D01*
X288586D01*
X288192Y78782D01*
Y79569D01*
X282287D01*
Y75632D01*
X272050D01*
Y80357D01*
X280318D01*
Y85869D01*
X281499Y87050D01*
X287405D01*
Y92168D01*
X330712D01*
Y91774D01*
D02*
G37*
G36*
X270672Y70613D02*
X270869D01*
Y70409D01*
X266515Y66056D01*
X263857D01*
Y65790D01*
X257090Y65790D01*
Y68243D01*
X266303Y68243D01*
X268672Y70613D01*
X269491D01*
Y73270D01*
X270672D01*
Y70613D01*
D02*
G37*
G36*
X335436Y70121D02*
Y65002D01*
Y51617D01*
X287760Y51226D01*
X287405Y51578D01*
Y62640D01*
X287798D01*
Y63034D01*
X309058D01*
Y70514D01*
X335043D01*
X335436Y70121D01*
D02*
G37*
G36*
X237602Y1842D02*
X235634D01*
Y5385D01*
X237602D01*
X237602Y1842D01*
D02*
G37*
G36*
X207287Y1842D02*
X205319D01*
X205319Y5385D01*
X207287D01*
Y1842D01*
D02*
G37*
G36*
X235634Y-127D02*
X230516D01*
Y7354D01*
X235634D01*
Y-127D01*
D02*
G37*
G36*
X212405D02*
X207287D01*
Y7354D01*
X212405D01*
Y-127D01*
D02*
G37*
%LPC*%
G36*
X268113Y134711D02*
X267394Y134616D01*
X266723Y134339D01*
X266148Y133897D01*
X265706Y133321D01*
X265428Y132651D01*
X265357Y132112D01*
X265286Y132651D01*
X265009Y133321D01*
X264567Y133897D01*
X263991Y134339D01*
X263321Y134616D01*
X262602Y134711D01*
X261882Y134616D01*
X261212Y134339D01*
X260636Y133897D01*
X260194Y133321D01*
X259917Y132651D01*
X259822Y131931D01*
Y128806D01*
X259625D01*
Y122778D01*
X264791D01*
Y123658D01*
X271570D01*
Y129385D01*
X270893D01*
Y131931D01*
X270798Y132651D01*
X270521Y133321D01*
X270079Y133897D01*
X269503Y134339D01*
X268833Y134616D01*
X268113Y134711D01*
D02*
G37*
G36*
X259377Y128715D02*
X254015D01*
Y127427D01*
X253153D01*
Y128585D01*
X248428D01*
Y123861D01*
X253153D01*
Y125019D01*
X254015D01*
Y123459D01*
X259377D01*
Y128715D01*
D02*
G37*
G36*
X275200Y134711D02*
X274481Y134616D01*
X273810Y134339D01*
X273235Y133897D01*
X272793Y133321D01*
X272515Y132651D01*
X272420Y131931D01*
Y129385D01*
X271743D01*
Y123658D01*
X278657D01*
Y129385D01*
X277980D01*
Y131931D01*
X277885Y132651D01*
X277607Y133321D01*
X277166Y133897D01*
X276590Y134339D01*
X275919Y134616D01*
X275200Y134711D01*
D02*
G37*
G36*
X250791Y123097D02*
X250071Y123002D01*
X249401Y122725D01*
X249342Y122679D01*
X248428D01*
Y121766D01*
X248383Y121707D01*
X248106Y121037D01*
X248011Y120317D01*
Y115790D01*
X248106Y115070D01*
X248383Y114400D01*
X248825Y113824D01*
X249401Y113382D01*
X250071Y113105D01*
X250791Y113010D01*
X251510Y113105D01*
X252180Y113382D01*
X252756Y113824D01*
X253198Y114400D01*
X253475Y115070D01*
X253570Y115790D01*
Y120317D01*
X253475Y121037D01*
X253198Y121707D01*
X253153Y121766D01*
Y122679D01*
X252239D01*
X252180Y122725D01*
X251510Y123002D01*
X250791Y123097D01*
D02*
G37*
%LPD*%
D13*
X43549Y296358D02*
G03*
X38052Y301855I-9294J-3797D01*
G01*
X166885Y15165D02*
Y20643D01*
X56299Y48720D02*
Y51316D01*
X55145Y264370D02*
X55771Y264997D01*
X52264Y264370D02*
X55145D01*
X55968Y264997D02*
X57087Y263878D01*
X56299Y269193D02*
X57284Y270177D01*
X50492Y269193D02*
X56102D01*
X208069Y224843D02*
X213389Y219524D01*
Y211853D02*
Y219524D01*
X245279Y173361D02*
X245703Y172936D01*
Y171423D02*
Y172936D01*
Y171423D02*
X247441Y169685D01*
X245279Y173361D02*
Y173664D01*
X256560Y126223D02*
X256696Y126087D01*
X250791Y126223D02*
X256560D01*
X292523Y67758D02*
Y73664D01*
X64472Y334097D02*
X78842Y348467D01*
X40259Y337151D02*
X43313Y334097D01*
X40259Y337151D02*
Y348861D01*
X43313Y334097D02*
X64472D01*
X34646Y343247D02*
X40259Y348861D01*
X34646Y328357D02*
Y343247D01*
Y328357D02*
X35107Y327896D01*
X38484D01*
X39176Y318549D02*
Y327204D01*
X38484Y327896D02*
X39176Y327204D01*
X36516Y315888D02*
X39176Y318549D01*
X24019Y315888D02*
X36516D01*
X75597Y254420D02*
Y264310D01*
X71421Y268487D02*
Y274925D01*
X70729Y275617D02*
X71421Y274925D01*
X64290Y275617D02*
X70729D01*
X24019Y315888D02*
X38052Y301855D01*
X43549Y296358D02*
X64290Y275617D01*
X71421Y268487D02*
X75597Y264310D01*
X68612Y247435D02*
X75597Y254420D01*
X67239Y247435D02*
X68612D01*
X55023Y348861D02*
Y349547D01*
X57486Y352010D01*
X90062D01*
X93606Y348467D01*
X51873Y352010D02*
X55023Y348861D01*
X34033Y352010D02*
X51873D01*
X20869Y338846D02*
X34033Y352010D01*
X20869Y333116D02*
Y338846D01*
Y333116D02*
X23333Y330652D01*
X24019D01*
X20869Y291749D02*
Y327502D01*
X24019Y330652D01*
X20869Y291749D02*
X51693Y260925D01*
X61750D01*
X67239Y255435D01*
X57087Y263878D02*
X61417D01*
X61860Y263435D02*
X67239D01*
X61417Y263878D02*
X61860Y263435D01*
X57284Y270177D02*
X61417D01*
X62676Y271435D01*
X67239D01*
X17321Y128723D02*
X17321Y128723D01*
Y143228D01*
X280254Y180143D02*
X282551D01*
X279854Y179743D02*
X280254Y180143D01*
X282551D02*
X283351Y179343D01*
X284203D01*
X245279Y179963D02*
X271773D01*
X271993Y179743D01*
X253297Y170384D02*
X253303Y170391D01*
X253297Y166349D02*
Y170384D01*
X258603Y176105D02*
X264228D01*
X264303Y176180D01*
X253303Y176296D02*
X258413D01*
X258603Y176105D01*
X264303Y164543D02*
Y168306D01*
X208756Y145335D02*
X209839Y146418D01*
X210331D02*
X214056Y150143D01*
X219424D01*
X208756Y144843D02*
Y145335D01*
X209839Y146418D02*
X210331D01*
X203933D02*
X203933D01*
X209058Y151543D02*
X219003D01*
X203933Y146418D02*
X209058Y151543D01*
X202850Y145335D02*
X203933Y146418D01*
X219003Y151543D02*
X220603Y153143D01*
X107903Y333643D02*
X113037D01*
X126089Y346695D01*
X131302D01*
X133861Y344136D01*
Y340396D02*
Y344136D01*
X188946Y205696D02*
X191603Y203039D01*
X188350Y205696D02*
X188946D01*
X186203Y207843D02*
X188350Y205696D01*
X186203Y207843D02*
X186203D01*
X191603Y202743D02*
Y203039D01*
X192336Y202010D02*
X200397D01*
X191603Y202743D02*
X192336Y202010D01*
X187903Y211443D02*
X194187Y205160D01*
X200397D01*
X147903Y211443D02*
X187903D01*
X186003Y224843D02*
X208069D01*
X245244Y183078D02*
X245279Y183113D01*
X232203Y183043D02*
X232238Y183078D01*
X245244D01*
X87403Y60605D02*
Y167243D01*
X131003Y210843D01*
X85770Y58972D02*
X87403Y60605D01*
X84273Y58972D02*
X85770D01*
X84076Y58775D02*
X84273Y58972D01*
X212403Y159906D02*
X213389Y160891D01*
X189919Y166543D02*
X192754D01*
X189919Y166187D02*
Y166543D01*
X192754D02*
X192917Y166380D01*
X216539Y160570D02*
X217165Y159943D01*
X213389Y160891D02*
Y166971D01*
X219688Y163783D02*
Y166971D01*
X220603Y153143D02*
Y162868D01*
X219688Y163783D02*
X220603Y162868D01*
X218976Y145243D02*
X220255Y146523D01*
X219424Y150143D02*
X222838Y153557D01*
X202850Y144843D02*
Y145335D01*
X222838Y153557D02*
Y166971D01*
X138603Y202143D02*
X147903Y211443D01*
X89903Y162243D02*
X129803Y202143D01*
X89903Y62712D02*
Y162243D01*
X129803Y202143D02*
X138603D01*
X100503Y67049D02*
X104762D01*
X94603Y65868D02*
X95686Y66950D01*
X97452D01*
X97550Y67049D01*
X100503D01*
X81576Y60683D02*
X84016D01*
X79603Y59562D02*
X80455D01*
X84016Y60683D02*
X84076Y60743D01*
X80455Y59562D02*
X81576Y60683D01*
X100503Y61143D02*
X104786D01*
X94603D02*
X100503D01*
X89903Y60743D02*
X94203D01*
X94603Y61143D01*
X90632Y58775D02*
X100686Y48720D01*
X89903Y58775D02*
X90632D01*
X100686Y48720D02*
X119403D01*
X67694Y62712D02*
X84076D01*
X56299Y51316D02*
X67694Y62712D01*
X166885Y15165D02*
X167328Y14722D01*
X172023Y27343D02*
X173161Y28482D01*
Y34448D01*
X167150Y14543D02*
X167328Y14722D01*
X162703Y14543D02*
X167150D01*
X197565Y210643D02*
X198103Y211181D01*
X203103D02*
X203203Y211281D01*
X203775Y211853D01*
X197803Y216206D02*
X198103Y215905D01*
X203203Y216005D02*
X203503Y216305D01*
X203453Y220193D02*
X203503Y220243D01*
X197803Y220143D02*
X197853Y220193D01*
X203926Y219820D02*
X205317D01*
X210239Y211853D02*
Y214898D01*
X205317Y219820D02*
X210239Y214898D01*
X203503Y220243D02*
X203926Y219820D01*
X292458Y312640D02*
X292720Y312901D01*
X173161Y34448D02*
Y60039D01*
X172047Y22520D02*
Y27362D01*
X161708Y27062D02*
X162008Y27362D01*
X154328Y27062D02*
X161708D01*
X192003Y144743D02*
X202750D01*
X202850Y144843D01*
X208756D02*
X209156Y145243D01*
X218976D01*
X188460Y131943D02*
X192003Y135487D01*
X187203Y131943D02*
X188460D01*
X192003Y135487D02*
Y144743D01*
X218976Y135487D02*
X222519Y131943D01*
X218976Y135487D02*
Y145243D01*
X222519Y131943D02*
X224605D01*
X188226Y144643D02*
X188426Y144843D01*
X183459Y144643D02*
X188226D01*
X223503Y145243D02*
X228203D01*
X187203Y131943D02*
X190367Y135107D01*
X240265Y218743D02*
X241348Y219826D01*
X235436Y218639D02*
X236403Y219605D01*
X240265Y218448D02*
Y218743D01*
X239183Y217365D02*
X240265Y218448D01*
X238586Y211853D02*
Y216904D01*
X239047Y217365D01*
X239183D01*
X235436Y211853D02*
Y218639D01*
X208996Y229374D02*
X212690Y225680D01*
X186479Y203143D02*
X186879Y202743D01*
X348818Y347811D02*
X348950Y347943D01*
X284003Y346343D02*
X284203Y346543D01*
X198503Y340274D02*
X198625Y340396D01*
X211503Y249043D02*
X229137Y231410D01*
Y211853D02*
Y231410D01*
X206803Y235243D02*
X210184D01*
X216556Y228871D01*
Y220216D02*
Y228871D01*
X216539Y220198D02*
X216556Y220216D01*
X216539Y211853D02*
Y220198D01*
X144228Y235243D02*
X206803D01*
X180093Y153943D02*
X180203D01*
X169153Y164883D02*
Y171748D01*
X173964Y176558D02*
X179165D01*
X182553Y179946D01*
X169153Y164883D02*
X180093Y153943D01*
X182553Y179946D02*
Y180143D01*
X169153Y171748D02*
X173964Y176558D01*
X178899Y150794D02*
X181508D01*
X185301Y154586D01*
Y156241D01*
X167240Y162452D02*
Y191743D01*
Y162452D02*
X178899Y150794D01*
X185301Y156241D02*
X185903Y156843D01*
X172303Y166187D02*
X176159Y170043D01*
X180403D01*
X190323Y179963D01*
X200397D01*
X178506Y166746D02*
X179806D01*
X189873Y176813D01*
X200397D01*
X177903Y166143D02*
X178506Y166746D01*
X183503Y165843D02*
X191324Y173664D01*
X200397D01*
X181063Y173243D02*
X185505Y177686D01*
X175103Y173243D02*
X181063D01*
X187300Y194096D02*
X190056Y191340D01*
X179234Y194096D02*
X187300D01*
X167240Y191743D02*
X176881D01*
X190056Y191143D02*
Y191340D01*
X176881Y191743D02*
X179234Y194096D01*
X185505Y177686D02*
Y181884D01*
X186734Y183113D01*
X200397D01*
X182553Y180143D02*
X182665Y180256D01*
Y185443D01*
X183484Y186262D01*
X200397D01*
X184150Y190946D02*
Y191143D01*
X193341Y189412D02*
X200397D01*
X192120Y188191D02*
X193341Y189412D01*
X186906Y188191D02*
X192120D01*
X184150Y190946D02*
X186906Y188191D01*
X190056Y191340D02*
X191277Y192561D01*
X200397D01*
X225987Y166971D02*
Y170042D01*
X222303Y173726D02*
X225987Y170042D01*
X222303Y173726D02*
Y173943D01*
X203203Y216005D02*
X203498D01*
X341802Y333166D02*
X345787D01*
X339550Y330963D02*
X339599D01*
X341802Y333166D01*
X173503Y180243D02*
X173759D01*
X176054D01*
X290751Y322581D02*
Y323073D01*
X280318Y315252D02*
Y315520D01*
X285797Y320998D01*
X287623D01*
X289107Y322483D01*
X290653D01*
X290751Y322581D01*
X339924Y317365D02*
X345164Y322604D01*
X339767Y317365D02*
X339924D01*
X345164Y322604D02*
X348664D01*
X349330Y323270D01*
X353024D01*
X241674Y209314D02*
X280318Y247958D01*
X231503Y322743D02*
X231703D01*
X229757Y322195D02*
X230955D01*
X231703Y322743D02*
X232427Y323467D01*
X230955Y322195D02*
X231503Y322743D01*
X232427Y323467D02*
X233665D01*
X269544Y76046D02*
X269991Y76493D01*
X266844Y76046D02*
X269544D01*
X269991Y76493D02*
Y77111D01*
X262995Y76345D02*
X263197Y76143D01*
X266746D01*
X266844Y76046D01*
D14*
X238464Y179963D02*
X245279D01*
X245539Y176553D02*
X253046D01*
X253303Y176296D01*
X242083Y186262D02*
X245279D01*
X237603Y188943D02*
X237986Y188561D01*
X239785D02*
X242083Y186262D01*
X237986Y188561D02*
X239785D01*
X242083Y192561D02*
X245279D01*
X239784Y194861D02*
X242083Y192561D01*
X237986Y194861D02*
X239784D01*
X237603Y195243D02*
X237986Y194861D01*
X236803Y178843D02*
X237344D01*
X238464Y179963D01*
X372444Y63428D02*
Y100802D01*
X288953Y184294D02*
X372444Y100802D01*
X256795Y184294D02*
X288953D01*
X296249Y189798D02*
X381499Y104547D01*
X266990Y189798D02*
X296249D01*
X381499Y50042D02*
Y104547D01*
X266235Y190552D02*
Y190699D01*
X263980Y192660D02*
Y192955D01*
X265054Y191585D02*
X265350D01*
X266235Y190552D02*
X266990Y189798D01*
X263980Y192660D02*
X265054Y191585D01*
X265350D02*
X266235Y190699D01*
X206113Y158268D02*
X207526Y159681D01*
Y161062D02*
X210239Y163775D01*
Y166971D01*
X207526Y159681D02*
Y161062D01*
X206113Y155115D02*
Y158268D01*
X202103Y159425D02*
X203153Y160475D01*
X202103Y155643D02*
Y159425D01*
X172053Y14722D02*
X172332Y14443D01*
X176403D01*
X241849Y235043D02*
X243849Y233043D01*
X250503D01*
X235003Y235043D02*
X241849D01*
X228403Y173149D02*
X229161Y172391D01*
Y163799D02*
Y172391D01*
X228403Y173149D02*
Y173943D01*
X234003Y173843D02*
X234056Y173896D01*
X239773Y176813D02*
X245279D01*
X236856Y173896D02*
X239773Y176813D01*
X234056Y173896D02*
X236856D01*
X135970Y244943D02*
X212303D01*
X225987Y211853D02*
Y231259D01*
X212303Y244943D02*
X225987Y231259D01*
X134620Y249043D02*
X211503D01*
X212603Y253143D02*
X232287Y233460D01*
X132920Y253143D02*
X212603D01*
X232287Y211853D02*
Y233460D01*
X197346Y272701D02*
Y323467D01*
Y272701D02*
X235003Y235043D01*
X222838Y211853D02*
Y230309D01*
X212003Y241143D02*
X222838Y230309D01*
X219688Y211853D02*
Y229658D01*
X140550Y238143D02*
X211203D01*
X219688Y229658D01*
X168603Y146843D02*
X169165Y147405D01*
X171777D01*
X173015Y148643D01*
X199642D01*
X273625Y252404D02*
Y256631D01*
X250397Y121105D02*
X250791D01*
X230318Y11853D02*
Y16577D01*
X215977Y5947D02*
X226944D01*
X210633Y16577D02*
X213578Y13632D01*
X212666Y12597D02*
X213578Y13509D01*
X222303Y173943D02*
X222483Y173763D01*
X169295Y340396D02*
Y344136D01*
Y330735D02*
Y340396D01*
X236603Y238043D02*
X258103D01*
Y235736D02*
Y238043D01*
X220082Y254565D02*
X236603Y238043D01*
X353153Y263156D02*
Y263587D01*
X296164Y257621D02*
X302228D01*
X248303Y251581D02*
X248872Y251013D01*
X242039Y266372D02*
Y267291D01*
X241382Y267948D02*
X242039Y267291D01*
X241382Y267948D02*
Y268742D01*
X242039Y266372D02*
X242129Y266282D01*
X237796Y259727D02*
X242129D01*
X236617Y260906D02*
X237796Y259727D01*
X241674Y207900D02*
Y209314D01*
X239956Y206182D02*
X241674Y207900D01*
X280318Y247958D02*
Y315252D01*
X239956Y200988D02*
X240176Y200768D01*
Y199581D02*
Y200768D01*
X239956Y200988D02*
Y206182D01*
X227850Y320288D02*
X229757Y322195D01*
X220082Y254565D02*
Y311700D01*
X227850Y319468D01*
Y320288D01*
X227903Y162541D02*
X229161Y163799D01*
X231598Y161044D02*
X232026Y161471D01*
Y166710D02*
X232287Y166971D01*
X232026Y161471D02*
Y166710D01*
X232869Y154077D02*
X245059D01*
X227903Y159043D02*
Y162541D01*
Y159043D02*
X232869Y154077D01*
X233301Y151143D02*
X236557D01*
X226192Y158252D02*
X233301Y151143D01*
X225987Y166971D02*
X226192Y166766D01*
Y158252D02*
Y166766D01*
X236557Y151143D02*
X240203Y147497D01*
X239212Y145619D02*
X240203Y146610D01*
X238612Y145619D02*
X239212D01*
X237503Y54143D02*
X243497Y48149D01*
X237425Y138165D02*
X237503Y138087D01*
X237425Y144432D02*
X238612Y145619D01*
X237425Y138165D02*
Y144432D01*
X237503Y54143D02*
Y138087D01*
X240203Y140933D02*
X241403Y139733D01*
Y134643D02*
Y139733D01*
X199642Y148643D02*
X206113Y155115D01*
X200724Y347943D02*
X204531Y344137D01*
X169295Y344136D02*
X173101Y347943D01*
X200724D01*
X163945Y325385D02*
X169295Y330735D01*
X136961Y325385D02*
X163945D01*
X215042Y7439D02*
Y9205D01*
X211618Y12969D02*
Y14243D01*
X212890Y11357D02*
X215042Y9205D01*
X211618Y12969D02*
X212890Y11698D01*
Y11357D02*
Y11698D01*
X90450Y188043D02*
X140550Y238143D01*
X94870Y198043D02*
X137970Y241143D01*
X212003D01*
X99070Y208043D02*
X135970Y244943D01*
X103620Y218043D02*
X134620Y249043D01*
X107820Y228043D02*
X132920Y253143D01*
X222444Y44530D02*
X222838Y44924D01*
X222444Y39805D02*
Y44530D01*
X217562Y39805D02*
Y44294D01*
X216932Y44924D02*
X217562Y44294D01*
X226579Y14243D02*
Y22124D01*
X227303Y22849D01*
Y23643D01*
X227903Y9438D02*
X230318Y11853D01*
X227903Y8043D02*
Y9438D01*
X227842Y7983D02*
X227903Y8043D01*
X226944Y5947D02*
X227842Y6846D01*
Y7983D01*
X215042Y7439D02*
X215071Y7410D01*
Y6854D02*
Y7410D01*
Y6854D02*
X215977Y5947D01*
X216003Y16987D02*
X216055Y16935D01*
X212429Y21376D02*
X216003Y17802D01*
Y16987D02*
Y17802D01*
X216055Y14419D02*
Y16935D01*
X243497Y48149D02*
X252597D01*
X258178Y37601D02*
Y42568D01*
Y37601D02*
X259003Y36776D01*
X252597Y48149D02*
X258178Y42568D01*
X252803Y37071D02*
X253098Y36776D01*
X252803Y37071D02*
Y42243D01*
X245059Y55687D02*
X249738D01*
X264909Y40516D01*
Y36776D02*
Y40516D01*
X133861Y328485D02*
Y340396D01*
Y328485D02*
X136961Y325385D01*
X204531Y340396D02*
Y344137D01*
X107899Y324710D02*
X107903Y324706D01*
X210633Y16577D02*
Y16577D01*
X213578Y13509D02*
Y13632D01*
X195803Y21376D02*
X212429D01*
X195840Y37948D02*
Y48106D01*
X195803Y37911D02*
X195840Y37948D01*
X245059Y55687D02*
Y154077D01*
X240203Y146610D02*
Y147497D01*
X125302Y173776D02*
X130616D01*
X119396Y168658D02*
Y173776D01*
X125302D02*
X125302Y173776D01*
X119396Y179287D02*
Y184012D01*
X125302D02*
X131010D01*
X87028Y178043D02*
X144228Y235243D01*
X15303Y178043D02*
X87028D01*
X15303Y188043D02*
X90450D01*
X15303Y198043D02*
X94870D01*
X15303Y208043D02*
X99070D01*
X15303Y218043D02*
X103620D01*
X15303Y228043D02*
X107820D01*
X206460Y209943D02*
X207090Y210573D01*
Y211853D01*
X24019Y320810D02*
X30023D01*
X30712Y320121D01*
X31106Y320514D01*
X36224D01*
X30023Y325731D02*
X30712Y326420D01*
X24019Y325731D02*
X30023D01*
X31893Y325239D02*
X36224D01*
X30712Y326420D02*
X31893Y325239D01*
X50102Y342463D02*
Y348861D01*
Y342463D02*
X50791Y341774D01*
X50003Y340987D02*
X50791Y341774D01*
X50003Y337050D02*
Y340987D01*
X45279Y337050D02*
Y340987D01*
X44491Y341774D02*
X45279Y340987D01*
X45180Y342463D02*
Y348861D01*
X44491Y341774D02*
X45180Y342463D01*
X89246Y346157D02*
X89767Y345636D01*
Y342168D02*
Y345636D01*
X88684Y348467D02*
X89246Y347905D01*
Y346157D02*
Y347905D01*
X88980Y337050D02*
Y341380D01*
X89767Y342168D01*
X83763Y342463D02*
Y348467D01*
X83468Y342168D02*
X83763Y342463D01*
X84255Y337050D02*
Y341380D01*
X83468Y342168D02*
X84255Y341380D01*
X245145Y198995D02*
X245279Y198861D01*
X240761Y198995D02*
X245145D01*
X240176Y199581D02*
X240761Y198995D01*
X197346Y323467D02*
X204531Y330652D01*
X251480Y154077D02*
X256795D01*
X244090Y164617D02*
X245271Y163435D01*
X247247Y160278D02*
Y161073D01*
X245271Y163049D02*
X247247Y161073D01*
X245271Y163049D02*
Y163435D01*
X236814Y160278D02*
Y161073D01*
X235697Y162190D02*
X236814Y161073D01*
X235436Y166971D02*
X235697Y166710D01*
Y162190D02*
Y166710D01*
X233665Y323467D02*
X235633D01*
X204531Y330652D02*
Y340396D01*
X235625Y322983D02*
X235633Y322990D01*
Y323467D01*
X239562Y319916D02*
Y323459D01*
X238980Y319333D02*
X239562Y319916D01*
Y323459D02*
X239570Y323467D01*
X296649Y323065D02*
X296657Y323073D01*
X296649Y320249D02*
Y323065D01*
X295733Y319333D02*
X296649Y320249D01*
X235989Y313821D02*
X236224Y313587D01*
X228553Y331538D02*
X228743Y331348D01*
X226873Y338624D02*
X227267Y339018D01*
X249216Y313821D02*
X249609Y314215D01*
X242523Y313821D02*
X243310Y314609D01*
X232287Y332802D02*
Y333506D01*
X233665Y330947D02*
Y331424D01*
X232287Y332802D02*
X233665Y331424D01*
X265948Y343349D02*
X266342Y342955D01*
X265948Y331931D02*
X266145Y332128D01*
X290887Y319083D02*
Y319333D01*
X289941Y318136D02*
X290887Y319083D01*
X287011Y317758D02*
X287389Y318136D01*
X290751Y323073D02*
X292720D01*
X193212Y161262D02*
X194287Y160187D01*
Y158521D02*
X196066Y156742D01*
X192917Y161262D02*
X193212D01*
X196066Y155947D02*
Y156742D01*
X194287Y158521D02*
Y160187D01*
X192917Y161262D02*
X198035D01*
X239215Y164617D02*
X244090D01*
X238586Y165246D02*
Y166971D01*
Y165246D02*
X239215Y164617D01*
X256302Y257389D02*
Y260512D01*
X256302Y260512D01*
X264176Y253133D02*
Y256631D01*
X273587Y252404D02*
X273625D01*
X242129Y265553D02*
Y266282D01*
X290751Y330554D02*
Y331030D01*
X289935Y331846D02*
Y333338D01*
X289373Y333900D02*
X289935Y333338D01*
Y331846D02*
X290751Y331030D01*
X285932Y324845D02*
X286224Y325137D01*
X299609Y313237D02*
X300791Y314418D01*
Y317365D01*
X306499Y313237D02*
X306702Y313034D01*
X304334Y325632D02*
Y325654D01*
X301184Y325531D02*
X304232D01*
X304334Y325632D01*
X203153Y166971D02*
X207090D01*
X198035Y166380D02*
X198035Y166380D01*
X203153D01*
X301353Y265326D02*
Y266803D01*
Y265326D02*
X302365Y264313D01*
X300791Y267365D02*
X301353Y266803D01*
X302365Y263585D02*
Y264313D01*
X282346Y330810D02*
X282388Y330852D01*
X375032Y269559D02*
X375594Y270121D01*
X375032Y267976D02*
Y269559D01*
X374921Y267865D02*
X375032Y267976D01*
X374921Y265117D02*
Y267865D01*
X210633Y331931D02*
X210633Y331931D01*
X253547Y187542D02*
Y187837D01*
X250077D02*
X253153D01*
X248502Y189412D02*
X250077Y187837D01*
X245279Y189412D02*
X248502D01*
X253153Y193841D02*
X253547Y193447D01*
X253153Y193841D02*
Y194136D01*
X251578Y195711D02*
X253153Y194136D01*
X245279Y195711D02*
X251578D01*
X253153Y194136D02*
Y198073D01*
X262208Y125792D02*
X262602Y126186D01*
X245279Y176813D02*
X245539Y176553D01*
X253547Y187542D02*
X256795Y184294D01*
X258665Y193447D02*
X259353Y192758D01*
X263487Y193447D02*
X263980Y192955D01*
X258665Y193447D02*
X263487D01*
X353938Y257758D02*
X360239D01*
X358344Y266577D02*
X360149Y264772D01*
Y263676D02*
Y264772D01*
Y263676D02*
X360239Y263585D01*
X362117Y263494D02*
X362208Y263585D01*
X360928Y247876D02*
X361420D01*
Y253782D02*
X361519Y253880D01*
X301184Y202010D02*
X339767Y240593D01*
X353153Y258544D02*
X353938Y257758D01*
X339767Y240593D02*
Y317365D01*
X355135Y312640D02*
X355137Y312642D01*
Y307599D02*
X355473Y307263D01*
X357877Y266577D02*
X358344D01*
X353184Y298113D02*
X363798D01*
X325511Y343191D02*
X326062Y343742D01*
X340161Y325239D02*
X340689Y325767D01*
X353024Y330750D02*
Y331054D01*
Y323270D02*
X354993D01*
X357998Y318939D02*
Y319190D01*
Y318939D02*
X358930Y319871D01*
Y323270D01*
X346928Y339412D02*
X346968Y339451D01*
X350791Y332639D02*
Y332719D01*
Y332639D02*
X352367Y331062D01*
X353016D01*
X352540Y331235D02*
X353016D01*
Y331062D02*
X353024Y331054D01*
X353016Y331235D02*
X353024Y331227D01*
Y331054D02*
Y331227D01*
X356909Y339353D02*
X357007Y339451D01*
X362208Y257758D02*
Y258487D01*
X392129Y262153D02*
X392523Y262547D01*
X380515Y264234D02*
X380642D01*
X373625Y263821D02*
X374921Y265117D01*
X381499Y262246D02*
Y267365D01*
X392523Y262547D02*
Y270121D01*
X381499Y267365D02*
X384255Y270121D01*
X366948Y305687D02*
X368524Y307263D01*
X368917D01*
X369841Y308187D01*
X364783Y325767D02*
X364917Y325632D01*
X364783Y331387D02*
Y331482D01*
X392326Y343742D02*
X392720Y343349D01*
X366440Y253880D02*
X366539Y253979D01*
X366243D02*
X366539D01*
X365365Y254857D02*
X366243Y253979D01*
X364176Y257030D02*
Y257758D01*
X175200Y330750D02*
X175200Y330750D01*
X175200Y338822D02*
X175200Y338822D01*
X266539Y63428D02*
X266592D01*
X271663Y65574D02*
X272738Y66649D01*
X272444Y68349D02*
Y71597D01*
X262995Y71302D02*
X267424D01*
X268113Y71991D01*
X272050D02*
X272444Y71597D01*
X268113Y71991D02*
Y72719D01*
X272050Y71991D02*
Y72719D01*
X269991Y72628D02*
X270082Y72719D01*
X392129Y6341D02*
Y39412D01*
X381499Y50042D02*
X392129Y39412D01*
X259398Y60475D02*
X259846D01*
X269991Y77111D02*
Y78455D01*
X270082Y78546D01*
X245279Y205160D02*
X250814D01*
X252389Y206735D01*
X252759D01*
X245279Y202010D02*
X301184D01*
D17*
X208272Y1842D02*
G03*
X208272Y1842I-984J0D01*
G01*
Y5385D02*
G03*
X208272Y5385I-984J0D01*
G01*
X236618Y1842D02*
G03*
X236618Y1842I-984J0D01*
G01*
Y5385D02*
G03*
X236618Y5385I-984J0D01*
G01*
X217234Y155412D02*
Y160009D01*
Y155412D02*
X217303Y155343D01*
X216673Y160570D02*
Y160731D01*
Y160570D02*
X217234Y160009D01*
X216539Y166971D02*
X216614Y166896D01*
Y160790D02*
X216673Y160731D01*
X216614Y160790D02*
Y166896D01*
X186387Y202743D02*
X186479Y202835D01*
Y203143D01*
X179841Y202743D02*
X186387D01*
X242326Y223767D02*
X242703Y224143D01*
X241348Y219826D02*
X242326Y220805D01*
Y223767D01*
X236403Y219605D02*
Y224343D01*
X266592Y63428D02*
X270438Y67274D01*
X271763D01*
D18*
X198035Y161262D02*
D03*
Y166380D02*
D03*
X192917Y161262D02*
D03*
Y166380D02*
D03*
X250791Y260869D02*
D03*
Y265987D02*
D03*
X311027Y258703D02*
D03*
Y263821D02*
D03*
X368507Y263624D02*
D03*
Y258506D02*
D03*
X259058Y65199D02*
D03*
Y60081D02*
D03*
X272503Y66802D02*
D03*
Y61684D02*
D03*
D19*
X200397Y205160D02*
D03*
Y202010D02*
D03*
Y198861D02*
D03*
Y195711D02*
D03*
Y192561D02*
D03*
Y189412D02*
D03*
Y186262D02*
D03*
Y183113D02*
D03*
Y179963D02*
D03*
Y176813D02*
D03*
Y173664D02*
D03*
X245279D02*
D03*
Y176813D02*
D03*
Y179963D02*
D03*
Y183113D02*
D03*
Y186262D02*
D03*
Y189412D02*
D03*
Y192561D02*
D03*
Y195711D02*
D03*
Y198861D02*
D03*
Y202010D02*
D03*
Y205160D02*
D03*
D20*
X207090Y166971D02*
D03*
X210239D02*
D03*
X213389D02*
D03*
X216539D02*
D03*
X219688D02*
D03*
X222838D02*
D03*
X225987D02*
D03*
X229137D02*
D03*
X232287D02*
D03*
X235436D02*
D03*
X238586D02*
D03*
Y211853D02*
D03*
X235436D02*
D03*
X232287D02*
D03*
X229137D02*
D03*
X225987D02*
D03*
X222838D02*
D03*
X219688D02*
D03*
X216539D02*
D03*
X213389D02*
D03*
X210239D02*
D03*
X207090D02*
D03*
D21*
X379350Y331577D02*
D03*
X392342D02*
D03*
X392326Y343742D02*
D03*
X379334D02*
D03*
X312995Y330655D02*
D03*
X325987D02*
D03*
X313389Y343451D02*
D03*
X326381D02*
D03*
X252956Y331931D02*
D03*
X265948D02*
D03*
Y343349D02*
D03*
X252956D02*
D03*
D22*
X308271Y249648D02*
D03*
Y254372D02*
D03*
X248303Y251581D02*
D03*
Y256306D02*
D03*
X366539Y249254D02*
D03*
Y253979D02*
D03*
D23*
X302759Y247876D02*
D03*
Y253782D02*
D03*
X242703Y249791D02*
D03*
Y255696D02*
D03*
X361420Y247876D02*
D03*
Y253782D02*
D03*
D24*
X357998Y318939D02*
D03*
X353153D02*
D03*
X234134Y319333D02*
D03*
X238980D02*
D03*
X290887D02*
D03*
X295733D02*
D03*
D25*
X345787Y333166D02*
D03*
Y327451D02*
D03*
X301184Y331246D02*
D03*
Y325531D02*
D03*
X286224Y325137D02*
D03*
Y330852D02*
D03*
X228743Y325632D02*
D03*
Y331348D02*
D03*
X364487Y333166D02*
D03*
Y327451D02*
D03*
X244098Y325239D02*
D03*
Y330954D02*
D03*
D26*
X147444Y354766D02*
D03*
X120279D02*
D03*
X272586Y22406D02*
D03*
X245421D02*
D03*
X190948Y354766D02*
D03*
X218113D02*
D03*
X155712Y354766D02*
D03*
X182877D02*
D03*
D27*
X139767Y340396D02*
D03*
X133861D02*
D03*
X127956D02*
D03*
X264909Y36776D02*
D03*
X259003D02*
D03*
X253098D02*
D03*
X198625Y340396D02*
D03*
X204531D02*
D03*
X210436D02*
D03*
X163389Y340396D02*
D03*
X169295D02*
D03*
X175200D02*
D03*
D28*
X277168Y77132D02*
D03*
Y72089D02*
D03*
X353153Y263587D02*
D03*
Y258544D02*
D03*
X296803Y258122D02*
D03*
Y263165D02*
D03*
X316539Y262959D02*
D03*
Y257916D02*
D03*
X236617Y265949D02*
D03*
Y260906D02*
D03*
X256302Y260512D02*
D03*
Y265556D02*
D03*
X292720Y307858D02*
D03*
Y312901D02*
D03*
X236224Y313587D02*
D03*
Y308544D02*
D03*
X373625Y263821D02*
D03*
Y258778D02*
D03*
X355137Y307599D02*
D03*
Y312642D02*
D03*
X262208Y125792D02*
D03*
Y120748D02*
D03*
X262995Y76345D02*
D03*
Y71302D02*
D03*
D29*
X166885Y20643D02*
D03*
X172003D02*
D03*
X253547Y187837D02*
D03*
X258665D02*
D03*
X263980Y192955D02*
D03*
X269098D02*
D03*
X258665Y193447D02*
D03*
X253547D02*
D03*
D30*
X244491Y277404D02*
D03*
Y299058D02*
D03*
X363503Y299797D02*
D03*
Y278143D02*
D03*
X304137Y277506D02*
D03*
Y299159D02*
D03*
X271657Y111853D02*
D03*
Y90199D02*
D03*
D31*
X212441Y159943D02*
D03*
X217165D02*
D03*
X177941Y185443D02*
D03*
X182665D02*
D03*
X235541Y218743D02*
D03*
X240265D02*
D03*
X186879Y202743D02*
D03*
X191603D02*
D03*
X167328Y14722D02*
D03*
X172053D02*
D03*
X45279Y337050D02*
D03*
X50003D02*
D03*
X84255D02*
D03*
X88980D02*
D03*
D32*
X89903Y62712D02*
D03*
Y60743D02*
D03*
Y58775D02*
D03*
X84076D02*
D03*
Y60743D02*
D03*
Y62712D02*
D03*
D33*
X94603Y61143D02*
D03*
Y65868D02*
D03*
X56201Y264567D02*
D03*
Y269291D02*
D03*
X198103Y211181D02*
D03*
Y215905D02*
D03*
X203203Y211281D02*
D03*
Y216005D02*
D03*
X213496Y219712D02*
D03*
Y224436D02*
D03*
X258603Y176105D02*
D03*
Y171381D02*
D03*
X36224Y320514D02*
D03*
Y325239D02*
D03*
D34*
X100503Y67049D02*
D03*
Y61143D02*
D03*
X203153Y166380D02*
D03*
Y160475D02*
D03*
X253303Y170391D02*
D03*
Y176296D02*
D03*
D35*
X162894Y26870D02*
D03*
X172933D02*
D03*
X346672Y341135D02*
D03*
X356712D02*
D03*
X293999Y339806D02*
D03*
X283960D02*
D03*
X237306Y339018D02*
D03*
X227267D02*
D03*
D36*
X348950Y347943D02*
D03*
X354856D02*
D03*
X288650Y346543D02*
D03*
X294556D02*
D03*
X231403Y345443D02*
D03*
X237309D02*
D03*
X190056Y191143D02*
D03*
X184150D02*
D03*
X259058Y198073D02*
D03*
X253153D02*
D03*
D37*
X216342Y14243D02*
D03*
X218902D02*
D03*
X221461D02*
D03*
X224020D02*
D03*
X226579D02*
D03*
D38*
X217524Y3613D02*
D03*
X225398D02*
D03*
D39*
X224605Y131943D02*
D03*
X187203D02*
D03*
D40*
X240803Y147353D02*
D03*
Y140933D02*
D03*
D41*
X125302Y179287D02*
D03*
X119396D02*
D03*
X125302Y168658D02*
D03*
X119396D02*
D03*
X202850Y144843D02*
D03*
X208756D02*
D03*
D42*
X125302Y184012D02*
D03*
X119396D02*
D03*
X125302Y173776D02*
D03*
X119396D02*
D03*
D43*
X216932Y44924D02*
D03*
Y50557D02*
D03*
X222838Y44924D02*
D03*
Y50557D02*
D03*
X266539Y63428D02*
D03*
Y57795D02*
D03*
X256696Y126087D02*
D03*
Y120454D02*
D03*
D44*
X229995Y39643D02*
D03*
X224011D02*
D03*
X210511Y39743D02*
D03*
X216495D02*
D03*
D45*
X333074Y254766D02*
D03*
Y262059D02*
D03*
X323625Y254372D02*
D03*
Y261666D02*
D03*
X264176Y263925D02*
D03*
Y256631D02*
D03*
X273625Y263925D02*
D03*
Y256631D02*
D03*
X392129Y254860D02*
D03*
Y262153D02*
D03*
X381499Y254953D02*
D03*
Y262246D02*
D03*
X284649Y78491D02*
D03*
Y71198D02*
D03*
X292523Y73664D02*
D03*
Y80957D02*
D03*
D46*
X296657Y330554D02*
D03*
X294688D02*
D03*
X292720D02*
D03*
X290751D02*
D03*
Y323073D02*
D03*
X292720D02*
D03*
X294688D02*
D03*
X296657D02*
D03*
X239570Y323467D02*
D03*
X237602D02*
D03*
X235633D02*
D03*
X233665D02*
D03*
Y330947D02*
D03*
X235633D02*
D03*
X237602D02*
D03*
X239570D02*
D03*
X358930Y323270D02*
D03*
X356961D02*
D03*
X354993D02*
D03*
X353024D02*
D03*
Y330750D02*
D03*
X354993D02*
D03*
X356961D02*
D03*
X358930D02*
D03*
D47*
X306302Y263585D02*
D03*
X304334D02*
D03*
X302365D02*
D03*
Y257758D02*
D03*
X304334D02*
D03*
X306302D02*
D03*
X246066Y259727D02*
D03*
X244098D02*
D03*
X242129D02*
D03*
Y265553D02*
D03*
X244098D02*
D03*
X246066D02*
D03*
X364176Y257758D02*
D03*
X362208D02*
D03*
X360239D02*
D03*
Y263585D02*
D03*
X362208D02*
D03*
X364176D02*
D03*
X272050Y72719D02*
D03*
X270082D02*
D03*
X268113D02*
D03*
Y78546D02*
D03*
X270082D02*
D03*
X272050D02*
D03*
D48*
X61024Y270177D02*
D03*
Y263878D02*
D03*
X30712Y326420D02*
D03*
Y320121D02*
D03*
D49*
X159366Y191743D02*
D03*
X167240D02*
D03*
X59944Y348861D02*
D03*
X98527Y348467D02*
D03*
X349019Y358616D02*
D03*
X289653Y357978D02*
D03*
X231976Y355514D02*
D03*
D50*
X176054Y180243D02*
D03*
X182353D02*
D03*
X44491Y341774D02*
D03*
X50791D02*
D03*
X89767Y342168D02*
D03*
X83468D02*
D03*
D51*
X250791Y120317D02*
D03*
Y126223D02*
D03*
D52*
X306499Y313237D02*
D03*
Y307522D02*
D03*
X249216Y308106D02*
D03*
Y313821D02*
D03*
X362027Y312978D02*
D03*
Y307263D02*
D03*
X368917Y312978D02*
D03*
Y307263D02*
D03*
X275200Y120806D02*
D03*
Y126521D02*
D03*
X268113Y120806D02*
D03*
Y126521D02*
D03*
X242523Y308106D02*
D03*
Y313821D02*
D03*
X299609Y313237D02*
D03*
Y307522D02*
D03*
D53*
X278713Y179543D02*
D03*
X272293D02*
D03*
X251480Y154077D02*
D03*
X245059D02*
D03*
D54*
X195803Y21376D02*
D03*
Y37911D02*
D03*
D55*
X187476Y144743D02*
D03*
X192003D02*
D03*
X223503Y145243D02*
D03*
X218976D02*
D03*
D56*
X318901Y74977D02*
D03*
Y64477D02*
D03*
D57*
X264303Y168306D02*
D03*
Y176180D02*
D03*
X24019Y335573D02*
D03*
D83*
X423003Y235743D02*
D03*
Y225743D02*
D03*
Y205743D02*
D03*
Y215743D02*
D03*
X15303Y208043D02*
D03*
Y188043D02*
D03*
Y198043D02*
D03*
Y218043D02*
D03*
Y228043D02*
D03*
D84*
X423003Y195743D02*
D03*
X15303Y178043D02*
D03*
D85*
X17321Y153228D02*
D03*
X107903Y333643D02*
D03*
D86*
X17321Y143228D02*
D03*
X186003Y224843D02*
D03*
X107903Y323643D02*
D03*
D89*
X129469Y48720D02*
D03*
X66299D02*
D03*
D90*
X119468D02*
D03*
X56299D02*
D03*
D91*
X139469Y28721D02*
D03*
X99468D02*
D03*
X76299D02*
D03*
X36299D02*
D03*
D94*
X310869Y359491D02*
D03*
X320869D02*
D03*
X251027Y358703D02*
D03*
X261027D02*
D03*
X17321Y108723D02*
D03*
Y118723D02*
D03*
Y128723D02*
D03*
X7321Y108723D02*
D03*
Y118723D02*
D03*
X385200Y359884D02*
D03*
X375200D02*
D03*
D95*
X35338Y348861D02*
D03*
X55023D02*
D03*
X40259D02*
D03*
X50102D02*
D03*
X45180D02*
D03*
X73921Y348467D02*
D03*
X93606D02*
D03*
X78842D02*
D03*
X88684D02*
D03*
X83763D02*
D03*
X24019Y310967D02*
D03*
Y330652D02*
D03*
Y315888D02*
D03*
Y325731D02*
D03*
Y320810D02*
D03*
X353940Y358616D02*
D03*
X294574Y357978D02*
D03*
X236897Y355514D02*
D03*
X259350Y320079D02*
D03*
X251870Y320571D02*
D03*
X318406Y319783D02*
D03*
X311221Y320079D02*
D03*
X284203Y179343D02*
D03*
X232203Y183043D02*
D03*
X131003Y210843D02*
D03*
X189919Y166187D02*
D03*
X186203Y207843D02*
D03*
X104762Y67049D02*
D03*
X79603Y59562D02*
D03*
X104786Y61143D02*
D03*
X344673Y347811D02*
D03*
X284003Y346343D02*
D03*
X227203Y345443D02*
D03*
X331603Y330843D02*
D03*
X255003Y314743D02*
D03*
X248303Y247643D02*
D03*
X288192Y312640D02*
D03*
X241382Y268742D02*
D03*
X348003Y318843D02*
D03*
X231105Y318939D02*
D03*
X248035Y325239D02*
D03*
X231499Y313821D02*
D03*
X224019Y325239D02*
D03*
X223232Y331538D02*
D03*
X222838Y338624D02*
D03*
X243310Y317758D02*
D03*
X311814Y313034D02*
D03*
X232287Y333506D02*
D03*
X270476Y342955D02*
D03*
X270869Y332325D02*
D03*
X287011Y317758D02*
D03*
X256302Y257389D02*
D03*
X264176Y253133D02*
D03*
X273587Y252404D02*
D03*
X308271Y245711D02*
D03*
X289373Y333900D02*
D03*
X283074Y325239D02*
D03*
X300791Y317365D02*
D03*
X304334Y325654D02*
D03*
X300791Y267365D02*
D03*
X279039Y339806D02*
D03*
X282346Y330810D02*
D03*
X316539Y252010D02*
D03*
X323625Y248467D02*
D03*
X333074D02*
D03*
X256594Y269879D02*
D03*
X264264Y269988D02*
D03*
X273625Y270121D02*
D03*
X375594D02*
D03*
X316539Y269727D02*
D03*
X324413D02*
D03*
X333074D02*
D03*
X348428Y312640D02*
D03*
X340161Y325239D02*
D03*
X339550Y330963D02*
D03*
X350791Y332719D02*
D03*
X341342Y339412D02*
D03*
X331499Y343742D02*
D03*
X366539Y244530D02*
D03*
X392129Y248073D02*
D03*
X381499D02*
D03*
X373625Y252404D02*
D03*
X357877Y266577D02*
D03*
X384255Y270121D02*
D03*
X392523D02*
D03*
X375987Y313034D02*
D03*
X364570Y318939D02*
D03*
X377168Y320121D02*
D03*
X370869D02*
D03*
X382680D02*
D03*
X370869Y325632D02*
D03*
X398428Y331538D02*
D03*
X398035Y343349D02*
D03*
D102*
X292074Y326813D02*
D03*
X295401D02*
D03*
X238315Y327207D02*
D03*
X234988D02*
D03*
X357674Y327010D02*
D03*
X354348D02*
D03*
D103*
X293704Y326813D02*
D03*
X236617Y327207D02*
D03*
X355977Y327010D02*
D03*
D104*
X278803Y64943D02*
Y70369D01*
X277168Y72004D02*
Y72089D01*
Y72004D02*
X278803Y70369D01*
X258503Y167543D02*
X258603Y167643D01*
X344673Y347811D02*
X348818D01*
X284203Y346543D02*
X288650D01*
X227203Y345443D02*
X231403D01*
X198503Y331943D02*
Y340274D01*
X325884Y330843D02*
X331603D01*
X325791Y330750D02*
X325884Y330843D01*
X249917Y313821D02*
Y313929D01*
X254189D02*
X255003Y314743D01*
X249917Y313929D02*
X254189D01*
X341342Y339412D02*
X346928D01*
X326062Y343742D02*
X331499D01*
X159403Y184843D02*
Y192008D01*
X171665Y185443D02*
X176965D01*
X248303Y247643D02*
Y250444D01*
X348099Y318939D02*
X353153D01*
X348003Y318843D02*
X348099Y318939D01*
X266539Y50179D02*
Y57795D01*
X266503Y50143D02*
X266539Y50179D01*
X125302Y179287D02*
X130223D01*
X125302Y168658D02*
X130223D01*
X285538Y325239D02*
X285932Y324845D01*
X231105Y318939D02*
X231499Y319333D01*
X234134D01*
X244098Y325239D02*
X248035D01*
X231499Y313821D02*
X235989D01*
X228731Y325620D02*
X228743Y325632D01*
X224019Y325239D02*
X224400Y325620D01*
X228731D01*
X223232Y331538D02*
X228553D01*
X222838Y338624D02*
X226873D01*
X243310Y314609D02*
Y317758D01*
X306702Y313034D02*
X311814D01*
X266342Y342955D02*
X270476D01*
X266145Y332325D02*
X266145Y332325D01*
X266145Y332128D02*
Y332325D01*
X266145Y332325D02*
X270869D01*
X287389Y318136D02*
X289941D01*
X308271Y245711D02*
Y249648D01*
X283074Y325239D02*
X285538D01*
X279039Y339806D02*
X283960D01*
X282388Y330852D02*
X286224D01*
X316539Y252010D02*
Y257916D01*
X323625Y248467D02*
Y254372D01*
X333074Y248467D02*
Y254766D01*
X210633Y331931D02*
Y338822D01*
X250791Y115790D02*
Y120317D01*
X262602Y126186D02*
Y131931D01*
X258665Y187837D02*
X263783D01*
X259058Y198073D02*
X264176D01*
X269098Y192955D02*
X274019D01*
X268113Y126521D02*
Y131931D01*
X348428Y312640D02*
X355135D01*
X340689Y325767D02*
X346082D01*
X392129Y248073D02*
Y254860D01*
X381499Y248073D02*
Y254953D01*
X369254Y312870D02*
X369418Y313034D01*
X362027Y312978D02*
X362620D01*
X362728Y313085D01*
X369418Y313034D02*
X375987D01*
X362728Y313085D02*
Y317097D01*
X364570Y318939D01*
X364917Y325632D02*
X370869D01*
X398389Y331577D02*
X398428Y331538D01*
X392342Y331577D02*
X398389D01*
X392720Y343349D02*
X398035D01*
X366539Y244530D02*
X366719Y244710D01*
Y249074D01*
X366539Y249254D02*
X366719Y249074D01*
X373625Y252404D02*
Y258778D01*
X139767Y331538D02*
Y336999D01*
X163389Y330750D02*
Y338822D01*
X175200Y330750D02*
Y338822D01*
X127956Y331538D02*
Y338822D01*
X163389D02*
X163389Y338822D01*
X275200Y126521D02*
Y131931D01*
X272344Y56216D02*
Y61531D01*
X284649Y65790D02*
Y71198D01*
X259058Y56341D02*
Y60081D01*
D105*
X146205Y129928D02*
Y196193D01*
X148705Y195157D02*
X149583Y196036D01*
X148705Y130963D02*
Y195157D01*
X146205Y129928D02*
X217824Y58308D01*
X148548Y198536D02*
X196608D01*
X146205Y196193D02*
X148548Y198536D01*
X149583Y196036D02*
X196608D01*
X148705Y130963D02*
X220324Y59344D01*
Y58067D02*
Y59344D01*
Y58067D02*
X222838Y55554D01*
X217824Y57066D02*
Y58308D01*
X216871Y56112D02*
X217824Y57066D01*
X196608Y196036D02*
X196768Y195876D01*
X200232D02*
X200397Y195711D01*
X196608Y198536D02*
X196768Y198696D01*
X200232D02*
X200397Y198861D01*
X196768Y198696D02*
X200232D01*
X196768Y195876D02*
X200232D01*
X216871Y50618D02*
Y56112D01*
X218931Y14273D02*
Y38119D01*
X221431Y38927D02*
X222310Y39805D01*
X217562Y39188D02*
Y39805D01*
X218052Y38997D02*
X218931Y38119D01*
X217562Y39188D02*
X217753Y38997D01*
X222310Y39805D02*
X222444D01*
X221431Y14273D02*
Y38927D01*
X217753Y38997D02*
X218052D01*
X218902Y14243D02*
X218931Y14273D01*
X221431Y14273D02*
X221461Y14243D01*
X222838Y50557D02*
Y55554D01*
D106*
X258603Y167643D02*
Y171381D01*
X212403Y155243D02*
Y159906D01*
X193003Y210643D02*
X197565D01*
X198103Y211181D02*
X203103D01*
X203775Y211853D02*
X207090D01*
X197803Y216206D02*
Y220143D01*
X203503Y216305D02*
Y220243D01*
X288192Y312640D02*
X292458D01*
D107*
X265141Y82246D02*
X268113Y79274D01*
X262561Y82246D02*
X265141D01*
X262033Y82774D02*
X262561Y82246D01*
X268113Y78546D02*
Y79274D01*
D108*
X67239Y247435D02*
D03*
Y255435D02*
D03*
Y263435D02*
D03*
D109*
Y271435D02*
D03*
D110*
X401972Y292561D02*
D03*
X34255D02*
D03*
Y75239D02*
D03*
X401972Y74845D02*
D03*
D111*
X330869Y359491D02*
D03*
X271027Y358703D02*
D03*
X395200Y359884D02*
D03*
D112*
X173161Y34448D02*
D03*
X155445D02*
D03*
Y60039D02*
D03*
X392129Y63428D02*
D03*
X372444Y6341D02*
D03*
X382287D02*
D03*
X392129D02*
D03*
D113*
X173161Y60039D02*
D03*
D114*
X359846Y35868D02*
D03*
X404728D02*
D03*
D115*
X372444Y63428D02*
D03*
D116*
X231303Y14243D02*
D03*
X211618D02*
D03*
D117*
X7321Y128723D02*
D03*
D118*
X15751Y353191D02*
D03*
X421263D02*
D03*
X15751Y14609D02*
D03*
X421263D02*
D03*
D119*
X305515Y55160D02*
D03*
D120*
Y31538D02*
D03*
D121*
X324019Y43349D02*
D03*
D122*
X278803Y64943D02*
D03*
X52264Y264370D02*
D03*
X50492Y269193D02*
D03*
X247441Y169685D02*
D03*
X253297Y166349D02*
D03*
X264303Y164543D02*
D03*
X258503Y167543D02*
D03*
X217303Y155343D02*
D03*
X237603Y188943D02*
D03*
Y195243D02*
D03*
X236803Y178843D02*
D03*
X212403Y155243D02*
D03*
X202103Y155643D02*
D03*
X179841Y202743D02*
D03*
X176403Y14443D02*
D03*
X162703Y14543D02*
D03*
X193003Y210643D02*
D03*
X203503Y220243D02*
D03*
X197803Y220143D02*
D03*
X154328Y27062D02*
D03*
X183459Y144643D02*
D03*
X228203Y145243D02*
D03*
X242703Y224143D02*
D03*
X236403Y224343D02*
D03*
X250503Y233043D02*
D03*
X208996Y229374D02*
D03*
X198503Y331943D02*
D03*
X172303Y166187D02*
D03*
X177903Y166143D02*
D03*
X168603Y146843D02*
D03*
X180203Y153943D02*
D03*
X175103Y173243D02*
D03*
X183503Y165843D02*
D03*
X185903Y156843D02*
D03*
X171665Y185443D02*
D03*
X159403Y184843D02*
D03*
X234003Y173843D02*
D03*
X228403Y173943D02*
D03*
X222303D02*
D03*
X258103Y235736D02*
D03*
X173759Y180243D02*
D03*
X262033Y82774D02*
D03*
X231598Y161044D02*
D03*
X241403Y134643D02*
D03*
X233103Y39743D02*
D03*
X227303Y23643D02*
D03*
X252803Y42243D02*
D03*
X266503Y50143D02*
D03*
X195840Y48106D02*
D03*
X130223Y179287D02*
D03*
X131010Y184012D02*
D03*
X130616Y173776D02*
D03*
X130223Y168658D02*
D03*
X72903Y247543D02*
D03*
X72916Y255531D02*
D03*
X256795Y154077D02*
D03*
X247247Y160278D02*
D03*
X236814D02*
D03*
X207484Y39805D02*
D03*
X196066Y155947D02*
D03*
X139767Y331538D02*
D03*
X210633Y331931D02*
D03*
X258303Y141943D02*
D03*
X250303Y142143D02*
D03*
X250791Y115790D02*
D03*
X285603Y141743D02*
D03*
X212903Y196543D02*
D03*
X163389Y330750D02*
D03*
X175200D02*
D03*
X127956Y331538D02*
D03*
X259058Y56341D02*
D03*
X262602Y131931D02*
D03*
X266903Y141843D02*
D03*
X268113Y131931D02*
D03*
X276303Y141643D02*
D03*
X275200Y131931D02*
D03*
X319688Y81144D02*
D03*
X313783D02*
D03*
X301184Y81538D02*
D03*
X307484D02*
D03*
X300791Y87837D02*
D03*
X319688D02*
D03*
X307090D02*
D03*
X313389D02*
D03*
X325987D02*
D03*
X286103Y116443D02*
D03*
X286003Y124543D02*
D03*
X285903Y132643D02*
D03*
X263783Y187837D02*
D03*
X274019Y192955D02*
D03*
X264176Y198073D02*
D03*
X284649Y65790D02*
D03*
X292523Y67758D02*
D03*
X325987Y81144D02*
D03*
X272344Y56216D02*
D03*
X252759Y206735D02*
D03*
X209703Y181443D02*
D03*
X221003Y196143D02*
D03*
X221303Y188243D02*
D03*
M02*
