G04*
G04 #@! TF.GenerationSoftware,Altium Limited,Altium Designer,21.8.1 (53)*
G04*
G04 Layer_Color=32896*
%FSLAX25Y25*%
%MOIN*%
G70*
G04*
G04 #@! TF.SameCoordinates,194331D0-D63E-4C46-886B-6A61BDF2C4D5*
G04*
G04*
G04 #@! TF.FilePolarity,Positive*
G04*
G01*
G75*
%ADD12C,0.00394*%
D12*
X383877Y331577D02*
X387814D01*
X385846Y329609D02*
Y333546D01*
X385830Y341774D02*
Y345711D01*
X383861Y343742D02*
X387798D01*
X317523Y330655D02*
X321460D01*
X319491Y328687D02*
Y332624D01*
X317916Y343451D02*
X321853D01*
X319885Y341482D02*
Y345419D01*
X257484Y331931D02*
X261420D01*
X259452Y329963D02*
Y333900D01*
X300791Y250829D02*
X304728D01*
X302759Y248861D02*
Y252798D01*
X240735Y252743D02*
X244672D01*
X242703Y250775D02*
Y254712D01*
X355576Y316971D02*
Y320908D01*
X353607Y318939D02*
X357544D01*
X343818Y330309D02*
X347755D01*
X345787Y328340D02*
Y332277D01*
X301184Y326420D02*
Y330357D01*
X299216Y328388D02*
X303153D01*
X286224Y326026D02*
Y329963D01*
X284255Y327994D02*
X288192D01*
X259452Y341380D02*
Y345317D01*
X257484Y343349D02*
X261420D01*
X234588Y319333D02*
X238525D01*
X236557Y317365D02*
Y321302D01*
X228743Y326521D02*
Y330458D01*
X226775Y328490D02*
X230712D01*
X359452Y250829D02*
X363389D01*
X361420Y248861D02*
Y252798D01*
X275200Y74611D02*
X279137D01*
X277168Y72642D02*
Y76579D01*
X17321Y146260D02*
Y150197D01*
X15352Y148228D02*
X19289D01*
X214803Y157975D02*
Y161912D01*
X212835Y159943D02*
X216772D01*
X86990Y58775D02*
Y62712D01*
X85021Y60743D02*
X88958D01*
X92635Y63506D02*
X96572D01*
X94603Y61537D02*
Y65474D01*
X98535Y64096D02*
X102472D01*
X100503Y62128D02*
Y66065D01*
X186003Y222875D02*
Y226812D01*
X184035Y224843D02*
X187972D01*
X105935Y328643D02*
X109872D01*
X107903Y326675D02*
Y330612D01*
X119468Y-16240D02*
Y-12303D01*
X117500Y-14272D02*
X121437D01*
X56299Y-16240D02*
Y-12303D01*
X54331Y-14272D02*
X58268D01*
X351903Y345975D02*
Y349912D01*
X349935Y347943D02*
X353872D01*
X291603Y344575D02*
Y348512D01*
X289635Y346543D02*
X293572D01*
X234356Y343475D02*
Y347412D01*
X232387Y345443D02*
X236324D01*
X187103Y189175D02*
Y193112D01*
X185135Y191143D02*
X189072D01*
X178335Y185443D02*
X182272D01*
X180303Y183475D02*
Y187412D01*
X54232Y266929D02*
X58169D01*
X56201Y264961D02*
Y268898D01*
X240803Y142175D02*
Y146112D01*
X238835Y144143D02*
X242772D01*
X120380Y179287D02*
X124317D01*
X122349Y177319D02*
Y181256D01*
X120380Y184012D02*
X124317D01*
X122349Y182043D02*
Y185980D01*
X120380Y173776D02*
X124317D01*
X122349Y171807D02*
Y175744D01*
X120380Y168658D02*
X124317D01*
X122349Y166689D02*
Y170626D01*
X353153Y259097D02*
Y263034D01*
X351184Y261065D02*
X355121D01*
X216932Y45772D02*
Y49709D01*
X214964Y47740D02*
X218901D01*
X222838Y45772D02*
Y49709D01*
X220869Y47740D02*
X224806D01*
X196135Y213543D02*
X200072D01*
X198103Y211575D02*
Y215512D01*
X201235Y213643D02*
X205172D01*
X203203Y211675D02*
Y215612D01*
X364487Y328340D02*
Y332277D01*
X362519Y330309D02*
X366456D01*
X349511Y360387D02*
X353448D01*
X351480Y358419D02*
Y362356D01*
X294835Y260643D02*
X298772D01*
X296803Y258675D02*
Y262612D01*
X314570Y260437D02*
X318507D01*
X316539Y258469D02*
Y262406D01*
X331105Y258413D02*
X335043D01*
X333074Y256444D02*
Y260381D01*
X321657Y258019D02*
X325594D01*
X323625Y256051D02*
Y259988D01*
X292113Y357781D02*
Y361718D01*
X290145Y359750D02*
X294082D01*
X291342Y319333D02*
X295279D01*
X293310Y317365D02*
Y321302D01*
X234437Y355317D02*
Y359254D01*
X232468Y357285D02*
X236405D01*
X163303Y189775D02*
Y193712D01*
X161335Y191743D02*
X165272D01*
X235935Y218743D02*
X239872D01*
X237903Y216775D02*
Y220712D01*
X203153Y161459D02*
Y165396D01*
X201184Y163428D02*
X205121D01*
X251335Y173343D02*
X255272D01*
X253303Y171375D02*
Y175312D01*
X187273Y202743D02*
X191209D01*
X189241Y200775D02*
Y204712D01*
X211528Y222074D02*
X215465D01*
X213496Y220106D02*
Y224043D01*
X236617Y261459D02*
Y265396D01*
X234649Y263428D02*
X238586D01*
X250791Y121302D02*
Y125239D01*
X248822Y123270D02*
X252759D01*
X256105Y196105D02*
Y200042D01*
X254137Y198073D02*
X258074D01*
X256302Y261065D02*
Y265002D01*
X254334Y263034D02*
X258271D01*
X264176Y258310D02*
Y262246D01*
X262208Y260278D02*
X266145D01*
X273625Y258310D02*
Y262246D01*
X271657Y260278D02*
X275594D01*
X304531Y310380D02*
X308468D01*
X306499Y308411D02*
Y312348D01*
X290751Y310380D02*
X294688D01*
X292720Y308411D02*
Y312348D01*
X275503Y177575D02*
Y181512D01*
X273535Y179543D02*
X277472D01*
X249216Y308995D02*
Y312932D01*
X247247Y310964D02*
X251184D01*
X236224Y309097D02*
Y313034D01*
X234255Y311065D02*
X238192D01*
X242129Y328096D02*
X246066D01*
X244098Y326128D02*
Y330065D01*
X390161Y258506D02*
X394098D01*
X392129Y256538D02*
Y260475D01*
X379531Y258600D02*
X383468D01*
X381499Y256631D02*
Y260568D01*
X371657Y261299D02*
X375594D01*
X373625Y259331D02*
Y263268D01*
X256635Y173743D02*
X260572D01*
X258603Y171775D02*
Y175712D01*
X353169Y310121D02*
X357105D01*
X355137Y308152D02*
Y312089D01*
X360058Y310121D02*
X363995D01*
X362027Y308152D02*
Y312089D01*
X366948Y310121D02*
X370885D01*
X368917Y308152D02*
Y312089D01*
X195803Y27675D02*
Y31612D01*
X193835Y29643D02*
X197772D01*
X169691Y12754D02*
Y16691D01*
X167722Y14722D02*
X171659D01*
X205803Y142875D02*
Y146812D01*
X203835Y144843D02*
X207772D01*
X248269Y152109D02*
Y156046D01*
X246301Y154077D02*
X250238D01*
X316932Y69727D02*
X320869D01*
X318901Y67758D02*
Y71695D01*
X262208Y121302D02*
Y125239D01*
X260239Y123270D02*
X264176D01*
X262995Y71855D02*
Y75792D01*
X261027Y73823D02*
X264964D01*
X266539Y58643D02*
Y62580D01*
X264570Y60611D02*
X268507D01*
X275200Y121695D02*
Y125632D01*
X273232Y123664D02*
X277168D01*
X284649Y72876D02*
Y76813D01*
X282680Y74845D02*
X286617D01*
X256696Y121302D02*
Y125239D01*
X254728Y123270D02*
X258665D01*
X262335Y172243D02*
X266272D01*
X264303Y170275D02*
Y174212D01*
X268113Y121695D02*
Y125632D01*
X266145Y123664D02*
X270082D01*
X290554Y77310D02*
X294491D01*
X292523Y75342D02*
Y79279D01*
X36224Y320908D02*
Y324845D01*
X34255Y322876D02*
X38192D01*
X45672Y337050D02*
X49609D01*
X47641Y335081D02*
Y339018D01*
X84649Y337050D02*
X88586D01*
X86617Y335081D02*
Y339018D01*
X242523Y308995D02*
Y312932D01*
X240554Y310964D02*
X244491D01*
X297641Y310380D02*
X301578D01*
X299609Y308411D02*
Y312348D01*
M02*
