G04*
G04 #@! TF.GenerationSoftware,Altium Limited,Altium Designer,21.8.1 (53)*
G04*
G04 Layer_Physical_Order=2*
G04 Layer_Color=32768*
%FSLAX25Y25*%
%MOIN*%
G70*
G04*
G04 #@! TF.SameCoordinates,81EC3893-84E7-45D1-AE65-2CF239B2E5AD*
G04*
G04*
G04 #@! TF.FilePolarity,Negative*
G04*
G01*
G75*
%ADD122C,0.04000*%
%ADD123C,0.05969*%
%ADD124R,0.07000X0.06756*%
%ADD125R,0.06756X0.06756*%
%ADD126C,0.17779*%
%ADD127C,0.08016*%
%ADD128C,0.07898*%
%ADD129C,0.08331*%
%ADD130C,0.07543*%
%ADD131C,0.07937*%
%ADD132C,0.15811*%
%ADD133O,0.17779X0.07937*%
%ADD134C,0.05500*%
D122*
X3Y42D02*
Y372089D01*
Y42D02*
X433074D01*
Y372089D01*
X3D02*
X433074D01*
D123*
X353940Y358616D02*
D03*
X55023Y348861D02*
D03*
X40259D02*
D03*
X50102D02*
D03*
X93606Y348467D02*
D03*
X78842D02*
D03*
X88684D02*
D03*
X24019Y330652D02*
D03*
Y315888D02*
D03*
Y325731D02*
D03*
X294574Y357978D02*
D03*
X236897Y355514D02*
D03*
X284203Y179343D02*
D03*
X232203Y183043D02*
D03*
X131003Y210843D02*
D03*
X189919Y166187D02*
D03*
X186203Y207843D02*
D03*
X104786Y61143D02*
D03*
X348003Y318843D02*
D03*
X231105Y318939D02*
D03*
X224019Y325239D02*
D03*
X287011Y317758D02*
D03*
X283074Y325239D02*
D03*
X256594Y269879D02*
D03*
X264264Y269988D02*
D03*
X273625Y270121D02*
D03*
X375594D02*
D03*
X316539Y269727D02*
D03*
X324413D02*
D03*
X333074D02*
D03*
X340161Y325239D02*
D03*
X384255Y270121D02*
D03*
X392523D02*
D03*
D124*
X67239Y247435D02*
D03*
D125*
Y255435D02*
D03*
Y263435D02*
D03*
D126*
X401972Y292561D02*
D03*
X34255D02*
D03*
Y75239D02*
D03*
X401972Y74845D02*
D03*
D127*
X310869Y359491D02*
D03*
X320869D02*
D03*
X330869D02*
D03*
X17321Y153228D02*
D03*
Y143228D02*
D03*
X186003Y224843D02*
D03*
X107903Y333643D02*
D03*
X251027Y358703D02*
D03*
X261027D02*
D03*
X271027D02*
D03*
X17321Y118723D02*
D03*
Y128723D02*
D03*
X7321Y108723D02*
D03*
Y118723D02*
D03*
Y128723D02*
D03*
X385200Y359884D02*
D03*
X395200D02*
D03*
X375200D02*
D03*
D128*
X173161Y34448D02*
D03*
Y60039D02*
D03*
D129*
X423003Y235743D02*
D03*
Y225743D02*
D03*
Y205743D02*
D03*
Y215743D02*
D03*
X15303Y208043D02*
D03*
Y188043D02*
D03*
Y178043D02*
D03*
Y198043D02*
D03*
Y218043D02*
D03*
Y228043D02*
D03*
D130*
X119468Y48720D02*
D03*
X56299D02*
D03*
D131*
X372444Y63428D02*
D03*
Y6341D02*
D03*
X392129D02*
D03*
D132*
X15751Y353191D02*
D03*
X421263D02*
D03*
X15751Y14609D02*
D03*
X421263D02*
D03*
D133*
X305515Y55160D02*
D03*
D134*
X232579Y160236D02*
D03*
X238287D02*
D03*
X264370Y163287D02*
D03*
X52264Y264370D02*
D03*
X237603Y188943D02*
D03*
Y195243D02*
D03*
X236803Y178843D02*
D03*
X212403Y155243D02*
D03*
X162703Y14543D02*
D03*
X193003Y210643D02*
D03*
X154328Y27062D02*
D03*
X242703Y224143D02*
D03*
X250503Y233043D02*
D03*
X172303Y166187D02*
D03*
X177903Y166143D02*
D03*
X168603Y146843D02*
D03*
X180203Y153943D02*
D03*
X175103Y173243D02*
D03*
X183503Y165843D02*
D03*
X185903Y156843D02*
D03*
X234003Y173843D02*
D03*
X228403Y173943D02*
D03*
X222303D02*
D03*
X258103Y235736D02*
D03*
X241403Y134643D02*
D03*
X227303Y23643D02*
D03*
X266503Y50143D02*
D03*
X195840Y48106D02*
D03*
X130223Y179287D02*
D03*
X131010Y184012D02*
D03*
X130616Y173776D02*
D03*
X130223Y168658D02*
D03*
X72903Y247543D02*
D03*
X72916Y255531D02*
D03*
X256795Y154077D02*
D03*
X247247Y160278D02*
D03*
X196066Y155947D02*
D03*
X139767Y331538D02*
D03*
X210633Y331931D02*
D03*
X258303Y141943D02*
D03*
X250303Y142143D02*
D03*
X285603Y141743D02*
D03*
X175200Y330750D02*
D03*
X259058Y56341D02*
D03*
X266903Y141843D02*
D03*
X276303Y141643D02*
D03*
X319688Y81144D02*
D03*
X313783D02*
D03*
X301184Y81538D02*
D03*
X307484D02*
D03*
X300791Y87837D02*
D03*
X319688D02*
D03*
X307090D02*
D03*
X313389D02*
D03*
X325987D02*
D03*
X286103Y116443D02*
D03*
X286003Y124543D02*
D03*
X285903Y132643D02*
D03*
X263783Y187837D02*
D03*
X274019Y192955D02*
D03*
X325987Y81144D02*
D03*
X252759Y206735D02*
D03*
M02*
