G04*
G04 #@! TF.GenerationSoftware,Altium Limited,Altium Designer,21.8.1 (53)*
G04*
G04 Layer_Color=32896*
%FSLAX25Y25*%
%MOIN*%
G70*
G04*
G04 #@! TF.SameCoordinates,194331D0-D63E-4C46-886B-6A61BDF2C4D5*
G04*
G04*
G04 #@! TF.FilePolarity,Positive*
G04*
G01*
G75*
%ADD13C,0.00787*%
D13*
X376790Y337286D02*
X394901D01*
Y325869D02*
Y337286D01*
X376790Y325869D02*
X394901D01*
X376790D02*
Y337286D01*
X376775Y338034D02*
Y349451D01*
Y338034D02*
X394885D01*
Y349451D01*
X376775D02*
X394885D01*
X310436Y336364D02*
X328547D01*
Y324947D02*
Y336364D01*
X310436Y324947D02*
X328547D01*
X310436D02*
Y336364D01*
X310830Y349159D02*
X328940D01*
Y337742D02*
Y349159D01*
X310830Y337742D02*
X328940D01*
X310830D02*
Y349159D01*
X250397Y337640D02*
X268507D01*
Y326223D02*
Y337640D01*
X250397Y326223D02*
X268507D01*
X250397D02*
Y337640D01*
X300397Y255652D02*
X305121D01*
X300397Y246006D02*
Y255652D01*
Y246006D02*
X305121D01*
Y255652D01*
X240341Y257566D02*
X245065D01*
X240341Y247920D02*
Y257566D01*
Y247920D02*
X245065D01*
Y257566D01*
X351312Y316676D02*
Y321203D01*
Y316676D02*
X359839D01*
Y321203D01*
X351312D02*
X359839D01*
X342916Y324485D02*
X348657D01*
Y336132D01*
X342916D02*
X348657D01*
X342916Y324485D02*
Y336132D01*
X304055Y322565D02*
Y334211D01*
X298314Y322565D02*
X304055D01*
X298314D02*
Y334211D01*
X304055D01*
X283353Y322171D02*
Y333818D01*
X289094D01*
Y322171D02*
Y333818D01*
X283353Y322171D02*
X289094D01*
X250397Y337640D02*
Y349058D01*
Y337640D02*
X268507D01*
Y349058D01*
X250397D02*
X268507D01*
X232293Y321597D02*
X240820D01*
Y317069D02*
Y321597D01*
X232293Y317069D02*
X240820D01*
X232293D02*
Y321597D01*
X225873Y322667D02*
Y334313D01*
X231614D01*
Y322667D02*
Y334313D01*
X225873Y322667D02*
X231614D01*
X359058Y255652D02*
X363783D01*
X359058Y246006D02*
Y255652D01*
Y246006D02*
X363783D01*
Y255652D01*
X274389Y68878D02*
X279948D01*
Y80343D01*
X274389D02*
X279948D01*
X274389Y68878D02*
Y80343D01*
X22912Y136850D02*
Y159606D01*
X11731Y136850D02*
X22912D01*
X11731D02*
Y159606D01*
X22912D01*
X219528Y157581D02*
Y162305D01*
X210079D02*
X219528D01*
X210079Y157581D02*
Y162305D01*
Y157581D02*
X219528D01*
X82364Y56413D02*
Y65074D01*
Y56413D02*
X91616D01*
Y65074D01*
X82364D02*
X91616D01*
X92241Y68230D02*
X96965D01*
X92241Y58781D02*
Y68230D01*
Y58781D02*
X96965D01*
Y68230D01*
X97550Y58781D02*
X103456D01*
Y69411D01*
X97550D02*
X103456D01*
X97550Y58781D02*
Y69411D01*
X179605Y219194D02*
Y230493D01*
Y219194D02*
X192401D01*
Y230493D01*
X179605D02*
X192401D01*
X102313Y340021D02*
X113494D01*
X102313Y317265D02*
Y340021D01*
Y317265D02*
X113494D01*
Y340021D01*
X89941Y-83563D02*
Y55020D01*
Y-83563D02*
X148996D01*
Y55020D01*
X89941D02*
X148996D01*
X26772Y-83563D02*
Y55020D01*
Y-83563D02*
X85827D01*
Y55020D01*
X26772D02*
X85827D01*
X357218Y344990D02*
Y350896D01*
X346588D02*
X357218D01*
X346588Y344990D02*
Y350896D01*
Y344990D02*
X357218D01*
X296918Y343590D02*
Y349496D01*
X286288D02*
X296918D01*
X286288Y343590D02*
Y349496D01*
Y343590D02*
X296918D01*
X239671Y342491D02*
Y348396D01*
X229041D02*
X239671D01*
X229041Y342491D02*
Y348396D01*
Y342491D02*
X239671D01*
X181788Y188191D02*
Y194096D01*
Y188191D02*
X192418D01*
Y194096D01*
X181788D02*
X192418D01*
X175579Y187805D02*
X185028D01*
Y183081D02*
Y187805D01*
X175579Y183081D02*
X185028D01*
X175579D02*
Y187805D01*
X53839Y271654D02*
X58563D01*
X53839Y262205D02*
Y271654D01*
Y262205D02*
X58563D01*
Y271654D01*
X244863Y136730D02*
Y151556D01*
X236744Y136730D02*
X244863D01*
X236744D02*
Y151556D01*
X244863D01*
X117526Y176925D02*
X127172D01*
X117526D02*
Y181650D01*
X127172D01*
Y176925D02*
Y181650D01*
X117428Y181846D02*
X127270D01*
X117428D02*
Y186177D01*
X127270D01*
Y181846D02*
Y186177D01*
X117428Y171610D02*
X127270D01*
X117428D02*
Y175941D01*
X127270D01*
Y171610D02*
Y175941D01*
X117526Y166295D02*
X127172D01*
X117526D02*
Y171020D01*
X127172D01*
Y166295D02*
Y171020D01*
X355932Y255333D02*
Y266798D01*
X350373Y255333D02*
X355932D01*
X350373D02*
Y266798D01*
X355932D01*
X214054Y42099D02*
Y53382D01*
X219811D01*
Y42099D02*
Y53382D01*
X214054Y42099D02*
X219811D01*
X219960D02*
Y53382D01*
X225716D01*
Y42099D02*
Y53382D01*
X219960Y42099D02*
X225716D01*
X195741Y218268D02*
X200465D01*
X195741Y208819D02*
Y218268D01*
Y208819D02*
X200465D01*
Y218268D01*
X200841Y218368D02*
X205565D01*
X200841Y208919D02*
Y218368D01*
Y208919D02*
X205565D01*
Y218368D01*
X367358Y324485D02*
Y336132D01*
X361617Y324485D02*
X367358D01*
X361617D02*
Y336132D01*
X367358D01*
X342326Y353301D02*
X360633D01*
X342326D02*
Y367474D01*
X360633D01*
Y353301D02*
Y367474D01*
X294023Y266376D02*
X299583D01*
X294023Y254911D02*
Y266376D01*
Y254911D02*
X299583D01*
Y266376D01*
X313759Y254705D02*
X319318D01*
Y266170D01*
X313759D02*
X319318D01*
X313759Y254705D02*
Y266170D01*
X328137Y266795D02*
X338012D01*
X328137Y250030D02*
Y266795D01*
Y250030D02*
X338012D01*
Y266795D01*
X318688Y266401D02*
X328563D01*
X318688Y249637D02*
Y266401D01*
Y249637D02*
X328563D01*
Y266401D01*
X301267Y352663D02*
Y366836D01*
X282960D02*
X301267D01*
X282960Y352663D02*
Y366836D01*
Y352663D02*
X301267D01*
X289047Y321597D02*
X297574D01*
Y317069D02*
Y321597D01*
X289047Y317069D02*
X297574D01*
X289047D02*
Y321597D01*
X243590Y350199D02*
Y364372D01*
X225283D02*
X243590D01*
X225283Y350199D02*
Y364372D01*
Y350199D02*
X243590D01*
X169602Y188594D02*
Y194893D01*
X157004D02*
X169602D01*
X157004Y188594D02*
Y194893D01*
Y188594D02*
X169602D01*
X233179Y221106D02*
X242628D01*
Y216381D02*
Y221106D01*
X233179Y216381D02*
X242628D01*
X233179D02*
Y221106D01*
X206105Y158113D02*
Y168743D01*
X200200Y158113D02*
X206105D01*
X200200D02*
Y168743D01*
X206105D01*
X250350Y178658D02*
X256256D01*
X250350Y168028D02*
Y178658D01*
Y168028D02*
X256256D01*
Y178658D01*
X184517Y205105D02*
X193965D01*
Y200381D02*
Y205105D01*
X184517Y200381D02*
X193965D01*
X184517D02*
Y205105D01*
X211134Y226798D02*
X215858D01*
X211134Y217350D02*
Y226798D01*
Y217350D02*
X215858D01*
Y226798D01*
X239397Y257695D02*
Y269160D01*
X233838Y257695D02*
X239397D01*
X233838D02*
Y269160D01*
X239397D01*
X248625Y118349D02*
Y128191D01*
X252956D01*
Y118349D02*
Y128191D01*
X248625Y118349D02*
X252956D01*
X250791Y195121D02*
Y201026D01*
Y195121D02*
X261420D01*
Y201026D01*
X250791D02*
X261420D01*
X253523Y257301D02*
Y268766D01*
X259082D01*
Y257301D02*
Y268766D01*
X253523Y257301D02*
X259082D01*
X269114Y251896D02*
Y268660D01*
X259239Y251896D02*
X269114D01*
X259239D02*
Y268660D01*
X269114D01*
X278563Y251896D02*
Y268660D01*
X268688Y251896D02*
X278563D01*
X268688D02*
Y268660D01*
X278563D01*
X303251Y305053D02*
X309747D01*
Y315707D01*
X303251D02*
X309747D01*
X303251Y305053D02*
Y315707D01*
X289940Y316112D02*
X295499D01*
X289940Y304647D02*
Y316112D01*
Y304647D02*
X295499D01*
Y316112D01*
X268090Y175484D02*
Y183603D01*
Y175484D02*
X282916D01*
Y183603D01*
X268090D02*
X282916D01*
X245968Y305637D02*
Y316291D01*
X252464D01*
Y305637D02*
Y316291D01*
X245968Y305637D02*
X252464D01*
X239003Y305333D02*
Y316798D01*
X233444Y305333D02*
X239003D01*
X233444D02*
Y316798D01*
X239003D01*
X241227Y333920D02*
X246968D01*
X241227Y322273D02*
Y333920D01*
Y322273D02*
X246968D01*
Y333920D01*
X387192Y266889D02*
X397067D01*
X387192Y250124D02*
Y266889D01*
Y250124D02*
X397067D01*
Y266889D01*
X376562Y266982D02*
X386437D01*
X376562Y250218D02*
Y266982D01*
Y250218D02*
X386437D01*
Y266982D01*
X370845Y255567D02*
X376405D01*
Y267032D01*
X370845D02*
X376405D01*
X370845Y255567D02*
Y267032D01*
X256241Y169019D02*
X260965D01*
Y178468D01*
X256241D02*
X260965D01*
X256241Y169019D02*
Y178468D01*
X352357Y315853D02*
X357917D01*
X352357Y304388D02*
Y315853D01*
Y304388D02*
X357917D01*
Y315853D01*
X358779Y304793D02*
X365275D01*
Y315448D01*
X358779D02*
X365275D01*
X358779Y304793D02*
Y315448D01*
X365669Y304793D02*
X372165D01*
Y315448D01*
X365669D02*
X372165D01*
X365669Y304793D02*
Y315448D01*
X188697Y18029D02*
Y41258D01*
X202909D01*
Y18029D02*
Y41258D01*
X188697Y18029D02*
X202909D01*
X174415Y12360D02*
Y17084D01*
X164966D02*
X174415D01*
X164966Y12360D02*
Y17084D01*
Y12360D02*
X174415D01*
X210626Y142481D02*
Y147205D01*
X200980D02*
X210626D01*
X200980Y142481D02*
Y147205D01*
Y142481D02*
X210626D01*
X240856Y150018D02*
Y158136D01*
Y150018D02*
X255682D01*
Y158136D01*
X240856D02*
X255682D01*
X314507Y61833D02*
X323294D01*
Y77621D01*
X314507D02*
X323294D01*
X314507Y61833D02*
Y77621D01*
X264988Y117538D02*
Y129003D01*
X259428Y117538D02*
X264988D01*
X259428D02*
Y129003D01*
X264988D01*
X265775Y68091D02*
Y79556D01*
X260215Y68091D02*
X265775D01*
X260215D02*
Y79556D01*
X265775D01*
X269417Y54970D02*
Y66252D01*
X263660Y54970D02*
X269417D01*
X263660D02*
Y66252D01*
X269417D01*
X271952Y118337D02*
Y128991D01*
X278448D01*
Y118337D02*
Y128991D01*
X271952Y118337D02*
X278448D01*
X289586Y66463D02*
Y83227D01*
X279711Y66463D02*
X289586D01*
X279711D02*
Y83227D01*
X289586D01*
X259574Y117629D02*
Y128911D01*
X253818Y117629D02*
X259574D01*
X253818D02*
Y128911D01*
X259574D01*
X261154Y178542D02*
X267453D01*
X261154Y165944D02*
Y178542D01*
Y165944D02*
X267453D01*
Y178542D01*
X264865Y118337D02*
Y128991D01*
X271361D01*
Y118337D02*
Y128991D01*
X264865Y118337D02*
X271361D01*
X287585Y85693D02*
X297460D01*
X287585Y68928D02*
Y85693D01*
Y68928D02*
X297460D01*
Y85693D01*
X33861Y318152D02*
Y327601D01*
X38586D01*
Y318152D02*
Y327601D01*
X33861Y318152D02*
X38586D01*
X42917Y339412D02*
X52365D01*
Y334687D02*
Y339412D01*
X42917Y334687D02*
X52365D01*
X42917D02*
Y339412D01*
X81893D02*
X91342D01*
Y334687D02*
Y339412D01*
X81893Y334687D02*
X91342D01*
X81893D02*
Y339412D01*
X239275Y305637D02*
Y316291D01*
X245771D01*
Y305637D02*
Y316291D01*
X239275Y305637D02*
X245771D01*
X296361Y305053D02*
X302857D01*
Y315707D01*
X296361D02*
X302857D01*
X296361Y305053D02*
Y315707D01*
M02*
