M48
;Layer_Color=9474304
;FILE_FORMAT=2:3
INCH,LZ
;TYPE=PLATED
T1F00S00C0.008
T2F00S00C0.015
T3F00S00C0.020
T7F00S00C0.033
T8F00S00C0.035
T9F00S00C0.039
T11F00S00C0.040
T12F00S00C0.043
T14F00S00C0.079
T15F00S00C0.118
T16F00S00C0.138
%
T01
X02352Y04112
X02385
X02923Y04108
X02956
X03545Y0411
X03579
T02
X01545Y0111
X01629Y00985
X01766Y00984
X0196Y01321
X02077Y01238
X02333Y01237
X02275Y01076
X0253Y01262
X02593Y01403
X02725Y01402
X02667Y01341
X0279Y01489
X02848Y01497
X02927Y01517
X0314Y01651
X03199
X03262
Y01718
X03199
X03136
X03073
X0301
X03014Y01655
X03077
X02622Y01667
X0251Y01997
X02505Y02261
X02585Y02259
X02671Y02258
X02765Y02256
X02858Y02257
X02861Y02166
X02862Y02085
X02863Y02004
X02754Y02159
X02683
X02628
X02416Y02186
X02284Y02292
X02318Y0245
X0237Y02442
X02474
X02476Y02536
X02535Y02503
X02587Y02515
X02645Y02485
X0257Y0238
X0264Y02718
X02644Y0282
X02742Y02769
X0253Y02907
X02378Y02792
Y02729
X0237Y02628
X02342Y02578
X02286Y02579
X02225
X02215Y02722
X02212Y02801
X02131Y02805
X02099Y02654
X02126Y02392
X02175Y02393
X02023Y02396
X01963Y02399
X01861Y02408
X01804Y02379
X01837Y02286
X01688Y02308
X01725Y02501
X01781Y02501
X01837Y02498
X01753Y02572
X0174Y02642
X01719Y02694
X01596Y02688
X018Y02867
X01932Y02946
X0198Y03041
X02037Y03042
X02366Y03083
X02429Y03081
X01312Y0268
X01304Y02632
X01308Y02577
X01304Y02526
X00731Y03315
X00731Y03395
X00525Y03483
X00507Y03531
X01282Y04155
X014
X01636Y04147
X01754
X01987Y04159
X02108Y04159
X02092Y03133
X02507Y0317
X02583Y03197
T03
X00798Y01435
X0105Y01451
X0105Y0151
X01901Y02501
X01864Y02918
X02324Y0267
X02844Y02633
X01312Y02948
X00987Y04324
X00938
X00889
X0084
X0079
X00741
X00601Y04328
X00552
X00503
X00454
X00405
X00355
X00242Y04195
Y04146
Y04097
Y04048
Y03998
Y03949
X02317Y03978
X02313Y04029
X02242Y04092
X02234Y04155
X0223Y04226
X02274Y04294
X02322Y04395
X02371
X02325Y04175
X02482Y04092
X02521Y04045
X02595Y0404
X02552Y03987
X02435Y04017
X02711Y04163
X02707Y04269
X02792Y04238
X02842Y04303
X02825Y04148
X02833Y04092
X02872Y04017
X02884Y03966
X0301Y04013
X03045Y04096
X03114Y0404
X0312Y0397
X02896Y04179
X02898Y04419
X02948
X0301Y03513
X03085Y03297
X02738Y03364
X02644Y03371
X02565Y03413
X02568Y03538
X02645Y03539
X02738Y03541
X02416Y03527
X02485Y03316
X03167Y0336
X03238Y03324
X03333
Y03537
X03246
X03167
X03581Y03505
X03758Y03541
X03845
X03927
X03923Y0332
X03817
X03738Y03364
X03667Y03285
X03648Y04029
X03711Y04041
Y04096
X03774Y04041
X03829
X03762Y0397
X03486Y03966
X03482Y04028
X03404Y04092
X03397Y04149
X03318Y04148
X03317Y04277
X03415Y04234
X03449Y04318
X03492Y04426
X03541
X0351Y04167
X03186Y04037
X03986Y04155
X03982Y04273
T07
X02118Y00982
X02315
T08
X00565Y01327
X00665
X01197
X01297
T09
X01556Y01184
Y0144
X01734
Y01184
X03726Y00903
X03825
X03923
Y01474
X03726
T11
X01862Y03088
X00175Y02372
Y02272
X00175Y02127
Y02027
Y01927
X00075
Y02027
Y02127
X01081Y04076
Y04176
X02512Y04427
X02612
X02712
X03111Y04434
X03211
X03311
X03754Y04438
X03854
X03954
T12
X04232Y02797
Y02897
Y02997
Y03097
X00155Y0312
Y0302
Y0292
Y0282
Y0272
Y0262
X04232Y03197
T14
X00365Y01127
X00765
X00997
X01397
T15
X00159Y00986
X04215
X00159Y04371
X04215
T16
X04022Y01588
X00345Y01592
Y03765
X04022
M30
