G04*
G04 #@! TF.GenerationSoftware,Altium Limited,Altium Designer,21.8.1 (53)*
G04*
G04 Layer_Color=2752767*
%FSLAX25Y25*%
%MOIN*%
G70*
G04*
G04 #@! TF.SameCoordinates,81EC3893-84E7-45D1-AE65-2CF239B2E5AD*
G04*
G04*
G04 #@! TF.FilePolarity,Positive*
G04*
G01*
G75*
%ADD148C,0.00200*%
%ADD149C,0.00267*%
%ADD150C,0.00133*%
D148*
X353140Y357816D02*
Y359416D01*
X354740D01*
Y357816D01*
X353140D01*
X348219D02*
Y359416D01*
X349819D01*
Y357816D01*
X348219D01*
X67239Y254635D02*
X66439Y256235D01*
X68039D01*
X67239Y254635D01*
Y262635D02*
X66439Y264235D01*
X68039D01*
X67239Y262635D01*
Y270635D02*
X66439Y272235D01*
X68039D01*
X67239Y270635D01*
X401972Y291761D02*
X402372Y292161D01*
X402772D01*
X402372Y292561D01*
X402772Y292961D01*
X402372D01*
X401972Y293361D01*
X401572Y292961D01*
X401172D01*
X401572Y292561D01*
X401172Y292161D01*
X401572D01*
X401972Y291761D01*
X34255D02*
X34655Y292161D01*
X35055D01*
X34655Y292561D01*
X35055Y292961D01*
X34655D01*
X34255Y293361D01*
X33855Y292961D01*
X33455D01*
X33855Y292561D01*
X33455Y292161D01*
X33855D01*
X34255Y291761D01*
Y74439D02*
X34655Y74839D01*
X35055D01*
X34655Y75239D01*
X35055Y75639D01*
X34655D01*
X34255Y76039D01*
X33855Y75639D01*
X33455D01*
X33855Y75239D01*
X33455Y74839D01*
X33855D01*
X34255Y74439D01*
X401972Y74045D02*
X402372Y74445D01*
X402772D01*
X402372Y74845D01*
X402772Y75245D01*
X402372D01*
X401972Y75645D01*
X401572Y75245D01*
X401172D01*
X401572Y74845D01*
X401172Y74445D01*
X401572D01*
X401972Y74045D01*
X310069Y358691D02*
X310469Y359491D01*
X310069Y360291D01*
X310869Y359891D01*
X311669Y360291D01*
X311269Y359491D01*
X311669Y358691D01*
X310869Y359091D01*
X310069Y358691D01*
X320069D02*
X320469Y359491D01*
X320069Y360291D01*
X320869Y359891D01*
X321669Y360291D01*
X321269Y359491D01*
X321669Y358691D01*
X320869Y359091D01*
X320069Y358691D01*
X330069D02*
X330469Y359491D01*
X330069Y360291D01*
X330869Y359891D01*
X331669Y360291D01*
X331269Y359491D01*
X331669Y358691D01*
X330869Y359091D01*
X330069Y358691D01*
X34538Y348061D02*
Y349661D01*
X36138D01*
Y348061D01*
X34538D01*
X59144D02*
Y349661D01*
X60744D01*
Y348061D01*
X59144D01*
X54223D02*
Y349661D01*
X55823D01*
Y348061D01*
X54223D01*
X39459D02*
Y349661D01*
X41059D01*
Y348061D01*
X39459D01*
X49302D02*
Y349661D01*
X50902D01*
Y348061D01*
X49302D01*
X44380D02*
Y349661D01*
X45980D01*
Y348061D01*
X44380D01*
X73120Y347667D02*
Y349267D01*
X74721D01*
Y347667D01*
X73120D01*
X97727D02*
Y349267D01*
X99327D01*
Y347667D01*
X97727D01*
X92805D02*
Y349267D01*
X94406D01*
Y347667D01*
X92805D01*
X78042D02*
Y349267D01*
X79642D01*
Y347667D01*
X78042D01*
X87884D02*
Y349267D01*
X89484D01*
Y347667D01*
X87884D01*
X82963D02*
Y349267D01*
X84563D01*
Y347667D01*
X82963D01*
X23219Y310167D02*
Y311767D01*
X24819D01*
Y310167D01*
X23219D01*
Y334773D02*
Y336373D01*
X24819D01*
Y334773D01*
X23219D01*
Y329852D02*
Y331452D01*
X24819D01*
Y329852D01*
X23219D01*
Y315088D02*
Y316688D01*
X24819D01*
Y315088D01*
X23219D01*
Y324931D02*
Y326531D01*
X24819D01*
Y324931D01*
X23219D01*
Y320009D02*
Y321609D01*
X24819D01*
Y320009D01*
X23219D01*
X172761Y34048D02*
Y33648D01*
X173561D01*
Y34048D01*
X173961D01*
Y34848D01*
X173561D01*
Y35248D01*
X172761D01*
Y34848D01*
X172361D01*
Y34048D01*
X172761D01*
X155045D02*
Y33648D01*
X155845D01*
Y34048D01*
X156245D01*
Y34848D01*
X155845D01*
Y35248D01*
X155045D01*
Y34848D01*
X154645D01*
Y34048D01*
X155045D01*
Y59639D02*
Y59239D01*
X155845D01*
Y59639D01*
X156245D01*
Y60439D01*
X155845D01*
Y60839D01*
X155045D01*
Y60439D01*
X154645D01*
Y59639D01*
X155045D01*
X172761D02*
Y59239D01*
X173561D01*
Y59639D01*
X173961D01*
Y60439D01*
X173561D01*
Y60839D01*
X172761D01*
Y60439D01*
X172361D01*
Y59639D01*
X172761D01*
X16521Y152428D02*
X16921Y153228D01*
X16521Y154028D01*
X17321Y153628D01*
X18121Y154028D01*
X17721Y153228D01*
X18121Y152428D01*
X17321Y152828D01*
X16521Y152428D01*
Y142428D02*
X16921Y143228D01*
X16521Y144028D01*
X17321Y143628D01*
X18121Y144028D01*
X17721Y143228D01*
X18121Y142428D01*
X17321Y142828D01*
X16521Y142428D01*
X422203Y234943D02*
X422603D01*
X423003Y235343D01*
X423403Y234943D01*
X423803D01*
Y235343D01*
X423403Y235743D01*
X423803Y236143D01*
Y236543D01*
X423403D01*
X423003Y236143D01*
X422603Y236543D01*
X422203D01*
Y236143D01*
X422603Y235743D01*
X422203Y235343D01*
Y234943D01*
Y224943D02*
X422603D01*
X423003Y225343D01*
X423403Y224943D01*
X423803D01*
Y225343D01*
X423403Y225743D01*
X423803Y226143D01*
Y226543D01*
X423403D01*
X423003Y226143D01*
X422603Y226543D01*
X422203D01*
Y226143D01*
X422603Y225743D01*
X422203Y225343D01*
Y224943D01*
Y204943D02*
X422603D01*
X423003Y205343D01*
X423403Y204943D01*
X423803D01*
Y205343D01*
X423403Y205743D01*
X423803Y206143D01*
Y206543D01*
X423403D01*
X423003Y206143D01*
X422603Y206543D01*
X422203D01*
Y206143D01*
X422603Y205743D01*
X422203Y205343D01*
Y204943D01*
Y194943D02*
X422603D01*
X423003Y195343D01*
X423403Y194943D01*
X423803D01*
Y195343D01*
X423403Y195743D01*
X423803Y196143D01*
Y196543D01*
X423403D01*
X423003Y196143D01*
X422603Y196543D01*
X422203D01*
Y196143D01*
X422603Y195743D01*
X422203Y195343D01*
Y194943D01*
Y214943D02*
X422603D01*
X423003Y215343D01*
X423403Y214943D01*
X423803D01*
Y215343D01*
X423403Y215743D01*
X423803Y216143D01*
Y216543D01*
X423403D01*
X423003Y216143D01*
X422603Y216543D01*
X422203D01*
Y216143D01*
X422603Y215743D01*
X422203Y215343D01*
Y214943D01*
X185203Y224043D02*
X185603Y224843D01*
X185203Y225643D01*
X186003Y225243D01*
X186803Y225643D01*
X186403Y224843D01*
X186803Y224043D01*
X186003Y224443D01*
X185203Y224043D01*
X107103Y322843D02*
X107503Y323643D01*
X107103Y324443D01*
X107903Y324043D01*
X108703Y324443D01*
X108303Y323643D01*
X108703Y322843D01*
X107903Y323243D01*
X107103Y322843D01*
Y332843D02*
X107503Y333643D01*
X107103Y334443D01*
X107903Y334043D01*
X108703Y334443D01*
X108303Y333643D01*
X108703Y332843D01*
X107903Y333243D01*
X107103Y332843D01*
X128668Y48720D02*
X129469Y49520D01*
X130269Y48720D01*
X129469Y47921D01*
X128668Y48720D01*
X118668D02*
X119468Y49520D01*
X120268Y48720D01*
X119468Y47921D01*
X118668Y48720D01*
X138669Y27920D02*
Y29520D01*
X140269D01*
Y27920D01*
X138669D01*
X139068Y28321D02*
Y29120D01*
X139868D01*
Y28321D01*
X139068D01*
X98668Y27920D02*
Y29520D01*
X100268D01*
Y27920D01*
X98668D01*
X99068Y28321D02*
Y29120D01*
X99869D01*
Y28321D01*
X99068D01*
X65499Y48720D02*
X66299Y49520D01*
X67099Y48720D01*
X66299Y47921D01*
X65499Y48720D01*
X55499D02*
X56299Y49520D01*
X57099Y48720D01*
X56299Y47921D01*
X55499Y48720D01*
X75499Y27920D02*
Y29520D01*
X77099D01*
Y27920D01*
X75499D01*
X75899Y28321D02*
Y29120D01*
X76699D01*
Y28321D01*
X75899D01*
X35499Y27920D02*
Y29520D01*
X37099D01*
Y27920D01*
X35499D01*
X35899Y28321D02*
Y29120D01*
X36699D01*
Y28321D01*
X35899D01*
X372444Y62628D02*
X371644Y64228D01*
X373244D01*
X372444Y62628D01*
Y63028D02*
X372044Y63828D01*
X372844D01*
X372444Y63028D01*
X392129Y62628D02*
X391329Y64228D01*
X392929D01*
X392129Y62628D01*
Y63028D02*
X391729Y63828D01*
X392529D01*
X392129Y63028D01*
X372444Y5541D02*
X371644Y7141D01*
X373244D01*
X372444Y5541D01*
Y5941D02*
X372044Y6741D01*
X372844D01*
X372444Y5941D01*
X382287Y5541D02*
X381487Y7141D01*
X383087D01*
X382287Y5541D01*
Y5941D02*
X381887Y6741D01*
X382687D01*
X382287Y5941D01*
X392129Y5541D02*
X391329Y7141D01*
X392929D01*
X392129Y5541D01*
Y5941D02*
X391729Y6741D01*
X392529D01*
X392129Y5941D01*
X231303Y13443D02*
X231703Y13843D01*
X232103D01*
X231703Y14243D01*
X232103Y14643D01*
X231703D01*
X231303Y15043D01*
X230903Y14643D01*
X230503D01*
X230903Y14243D01*
X230503Y13843D01*
X230903D01*
X231303Y13443D01*
Y13843D02*
X231503Y14043D01*
X231703D01*
X231503Y14243D01*
X231703Y14443D01*
X231503D01*
X231303Y14643D01*
X231103Y14443D01*
X230903D01*
X231103Y14243D01*
X230903Y14043D01*
X231103D01*
X231303Y13843D01*
X211618Y13443D02*
X212018Y13843D01*
X212418D01*
X212018Y14243D01*
X212418Y14643D01*
X212018D01*
X211618Y15043D01*
X211218Y14643D01*
X210818D01*
X211218Y14243D01*
X210818Y13843D01*
X211218D01*
X211618Y13443D01*
Y13843D02*
X211818Y14043D01*
X212018D01*
X211818Y14243D01*
X212018Y14443D01*
X211818D01*
X211618Y14643D01*
X211418Y14443D01*
X211218D01*
X211418Y14243D01*
X211218Y14043D01*
X211418D01*
X211618Y13843D01*
X234440Y2813D02*
X234840Y3613D01*
X234440Y4413D01*
X235240Y4013D01*
X236040Y4413D01*
X235640Y3613D01*
X236040Y2813D01*
X235240Y3213D01*
X234440Y2813D01*
X234840Y3213D02*
X235040Y3613D01*
X234840Y4013D01*
X235240Y3813D01*
X235640Y4013D01*
X235440Y3613D01*
X235640Y3213D01*
X235240Y3413D01*
X234840Y3213D01*
X206881Y2813D02*
X207281Y3613D01*
X206881Y4413D01*
X207681Y4013D01*
X208481Y4413D01*
X208081Y3613D01*
X208481Y2813D01*
X207681Y3213D01*
X206881Y2813D01*
X207281Y3213D02*
X207481Y3613D01*
X207281Y4013D01*
X207681Y3813D01*
X208081Y4013D01*
X207881Y3613D01*
X208081Y3213D01*
X207681Y3413D01*
X207281Y3213D01*
X293774Y357178D02*
Y358778D01*
X295374D01*
Y357178D01*
X293774D01*
X288853D02*
Y358778D01*
X290453D01*
Y357178D01*
X288853D01*
X236097Y354714D02*
Y356314D01*
X237697D01*
Y354714D01*
X236097D01*
X231176D02*
Y356314D01*
X232776D01*
Y354714D01*
X231176D01*
X250227Y357903D02*
X250627Y358703D01*
X250227Y359503D01*
X251027Y359103D01*
X251827Y359503D01*
X251427Y358703D01*
X251827Y357903D01*
X251027Y358303D01*
X250227Y357903D01*
X260227D02*
X260627Y358703D01*
X260227Y359503D01*
X261027Y359103D01*
X261827Y359503D01*
X261427Y358703D01*
X261827Y357903D01*
X261027Y358303D01*
X260227Y357903D01*
X270227D02*
X270627Y358703D01*
X270227Y359503D01*
X271027Y359103D01*
X271827Y359503D01*
X271427Y358703D01*
X271827Y357903D01*
X271027Y358303D01*
X270227Y357903D01*
X16521Y107923D02*
X16921Y108723D01*
X16521Y109523D01*
X17321Y109123D01*
X18121Y109523D01*
X17721Y108723D01*
X18121Y107923D01*
X17321Y108323D01*
X16521Y107923D01*
Y117923D02*
X16921Y118723D01*
X16521Y119523D01*
X17321Y119123D01*
X18121Y119523D01*
X17721Y118723D01*
X18121Y117923D01*
X17321Y118323D01*
X16521Y117923D01*
Y127923D02*
X16921Y128723D01*
X16521Y129523D01*
X17321Y129123D01*
X18121Y129523D01*
X17721Y128723D01*
X18121Y127923D01*
X17321Y128323D01*
X16521Y127923D01*
X6521Y107923D02*
X6921Y108723D01*
X6521Y109523D01*
X7321Y109123D01*
X8121Y109523D01*
X7721Y108723D01*
X8121Y107923D01*
X7321Y108323D01*
X6521Y107923D01*
Y117923D02*
X6921Y118723D01*
X6521Y119523D01*
X7321Y119123D01*
X8121Y119523D01*
X7721Y118723D01*
X8121Y117923D01*
X7321Y118323D01*
X6521Y117923D01*
Y127923D02*
X6921Y128723D01*
X6521Y129523D01*
X7321Y129123D01*
X8121Y129523D01*
X7721Y128723D01*
X8121Y127923D01*
X7321Y128323D01*
X6521Y127923D01*
X14503Y207243D02*
X14903D01*
X15303Y207643D01*
X15703Y207243D01*
X16103D01*
Y207643D01*
X15703Y208043D01*
X16103Y208443D01*
Y208843D01*
X15703D01*
X15303Y208443D01*
X14903Y208843D01*
X14503D01*
Y208443D01*
X14903Y208043D01*
X14503Y207643D01*
Y207243D01*
Y187243D02*
X14903D01*
X15303Y187643D01*
X15703Y187243D01*
X16103D01*
Y187643D01*
X15703Y188043D01*
X16103Y188443D01*
Y188843D01*
X15703D01*
X15303Y188443D01*
X14903Y188843D01*
X14503D01*
Y188443D01*
X14903Y188043D01*
X14503Y187643D01*
Y187243D01*
Y177243D02*
X14903D01*
X15303Y177643D01*
X15703Y177243D01*
X16103D01*
Y177643D01*
X15703Y178043D01*
X16103Y178443D01*
Y178843D01*
X15703D01*
X15303Y178443D01*
X14903Y178843D01*
X14503D01*
Y178443D01*
X14903Y178043D01*
X14503Y177643D01*
Y177243D01*
Y197243D02*
X14903D01*
X15303Y197643D01*
X15703Y197243D01*
X16103D01*
Y197643D01*
X15703Y198043D01*
X16103Y198443D01*
Y198843D01*
X15703D01*
X15303Y198443D01*
X14903Y198843D01*
X14503D01*
Y198443D01*
X14903Y198043D01*
X14503Y197643D01*
Y197243D01*
Y217243D02*
X14903D01*
X15303Y217643D01*
X15703Y217243D01*
X16103D01*
Y217643D01*
X15703Y218043D01*
X16103Y218443D01*
Y218843D01*
X15703D01*
X15303Y218443D01*
X14903Y218843D01*
X14503D01*
Y218443D01*
X14903Y218043D01*
X14503Y217643D01*
Y217243D01*
Y227243D02*
X14903D01*
X15303Y227643D01*
X15703Y227243D01*
X16103D01*
Y227643D01*
X15703Y228043D01*
X16103Y228443D01*
Y228843D01*
X15703D01*
X15303Y228443D01*
X14903Y228843D01*
X14503D01*
Y228443D01*
X14903Y228043D01*
X14503Y227643D01*
Y227243D01*
X15351Y352791D02*
Y352391D01*
X16151D01*
Y352791D01*
X16551D01*
Y353591D01*
X16151D01*
Y353991D01*
X15351D01*
Y353591D01*
X14951D01*
Y352791D01*
X15351D01*
X15551Y352991D02*
Y352791D01*
X15951D01*
Y352991D01*
X16151D01*
Y353391D01*
X15951D01*
Y353591D01*
X15551D01*
Y353391D01*
X15351D01*
Y352991D01*
X15551D01*
X420863Y352791D02*
Y352391D01*
X421663D01*
Y352791D01*
X422063D01*
Y353591D01*
X421663D01*
Y353991D01*
X420863D01*
Y353591D01*
X420463D01*
Y352791D01*
X420863D01*
X421063Y352991D02*
Y352791D01*
X421463D01*
Y352991D01*
X421663D01*
Y353391D01*
X421463D01*
Y353591D01*
X421063D01*
Y353391D01*
X420863D01*
Y352991D01*
X421063D01*
X384400Y359084D02*
X384800Y359884D01*
X384400Y360684D01*
X385200Y360284D01*
X386000Y360684D01*
X385600Y359884D01*
X386000Y359084D01*
X385200Y359484D01*
X384400Y359084D01*
X394400D02*
X394800Y359884D01*
X394400Y360684D01*
X395200Y360284D01*
X396000Y360684D01*
X395600Y359884D01*
X396000Y359084D01*
X395200Y359484D01*
X394400Y359084D01*
X374400D02*
X374800Y359884D01*
X374400Y360684D01*
X375200Y360284D01*
X376000Y360684D01*
X375600Y359884D01*
X376000Y359084D01*
X375200Y359484D01*
X374400Y359084D01*
X15351Y14209D02*
Y13809D01*
X16151D01*
Y14209D01*
X16551D01*
Y15009D01*
X16151D01*
Y15409D01*
X15351D01*
Y15009D01*
X14951D01*
Y14209D01*
X15351D01*
X15551Y14409D02*
Y14209D01*
X15951D01*
Y14409D01*
X16151D01*
Y14809D01*
X15951D01*
Y15009D01*
X15551D01*
Y14809D01*
X15351D01*
Y14409D01*
X15551D01*
X420863Y14209D02*
Y13809D01*
X421663D01*
Y14209D01*
X422063D01*
Y15009D01*
X421663D01*
Y15409D01*
X420863D01*
Y15009D01*
X420463D01*
Y14209D01*
X420863D01*
X421063Y14409D02*
Y14209D01*
X421463D01*
Y14409D01*
X421663D01*
Y14809D01*
X421463D01*
Y15009D01*
X421063D01*
Y14809D01*
X420863D01*
Y14409D01*
X421063D01*
X304715Y54360D02*
X305115D01*
X305515Y54760D01*
X305915Y54360D01*
X306315D01*
Y54760D01*
X305915Y55160D01*
X306315Y55560D01*
Y55960D01*
X305915D01*
X305515Y55560D01*
X305115Y55960D01*
X304715D01*
Y55560D01*
X305115Y55160D01*
X304715Y54760D01*
Y54360D01*
X305115Y54760D02*
X305315D01*
X305515Y54960D01*
X305715Y54760D01*
X305915D01*
Y54960D01*
X305715Y55160D01*
X305915Y55360D01*
Y55560D01*
X305715D01*
X305515Y55360D01*
X305315Y55560D01*
X305115D01*
Y55360D01*
X305315Y55160D01*
X305115Y54960D01*
Y54760D01*
X305515Y31538D02*
Y32871D01*
X306181Y33537D01*
X306848Y32871D01*
Y31538D01*
Y32537D01*
X305515D01*
X324019Y43349D02*
Y44682D01*
X324685Y45348D01*
X325352Y44682D01*
Y43349D01*
Y44348D01*
X324019D01*
X362881Y318393D02*
Y319993D01*
X364481D01*
Y318393D01*
X362881D01*
X232579Y162236D02*
Y160236D01*
X233578D01*
X233912Y160570D01*
Y160903D01*
X233578Y161236D01*
X232579D01*
X233578D01*
X233912Y161569D01*
Y161902D01*
X233578Y162236D01*
X232579D01*
X238287D02*
Y160236D01*
X239287D01*
X239620Y160570D01*
Y160903D01*
X239287Y161236D01*
X238287D01*
X239287D01*
X239620Y161569D01*
Y161902D01*
X239287Y162236D01*
X238287D01*
X264370Y165287D02*
Y163287D01*
X265370D01*
X265703Y163621D01*
Y163954D01*
X265370Y164287D01*
X264370D01*
X265370D01*
X265703Y164620D01*
Y164953D01*
X265370Y165287D01*
X264370D01*
X258550Y319279D02*
Y320879D01*
X260150D01*
Y319279D01*
X258550D01*
X253235Y319968D02*
Y321568D01*
X254835D01*
Y319968D01*
X253235D01*
X317605Y318984D02*
Y320584D01*
X319205D01*
Y318984D01*
X317605D01*
X310420Y319279D02*
Y320879D01*
X312020D01*
Y319279D01*
X310420D01*
X278803Y66943D02*
Y64943D01*
X279803D01*
X280136Y65276D01*
Y65610D01*
X279803Y65943D01*
X278803D01*
X279803D01*
X280136Y66276D01*
Y66609D01*
X279803Y66943D01*
X278803D01*
X52264Y266369D02*
Y264370D01*
X53263D01*
X53597Y264703D01*
Y265037D01*
X53263Y265370D01*
X52264D01*
X53263D01*
X53597Y265703D01*
Y266036D01*
X53263Y266369D01*
X52264D01*
X50492Y271192D02*
Y269193D01*
X51492D01*
X51825Y269526D01*
Y269859D01*
X51492Y270193D01*
X50492D01*
X51492D01*
X51825Y270526D01*
Y270859D01*
X51492Y271192D01*
X50492D01*
X247441Y171684D02*
Y169685D01*
X248441D01*
X248774Y170018D01*
Y170352D01*
X248441Y170685D01*
X247441D01*
X248441D01*
X248774Y171018D01*
Y171351D01*
X248441Y171684D01*
X247441D01*
X283403Y178543D02*
Y180143D01*
X285003D01*
Y178543D01*
X283403D01*
X253297Y168349D02*
Y166349D01*
X254297D01*
X254630Y166683D01*
Y167016D01*
X254297Y167349D01*
X253297D01*
X254297D01*
X254630Y167682D01*
Y168016D01*
X254297Y168349D01*
X253297D01*
X258503Y169543D02*
Y167543D01*
X259503D01*
X259836Y167877D01*
Y168210D01*
X259503Y168543D01*
X258503D01*
X259503D01*
X259836Y168876D01*
Y169209D01*
X259503Y169543D01*
X258503D01*
X217303Y157343D02*
Y155343D01*
X218303D01*
X218636Y155676D01*
Y156010D01*
X218303Y156343D01*
X217303D01*
X218303D01*
X218636Y156676D01*
Y157009D01*
X218303Y157343D01*
X217303D01*
X231403Y182243D02*
Y183843D01*
X233003D01*
Y182243D01*
X231403D01*
X237603Y190943D02*
Y188943D01*
X238603D01*
X238936Y189277D01*
Y189610D01*
X238603Y189943D01*
X237603D01*
X238603D01*
X238936Y190276D01*
Y190609D01*
X238603Y190943D01*
X237603D01*
Y197243D02*
Y195243D01*
X238603D01*
X238936Y195577D01*
Y195910D01*
X238603Y196243D01*
X237603D01*
X238603D01*
X238936Y196576D01*
Y196909D01*
X238603Y197243D01*
X237603D01*
X130203Y210043D02*
Y211643D01*
X131803D01*
Y210043D01*
X130203D01*
X236803Y180843D02*
Y178843D01*
X237803D01*
X238136Y179176D01*
Y179510D01*
X237803Y179843D01*
X236803D01*
X237803D01*
X238136Y180176D01*
Y180509D01*
X237803Y180843D01*
X236803D01*
X212403Y157243D02*
Y155243D01*
X213403D01*
X213736Y155577D01*
Y155910D01*
X213403Y156243D01*
X212403D01*
X213403D01*
X213736Y156576D01*
Y156909D01*
X213403Y157243D01*
X212403D01*
X189119Y165387D02*
Y166987D01*
X190719D01*
Y165387D01*
X189119D01*
X202103Y157643D02*
Y155643D01*
X203103D01*
X203436Y155976D01*
Y156310D01*
X203103Y156643D01*
X202103D01*
X203103D01*
X203436Y156976D01*
Y157309D01*
X203103Y157643D01*
X202103D01*
X185403Y207043D02*
Y208643D01*
X187003D01*
Y207043D01*
X185403D01*
X179841Y204743D02*
Y202743D01*
X180841D01*
X181174Y203077D01*
Y203410D01*
X180841Y203743D01*
X179841D01*
X180841D01*
X181174Y204076D01*
Y204409D01*
X180841Y204743D01*
X179841D01*
X103962Y66249D02*
Y67849D01*
X105562D01*
Y66249D01*
X103962D01*
X78803Y58762D02*
Y60362D01*
X80403D01*
Y58762D01*
X78803D01*
X103986Y60343D02*
Y61943D01*
X105586D01*
Y60343D01*
X103986D01*
X176403Y16443D02*
Y14443D01*
X177403D01*
X177736Y14776D01*
Y15110D01*
X177403Y15443D01*
X176403D01*
X177403D01*
X177736Y15776D01*
Y16109D01*
X177403Y16443D01*
X176403D01*
X162703Y16543D02*
Y14543D01*
X163703D01*
X164036Y14876D01*
Y15210D01*
X163703Y15543D01*
X162703D01*
X163703D01*
X164036Y15876D01*
Y16209D01*
X163703Y16543D01*
X162703D01*
X193003Y212643D02*
Y210643D01*
X194003D01*
X194336Y210977D01*
Y211310D01*
X194003Y211643D01*
X193003D01*
X194003D01*
X194336Y211976D01*
Y212309D01*
X194003Y212643D01*
X193003D01*
X203503Y222243D02*
Y220243D01*
X204503D01*
X204836Y220577D01*
Y220910D01*
X204503Y221243D01*
X203503D01*
X204503D01*
X204836Y221576D01*
Y221909D01*
X204503Y222243D01*
X203503D01*
X197803Y222143D02*
Y220143D01*
X198803D01*
X199136Y220477D01*
Y220810D01*
X198803Y221143D01*
X197803D01*
X198803D01*
X199136Y221476D01*
Y221809D01*
X198803Y222143D01*
X197803D01*
X154328Y29062D02*
Y27062D01*
X155327D01*
X155660Y27395D01*
Y27729D01*
X155327Y28062D01*
X154328D01*
X155327D01*
X155660Y28395D01*
Y28728D01*
X155327Y29062D01*
X154328D01*
X183459Y146643D02*
Y144643D01*
X184459D01*
X184792Y144976D01*
Y145310D01*
X184459Y145643D01*
X183459D01*
X184459D01*
X184792Y145976D01*
Y146309D01*
X184459Y146643D01*
X183459D01*
X228203Y147243D02*
Y145243D01*
X229203D01*
X229536Y145577D01*
Y145910D01*
X229203Y146243D01*
X228203D01*
X229203D01*
X229536Y146576D01*
Y146909D01*
X229203Y147243D01*
X228203D01*
X242703Y226143D02*
Y224143D01*
X243703D01*
X244036Y224477D01*
Y224810D01*
X243703Y225143D01*
X242703D01*
X243703D01*
X244036Y225476D01*
Y225809D01*
X243703Y226143D01*
X242703D01*
X236403Y226343D02*
Y224343D01*
X237403D01*
X237736Y224676D01*
Y225010D01*
X237403Y225343D01*
X236403D01*
X237403D01*
X237736Y225676D01*
Y226009D01*
X237403Y226343D01*
X236403D01*
X250503Y235043D02*
Y233043D01*
X251503D01*
X251836Y233377D01*
Y233710D01*
X251503Y234043D01*
X250503D01*
X251503D01*
X251836Y234376D01*
Y234709D01*
X251503Y235043D01*
X250503D01*
X208996Y231373D02*
Y229374D01*
X209996D01*
X210329Y229707D01*
Y230041D01*
X209996Y230374D01*
X208996D01*
X209996D01*
X210329Y230707D01*
Y231040D01*
X209996Y231373D01*
X208996D01*
X343873Y347011D02*
Y348611D01*
X345473D01*
Y347011D01*
X343873D01*
X283203Y345543D02*
Y347143D01*
X284803D01*
Y345543D01*
X283203D01*
X226403Y344643D02*
Y346243D01*
X228003D01*
Y344643D01*
X226403D01*
X198503Y333943D02*
Y331943D01*
X199503D01*
X199836Y332277D01*
Y332610D01*
X199503Y332943D01*
X198503D01*
X199503D01*
X199836Y333276D01*
Y333609D01*
X199503Y333943D01*
X198503D01*
X330803Y330043D02*
Y331643D01*
X332403D01*
Y330043D01*
X330803D01*
X254203Y313943D02*
Y315543D01*
X255803D01*
Y313943D01*
X254203D01*
X172303Y168187D02*
Y166187D01*
X173303D01*
X173636Y166521D01*
Y166854D01*
X173303Y167187D01*
X172303D01*
X173303D01*
X173636Y167520D01*
Y167853D01*
X173303Y168187D01*
X172303D01*
X177903Y168143D02*
Y166143D01*
X178903D01*
X179236Y166477D01*
Y166810D01*
X178903Y167143D01*
X177903D01*
X178903D01*
X179236Y167476D01*
Y167809D01*
X178903Y168143D01*
X177903D01*
X168603Y148843D02*
Y146843D01*
X169603D01*
X169936Y147177D01*
Y147510D01*
X169603Y147843D01*
X168603D01*
X169603D01*
X169936Y148176D01*
Y148509D01*
X169603Y148843D01*
X168603D01*
X180203Y155943D02*
Y153943D01*
X181203D01*
X181536Y154277D01*
Y154610D01*
X181203Y154943D01*
X180203D01*
X181203D01*
X181536Y155276D01*
Y155609D01*
X181203Y155943D01*
X180203D01*
X175103Y175243D02*
Y173243D01*
X176103D01*
X176436Y173576D01*
Y173910D01*
X176103Y174243D01*
X175103D01*
X176103D01*
X176436Y174576D01*
Y174909D01*
X176103Y175243D01*
X175103D01*
X183503Y167843D02*
Y165843D01*
X184503D01*
X184836Y166176D01*
Y166510D01*
X184503Y166843D01*
X183503D01*
X184503D01*
X184836Y167176D01*
Y167509D01*
X184503Y167843D01*
X183503D01*
X185903Y158843D02*
Y156843D01*
X186903D01*
X187236Y157176D01*
Y157510D01*
X186903Y157843D01*
X185903D01*
X186903D01*
X187236Y158176D01*
Y158509D01*
X186903Y158843D01*
X185903D01*
X171665Y187443D02*
Y185443D01*
X172665D01*
X172998Y185776D01*
Y186110D01*
X172665Y186443D01*
X171665D01*
X172665D01*
X172998Y186776D01*
Y187109D01*
X172665Y187443D01*
X171665D01*
X159403Y186843D02*
Y184843D01*
X160403D01*
X160736Y185177D01*
Y185510D01*
X160403Y185843D01*
X159403D01*
X160403D01*
X160736Y186176D01*
Y186509D01*
X160403Y186843D01*
X159403D01*
X234003Y175843D02*
Y173843D01*
X235003D01*
X235336Y174177D01*
Y174510D01*
X235003Y174843D01*
X234003D01*
X235003D01*
X235336Y175176D01*
Y175509D01*
X235003Y175843D01*
X234003D01*
X228403Y175943D02*
Y173943D01*
X229403D01*
X229736Y174276D01*
Y174610D01*
X229403Y174943D01*
X228403D01*
X229403D01*
X229736Y175276D01*
Y175609D01*
X229403Y175943D01*
X228403D01*
X222303D02*
Y173943D01*
X223303D01*
X223636Y174276D01*
Y174610D01*
X223303Y174943D01*
X222303D01*
X223303D01*
X223636Y175276D01*
Y175609D01*
X223303Y175943D01*
X222303D01*
X258103Y237735D02*
Y235736D01*
X259103D01*
X259436Y236069D01*
Y236402D01*
X259103Y236736D01*
X258103D01*
X259103D01*
X259436Y237069D01*
Y237402D01*
X259103Y237735D01*
X258103D01*
X173759Y182243D02*
Y180243D01*
X174759D01*
X175092Y180577D01*
Y180910D01*
X174759Y181243D01*
X173759D01*
X174759D01*
X175092Y181576D01*
Y181909D01*
X174759Y182243D01*
X173759D01*
X247503Y246843D02*
Y248443D01*
X249103D01*
Y246843D01*
X247503D01*
X287392Y311840D02*
Y313440D01*
X288992D01*
Y311840D01*
X287392D01*
X240582Y267943D02*
Y269543D01*
X242182D01*
Y267943D01*
X240582D01*
X347203Y318043D02*
Y319643D01*
X348803D01*
Y318043D01*
X347203D01*
X262033Y84773D02*
Y82774D01*
X263033D01*
X263366Y83107D01*
Y83440D01*
X263033Y83773D01*
X262033D01*
X263033D01*
X263366Y84106D01*
Y84440D01*
X263033Y84773D01*
X262033D01*
X241403Y136643D02*
Y134643D01*
X242403D01*
X242736Y134976D01*
Y135310D01*
X242403Y135643D01*
X241403D01*
X242403D01*
X242736Y135976D01*
Y136309D01*
X242403Y136643D01*
X241403D01*
X233103Y41743D02*
Y39743D01*
X234103D01*
X234436Y40077D01*
Y40410D01*
X234103Y40743D01*
X233103D01*
X234103D01*
X234436Y41076D01*
Y41409D01*
X234103Y41743D01*
X233103D01*
X227303Y25643D02*
Y23643D01*
X228303D01*
X228636Y23977D01*
Y24310D01*
X228303Y24643D01*
X227303D01*
X228303D01*
X228636Y24976D01*
Y25309D01*
X228303Y25643D01*
X227303D01*
X252803Y44243D02*
Y42243D01*
X253803D01*
X254136Y42577D01*
Y42910D01*
X253803Y43243D01*
X252803D01*
X253803D01*
X254136Y43576D01*
Y43909D01*
X253803Y44243D01*
X252803D01*
X266503Y52143D02*
Y50143D01*
X267503D01*
X267836Y50476D01*
Y50810D01*
X267503Y51143D01*
X266503D01*
X267503D01*
X267836Y51476D01*
Y51809D01*
X267503Y52143D01*
X266503D01*
X195840Y50106D02*
Y48106D01*
X196840D01*
X197173Y48439D01*
Y48773D01*
X196840Y49106D01*
X195840D01*
X196840D01*
X197173Y49439D01*
Y49772D01*
X196840Y50106D01*
X195840D01*
X130223Y181287D02*
Y179287D01*
X131222D01*
X131556Y179621D01*
Y179954D01*
X131222Y180287D01*
X130223D01*
X131222D01*
X131556Y180620D01*
Y180954D01*
X131222Y181287D01*
X130223D01*
X131010Y186011D02*
Y184012D01*
X132010D01*
X132343Y184345D01*
Y184678D01*
X132010Y185011D01*
X131010D01*
X132010D01*
X132343Y185345D01*
Y185678D01*
X132010Y186011D01*
X131010D01*
X130616Y175775D02*
Y173776D01*
X131616D01*
X131949Y174109D01*
Y174442D01*
X131616Y174775D01*
X130616D01*
X131616D01*
X131949Y175109D01*
Y175442D01*
X131616Y175775D01*
X130616D01*
X130223Y170657D02*
Y168658D01*
X131222D01*
X131556Y168991D01*
Y169324D01*
X131222Y169657D01*
X130223D01*
X131222D01*
X131556Y169990D01*
Y170324D01*
X131222Y170657D01*
X130223D01*
X72903Y249543D02*
Y247543D01*
X73903D01*
X74236Y247877D01*
Y248210D01*
X73903Y248543D01*
X72903D01*
X73903D01*
X74236Y248876D01*
Y249209D01*
X73903Y249543D01*
X72903D01*
X72916Y257530D02*
Y255531D01*
X73916D01*
X74249Y255864D01*
Y256197D01*
X73916Y256530D01*
X72916D01*
X73916D01*
X74249Y256863D01*
Y257197D01*
X73916Y257530D01*
X72916D01*
X256795Y156077D02*
Y154077D01*
X257794D01*
X258127Y154410D01*
Y154744D01*
X257794Y155077D01*
X256795D01*
X257794D01*
X258127Y155410D01*
Y155743D01*
X257794Y156077D01*
X256795D01*
X247247Y162277D02*
Y160278D01*
X248247D01*
X248580Y160611D01*
Y160944D01*
X248247Y161278D01*
X247247D01*
X248247D01*
X248580Y161611D01*
Y161944D01*
X248247Y162277D01*
X247247D01*
X207484Y41805D02*
Y39805D01*
X208483D01*
X208816Y40139D01*
Y40472D01*
X208483Y40805D01*
X207484D01*
X208483D01*
X208816Y41138D01*
Y41472D01*
X208483Y41805D01*
X207484D01*
X230306Y318139D02*
Y319739D01*
X231906D01*
Y318139D01*
X230306D01*
X247235Y324439D02*
Y326039D01*
X248835D01*
Y324439D01*
X247235D01*
X230699Y313021D02*
Y314621D01*
X232299D01*
Y313021D01*
X230699D01*
X223219Y324439D02*
Y326039D01*
X224819D01*
Y324439D01*
X223219D01*
X222431Y330738D02*
Y332338D01*
X224031D01*
Y330738D01*
X222431D01*
X222038Y337824D02*
Y339424D01*
X223638D01*
Y337824D01*
X222038D01*
X242510Y316958D02*
Y318558D01*
X244110D01*
Y316958D01*
X242510D01*
X311014Y312234D02*
Y313834D01*
X312614D01*
Y312234D01*
X311014D01*
X231487Y332706D02*
Y334306D01*
X233087D01*
Y332706D01*
X231487D01*
X269676Y342155D02*
Y343755D01*
X271276D01*
Y342155D01*
X269676D01*
X270069Y331525D02*
Y333125D01*
X271669D01*
Y331525D01*
X270069D01*
X286211Y316958D02*
Y318558D01*
X287811D01*
Y316958D01*
X286211D01*
X196066Y157947D02*
Y155947D01*
X197066D01*
X197399Y156281D01*
Y156614D01*
X197066Y156947D01*
X196066D01*
X197066D01*
X197399Y157280D01*
Y157613D01*
X197066Y157947D01*
X196066D01*
X255502Y256589D02*
Y258189D01*
X257102D01*
Y256589D01*
X255502D01*
X263376Y252333D02*
Y253933D01*
X264976D01*
Y252333D01*
X263376D01*
X272787Y251604D02*
Y253204D01*
X274387D01*
Y251604D01*
X272787D01*
X307471Y244911D02*
Y246511D01*
X309071D01*
Y244911D01*
X307471D01*
X288573Y333100D02*
Y334700D01*
X290173D01*
Y333100D01*
X288573D01*
X282274Y324439D02*
Y326039D01*
X283874D01*
Y324439D01*
X282274D01*
X299991Y316565D02*
Y318165D01*
X301590D01*
Y316565D01*
X299991D01*
X303534Y324853D02*
Y326453D01*
X305134D01*
Y324853D01*
X303534D01*
X299991Y266565D02*
Y268165D01*
X301590D01*
Y266565D01*
X299991D01*
X278239Y339005D02*
Y340605D01*
X279839D01*
Y339005D01*
X278239D01*
X281546Y330010D02*
Y331610D01*
X283146D01*
Y330010D01*
X281546D01*
X315739Y251210D02*
Y252810D01*
X317339D01*
Y251210D01*
X315739D01*
X322825Y247667D02*
Y249267D01*
X324425D01*
Y247667D01*
X322825D01*
X332274D02*
Y249267D01*
X333874D01*
Y247667D01*
X332274D01*
X255794Y269079D02*
Y270679D01*
X257394D01*
Y269079D01*
X255794D01*
X263464Y269188D02*
Y270788D01*
X265064D01*
Y269188D01*
X263464D01*
X272825Y269321D02*
Y270920D01*
X274425D01*
Y269321D01*
X272825D01*
X374794D02*
Y270920D01*
X376394D01*
Y269321D01*
X374794D01*
X315739Y268927D02*
Y270527D01*
X317339D01*
Y268927D01*
X315739D01*
X323613D02*
Y270527D01*
X325213D01*
Y268927D01*
X323613D01*
X332274D02*
Y270527D01*
X333874D01*
Y268927D01*
X332274D01*
X293407Y328480D02*
X293074Y328813D01*
X292408D01*
X292074Y328480D01*
Y327147D01*
X292408Y326813D01*
X293074D01*
X293407Y327147D01*
X296734Y328480D02*
X296401Y328813D01*
X295735D01*
X295401Y328480D01*
Y327147D01*
X295735Y326813D01*
X296401D01*
X296734Y327147D01*
X139767Y333537D02*
Y331538D01*
X140767D01*
X141100Y331871D01*
Y332204D01*
X140767Y332538D01*
X139767D01*
X140767D01*
X141100Y332871D01*
Y333204D01*
X140767Y333537D01*
X139767D01*
X210633Y333931D02*
Y331931D01*
X211633D01*
X211966Y332265D01*
Y332598D01*
X211633Y332931D01*
X210633D01*
X211633D01*
X211966Y333264D01*
Y333598D01*
X211633Y333931D01*
X210633D01*
X258303Y143943D02*
Y141943D01*
X259303D01*
X259636Y142277D01*
Y142610D01*
X259303Y142943D01*
X258303D01*
X259303D01*
X259636Y143276D01*
Y143609D01*
X259303Y143943D01*
X258303D01*
X250303Y144143D02*
Y142143D01*
X251303D01*
X251636Y142476D01*
Y142810D01*
X251303Y143143D01*
X250303D01*
X251303D01*
X251636Y143476D01*
Y143809D01*
X251303Y144143D01*
X250303D01*
X250791Y117789D02*
Y115790D01*
X251790D01*
X252123Y116123D01*
Y116456D01*
X251790Y116789D01*
X250791D01*
X251790D01*
X252123Y117123D01*
Y117456D01*
X251790Y117789D01*
X250791D01*
X285603Y143743D02*
Y141743D01*
X286603D01*
X286936Y142077D01*
Y142410D01*
X286603Y142743D01*
X285603D01*
X286603D01*
X286936Y143076D01*
Y143409D01*
X286603Y143743D01*
X285603D01*
X212903Y198543D02*
Y196543D01*
X213903D01*
X214236Y196877D01*
Y197210D01*
X213903Y197543D01*
X212903D01*
X213903D01*
X214236Y197876D01*
Y198209D01*
X213903Y198543D01*
X212903D01*
X239648Y328873D02*
X239314Y329206D01*
X238648D01*
X238315Y328873D01*
Y327540D01*
X238648Y327207D01*
X239314D01*
X239648Y327540D01*
X236321Y328873D02*
X235987Y329206D01*
X235321D01*
X234988Y328873D01*
Y327540D01*
X235321Y327207D01*
X235987D01*
X236321Y327540D01*
X163389Y332750D02*
Y330750D01*
X164389D01*
X164722Y331084D01*
Y331417D01*
X164389Y331750D01*
X163389D01*
X164389D01*
X164722Y332083D01*
Y332417D01*
X164389Y332750D01*
X163389D01*
X175200D02*
Y330750D01*
X176200D01*
X176533Y331084D01*
Y331417D01*
X176200Y331750D01*
X175200D01*
X176200D01*
X176533Y332083D01*
Y332417D01*
X176200Y332750D01*
X175200D01*
X127956Y333537D02*
Y331538D01*
X128956D01*
X129289Y331871D01*
Y332204D01*
X128956Y332538D01*
X127956D01*
X128956D01*
X129289Y332871D01*
Y333204D01*
X128956Y333537D01*
X127956D01*
X259058Y58340D02*
Y56341D01*
X260058D01*
X260391Y56674D01*
Y57007D01*
X260058Y57341D01*
X259058D01*
X260058D01*
X260391Y57674D01*
Y58007D01*
X260058Y58340D01*
X259058D01*
X262602Y133931D02*
Y131931D01*
X263601D01*
X263934Y132265D01*
Y132598D01*
X263601Y132931D01*
X262602D01*
X263601D01*
X263934Y133264D01*
Y133598D01*
X263601Y133931D01*
X262602D01*
X266903Y143843D02*
Y141843D01*
X267903D01*
X268236Y142176D01*
Y142510D01*
X267903Y142843D01*
X266903D01*
X267903D01*
X268236Y143176D01*
Y143509D01*
X267903Y143843D01*
X266903D01*
X268113Y133931D02*
Y131931D01*
X269113D01*
X269446Y132265D01*
Y132598D01*
X269113Y132931D01*
X268113D01*
X269113D01*
X269446Y133264D01*
Y133598D01*
X269113Y133931D01*
X268113D01*
X276303Y143643D02*
Y141643D01*
X277303D01*
X277636Y141976D01*
Y142310D01*
X277303Y142643D01*
X276303D01*
X277303D01*
X277636Y142976D01*
Y143309D01*
X277303Y143643D01*
X276303D01*
X347628Y311840D02*
Y313440D01*
X349228D01*
Y311840D01*
X347628D01*
X339361Y324439D02*
Y326039D01*
X340961D01*
Y324439D01*
X339361D01*
X359007Y328676D02*
X358674Y329010D01*
X358008D01*
X357674Y328676D01*
Y327344D01*
X358008Y327010D01*
X358674D01*
X359007Y327344D01*
X355680Y328676D02*
X355347Y329010D01*
X354681D01*
X354348Y328676D01*
Y327344D01*
X354681Y327010D01*
X355347D01*
X355680Y327344D01*
X338751Y330163D02*
Y331763D01*
X340351D01*
Y330163D01*
X338751D01*
X349991Y331919D02*
Y333519D01*
X351590D01*
Y331919D01*
X349991D01*
X340542Y338612D02*
Y340212D01*
X342142D01*
Y338612D01*
X340542D01*
X330699Y342943D02*
Y344543D01*
X332299D01*
Y342943D01*
X330699D01*
X365739Y243730D02*
Y245330D01*
X367339D01*
Y243730D01*
X365739D01*
X391329Y247273D02*
Y248873D01*
X392929D01*
Y247273D01*
X391329D01*
X380699D02*
Y248873D01*
X382299D01*
Y247273D01*
X380699D01*
X372825Y251604D02*
Y253204D01*
X374425D01*
Y251604D01*
X372825D01*
X357077Y265777D02*
Y267377D01*
X358677D01*
Y265777D01*
X357077D01*
X383455Y269321D02*
Y270920D01*
X385055D01*
Y269321D01*
X383455D01*
X391723D02*
Y270920D01*
X393323D01*
Y269321D01*
X391723D01*
X375187Y312234D02*
Y313834D01*
X376787D01*
Y312234D01*
X375187D01*
X376368Y319321D02*
Y320920D01*
X377969D01*
Y319321D01*
X376368D01*
X371247Y320165D02*
Y321765D01*
X372847D01*
Y320165D01*
X371247D01*
X381880Y319321D02*
Y320920D01*
X383480D01*
Y319321D01*
X381880D01*
X370069Y324832D02*
Y326432D01*
X371669D01*
Y324832D01*
X370069D01*
X397628Y330738D02*
Y332338D01*
X399228D01*
Y330738D01*
X397628D01*
X397235Y342549D02*
Y344149D01*
X398835D01*
Y342549D01*
X397235D01*
X275200Y133931D02*
Y131931D01*
X276200D01*
X276533Y132265D01*
Y132598D01*
X276200Y132931D01*
X275200D01*
X276200D01*
X276533Y133264D01*
Y133598D01*
X276200Y133931D01*
X275200D01*
X319688Y83143D02*
Y81144D01*
X320688D01*
X321021Y81477D01*
Y81811D01*
X320688Y82144D01*
X319688D01*
X320688D01*
X321021Y82477D01*
Y82810D01*
X320688Y83143D01*
X319688D01*
X313783D02*
Y81144D01*
X314782D01*
X315116Y81477D01*
Y81811D01*
X314782Y82144D01*
X313783D01*
X314782D01*
X315116Y82477D01*
Y82810D01*
X314782Y83143D01*
X313783D01*
X301184Y83537D02*
Y81538D01*
X302184D01*
X302517Y81871D01*
Y82204D01*
X302184Y82538D01*
X301184D01*
X302184D01*
X302517Y82871D01*
Y83204D01*
X302184Y83537D01*
X301184D01*
X307484D02*
Y81538D01*
X308483D01*
X308816Y81871D01*
Y82204D01*
X308483Y82538D01*
X307484D01*
X308483D01*
X308816Y82871D01*
Y83204D01*
X308483Y83537D01*
X307484D01*
X300791Y89836D02*
Y87837D01*
X301790D01*
X302123Y88170D01*
Y88503D01*
X301790Y88837D01*
X300791D01*
X301790D01*
X302123Y89170D01*
Y89503D01*
X301790Y89836D01*
X300791D01*
X319688D02*
Y87837D01*
X320688D01*
X321021Y88170D01*
Y88503D01*
X320688Y88837D01*
X319688D01*
X320688D01*
X321021Y89170D01*
Y89503D01*
X320688Y89836D01*
X319688D01*
X307090D02*
Y87837D01*
X308089D01*
X308423Y88170D01*
Y88503D01*
X308089Y88837D01*
X307090D01*
X308089D01*
X308423Y89170D01*
Y89503D01*
X308089Y89836D01*
X307090D01*
X313389D02*
Y87837D01*
X314389D01*
X314722Y88170D01*
Y88503D01*
X314389Y88837D01*
X313389D01*
X314389D01*
X314722Y89170D01*
Y89503D01*
X314389Y89836D01*
X313389D01*
X325987D02*
Y87837D01*
X326987D01*
X327320Y88170D01*
Y88503D01*
X326987Y88837D01*
X325987D01*
X326987D01*
X327320Y89170D01*
Y89503D01*
X326987Y89836D01*
X325987D01*
X286103Y118443D02*
Y116443D01*
X287103D01*
X287436Y116777D01*
Y117110D01*
X287103Y117443D01*
X286103D01*
X287103D01*
X287436Y117776D01*
Y118109D01*
X287103Y118443D01*
X286103D01*
X286003Y126543D02*
Y124543D01*
X287003D01*
X287336Y124876D01*
Y125210D01*
X287003Y125543D01*
X286003D01*
X287003D01*
X287336Y125876D01*
Y126209D01*
X287003Y126543D01*
X286003D01*
X285903Y134643D02*
Y132643D01*
X286903D01*
X287236Y132976D01*
Y133310D01*
X286903Y133643D01*
X285903D01*
X286903D01*
X287236Y133976D01*
Y134309D01*
X286903Y134643D01*
X285903D01*
X263783Y189836D02*
Y187837D01*
X264782D01*
X265116Y188170D01*
Y188504D01*
X264782Y188837D01*
X263783D01*
X264782D01*
X265116Y189170D01*
Y189503D01*
X264782Y189836D01*
X263783D01*
X274019Y194955D02*
Y192955D01*
X275019D01*
X275352Y193288D01*
Y193622D01*
X275019Y193955D01*
X274019D01*
X275019D01*
X275352Y194288D01*
Y194621D01*
X275019Y194955D01*
X274019D01*
X264176Y200073D02*
Y198073D01*
X265176D01*
X265509Y198407D01*
Y198740D01*
X265176Y199073D01*
X264176D01*
X265176D01*
X265509Y199406D01*
Y199739D01*
X265176Y200073D01*
X264176D01*
X284649Y67789D02*
Y65790D01*
X285648D01*
X285982Y66123D01*
Y66456D01*
X285648Y66789D01*
X284649D01*
X285648D01*
X285982Y67123D01*
Y67456D01*
X285648Y67789D01*
X284649D01*
X292523Y69758D02*
Y67758D01*
X293523D01*
X293856Y68091D01*
Y68425D01*
X293523Y68758D01*
X292523D01*
X293523D01*
X293856Y69091D01*
Y69424D01*
X293523Y69758D01*
X292523D01*
X325987Y83143D02*
Y81144D01*
X326987D01*
X327320Y81477D01*
Y81811D01*
X326987Y82144D01*
X325987D01*
X326987D01*
X327320Y82477D01*
Y82810D01*
X326987Y83143D01*
X325987D01*
X272344Y58215D02*
Y56216D01*
X273344D01*
X273677Y56549D01*
Y56882D01*
X273344Y57215D01*
X272344D01*
X273344D01*
X273677Y57549D01*
Y57882D01*
X273344Y58215D01*
X272344D01*
X252759Y208734D02*
Y206735D01*
X253759D01*
X254092Y207068D01*
Y207401D01*
X253759Y207734D01*
X252759D01*
X253759D01*
X254092Y208067D01*
Y208401D01*
X253759Y208734D01*
X252759D01*
X209703Y183443D02*
Y181443D01*
X210703D01*
X211036Y181776D01*
Y182110D01*
X210703Y182443D01*
X209703D01*
X210703D01*
X211036Y182776D01*
Y183109D01*
X210703Y183443D01*
X209703D01*
X221003Y198143D02*
Y196143D01*
X222003D01*
X222336Y196476D01*
Y196810D01*
X222003Y197143D01*
X221003D01*
X222003D01*
X222336Y197476D01*
Y197809D01*
X222003Y198143D01*
X221003D01*
X221303Y190243D02*
Y188243D01*
X222303D01*
X222636Y188576D01*
Y188910D01*
X222303Y189243D01*
X221303D01*
X222303D01*
X222636Y189576D01*
Y189909D01*
X222303Y190243D01*
X221303D01*
D149*
X68039Y247435D02*
G03*
X68039Y247435I-800J0D01*
G01*
X360646Y35868D02*
G03*
X360646Y35868I-800J0D01*
G01*
X405528D02*
G03*
X405528Y35868I-800J0D01*
G01*
D150*
X360246D02*
G03*
X360246Y35868I-400J0D01*
G01*
X405128D02*
G03*
X405128Y35868I-400J0D01*
G01*
M02*
