G04*
G04 #@! TF.GenerationSoftware,Altium Limited,Altium Designer,21.8.1 (53)*
G04*
G04 Layer_Color=8388736*
%FSLAX25Y25*%
%MOIN*%
G70*
G04*
G04 #@! TF.SameCoordinates,BF354A56-4256-46FB-B051-6EC6D42A8B0B*
G04*
G04*
G04 #@! TF.FilePolarity,Negative*
G04*
G01*
G75*
%ADD10C,0.02362*%
%ADD20R,0.04331X0.08071*%
%ADD22R,0.03937X0.02953*%
%ADD23R,0.02894X0.03394*%
%ADD24R,0.03773X0.03963*%
%ADD27R,0.03591X0.04453*%
%ADD30R,0.02953X0.03543*%
G04:AMPARAMS|DCode=31|XSize=26.38mil|YSize=11.81mil|CornerRadius=1.95mil|HoleSize=0mil|Usage=FLASHONLY|Rotation=0.000|XOffset=0mil|YOffset=0mil|HoleType=Round|Shape=RoundedRectangle|*
%AMROUNDEDRECTD31*
21,1,0.02638,0.00791,0,0,0.0*
21,1,0.02248,0.01181,0,0,0.0*
1,1,0.00390,0.01124,-0.00396*
1,1,0.00390,-0.01124,-0.00396*
1,1,0.00390,-0.01124,0.00396*
1,1,0.00390,0.01124,0.00396*
%
%ADD31ROUNDEDRECTD31*%
%ADD32R,0.03543X0.02953*%
%ADD33R,0.03543X0.03150*%
%ADD35R,0.03150X0.03543*%
%ADD39R,0.04182X0.04469*%
%ADD40R,0.02953X0.03937*%
%ADD41R,0.03150X0.03150*%
%ADD42R,0.03788X0.03681*%
%ADD44R,0.05938X0.05534*%
G04:AMPARAMS|DCode=45|XSize=19.68mil|YSize=9.84mil|CornerRadius=1.97mil|HoleSize=0mil|Usage=FLASHONLY|Rotation=270.000|XOffset=0mil|YOffset=0mil|HoleType=Round|Shape=RoundedRectangle|*
%AMROUNDEDRECTD45*
21,1,0.01968,0.00591,0,0,270.0*
21,1,0.01575,0.00984,0,0,270.0*
1,1,0.00394,-0.00295,-0.00787*
1,1,0.00394,-0.00295,0.00787*
1,1,0.00394,0.00295,0.00787*
1,1,0.00394,0.00295,-0.00787*
%
%ADD45ROUNDEDRECTD45*%
%ADD48R,0.03937X0.03937*%
%ADD50R,0.03740X0.03150*%
%ADD51R,0.03150X0.03150*%
%ADD52R,0.05339X0.04152*%
%ADD53R,0.04469X0.04182*%
%ADD54R,0.12598X0.05906*%
%ADD56R,0.08000X0.04500*%
%ADD57R,0.03937X0.03937*%
%ADD58O,0.02756X0.08465*%
%ADD59O,0.08465X0.02756*%
%ADD60R,0.04724X0.07874*%
%ADD61R,0.03150X0.10630*%
%ADD62R,0.03543X0.04134*%
%ADD63R,0.14173X0.12205*%
%ADD64R,0.05118X0.06299*%
%ADD65R,0.01968X0.05709*%
%ADD66R,0.06299X0.07874*%
%ADD67R,0.22047X0.08268*%
%ADD68R,0.04409X0.03386*%
G04:AMPARAMS|DCode=69|XSize=39.37mil|YSize=66.93mil|CornerRadius=3.92mil|HoleSize=0mil|Usage=FLASHONLY|Rotation=270.000|XOffset=0mil|YOffset=0mil|HoleType=Round|Shape=RoundedRectangle|*
%AMROUNDEDRECTD69*
21,1,0.03937,0.05909,0,0,270.0*
21,1,0.03154,0.06693,0,0,270.0*
1,1,0.00784,-0.02955,-0.01577*
1,1,0.00784,-0.02955,0.01577*
1,1,0.00784,0.02955,0.01577*
1,1,0.00784,0.02955,-0.01577*
%
%ADD69ROUNDEDRECTD69*%
%ADD70R,0.01581X0.03038*%
%ADD71R,0.04331X0.03937*%
%ADD72R,0.03937X0.04331*%
%ADD73R,0.04134X0.03543*%
%ADD74R,0.03740X0.03740*%
%ADD75C,0.06394*%
%ADD76R,0.06394X0.06394*%
%ADD77C,0.18110*%
%ADD78C,0.06496*%
%ADD79R,0.06496X0.06496*%
%ADD80C,0.04331*%
%ADD81R,0.04331X0.04331*%
%ADD82R,0.04331X0.04331*%
%ADD83C,0.06299*%
%ADD84R,0.06299X0.06299*%
%ADD85R,0.06181X0.06181*%
%ADD86C,0.06181*%
%ADD87C,0.06693*%
%ADD88R,0.06693X0.06693*%
%ADD89C,0.05512*%
%ADD90R,0.05512X0.05512*%
%ADD91C,0.12008*%
%ADD92R,0.09449X0.12598*%
%ADD93R,0.06299X0.06299*%
%ADD94C,0.06102*%
%ADD95C,0.03937*%
%ADD96R,0.06496X0.06496*%
%ADD97C,0.18701*%
%ADD98R,0.16142X0.06299*%
%ADD99R,0.14173X0.06299*%
%ADD100R,0.06299X0.14173*%
%ADD101C,0.03394*%
%ADD102C,0.01968*%
G36*
X212641Y91504D02*
X212678Y91493D01*
X212712Y91475D01*
X212742Y91450D01*
X212767Y91420D01*
X212785Y91386D01*
X212796Y91349D01*
X212800Y91310D01*
Y83830D01*
X212796Y83791D01*
X212785Y83754D01*
X212767Y83720D01*
X212742Y83690D01*
X212712Y83666D01*
X212678Y83647D01*
X212641Y83636D01*
X212602Y83632D01*
X207484D01*
X207446Y83636D01*
X207409Y83647D01*
X207374Y83666D01*
X207344Y83690D01*
X207320Y83720D01*
X207301Y83754D01*
X207290Y83791D01*
X207287Y83830D01*
Y85601D01*
X205516D01*
X205477Y85604D01*
X205440Y85616D01*
X205406Y85634D01*
X205376Y85659D01*
X205351Y85688D01*
X205333Y85723D01*
X205322Y85760D01*
X205318Y85798D01*
X205318Y89342D01*
Y89342D01*
D01*
X205322Y89380D01*
X205333Y89417D01*
X205351Y89452D01*
X205376Y89482D01*
X205406Y89506D01*
X205440Y89525D01*
X205477Y89536D01*
X205516Y89539D01*
X205516D01*
D01*
X207287D01*
Y91310D01*
X207290Y91349D01*
X207301Y91386D01*
X207320Y91420D01*
X207344Y91450D01*
X207374Y91475D01*
X207409Y91493D01*
X207446Y91504D01*
X207484Y91508D01*
X212602D01*
X212641Y91504D01*
D02*
G37*
G36*
X235869D02*
X235906Y91493D01*
X235941Y91475D01*
X235971Y91450D01*
X235995Y91420D01*
X236014Y91386D01*
X236025Y91349D01*
X236029Y91310D01*
Y89540D01*
X237799D01*
X237838Y89536D01*
X237875Y89525D01*
X237909Y89506D01*
X237939Y89482D01*
X237964Y89452D01*
X237982Y89417D01*
X237993Y89380D01*
X237997Y89342D01*
X237997Y85798D01*
Y85798D01*
D01*
X237993Y85760D01*
X237982Y85723D01*
X237964Y85689D01*
X237939Y85659D01*
X237909Y85634D01*
X237875Y85616D01*
X237838Y85604D01*
X237799Y85601D01*
X237799D01*
D01*
X236029D01*
Y83830D01*
X236025Y83791D01*
X236014Y83754D01*
X235995Y83720D01*
X235971Y83690D01*
X235941Y83666D01*
X235906Y83647D01*
X235869Y83636D01*
X235831Y83632D01*
X230713D01*
X230674Y83636D01*
X230637Y83647D01*
X230603Y83666D01*
X230573Y83690D01*
X230548Y83720D01*
X230530Y83754D01*
X230519Y83791D01*
X230515Y83830D01*
Y91310D01*
X230519Y91349D01*
X230530Y91386D01*
X230548Y91420D01*
X230573Y91450D01*
X230603Y91475D01*
X230637Y91493D01*
X230674Y91504D01*
X230713Y91508D01*
X235831D01*
X235869Y91504D01*
D02*
G37*
D10*
X208469Y85798D02*
G03*
X208469Y85798I-984J0D01*
G01*
Y89342D02*
G03*
X208469Y89342I-984J0D01*
G01*
X236815Y85798D02*
G03*
X236815Y85798I-984J0D01*
G01*
Y89342D02*
G03*
X236815Y89342I-984J0D01*
G01*
D20*
X379546Y415534D02*
D03*
X392539D02*
D03*
X392523Y427699D02*
D03*
X379531D02*
D03*
X313192Y414612D02*
D03*
X326184D02*
D03*
X313586Y427407D02*
D03*
X326578D02*
D03*
X253153Y415888D02*
D03*
X266145D02*
D03*
Y427306D02*
D03*
X253153D02*
D03*
D22*
X302956Y331833D02*
D03*
Y337739D02*
D03*
X242900Y333747D02*
D03*
Y339653D02*
D03*
X361617Y331833D02*
D03*
Y337739D02*
D03*
D23*
X358195Y402896D02*
D03*
X353350D02*
D03*
X234331Y403290D02*
D03*
X239176D02*
D03*
X291084D02*
D03*
X295930D02*
D03*
D24*
X345984Y417123D02*
D03*
Y411408D02*
D03*
X301381Y415203D02*
D03*
Y409487D02*
D03*
X286420Y409094D02*
D03*
Y414809D02*
D03*
X228940Y409589D02*
D03*
Y415304D02*
D03*
X364684Y417123D02*
D03*
Y411408D02*
D03*
X244295Y409195D02*
D03*
Y414911D02*
D03*
D27*
X277365Y161089D02*
D03*
Y156046D02*
D03*
X353350Y347544D02*
D03*
Y342500D02*
D03*
X297000Y342078D02*
D03*
Y347122D02*
D03*
X316735Y346916D02*
D03*
Y341872D02*
D03*
X236814Y349906D02*
D03*
Y344863D02*
D03*
X256499Y344469D02*
D03*
Y349512D02*
D03*
X292916Y391815D02*
D03*
Y396858D02*
D03*
X236420Y397544D02*
D03*
Y392500D02*
D03*
X373822Y347778D02*
D03*
Y342735D02*
D03*
X355334Y391555D02*
D03*
Y396599D02*
D03*
X262405Y209749D02*
D03*
Y204705D02*
D03*
X263192Y160302D02*
D03*
Y155258D02*
D03*
D30*
X212638Y243900D02*
D03*
X217362D02*
D03*
X178138Y269400D02*
D03*
X182862D02*
D03*
X235738Y302700D02*
D03*
X240462D02*
D03*
X187076Y286700D02*
D03*
X191800D02*
D03*
X167525Y98679D02*
D03*
X172250D02*
D03*
X45476Y421006D02*
D03*
X50200D02*
D03*
X84452D02*
D03*
X89176D02*
D03*
D31*
X90100Y146669D02*
D03*
Y144700D02*
D03*
Y142731D02*
D03*
X84273D02*
D03*
Y144700D02*
D03*
Y146669D02*
D03*
D32*
X94800Y145100D02*
D03*
Y149824D02*
D03*
X56398Y348524D02*
D03*
Y353248D02*
D03*
X198300Y295138D02*
D03*
Y299862D02*
D03*
X203400Y295238D02*
D03*
Y299962D02*
D03*
X213693Y303668D02*
D03*
Y308393D02*
D03*
X258800Y260062D02*
D03*
Y255338D02*
D03*
X36421Y404471D02*
D03*
Y409195D02*
D03*
D33*
X100700Y151005D02*
D03*
Y145100D02*
D03*
X203350Y250337D02*
D03*
Y244431D02*
D03*
X253500Y254347D02*
D03*
Y260253D02*
D03*
D35*
X349147Y431900D02*
D03*
X355053D02*
D03*
X288847Y430500D02*
D03*
X294753D02*
D03*
X231600Y429400D02*
D03*
X237506D02*
D03*
X190253Y275100D02*
D03*
X184347D02*
D03*
X259255Y282030D02*
D03*
X253350D02*
D03*
D39*
X241000Y231310D02*
D03*
Y224890D02*
D03*
D40*
X125498Y263244D02*
D03*
X119593D02*
D03*
X125498Y252614D02*
D03*
X119593D02*
D03*
X203047Y228800D02*
D03*
X208953D02*
D03*
D41*
X125498Y267969D02*
D03*
X119593D02*
D03*
X125498Y257732D02*
D03*
X119593D02*
D03*
D42*
X217129Y128880D02*
D03*
Y134513D02*
D03*
X223035Y128880D02*
D03*
Y134513D02*
D03*
X266735Y147384D02*
D03*
Y141751D02*
D03*
X256893Y210043D02*
D03*
Y204410D02*
D03*
D44*
X333271Y338723D02*
D03*
Y346016D02*
D03*
X323822Y338329D02*
D03*
Y345622D02*
D03*
X264373Y347881D02*
D03*
Y340588D02*
D03*
X273822Y347881D02*
D03*
Y340588D02*
D03*
X392326Y338816D02*
D03*
Y346110D02*
D03*
X381696Y338910D02*
D03*
Y346203D02*
D03*
X284846Y162448D02*
D03*
Y155155D02*
D03*
X292720Y157621D02*
D03*
Y164914D02*
D03*
D45*
X296853Y414510D02*
D03*
X294885D02*
D03*
X292916D02*
D03*
X290948D02*
D03*
Y407030D02*
D03*
X292916D02*
D03*
X294885D02*
D03*
X296853D02*
D03*
X239767Y407424D02*
D03*
X237798D02*
D03*
X235830D02*
D03*
X233861D02*
D03*
Y414904D02*
D03*
X235830D02*
D03*
X237798D02*
D03*
X239767D02*
D03*
X359127Y407227D02*
D03*
X357158D02*
D03*
X355190D02*
D03*
X353221D02*
D03*
Y414707D02*
D03*
X355190D02*
D03*
X357158D02*
D03*
X359127D02*
D03*
D48*
X159563Y275700D02*
D03*
X167437D02*
D03*
X349216Y442572D02*
D03*
X289850Y441935D02*
D03*
X232173Y439471D02*
D03*
D50*
X308468Y333605D02*
D03*
Y338329D02*
D03*
X248500Y335538D02*
D03*
Y340262D02*
D03*
X366735Y333211D02*
D03*
Y337935D02*
D03*
D51*
X250987Y204274D02*
D03*
Y210179D02*
D03*
D52*
X306696Y397194D02*
D03*
Y391479D02*
D03*
X249413Y392063D02*
D03*
Y397778D02*
D03*
X362224Y396935D02*
D03*
Y391220D02*
D03*
X369113Y396935D02*
D03*
Y391220D02*
D03*
X275397Y204763D02*
D03*
Y210478D02*
D03*
X268310Y204763D02*
D03*
Y210478D02*
D03*
X242720Y392063D02*
D03*
Y397778D02*
D03*
X299806Y397194D02*
D03*
Y391479D02*
D03*
D53*
X278910Y263500D02*
D03*
X272490D02*
D03*
X251676Y238034D02*
D03*
X245256D02*
D03*
D54*
X196000Y105332D02*
D03*
Y121868D02*
D03*
D56*
X319098Y158933D02*
D03*
Y148433D02*
D03*
D57*
X264500Y252263D02*
D03*
Y260137D02*
D03*
D58*
X207287Y295810D02*
D03*
X210436D02*
D03*
X213586D02*
D03*
X216735D02*
D03*
X219885D02*
D03*
X223035D02*
D03*
X226184D02*
D03*
X229334D02*
D03*
X232483D02*
D03*
X235633D02*
D03*
X238783D02*
D03*
Y250928D02*
D03*
X235633D02*
D03*
X232483D02*
D03*
X229334D02*
D03*
X226184D02*
D03*
X223035D02*
D03*
X219885D02*
D03*
X216735D02*
D03*
X213586D02*
D03*
X210436D02*
D03*
X207287D02*
D03*
D59*
X245476Y289117D02*
D03*
Y285967D02*
D03*
Y282817D02*
D03*
Y279668D02*
D03*
Y276518D02*
D03*
Y273369D02*
D03*
Y270219D02*
D03*
Y267069D02*
D03*
Y263920D02*
D03*
Y260770D02*
D03*
Y257621D02*
D03*
X200594D02*
D03*
Y260770D02*
D03*
Y263920D02*
D03*
Y267069D02*
D03*
Y270219D02*
D03*
Y273369D02*
D03*
Y276518D02*
D03*
Y279668D02*
D03*
Y282817D02*
D03*
Y285967D02*
D03*
Y289117D02*
D03*
D60*
X147641Y438723D02*
D03*
X120476D02*
D03*
X272783Y106363D02*
D03*
X245617D02*
D03*
X191145Y438723D02*
D03*
X218310D02*
D03*
X155909Y438723D02*
D03*
X183074D02*
D03*
D61*
X139964Y424353D02*
D03*
X134058D02*
D03*
X128153D02*
D03*
X265106Y120733D02*
D03*
X259200D02*
D03*
X253294D02*
D03*
X198822Y424353D02*
D03*
X204728D02*
D03*
X210633D02*
D03*
X163586Y424353D02*
D03*
X169491D02*
D03*
X175397D02*
D03*
D62*
X167082Y104600D02*
D03*
X172200D02*
D03*
X253743Y271794D02*
D03*
X258861D02*
D03*
X264176Y276912D02*
D03*
X269295D02*
D03*
X258861Y277404D02*
D03*
X253743D02*
D03*
D63*
X244688Y361361D02*
D03*
Y383014D02*
D03*
X363700Y383753D02*
D03*
Y362100D02*
D03*
X304334Y361462D02*
D03*
Y383116D02*
D03*
X271853Y195809D02*
D03*
Y174156D02*
D03*
D64*
X163091Y110827D02*
D03*
X173130D02*
D03*
X346869Y425092D02*
D03*
X356909D02*
D03*
X294196Y423762D02*
D03*
X284157D02*
D03*
X237503Y422975D02*
D03*
X227464D02*
D03*
D65*
X216539Y98200D02*
D03*
X219098D02*
D03*
X221657D02*
D03*
X224217D02*
D03*
X226776D02*
D03*
D66*
X217721Y87570D02*
D03*
X225594D02*
D03*
D67*
X224802Y215900D02*
D03*
X187400D02*
D03*
D68*
X230192Y123600D02*
D03*
X224208D02*
D03*
X210708Y123700D02*
D03*
X216692D02*
D03*
D69*
X293901Y410770D02*
D03*
X236814Y411164D02*
D03*
X356174Y410967D02*
D03*
D70*
X306499Y347542D02*
D03*
X304531D02*
D03*
X302562D02*
D03*
Y341715D02*
D03*
X304531D02*
D03*
X306499D02*
D03*
X246263Y343684D02*
D03*
X244295D02*
D03*
X242326D02*
D03*
Y349510D02*
D03*
X244295D02*
D03*
X246263D02*
D03*
X364373Y341715D02*
D03*
X362405D02*
D03*
X360436D02*
D03*
Y347542D02*
D03*
X362405D02*
D03*
X364373D02*
D03*
X272247Y156676D02*
D03*
X270279D02*
D03*
X268310D02*
D03*
Y162502D02*
D03*
X270279D02*
D03*
X272247D02*
D03*
D71*
X61221Y354134D02*
D03*
Y347835D02*
D03*
X30909Y410376D02*
D03*
Y404077D02*
D03*
D72*
X176250Y264200D02*
D03*
X182550D02*
D03*
X44688Y425731D02*
D03*
X50987D02*
D03*
X89964Y426124D02*
D03*
X83665D02*
D03*
D73*
X193113Y245219D02*
D03*
Y250337D02*
D03*
X250987Y344825D02*
D03*
Y349943D02*
D03*
X311224Y342660D02*
D03*
Y347778D02*
D03*
X368704Y347581D02*
D03*
Y342463D02*
D03*
X198231Y250337D02*
D03*
Y245219D02*
D03*
X259255Y149156D02*
D03*
Y144038D02*
D03*
X272700Y150759D02*
D03*
Y145641D02*
D03*
D74*
X187672Y228700D02*
D03*
X192200D02*
D03*
X223700Y229200D02*
D03*
X219172D02*
D03*
D75*
X67436Y331392D02*
D03*
Y339392D02*
D03*
Y347392D02*
D03*
D76*
Y355392D02*
D03*
D77*
X402169Y376518D02*
D03*
X34452D02*
D03*
Y159195D02*
D03*
X402169Y158802D02*
D03*
D78*
X311066Y443447D02*
D03*
X321066D02*
D03*
X251224Y442660D02*
D03*
X261224D02*
D03*
X17518Y192680D02*
D03*
Y202680D02*
D03*
Y212680D02*
D03*
X7518Y192680D02*
D03*
Y202680D02*
D03*
X385397Y443841D02*
D03*
X375397D02*
D03*
D79*
X331066Y443447D02*
D03*
X271224Y442660D02*
D03*
X395397Y443841D02*
D03*
D80*
X35535Y432817D02*
D03*
X55220D02*
D03*
X40456D02*
D03*
X50298D02*
D03*
X45377D02*
D03*
X74117Y432424D02*
D03*
X93802D02*
D03*
X79039D02*
D03*
X88881D02*
D03*
X83960D02*
D03*
X24216Y394924D02*
D03*
Y414609D02*
D03*
Y399845D02*
D03*
Y409687D02*
D03*
Y404766D02*
D03*
X259547Y404035D02*
D03*
X252067Y404528D02*
D03*
X318602Y403740D02*
D03*
X311417Y404035D02*
D03*
X284400Y263300D02*
D03*
X232400Y267000D02*
D03*
X131200Y294800D02*
D03*
X190116Y250144D02*
D03*
X186400Y291800D02*
D03*
X104959Y151005D02*
D03*
X79800Y143519D02*
D03*
X104983Y145100D02*
D03*
X344870Y431767D02*
D03*
X284200Y430300D02*
D03*
X227400Y429400D02*
D03*
X331800Y414800D02*
D03*
X255200Y398700D02*
D03*
X248500Y331600D02*
D03*
X288389Y396597D02*
D03*
X241579Y352699D02*
D03*
X348200Y402800D02*
D03*
X231302Y402896D02*
D03*
X248232Y409195D02*
D03*
X231696Y397778D02*
D03*
X224216Y409195D02*
D03*
X223428Y415494D02*
D03*
X223035Y422581D02*
D03*
X243507Y401715D02*
D03*
X312011Y396990D02*
D03*
X232484Y417463D02*
D03*
X270672Y426912D02*
D03*
X271066Y416282D02*
D03*
X287208Y401715D02*
D03*
X256499Y341346D02*
D03*
X264373Y337089D02*
D03*
X273783Y336361D02*
D03*
X308468Y329668D02*
D03*
X289570Y417857D02*
D03*
X283271Y409195D02*
D03*
X300987Y401321D02*
D03*
X304531Y409610D02*
D03*
X300987Y351321D02*
D03*
X279235Y423762D02*
D03*
X282543Y414767D02*
D03*
X316735Y335967D02*
D03*
X323822Y332424D02*
D03*
X333271D02*
D03*
X256791Y353836D02*
D03*
X264461Y353944D02*
D03*
X273822Y354077D02*
D03*
X375791D02*
D03*
X316735Y353683D02*
D03*
X324609D02*
D03*
X333271D02*
D03*
X348625Y396597D02*
D03*
X340357Y409195D02*
D03*
X339747Y414920D02*
D03*
X350987Y416676D02*
D03*
X341539Y423369D02*
D03*
X331696Y427699D02*
D03*
X366735Y328487D02*
D03*
X392326Y332030D02*
D03*
X381696D02*
D03*
X373822Y336361D02*
D03*
X358074Y350534D02*
D03*
X384452Y354077D02*
D03*
X392720D02*
D03*
X376184Y396991D02*
D03*
X364767Y402896D02*
D03*
X377365Y404077D02*
D03*
X371066D02*
D03*
X382877D02*
D03*
X371066Y409589D02*
D03*
X398625Y415494D02*
D03*
X398232Y427306D02*
D03*
D81*
X60141Y432817D02*
D03*
X98724Y432424D02*
D03*
D82*
X24216Y419530D02*
D03*
D83*
X173358Y118405D02*
D03*
X155642D02*
D03*
Y143995D02*
D03*
X392326Y147384D02*
D03*
X372641Y90298D02*
D03*
X382484D02*
D03*
X392326D02*
D03*
D84*
X173358Y143995D02*
D03*
D85*
X17518Y237185D02*
D03*
X108100Y417600D02*
D03*
D86*
X17518Y227185D02*
D03*
X186200Y308800D02*
D03*
X108100Y407600D02*
D03*
D87*
X423200Y319700D02*
D03*
Y309700D02*
D03*
Y289700D02*
D03*
Y299700D02*
D03*
X15500Y292000D02*
D03*
Y272000D02*
D03*
Y282000D02*
D03*
Y302000D02*
D03*
Y312000D02*
D03*
D88*
X423200Y279700D02*
D03*
X15500Y262000D02*
D03*
D89*
X129665Y132677D02*
D03*
X66496D02*
D03*
D90*
X119665D02*
D03*
X56496D02*
D03*
D91*
X139665Y112677D02*
D03*
X99665D02*
D03*
X76496D02*
D03*
X36496D02*
D03*
D92*
X360043Y119825D02*
D03*
X404924D02*
D03*
D93*
X372641Y147384D02*
D03*
D94*
X231500Y98200D02*
D03*
X211815D02*
D03*
D95*
X354137Y442572D02*
D03*
X294771Y441935D02*
D03*
X237094Y439471D02*
D03*
D96*
X7518Y212680D02*
D03*
D97*
X15948Y437148D02*
D03*
X421460D02*
D03*
X15948Y98565D02*
D03*
X421460D02*
D03*
D98*
X305712Y139117D02*
D03*
D99*
Y115495D02*
D03*
D100*
X324216Y127305D02*
D03*
D101*
X279000Y148900D02*
D03*
X52461Y348327D02*
D03*
X50689Y353150D02*
D03*
X247638Y253642D02*
D03*
X253494Y250306D02*
D03*
X264500Y248500D02*
D03*
X258700Y251500D02*
D03*
X217500Y239300D02*
D03*
X237800Y272900D02*
D03*
Y279200D02*
D03*
X237000Y262800D02*
D03*
X212600Y239200D02*
D03*
X202300Y239600D02*
D03*
X180038Y286700D02*
D03*
X176600Y98400D02*
D03*
X162900Y98500D02*
D03*
X193200Y294600D02*
D03*
X203700Y304200D02*
D03*
X198000Y304100D02*
D03*
X154524Y111019D02*
D03*
X183656Y228600D02*
D03*
X228400Y229200D02*
D03*
X242900Y308100D02*
D03*
X236600Y308300D02*
D03*
X250700Y317000D02*
D03*
X209193Y313331D02*
D03*
X198700Y415900D02*
D03*
X172500Y250144D02*
D03*
X178100Y250100D02*
D03*
X168800Y230800D02*
D03*
X180400Y237900D02*
D03*
X175300Y257200D02*
D03*
X183700Y249800D02*
D03*
X186100Y240800D02*
D03*
X171862Y269400D02*
D03*
X159600Y268800D02*
D03*
X234200Y257800D02*
D03*
X228600Y257900D02*
D03*
X222500D02*
D03*
X258300Y319692D02*
D03*
X173956Y264200D02*
D03*
X262230Y166730D02*
D03*
X231795Y245000D02*
D03*
X241600Y218600D02*
D03*
X233300Y123700D02*
D03*
X227500Y107600D02*
D03*
X253000Y126200D02*
D03*
X266700Y134100D02*
D03*
X196037Y132063D02*
D03*
X130420Y263244D02*
D03*
X131207Y267969D02*
D03*
X130813Y257732D02*
D03*
X130420Y252614D02*
D03*
X73100Y331500D02*
D03*
X73113Y339487D02*
D03*
X256991Y238034D02*
D03*
X247444Y244235D02*
D03*
X237011D02*
D03*
X207680Y123762D02*
D03*
X196263Y239904D02*
D03*
X139964Y415494D02*
D03*
X210830Y415888D02*
D03*
X258500Y225900D02*
D03*
X250500Y226100D02*
D03*
X250987Y199747D02*
D03*
X285800Y225700D02*
D03*
X213100Y280500D02*
D03*
X163586Y414707D02*
D03*
X175397D02*
D03*
X128153Y415494D02*
D03*
X259255Y140298D02*
D03*
X262798Y215888D02*
D03*
X267100Y225800D02*
D03*
X268310Y215888D02*
D03*
X276500Y225600D02*
D03*
X275397Y215888D02*
D03*
X319885Y165101D02*
D03*
X313980D02*
D03*
X301381Y165495D02*
D03*
X307680D02*
D03*
X300987Y171794D02*
D03*
X319885D02*
D03*
X307287D02*
D03*
X313586D02*
D03*
X326184D02*
D03*
X286300Y200400D02*
D03*
X286200Y208500D02*
D03*
X286100Y216600D02*
D03*
X263980Y271794D02*
D03*
X274216Y276912D02*
D03*
X264373Y282030D02*
D03*
X284846Y149747D02*
D03*
X292720Y151715D02*
D03*
X326184Y165101D02*
D03*
X272541Y140172D02*
D03*
X252956Y290691D02*
D03*
X209900Y265400D02*
D03*
X221200Y280100D02*
D03*
X221500Y272200D02*
D03*
D102*
X292271Y410770D02*
D03*
X295598D02*
D03*
X238511Y411164D02*
D03*
X235185D02*
D03*
X357871Y410967D02*
D03*
X354544D02*
D03*
M02*
