G04*
G04 #@! TF.GenerationSoftware,Altium Limited,Altium Designer,21.8.1 (53)*
G04*
G04 Layer_Physical_Order=4*
G04 Layer_Color=16711680*
%FSLAX25Y25*%
%MOIN*%
G70*
G04*
G04 #@! TF.SameCoordinates,81EC3893-84E7-45D1-AE65-2CF239B2E5AD*
G04*
G04*
G04 #@! TF.FilePolarity,Positive*
G04*
G01*
G75*
%ADD13C,0.00787*%
%ADD14C,0.01000*%
%ADD49R,0.03937X0.03937*%
%ADD56R,0.03937X0.03937*%
%ADD74C,0.03937*%
%ADD83C,0.06299*%
%ADD84R,0.06299X0.06299*%
%ADD85R,0.06181X0.06181*%
%ADD86C,0.06181*%
%ADD89C,0.05512*%
%ADD90R,0.05512X0.05512*%
%ADD91C,0.12008*%
%ADD94C,0.06102*%
%ADD101C,0.01968*%
%ADD107C,0.06000*%
%ADD108R,0.06000X0.06000*%
%ADD109C,0.17717*%
%ADD110R,0.06102X0.06102*%
%ADD111C,0.05906*%
%ADD112R,0.05906X0.05906*%
%ADD113R,0.09055X0.12205*%
%ADD114R,0.05906X0.05906*%
%ADD115C,0.05709*%
%ADD116R,0.06102X0.06102*%
%ADD117C,0.18307*%
%ADD118R,0.15748X0.05906*%
%ADD119R,0.13780X0.05906*%
%ADD120R,0.05906X0.13780*%
%ADD121C,0.03000*%
D13*
X232579Y160059D02*
X235510Y157128D01*
X232579Y160059D02*
Y160236D01*
X240321Y162270D02*
Y163785D01*
X238287Y160236D02*
X240321Y162270D01*
Y163785D02*
X241932Y165396D01*
X67293Y247489D02*
X72849D01*
X67239Y247435D02*
X67293Y247489D01*
X72849D02*
X72903Y247543D01*
X67287Y255483D02*
X72868D01*
X67239Y255435D02*
X67287Y255483D01*
X72868D02*
X72916Y255531D01*
X22457Y142323D02*
X143405D01*
X162826Y161743D02*
X167859D01*
X143405Y142323D02*
X162826Y161743D01*
X23893Y125295D02*
X133563D01*
X168724Y160456D02*
X170363D01*
X133563Y125295D02*
X168724Y160456D01*
X170363D02*
X174984Y165077D01*
X167859Y161743D02*
X172303Y166187D01*
X13089Y132955D02*
X22457Y142323D01*
X174984Y165077D02*
Y165682D01*
X175445Y166143D01*
X177903D01*
X17321Y118723D02*
X23893Y125295D01*
X13089Y124491D02*
Y132955D01*
X7321Y118723D02*
X13089Y124491D01*
X2657Y124060D02*
X7321Y128723D01*
X3119Y114075D02*
X129635D01*
X2657Y114536D02*
Y124060D01*
Y114536D02*
X3119Y114075D01*
X7321Y108723D02*
X14273Y101772D01*
X24606D01*
X31558Y108723D01*
X130483D01*
X168603Y146843D01*
X228591Y186655D02*
Y198426D01*
Y186655D02*
X232203Y183043D01*
X131003Y210843D02*
X133484Y213324D01*
X213693D01*
X228591Y198426D01*
X189919Y166187D02*
Y166396D01*
X263265Y157522D02*
X368109D01*
X416331Y205743D01*
X402603Y215743D02*
X423003D01*
X361705Y174845D02*
X402603Y215743D01*
X258001Y174845D02*
X361705D01*
X416331Y205743D02*
X423003D01*
X181345Y165785D02*
X183445D01*
X183503Y165843D01*
X129635Y114075D02*
X181345Y165785D01*
X131010Y184012D02*
X141779Y173243D01*
X175103D01*
X168603Y146843D02*
X173161Y142285D01*
Y60039D02*
Y142285D01*
X241932Y165396D02*
X248552D01*
X258001Y174845D01*
X235510Y157128D02*
X239643D01*
X245943Y163428D01*
X257360D01*
X263265Y157522D01*
D14*
X232476Y188629D02*
Y203616D01*
Y188629D02*
X235849Y185256D01*
X235869Y190136D02*
X237062Y188943D01*
X237603D01*
X234910Y190136D02*
X235869D01*
X234203Y190843D02*
X234910Y190136D01*
X234203Y190843D02*
Y199443D01*
X240474Y195626D02*
X241423Y196575D01*
X237603Y195243D02*
X237986Y195626D01*
X240474D01*
X227691Y180156D02*
X234003Y173843D01*
X227691Y180156D02*
Y180177D01*
X223714Y201332D02*
X226403Y198643D01*
Y181465D02*
Y198643D01*
Y181465D02*
X227691Y180177D01*
X235849Y185256D02*
X236217D01*
X236803Y184670D01*
Y178843D02*
Y184670D01*
X330321Y192561D02*
X363503Y225743D01*
X423003D01*
X422303Y235043D02*
X423003Y235743D01*
X130616Y173776D02*
X134949Y169443D01*
X193003Y210643D02*
X202314Y201332D01*
X223714D01*
X232476Y203616D02*
X250503Y221643D01*
Y233043D01*
X258503Y223743D02*
Y235336D01*
X234203Y199443D02*
X258503Y223743D01*
X362003Y235043D02*
X422303D01*
X351203Y224243D02*
X362003Y235043D01*
X270268Y224243D02*
X351203D01*
X252759Y206735D02*
X270268Y224243D01*
X180203Y131535D02*
Y153943D01*
X178803Y130135D02*
X180203Y131535D01*
X178803Y108521D02*
Y130135D01*
Y108521D02*
X195840Y91484D01*
Y48106D02*
Y91484D01*
X185903Y156843D02*
X194566Y148180D01*
Y133780D02*
Y148180D01*
X241423Y196575D02*
X259650D01*
X266738Y189487D02*
X272582D01*
X259650Y196575D02*
X266738Y189487D01*
X228403Y173943D02*
Y174424D01*
X226191Y176636D02*
Y179556D01*
Y176636D02*
X228403Y174424D01*
X221741Y174505D02*
Y177305D01*
Y174505D02*
X222303Y173943D01*
X207903Y191143D02*
X221741Y177305D01*
X258103Y235736D02*
X258503Y235336D01*
X194566Y133780D02*
X227303Y101043D01*
Y23643D02*
Y101043D01*
X130616Y173776D02*
X130816Y173976D01*
X371505Y7280D02*
X372444Y6341D01*
X330202Y50844D02*
X371505Y9541D01*
Y7280D02*
Y9541D01*
X330202Y50844D02*
Y53463D01*
X302753Y77750D02*
X303048Y78046D01*
X305619D01*
X330202Y53463D01*
X299616Y77750D02*
X302753D01*
X262157Y78046D02*
X299320D01*
X299616Y77750D01*
X222740Y183006D02*
X226191Y179556D01*
X129303Y191143D02*
X207903D01*
X218162Y183006D02*
X222740D01*
X133603Y194843D02*
X206325D01*
X218162Y183006D01*
X277487Y191976D02*
X278073Y192561D01*
X330321D01*
X277487Y191518D02*
Y191976D01*
X272582Y189487D02*
X275456D01*
X277487Y191518D01*
X218594Y169443D02*
X232877Y155160D01*
X134949Y169443D02*
X218594D01*
X72916Y255531D02*
X133603Y194843D01*
X72903Y247543D02*
X129303Y191143D01*
X232877Y155160D02*
X242129D01*
X247247Y160278D01*
X196066Y144136D02*
Y155947D01*
Y144136D02*
X262157Y78046D01*
D49*
X349019Y358616D02*
D03*
X59944Y348861D02*
D03*
X98527Y348467D02*
D03*
X289653Y357978D02*
D03*
X231976Y355514D02*
D03*
D56*
X24019Y335573D02*
D03*
D74*
X353940Y358616D02*
D03*
X35338Y348861D02*
D03*
X55023D02*
D03*
X40259D02*
D03*
X50102D02*
D03*
X45180D02*
D03*
X73921Y348467D02*
D03*
X93606D02*
D03*
X78842D02*
D03*
X88684D02*
D03*
X83763D02*
D03*
X24019Y310967D02*
D03*
Y330652D02*
D03*
Y315888D02*
D03*
Y325731D02*
D03*
Y320810D02*
D03*
X294574Y357978D02*
D03*
X236897Y355514D02*
D03*
X363681Y319193D02*
D03*
X259350Y320079D02*
D03*
X254035Y320768D02*
D03*
X318406Y319783D02*
D03*
X311221Y320079D02*
D03*
X284203Y179343D02*
D03*
X232203Y183043D02*
D03*
X131003Y210843D02*
D03*
X189919Y166187D02*
D03*
X186203Y207843D02*
D03*
X104762Y67049D02*
D03*
X79603Y59562D02*
D03*
X104786Y61143D02*
D03*
X344673Y347811D02*
D03*
X284003Y346343D02*
D03*
X227203Y345443D02*
D03*
X331603Y330843D02*
D03*
X255003Y314743D02*
D03*
X248303Y247643D02*
D03*
X288192Y312640D02*
D03*
X241382Y268742D02*
D03*
X348003Y318843D02*
D03*
X231105Y318939D02*
D03*
X248035Y325239D02*
D03*
X231499Y313821D02*
D03*
X224019Y325239D02*
D03*
X223232Y331538D02*
D03*
X222838Y338624D02*
D03*
X243310Y317758D02*
D03*
X311814Y313034D02*
D03*
X232287Y333506D02*
D03*
X270476Y342955D02*
D03*
X270869Y332325D02*
D03*
X287011Y317758D02*
D03*
X256302Y257389D02*
D03*
X264176Y253133D02*
D03*
X273587Y252404D02*
D03*
X308271Y245711D02*
D03*
X289373Y333900D02*
D03*
X283074Y325239D02*
D03*
X300791Y317365D02*
D03*
X304334Y325654D02*
D03*
X300791Y267365D02*
D03*
X279039Y339806D02*
D03*
X282346Y330810D02*
D03*
X316539Y252010D02*
D03*
X323625Y248467D02*
D03*
X333074D02*
D03*
X256594Y269879D02*
D03*
X264264Y269988D02*
D03*
X273625Y270121D02*
D03*
X375594D02*
D03*
X316539Y269727D02*
D03*
X324413D02*
D03*
X333074D02*
D03*
X348428Y312640D02*
D03*
X340161Y325239D02*
D03*
X339550Y330963D02*
D03*
X350791Y332719D02*
D03*
X341342Y339412D02*
D03*
X331499Y343742D02*
D03*
X366539Y244530D02*
D03*
X392129Y248073D02*
D03*
X381499D02*
D03*
X373625Y252404D02*
D03*
X357877Y266577D02*
D03*
X384255Y270121D02*
D03*
X392523D02*
D03*
X375987Y313034D02*
D03*
X377168Y320121D02*
D03*
X372047Y320965D02*
D03*
X382680Y320121D02*
D03*
X370869Y325632D02*
D03*
X398428Y331538D02*
D03*
X398035Y343349D02*
D03*
D83*
X423003Y235743D02*
D03*
Y225743D02*
D03*
Y205743D02*
D03*
Y215743D02*
D03*
X15303Y208043D02*
D03*
Y188043D02*
D03*
Y198043D02*
D03*
Y218043D02*
D03*
Y228043D02*
D03*
D84*
X423003Y195743D02*
D03*
X15303Y178043D02*
D03*
D85*
X17321Y153228D02*
D03*
X107903Y333643D02*
D03*
D86*
X17321Y143228D02*
D03*
X186003Y224843D02*
D03*
X107903Y323643D02*
D03*
D89*
X129469Y48720D02*
D03*
X66299D02*
D03*
D90*
X119468D02*
D03*
X56299D02*
D03*
D91*
X139469Y28721D02*
D03*
X99468D02*
D03*
X76299D02*
D03*
X36299D02*
D03*
D94*
X310869Y359491D02*
D03*
X320869D02*
D03*
X251027Y358703D02*
D03*
X261027D02*
D03*
X17321Y108723D02*
D03*
Y118723D02*
D03*
Y128723D02*
D03*
X7321Y108723D02*
D03*
Y118723D02*
D03*
X385200Y359884D02*
D03*
X375200D02*
D03*
D101*
X292074Y326813D02*
D03*
X295401D02*
D03*
X238315Y327207D02*
D03*
X234988D02*
D03*
X357674Y327010D02*
D03*
X354348D02*
D03*
D107*
X67239Y247435D02*
D03*
Y255435D02*
D03*
Y263435D02*
D03*
D108*
Y271435D02*
D03*
D109*
X401972Y292561D02*
D03*
X34255D02*
D03*
Y75239D02*
D03*
X401972Y74845D02*
D03*
D110*
X330869Y359491D02*
D03*
X271027Y358703D02*
D03*
X395200Y359884D02*
D03*
D111*
X173161Y34448D02*
D03*
X155445D02*
D03*
Y60039D02*
D03*
X392129Y63428D02*
D03*
X372444Y6341D02*
D03*
X382287D02*
D03*
X392129D02*
D03*
D112*
X173161Y60039D02*
D03*
D113*
X359846Y35868D02*
D03*
X404728D02*
D03*
D114*
X372444Y63428D02*
D03*
D115*
X231303Y14243D02*
D03*
X211618D02*
D03*
D116*
X7321Y128723D02*
D03*
D117*
X15751Y353191D02*
D03*
X421263D02*
D03*
X15751Y14609D02*
D03*
X421263D02*
D03*
D118*
X305515Y55160D02*
D03*
D119*
Y31538D02*
D03*
D120*
X324019Y43349D02*
D03*
D121*
X232579Y160236D02*
D03*
X238287D02*
D03*
X264370Y163287D02*
D03*
X278803Y64943D02*
D03*
X52264Y264370D02*
D03*
X50492Y269193D02*
D03*
X247441Y169685D02*
D03*
X253297Y166349D02*
D03*
X258503Y167543D02*
D03*
X217303Y155343D02*
D03*
X237603Y188943D02*
D03*
Y195243D02*
D03*
X236803Y178843D02*
D03*
X212403Y155243D02*
D03*
X202103Y155643D02*
D03*
X179841Y202743D02*
D03*
X176403Y14443D02*
D03*
X162703Y14543D02*
D03*
X193003Y210643D02*
D03*
X203503Y220243D02*
D03*
X197803Y220143D02*
D03*
X154328Y27062D02*
D03*
X183459Y144643D02*
D03*
X228203Y145243D02*
D03*
X242703Y224143D02*
D03*
X236403Y224343D02*
D03*
X250503Y233043D02*
D03*
X208996Y229374D02*
D03*
X198503Y331943D02*
D03*
X172303Y166187D02*
D03*
X177903Y166143D02*
D03*
X168603Y146843D02*
D03*
X180203Y153943D02*
D03*
X175103Y173243D02*
D03*
X183503Y165843D02*
D03*
X185903Y156843D02*
D03*
X171665Y185443D02*
D03*
X159403Y184843D02*
D03*
X234003Y173843D02*
D03*
X228403Y173943D02*
D03*
X222303D02*
D03*
X258103Y235736D02*
D03*
X173759Y180243D02*
D03*
X262033Y82774D02*
D03*
X241403Y134643D02*
D03*
X233103Y39743D02*
D03*
X227303Y23643D02*
D03*
X252803Y42243D02*
D03*
X266503Y50143D02*
D03*
X195840Y48106D02*
D03*
X130223Y179287D02*
D03*
X131010Y184012D02*
D03*
X130616Y173776D02*
D03*
X130223Y168658D02*
D03*
X72903Y247543D02*
D03*
X72916Y255531D02*
D03*
X256795Y154077D02*
D03*
X247247Y160278D02*
D03*
X207484Y39805D02*
D03*
X196066Y155947D02*
D03*
X139767Y331538D02*
D03*
X210633Y331931D02*
D03*
X258303Y141943D02*
D03*
X250303Y142143D02*
D03*
X250791Y115790D02*
D03*
X285603Y141743D02*
D03*
X212903Y196543D02*
D03*
X163389Y330750D02*
D03*
X175200D02*
D03*
X127956Y331538D02*
D03*
X259058Y56341D02*
D03*
X262602Y131931D02*
D03*
X266903Y141843D02*
D03*
X268113Y131931D02*
D03*
X276303Y141643D02*
D03*
X275200Y131931D02*
D03*
X319688Y81144D02*
D03*
X313783D02*
D03*
X301184Y81538D02*
D03*
X307484D02*
D03*
X300791Y87837D02*
D03*
X319688D02*
D03*
X307090D02*
D03*
X313389D02*
D03*
X325987D02*
D03*
X286103Y116443D02*
D03*
X286003Y124543D02*
D03*
X285903Y132643D02*
D03*
X263783Y187837D02*
D03*
X274019Y192955D02*
D03*
X264176Y198073D02*
D03*
X284649Y65790D02*
D03*
X292523Y67758D02*
D03*
X325987Y81144D02*
D03*
X272344Y56216D02*
D03*
X252759Y206735D02*
D03*
X209703Y181443D02*
D03*
X221003Y196143D02*
D03*
X221303Y188243D02*
D03*
M02*
