G04*
G04 #@! TF.GenerationSoftware,Altium Limited,Altium Designer,21.8.1 (53)*
G04*
G04 Layer_Color=32896*
%FSLAX25Y25*%
%MOIN*%
G70*
G04*
G04 #@! TF.SameCoordinates,BF354A56-4256-46FB-B051-6EC6D42A8B0B*
G04*
G04*
G04 #@! TF.FilePolarity,Positive*
G04*
G01*
G75*
%ADD12C,0.00394*%
D12*
X384074Y415534D02*
X388011D01*
X386042Y413565D02*
Y417502D01*
X386027Y425731D02*
Y429668D01*
X384058Y427699D02*
X387995D01*
X317720Y414612D02*
X321657D01*
X319688Y412643D02*
Y416580D01*
X318113Y427407D02*
X322050D01*
X320082Y425439D02*
Y429376D01*
X257680Y415888D02*
X261617D01*
X259649Y413920D02*
Y417857D01*
X300987Y334786D02*
X304924D01*
X302956Y332817D02*
Y336754D01*
X240932Y336700D02*
X244868D01*
X242900Y334732D02*
Y338668D01*
X355772Y400928D02*
Y404865D01*
X353804Y402896D02*
X357741D01*
X344015Y414265D02*
X347952D01*
X345984Y412297D02*
Y416234D01*
X301381Y410376D02*
Y414313D01*
X299413Y412345D02*
X303350D01*
X286420Y409983D02*
Y413920D01*
X284452Y411951D02*
X288389D01*
X259649Y425337D02*
Y429274D01*
X257680Y427306D02*
X261617D01*
X234785Y403290D02*
X238722D01*
X236754Y401321D02*
Y405258D01*
X228940Y410478D02*
Y414415D01*
X226972Y412447D02*
X230909D01*
X359649Y334786D02*
X363586D01*
X361617Y332817D02*
Y336754D01*
X275397Y158567D02*
X279334D01*
X277365Y156599D02*
Y160536D01*
X17518Y230217D02*
Y234154D01*
X15549Y232185D02*
X19486D01*
X215000Y241932D02*
Y245868D01*
X213032Y243900D02*
X216968D01*
X87187Y142731D02*
Y146669D01*
X85218Y144700D02*
X89155D01*
X92831Y147462D02*
X96768D01*
X94800Y145494D02*
Y149431D01*
X98731Y148053D02*
X102668D01*
X100700Y146084D02*
Y150021D01*
X186200Y306832D02*
Y310769D01*
X184231Y308800D02*
X188169D01*
X106131Y412600D02*
X110069D01*
X108100Y410632D02*
Y414569D01*
X119665Y67716D02*
Y71653D01*
X117697Y69685D02*
X121634D01*
X56496Y67716D02*
Y71653D01*
X54528Y69685D02*
X58465D01*
X352100Y429931D02*
Y433869D01*
X350132Y431900D02*
X354068D01*
X291800Y428532D02*
Y432469D01*
X289831Y430500D02*
X293769D01*
X234553Y427431D02*
Y431368D01*
X232584Y429400D02*
X236521D01*
X187300Y273131D02*
Y277068D01*
X185331Y275100D02*
X189269D01*
X178532Y269400D02*
X182468D01*
X180500Y267431D02*
Y271369D01*
X54429Y350886D02*
X58366D01*
X56398Y348917D02*
Y352854D01*
X241000Y226132D02*
Y230068D01*
X239032Y228100D02*
X242969D01*
X120577Y263244D02*
X124514D01*
X122546Y261276D02*
Y265213D01*
X120577Y267969D02*
X124514D01*
X122546Y266000D02*
Y269937D01*
X120577Y257732D02*
X124514D01*
X122546Y255764D02*
Y259701D01*
X120577Y252614D02*
X124514D01*
X122546Y250646D02*
Y254583D01*
X353350Y343054D02*
Y346991D01*
X351381Y345022D02*
X355318D01*
X217129Y129728D02*
Y133665D01*
X215161Y131697D02*
X219098D01*
X223035Y129728D02*
Y133665D01*
X221066Y131697D02*
X225003D01*
X196332Y297500D02*
X200269D01*
X198300Y295532D02*
Y299468D01*
X201431Y297600D02*
X205368D01*
X203400Y295632D02*
Y299569D01*
X364684Y412297D02*
Y416234D01*
X362716Y414265D02*
X366653D01*
X349708Y444344D02*
X353645D01*
X351676Y442376D02*
Y446313D01*
X295031Y344600D02*
X298969D01*
X297000Y342632D02*
Y346568D01*
X314767Y344394D02*
X318704D01*
X316735Y342426D02*
Y346363D01*
X331302Y342370D02*
X335239D01*
X333271Y340401D02*
Y344338D01*
X321853Y341976D02*
X325791D01*
X323822Y340007D02*
Y343944D01*
X292310Y441738D02*
Y445675D01*
X290342Y443707D02*
X294279D01*
X291539Y403290D02*
X295476D01*
X293507Y401321D02*
Y405258D01*
X234634Y439274D02*
Y443211D01*
X232665Y441242D02*
X236602D01*
X163500Y273731D02*
Y277668D01*
X161531Y275700D02*
X165469D01*
X236132Y302700D02*
X240069D01*
X238100Y300731D02*
Y304668D01*
X203350Y245416D02*
Y249353D01*
X201381Y247384D02*
X205318D01*
X251532Y257300D02*
X255469D01*
X253500Y255331D02*
Y259268D01*
X187469Y286700D02*
X191406D01*
X189438Y284732D02*
Y288668D01*
X211724Y306031D02*
X215661D01*
X213693Y304062D02*
Y307999D01*
X236814Y345416D02*
Y349353D01*
X234846Y347384D02*
X238783D01*
X250987Y205258D02*
Y209195D01*
X249019Y207227D02*
X252956D01*
X256302Y280061D02*
Y283998D01*
X254334Y282030D02*
X258271D01*
X256499Y345022D02*
Y348959D01*
X254531Y346990D02*
X258468D01*
X264373Y342266D02*
Y346203D01*
X262405Y344235D02*
X266342D01*
X273822Y342266D02*
Y346203D01*
X271853Y344235D02*
X275791D01*
X304728Y394337D02*
X308665D01*
X306696Y392368D02*
Y396305D01*
X290948Y394337D02*
X294885D01*
X292916Y392368D02*
Y396305D01*
X275700Y261531D02*
Y265469D01*
X273731Y263500D02*
X277668D01*
X249413Y392952D02*
Y396889D01*
X247444Y394920D02*
X251381D01*
X236420Y393054D02*
Y396990D01*
X234452Y395022D02*
X238389D01*
X242326Y412053D02*
X246263D01*
X244295Y410084D02*
Y414021D01*
X390357Y342463D02*
X394295D01*
X392326Y340494D02*
Y344431D01*
X379728Y342557D02*
X383665D01*
X381696Y340588D02*
Y344525D01*
X371853Y345256D02*
X375791D01*
X373822Y343288D02*
Y347225D01*
X256832Y257700D02*
X260769D01*
X258800Y255732D02*
Y259668D01*
X353365Y394077D02*
X357302D01*
X355334Y392109D02*
Y396046D01*
X360255Y394077D02*
X364192D01*
X362224Y392109D02*
Y396046D01*
X367145Y394077D02*
X371082D01*
X369113Y392109D02*
Y396046D01*
X196000Y111632D02*
Y115568D01*
X194032Y113600D02*
X197968D01*
X169887Y96710D02*
Y100647D01*
X167919Y98679D02*
X171856D01*
X206000Y226832D02*
Y230768D01*
X204031Y228800D02*
X207968D01*
X248466Y236065D02*
Y240002D01*
X246498Y238034D02*
X250435D01*
X317129Y153683D02*
X321066D01*
X319098Y151715D02*
Y155652D01*
X262405Y205258D02*
Y209195D01*
X260436Y207227D02*
X264373D01*
X263192Y155812D02*
Y159748D01*
X261224Y157780D02*
X265161D01*
X266735Y142599D02*
Y146536D01*
X264767Y144568D02*
X268704D01*
X275397Y205652D02*
Y209589D01*
X273428Y207621D02*
X277365D01*
X284846Y156833D02*
Y160770D01*
X282877Y158802D02*
X286814D01*
X256893Y205258D02*
Y209195D01*
X254924Y207227D02*
X258861D01*
X262531Y256200D02*
X266469D01*
X264500Y254232D02*
Y258169D01*
X268310Y205652D02*
Y209589D01*
X266342Y207621D02*
X270279D01*
X290751Y161267D02*
X294688D01*
X292720Y159299D02*
Y163236D01*
X36421Y404865D02*
Y408802D01*
X34452Y406833D02*
X38389D01*
X45869Y421006D02*
X49806D01*
X47838Y419038D02*
Y422975D01*
X84846Y421006D02*
X88783D01*
X86814Y419038D02*
Y422975D01*
X242720Y392952D02*
Y396889D01*
X240751Y394920D02*
X244688D01*
X297838Y394337D02*
X301775D01*
X299806Y392368D02*
Y396305D01*
M02*
