G04*
G04 #@! TF.GenerationSoftware,Altium Limited,Altium Designer,21.8.1 (53)*
G04*
G04 Layer_Color=32896*
%FSLAX25Y25*%
%MOIN*%
G70*
G04*
G04 #@! TF.SameCoordinates,BF354A56-4256-46FB-B051-6EC6D42A8B0B*
G04*
G04*
G04 #@! TF.FilePolarity,Positive*
G04*
G01*
G75*
%ADD13C,0.00787*%
D13*
X376987Y421243D02*
X395098D01*
Y409825D02*
Y421243D01*
X376987Y409825D02*
X395098D01*
X376987D02*
Y421243D01*
X376972Y421991D02*
Y433408D01*
Y421991D02*
X395082D01*
Y433408D01*
X376972D02*
X395082D01*
X310633Y420321D02*
X328743D01*
Y408903D02*
Y420321D01*
X310633Y408903D02*
X328743D01*
X310633D02*
Y420321D01*
X311027Y433116D02*
X329137D01*
Y421699D02*
Y433116D01*
X311027Y421699D02*
X329137D01*
X311027D02*
Y433116D01*
X250594Y421597D02*
X268704D01*
Y410180D02*
Y421597D01*
X250594Y410180D02*
X268704D01*
X250594D02*
Y421597D01*
X300594Y339609D02*
X305318D01*
X300594Y329963D02*
Y339609D01*
Y329963D02*
X305318D01*
Y339609D01*
X240538Y341523D02*
X245262D01*
X240538Y331877D02*
Y341523D01*
Y331877D02*
X245262D01*
Y341523D01*
X351509Y400632D02*
Y405160D01*
Y400632D02*
X360036D01*
Y405160D01*
X351509D02*
X360036D01*
X343113Y408442D02*
X348854D01*
Y420089D01*
X343113D02*
X348854D01*
X343113Y408442D02*
Y420089D01*
X304252Y406522D02*
Y418168D01*
X298511Y406522D02*
X304252D01*
X298511D02*
Y418168D01*
X304252D01*
X283550Y406128D02*
Y417774D01*
X289291D01*
Y406128D02*
Y417774D01*
X283550Y406128D02*
X289291D01*
X250594Y421597D02*
Y433014D01*
Y421597D02*
X268704D01*
Y433014D01*
X250594D02*
X268704D01*
X232490Y405553D02*
X241017D01*
Y401026D02*
Y405553D01*
X232490Y401026D02*
X241017D01*
X232490D02*
Y405553D01*
X226070Y406623D02*
Y418270D01*
X231811D01*
Y406623D02*
Y418270D01*
X226070Y406623D02*
X231811D01*
X359255Y339609D02*
X363980D01*
X359255Y329963D02*
Y339609D01*
Y329963D02*
X363980D01*
Y339609D01*
X274586Y152835D02*
X280145D01*
Y164300D01*
X274586D02*
X280145D01*
X274586Y152835D02*
Y164300D01*
X23108Y220807D02*
Y243563D01*
X11927Y220807D02*
X23108D01*
X11927D02*
Y243563D01*
X23108D01*
X219724Y241538D02*
Y246262D01*
X210276D02*
X219724D01*
X210276Y241538D02*
Y246262D01*
Y241538D02*
X219724D01*
X82561Y140369D02*
Y149031D01*
Y140369D02*
X91813D01*
Y149031D01*
X82561D02*
X91813D01*
X92438Y152187D02*
X97162D01*
X92438Y142738D02*
Y152187D01*
Y142738D02*
X97162D01*
Y152187D01*
X97747Y142738D02*
X103653D01*
Y153368D01*
X97747D02*
X103653D01*
X97747Y142738D02*
Y153368D01*
X179802Y303150D02*
Y314450D01*
Y303150D02*
X192598D01*
Y314450D01*
X179802D02*
X192598D01*
X102509Y423978D02*
X113691D01*
X102509Y401222D02*
Y423978D01*
Y401222D02*
X113691D01*
Y423978D01*
X90138Y394D02*
Y138976D01*
Y394D02*
X149193D01*
Y138976D01*
X90138D02*
X149193D01*
X26969Y394D02*
Y138976D01*
Y394D02*
X86024D01*
Y138976D01*
X26969D02*
X86024D01*
X357415Y428947D02*
Y434853D01*
X346785D02*
X357415D01*
X346785Y428947D02*
Y434853D01*
Y428947D02*
X357415D01*
X297115Y427547D02*
Y433453D01*
X286485D02*
X297115D01*
X286485Y427547D02*
Y433453D01*
Y427547D02*
X297115D01*
X239868Y426447D02*
Y432353D01*
X229238D02*
X239868D01*
X229238Y426447D02*
Y432353D01*
Y426447D02*
X239868D01*
X181985Y272147D02*
Y278053D01*
Y272147D02*
X192615D01*
Y278053D01*
X181985D02*
X192615D01*
X175776Y271762D02*
X185224D01*
Y267038D02*
Y271762D01*
X175776Y267038D02*
X185224D01*
X175776D02*
Y271762D01*
X54035Y355610D02*
X58760D01*
X54035Y346161D02*
Y355610D01*
Y346161D02*
X58760D01*
Y355610D01*
X245059Y220687D02*
Y235513D01*
X236941Y220687D02*
X245059D01*
X236941D02*
Y235513D01*
X245059D01*
X117723Y260882D02*
X127368D01*
X117723D02*
Y265606D01*
X127368D01*
Y260882D02*
Y265606D01*
X117624Y265803D02*
X127467D01*
X117624D02*
Y270134D01*
X127467D01*
Y265803D02*
Y270134D01*
X117624Y255567D02*
X127467D01*
X117624D02*
Y259898D01*
X127467D01*
Y255567D02*
Y259898D01*
X117723Y250252D02*
X127368D01*
X117723D02*
Y254976D01*
X127368D01*
Y250252D02*
Y254976D01*
X356129Y339289D02*
Y350755D01*
X350570Y339289D02*
X356129D01*
X350570D02*
Y350755D01*
X356129D01*
X214251Y126055D02*
Y137338D01*
X220007D01*
Y126055D02*
Y137338D01*
X214251Y126055D02*
X220007D01*
X220156D02*
Y137338D01*
X225913D01*
Y126055D02*
Y137338D01*
X220156Y126055D02*
X225913D01*
X195938Y302224D02*
X200662D01*
X195938Y292776D02*
Y302224D01*
Y292776D02*
X200662D01*
Y302224D01*
X201038Y302324D02*
X205762D01*
X201038Y292876D02*
Y302324D01*
Y292876D02*
X205762D01*
Y302324D01*
X367555Y408442D02*
Y420089D01*
X361814Y408442D02*
X367555D01*
X361814D02*
Y420089D01*
X367555D01*
X342523Y437257D02*
X360830D01*
X342523D02*
Y451431D01*
X360830D01*
Y437257D02*
Y451431D01*
X294220Y350332D02*
X299780D01*
X294220Y338867D02*
Y350332D01*
Y338867D02*
X299780D01*
Y350332D01*
X313956Y338662D02*
X319515D01*
Y350127D01*
X313956D02*
X319515D01*
X313956Y338662D02*
Y350127D01*
X328333Y350752D02*
X338208D01*
X328333Y333987D02*
Y350752D01*
Y333987D02*
X338208D01*
Y350752D01*
X318885Y350358D02*
X328760D01*
X318885Y333593D02*
Y350358D01*
Y333593D02*
X328760D01*
Y350358D01*
X301464Y436620D02*
Y450793D01*
X283157D02*
X301464D01*
X283157Y436620D02*
Y450793D01*
Y436620D02*
X301464D01*
X289244Y405553D02*
X297771D01*
Y401026D02*
Y405553D01*
X289244Y401026D02*
X297771D01*
X289244D02*
Y405553D01*
X243787Y434156D02*
Y448329D01*
X225480D02*
X243787D01*
X225480Y434156D02*
Y448329D01*
Y434156D02*
X243787D01*
X169799Y272550D02*
Y278850D01*
X157201D02*
X169799D01*
X157201Y272550D02*
Y278850D01*
Y272550D02*
X169799D01*
X233376Y305062D02*
X242824D01*
Y300338D02*
Y305062D01*
X233376Y300338D02*
X242824D01*
X233376D02*
Y305062D01*
X206302Y242069D02*
Y252699D01*
X200397Y242069D02*
X206302D01*
X200397D02*
Y252699D01*
X206302D01*
X250547Y262615D02*
X256453D01*
X250547Y251985D02*
Y262615D01*
Y251985D02*
X256453D01*
Y262615D01*
X184713Y289062D02*
X194162D01*
Y284338D02*
Y289062D01*
X184713Y284338D02*
X194162D01*
X184713D02*
Y289062D01*
X211331Y310755D02*
X216055D01*
X211331Y301306D02*
Y310755D01*
Y301306D02*
X216055D01*
Y310755D01*
X239594Y341652D02*
Y353117D01*
X234034Y341652D02*
X239594D01*
X234034D02*
Y353117D01*
X239594D01*
X248822Y202306D02*
Y212148D01*
X253153D01*
Y202306D02*
Y212148D01*
X248822Y202306D02*
X253153D01*
X250987Y279077D02*
Y284983D01*
Y279077D02*
X261617D01*
Y284983D01*
X250987D02*
X261617D01*
X253719Y341258D02*
Y352723D01*
X259279D01*
Y341258D02*
Y352723D01*
X253719Y341258D02*
X259279D01*
X269311Y335852D02*
Y352617D01*
X259436Y335852D02*
X269311D01*
X259436D02*
Y352617D01*
X269311D01*
X278760Y335852D02*
Y352617D01*
X268885Y335852D02*
X278760D01*
X268885D02*
Y352617D01*
X278760D01*
X303448Y389009D02*
X309944D01*
Y399664D01*
X303448D02*
X309944D01*
X303448Y389009D02*
Y399664D01*
X290137Y400069D02*
X295696D01*
X290137Y388604D02*
Y400069D01*
Y388604D02*
X295696D01*
Y400069D01*
X268287Y259441D02*
Y267559D01*
Y259441D02*
X283113D01*
Y267559D01*
X268287D02*
X283113D01*
X246165Y389593D02*
Y400248D01*
X252661D01*
Y389593D02*
Y400248D01*
X246165Y389593D02*
X252661D01*
X239200Y389289D02*
Y400755D01*
X233641Y389289D02*
X239200D01*
X233641D02*
Y400755D01*
X239200D01*
X241424Y417876D02*
X247165D01*
X241424Y406230D02*
Y417876D01*
Y406230D02*
X247165D01*
Y417876D01*
X387388Y350845D02*
X397263D01*
X387388Y334081D02*
Y350845D01*
Y334081D02*
X397263D01*
Y350845D01*
X376759Y350939D02*
X386633D01*
X376759Y334174D02*
Y350939D01*
Y334174D02*
X386633D01*
Y350939D01*
X371042Y339524D02*
X376602D01*
Y350989D01*
X371042D02*
X376602D01*
X371042Y339524D02*
Y350989D01*
X256438Y252976D02*
X261162D01*
Y262424D01*
X256438D02*
X261162D01*
X256438Y252976D02*
Y262424D01*
X352554Y399810D02*
X358114D01*
X352554Y388345D02*
Y399810D01*
Y388345D02*
X358114D01*
Y399810D01*
X358976Y388750D02*
X365472D01*
Y399404D01*
X358976D02*
X365472D01*
X358976Y388750D02*
Y399404D01*
X365865Y388750D02*
X372361D01*
Y399404D01*
X365865D02*
X372361D01*
X365865Y388750D02*
Y399404D01*
X188894Y101986D02*
Y125214D01*
X203106D01*
Y101986D02*
Y125214D01*
X188894Y101986D02*
X203106D01*
X174612Y96316D02*
Y101041D01*
X165163D02*
X174612D01*
X165163Y96316D02*
Y101041D01*
Y96316D02*
X174612D01*
X210823Y226438D02*
Y231162D01*
X201177D02*
X210823D01*
X201177Y226438D02*
Y231162D01*
Y226438D02*
X210823D01*
X241053Y233975D02*
Y242093D01*
Y233975D02*
X255879D01*
Y242093D01*
X241053D02*
X255879D01*
X314704Y145790D02*
X323491D01*
Y161577D01*
X314704D02*
X323491D01*
X314704Y145790D02*
Y161577D01*
X265184Y201494D02*
Y212959D01*
X259625Y201494D02*
X265184D01*
X259625D02*
Y212959D01*
X265184D01*
X265972Y152048D02*
Y163513D01*
X260412Y152048D02*
X265972D01*
X260412D02*
Y163513D01*
X265972D01*
X269614Y138926D02*
Y150209D01*
X263857Y138926D02*
X269614D01*
X263857D02*
Y150209D01*
X269614D01*
X272149Y202293D02*
Y212948D01*
X278645D01*
Y202293D02*
Y212948D01*
X272149Y202293D02*
X278645D01*
X289783Y150419D02*
Y167184D01*
X279908Y150419D02*
X289783D01*
X279908D02*
Y167184D01*
X289783D01*
X259771Y201585D02*
Y212868D01*
X254015Y201585D02*
X259771D01*
X254015D02*
Y212868D01*
X259771D01*
X261350Y262499D02*
X267650D01*
X261350Y249901D02*
Y262499D01*
Y249901D02*
X267650D01*
Y262499D01*
X265062Y202293D02*
Y212948D01*
X271558D01*
Y202293D02*
Y212948D01*
X265062Y202293D02*
X271558D01*
X287782Y169649D02*
X297657D01*
X287782Y152885D02*
Y169649D01*
Y152885D02*
X297657D01*
Y169649D01*
X34058Y402109D02*
Y411557D01*
X38783D01*
Y402109D02*
Y411557D01*
X34058Y402109D02*
X38783D01*
X43113Y423369D02*
X52562D01*
Y418644D02*
Y423369D01*
X43113Y418644D02*
X52562D01*
X43113D02*
Y423369D01*
X82090D02*
X91539D01*
Y418644D02*
Y423369D01*
X82090Y418644D02*
X91539D01*
X82090D02*
Y423369D01*
X239472Y389593D02*
Y400248D01*
X245968D01*
Y389593D02*
Y400248D01*
X239472Y389593D02*
X245968D01*
X296558Y389009D02*
X303054D01*
Y399664D01*
X296558D02*
X303054D01*
X296558Y389009D02*
Y399664D01*
M02*
