G04*
G04 #@! TF.GenerationSoftware,Altium Limited,Altium Designer,21.8.1 (53)*
G04*
G04 Layer_Color=32768*
%FSLAX25Y25*%
%MOIN*%
G70*
G04*
G04 #@! TF.SameCoordinates,81EC3893-84E7-45D1-AE65-2CF239B2E5AD*
G04*
G04*
G04 #@! TF.FilePolarity,Positive*
G04*
G01*
G75*
%ADD11C,0.00394*%
%ADD142C,0.00197*%
D11*
X229728Y271695D02*
X259255D01*
X229728Y304766D02*
X259255D01*
X229728Y271695D02*
Y304766D01*
X259255Y271695D02*
Y304766D01*
X244491Y286262D02*
Y290199D01*
X242523Y288231D02*
X246460D01*
X348739Y272435D02*
X378267D01*
X348739Y305505D02*
X378267D01*
X348739Y272435D02*
Y305505D01*
X378267Y272435D02*
Y305505D01*
X363503Y287002D02*
Y290939D01*
X361535Y288970D02*
X365472D01*
X302067Y287205D02*
X306004D01*
X304035Y285236D02*
Y289173D01*
X318799Y270669D02*
Y303740D01*
X289272Y270669D02*
Y303740D01*
X318799D01*
X289272Y270669D02*
X318799D01*
X256893Y84491D02*
X286420D01*
X256893Y117561D02*
X286420D01*
X256893Y84491D02*
Y117561D01*
X286420Y84491D02*
Y117561D01*
X271657Y99058D02*
Y102995D01*
X269688Y101026D02*
X273625D01*
X351692Y339167D02*
Y343104D01*
X349724Y341135D02*
X353661D01*
X366539Y249746D02*
Y253487D01*
X364668Y251617D02*
X368409D01*
X308271Y250140D02*
Y253880D01*
X306401Y252010D02*
X310141D01*
X248327Y251476D02*
Y255217D01*
X246457Y253346D02*
X250197D01*
X198035Y161951D02*
Y165691D01*
X196165Y163821D02*
X199905D01*
X220869Y189412D02*
X224806D01*
X222838Y187443D02*
Y191380D01*
X320869Y357522D02*
Y361459D01*
X318901Y359491D02*
X322838D01*
X47641Y346892D02*
Y350829D01*
X45672Y348861D02*
X49609D01*
X86224Y346498D02*
Y350435D01*
X84255Y348467D02*
X88192D01*
X22050Y323270D02*
X25987D01*
X24019Y321302D02*
Y325239D01*
X162335Y47243D02*
X166272D01*
X164303Y45275D02*
Y49212D01*
X169444Y18773D02*
Y22513D01*
X167574Y20643D02*
X171314D01*
X167913Y24902D02*
Y28839D01*
X165945Y26870D02*
X169882D01*
X380318Y35868D02*
X384255D01*
X382287Y33900D02*
Y37837D01*
X219492Y8928D02*
X223429D01*
X221461Y6960D02*
Y10897D01*
X203935Y131943D02*
X207872D01*
X205904Y129975D02*
Y133912D01*
X227003Y38659D02*
Y40628D01*
X226019Y39643D02*
X227987D01*
X213503Y38759D02*
Y40728D01*
X212519Y39743D02*
X214487D01*
X288980Y337837D02*
Y341774D01*
X287011Y339806D02*
X290948D01*
X261027Y356735D02*
Y360672D01*
X259058Y358703D02*
X262995D01*
X385200Y357916D02*
Y361853D01*
X383231Y359884D02*
X387169D01*
X305515Y41380D02*
Y45317D01*
X303547Y43349D02*
X307484D01*
X192917Y161951D02*
Y165691D01*
X191047Y163821D02*
X194787D01*
X250791Y261558D02*
Y265298D01*
X248920Y263428D02*
X252661D01*
X254235Y187837D02*
X257976D01*
X256105Y185967D02*
Y189707D01*
X264668Y192955D02*
X268409D01*
X266539Y191085D02*
Y194825D01*
X254235Y193447D02*
X257976D01*
X256105Y191577D02*
Y195317D01*
X311027Y259392D02*
Y263132D01*
X309157Y261262D02*
X312897D01*
X232287Y337050D02*
Y340987D01*
X230318Y339018D02*
X234255D01*
X366637Y261065D02*
X370377D01*
X368507Y259195D02*
Y262935D01*
X187968Y144743D02*
X191511D01*
X189739Y142972D02*
Y146515D01*
X219468Y145243D02*
X223011D01*
X221239Y143472D02*
Y147015D01*
X257188Y62640D02*
X260928D01*
X259058Y60770D02*
Y64510D01*
X270633Y64243D02*
X274373D01*
X272503Y62373D02*
Y66113D01*
D142*
X343818Y337395D02*
X359566D01*
X343818Y344876D02*
X359566D01*
Y337395D02*
Y344876D01*
X343818Y337395D02*
Y344876D01*
X363586Y246498D02*
X369491D01*
X363586Y256735D02*
X369491D01*
X363586Y246498D02*
Y256735D01*
X369491Y246498D02*
Y256735D01*
X305318Y246892D02*
X311224D01*
X305318Y257128D02*
X311224D01*
X305318Y246892D02*
Y257128D01*
X311224Y246892D02*
Y257128D01*
X245374Y248228D02*
X251279D01*
X245374Y258465D02*
X251279D01*
X245374Y248228D02*
Y258465D01*
X251279Y248228D02*
Y258465D01*
X195082Y158703D02*
X200987D01*
X195082Y168939D02*
X200987D01*
X195082Y158703D02*
Y168939D01*
X200987Y158703D02*
Y168939D01*
X194491Y161065D02*
Y217758D01*
X251184Y161065D02*
Y217758D01*
X194491D02*
X251184D01*
X194491Y161065D02*
X251184D01*
X305476Y364786D02*
X336263D01*
X305476Y354195D02*
Y364786D01*
X336263Y354195D02*
Y364786D01*
X305476Y354195D02*
X336263D01*
X150397Y334491D02*
Y363920D01*
X117326D02*
X150397D01*
X117326Y334491D02*
Y363920D01*
Y334491D02*
X150397D01*
X133861Y348861D02*
Y352798D01*
X131893Y350829D02*
X135830D01*
X29039Y366774D02*
X66243D01*
X29039Y344333D02*
X66243D01*
Y366774D01*
X29039Y344333D02*
Y366774D01*
X67621Y366380D02*
X104826D01*
X67621Y343939D02*
X104826D01*
Y366380D01*
X67621Y343939D02*
Y366380D01*
X6106Y304668D02*
Y341872D01*
X28546Y304668D02*
Y341872D01*
X6106D02*
X28546D01*
X6106Y304668D02*
X28546D01*
X257035Y26343D02*
X260972D01*
X259003Y24375D02*
Y28312D01*
X242468Y42682D02*
X275539D01*
Y13253D02*
Y42682D01*
X242468Y13253D02*
X275539D01*
X242468D02*
Y42682D01*
X152098Y31102D02*
X176508D01*
Y63385D01*
X152098D02*
X176508D01*
X152098Y31102D02*
Y63385D01*
X164326Y23596D02*
X174562D01*
X164326Y17691D02*
X174562D01*
X164326D02*
Y23596D01*
X174562Y17691D02*
Y23596D01*
X416921Y189365D02*
X429086D01*
Y242121D01*
X416921D02*
X429086D01*
X416921Y189365D02*
Y242121D01*
X421035Y215743D02*
X424972D01*
X423003Y213775D02*
Y217712D01*
X160039Y30610D02*
X175787D01*
X160039Y23130D02*
X175787D01*
X160039D02*
Y30610D01*
X175787Y23130D02*
Y30610D01*
X354334Y2994D02*
Y66774D01*
Y2994D02*
X410239D01*
X354334Y66774D02*
X410239D01*
Y2994D02*
Y66774D01*
X204925Y17491D02*
X237996D01*
Y-6820D02*
Y17491D01*
X204925Y-6820D02*
X237996D01*
X204925D02*
Y17491D01*
X175983Y142180D02*
X235825D01*
X175983Y121707D02*
Y142180D01*
Y121707D02*
X235825D01*
Y142180D01*
X232397Y37675D02*
Y41612D01*
X221609D02*
X232397D01*
X221609Y37675D02*
X232397D01*
X221609D02*
Y41612D01*
X208109Y37775D02*
Y41712D01*
Y37775D02*
X218897D01*
X208109Y41712D02*
X218897D01*
Y37775D02*
Y41712D01*
X281105Y336065D02*
X296853D01*
X281105Y343546D02*
X296853D01*
Y336065D02*
Y343546D01*
X281105Y336065D02*
Y343546D01*
X202562Y350829D02*
X206499D01*
X204531Y348861D02*
Y352798D01*
X187995Y334491D02*
X221066D01*
X187995D02*
Y363920D01*
X221066D01*
Y334491D02*
Y363920D01*
X245633Y363998D02*
X276420D01*
X245633Y353408D02*
Y363998D01*
X276420Y353408D02*
Y363998D01*
X245633Y353408D02*
X276420D01*
X23207Y102090D02*
Y135357D01*
X1435D02*
X23207D01*
X1435Y102090D02*
Y135357D01*
Y102090D02*
X23207D01*
X15303Y201075D02*
Y205012D01*
X13335Y203043D02*
X17272D01*
X9221Y171665D02*
X21386D01*
Y234421D01*
X9221D02*
X21386D01*
X9221Y171665D02*
Y234421D01*
X369806Y365179D02*
X400594D01*
X369806Y354589D02*
Y365179D01*
X400594Y354589D02*
Y365179D01*
X369806Y354589D02*
X400594D01*
X287405Y58506D02*
X327365D01*
Y829D02*
Y58506D01*
X287405Y829D02*
Y58506D01*
Y829D02*
X327365D01*
X58071Y272933D02*
X63976D01*
X58071Y261122D02*
X63976D01*
Y272933D01*
X58071Y261122D02*
Y272933D01*
X61024Y265158D02*
Y268898D01*
X59153Y267028D02*
X62894D01*
X173298Y177291D02*
Y183196D01*
X185109Y177291D02*
Y183196D01*
X173298D02*
X185109D01*
X173298Y177291D02*
X185109D01*
X177333Y180243D02*
X181073D01*
X179203Y178373D02*
Y182113D01*
X189964Y158703D02*
X195869D01*
X189964Y168939D02*
X195869D01*
X189964Y158703D02*
Y168939D01*
X195869Y158703D02*
Y168939D01*
X247838Y258309D02*
X253743D01*
X247838Y268546D02*
X253743D01*
X247838Y258309D02*
Y268546D01*
X253743Y258309D02*
Y268546D01*
X250987Y184884D02*
Y190790D01*
X261224Y184884D02*
Y190790D01*
X250987D02*
X261224D01*
X250987Y184884D02*
X261224D01*
X261420Y190002D02*
Y195908D01*
X271657Y190002D02*
Y195908D01*
X261420D02*
X271657D01*
X261420Y190002D02*
X271657D01*
X261224Y190495D02*
Y196400D01*
X250987Y190495D02*
Y196400D01*
Y190495D02*
X261224D01*
X250987Y196400D02*
X261224D01*
X308074Y256144D02*
X313980D01*
X308074Y266380D02*
X313980D01*
X308074Y256144D02*
Y266380D01*
X313980Y256144D02*
Y266380D01*
X224413Y335278D02*
X240161D01*
X224413Y342758D02*
X240161D01*
Y335278D02*
Y342758D01*
X224413Y335278D02*
Y342758D01*
X371460Y255947D02*
Y266183D01*
X365554Y255947D02*
Y266183D01*
X371460D01*
X365554Y255947D02*
X371460D01*
X167326Y350829D02*
X171263D01*
X169295Y348861D02*
Y352798D01*
X152759Y334491D02*
X185830D01*
X152759D02*
Y363920D01*
X185830D01*
Y334491D02*
Y363920D01*
X185409Y142578D02*
Y146909D01*
X194070Y142578D02*
Y146909D01*
X185409D02*
X194070D01*
X185409Y142578D02*
X194070D01*
X225570Y143078D02*
Y147409D01*
X216909Y143078D02*
Y147409D01*
Y143078D02*
X225570D01*
X216909Y147409D02*
X225570D01*
X262011Y57522D02*
Y67758D01*
X256105Y57522D02*
Y67758D01*
X262011D01*
X256105Y57522D02*
X262011D01*
X275456Y59125D02*
Y69361D01*
X269550Y59125D02*
Y69361D01*
X275456D01*
X269550Y59125D02*
X275456D01*
X28842Y323270D02*
X32582D01*
X30712Y321400D02*
Y325140D01*
X33665Y317365D02*
Y329176D01*
X27759Y317365D02*
Y329176D01*
X33665D01*
X27759Y317365D02*
X33665D01*
X41735Y338821D02*
Y344727D01*
X53547Y338821D02*
Y344727D01*
X41735D02*
X53547D01*
X41735Y338821D02*
X53547D01*
X45771Y341774D02*
X49511D01*
X47641Y339904D02*
Y343644D01*
X86617Y340298D02*
Y344038D01*
X84747Y342168D02*
X88487D01*
X80712Y339215D02*
X92523D01*
X80712Y345121D02*
X92523D01*
Y339215D02*
Y345121D01*
X80712Y339215D02*
Y345121D01*
M02*
