G04*
G04 #@! TF.GenerationSoftware,Altium Limited,Altium Designer,21.8.1 (53)*
G04*
G04 Layer_Color=16711935*
%FSLAX25Y25*%
%MOIN*%
G70*
G04*
G04 #@! TF.SameCoordinates,BF354A56-4256-46FB-B051-6EC6D42A8B0B*
G04*
G04*
G04 #@! TF.FilePolarity,Positive*
G04*
G01*
G75*
%ADD15C,0.00591*%
%ADD143C,0.00197*%
D15*
X298035Y406636D02*
Y414904D01*
X289767Y406636D02*
X298035D01*
X289767D02*
Y414904D01*
X298035D01*
X232680Y415298D02*
X240948D01*
X232680Y407030D02*
Y415298D01*
Y407030D02*
X240948D01*
Y415298D01*
X352040Y415101D02*
X360308D01*
X352040Y406833D02*
Y415101D01*
Y406833D02*
X360308D01*
Y415101D01*
D143*
X295869Y410770D02*
X294229D01*
X293901Y410442D01*
Y409786D01*
X294229Y409458D01*
X295869D01*
Y407490D02*
Y408802D01*
X294885D01*
X295213Y408146D01*
Y407818D01*
X294885Y407490D01*
X294229D01*
X293901Y407818D01*
Y408474D01*
X294229Y408802D01*
X238782Y411164D02*
X237142D01*
X236814Y410836D01*
Y410180D01*
X237142Y409852D01*
X238782D01*
X238454Y409196D02*
X238782Y408868D01*
Y408212D01*
X238454Y407884D01*
X238126D01*
X237798Y408212D01*
Y408540D01*
Y408212D01*
X237470Y407884D01*
X237142D01*
X236814Y408212D01*
Y408868D01*
X237142Y409196D01*
X358142Y410967D02*
X356502D01*
X356174Y410639D01*
Y409983D01*
X356502Y409655D01*
X358142D01*
Y408999D02*
Y407687D01*
X357814D01*
X356502Y408999D01*
X356174D01*
M02*
